<?xml version="1.0" encoding="utf-8"?>
<!-- Generator: Adobe Illustrator 25.1.0, SVG Export Plug-In . SVG Version: 6.00 Build 0)  -->
<svg version="1.1" id="Calque_1" xmlns="http://www.w3.org/2000/svg" xmlns:xlink="http://www.w3.org/1999/xlink" x="0px" y="0px"
	 viewBox="0 0 1920 1080" style="enable-background:new 0 0 1920 1080;" xml:space="preserve">
<style type="text/css">
	.st0{fill:none;stroke:#A87D4D;stroke-width:3;stroke-miterlimit:10;}
	.st1{fill:none;stroke:#A87D4D;stroke-width:3.0112;stroke-linecap:round;stroke-linejoin:round;stroke-miterlimit:10;}
</style>
<circle class="st0" cx="960.4" cy="539.7" r="207.1"/>
<path class="st1" d="M876.1,511.7c-8-1.5-14.9-5.6-22-9.4c-5.2-2.8-10.4-5.4-15.9-7.5c-14.1-5.5-21.7,4.4-24.7,14
	c-2.8,8.8,0.1,17,3.1,25.1c4.7,12.8,10.8,25,13.8,38.4c2.6,11.2,0.9,21.1-6.7,29.8c-1.6,1.9-2.9,4.1-4.3,6.2c-0.7,1-1,2.3-1.9,3.2
	c-3.5,6.3-4.9,13.3-6.3,20.3c-1.3,3.4-1.4,6.9-1.3,10.4c0.2,11-0.5,21.9,0.4,32.9c0.1,1.2,0.1,2.4-0.7,3.4c-0.7,0.7-1.5,0.7-2.3,0.3
	c-1.2-1-1.6-2.7-3.2-3.4c-7.5-6.3-12.4-14.6-17.6-22.7c-12-18.6-20.6-38.8-25.9-60.3c-3-12.1-5.8-24.4-5.3-37.1c0-9.4,0-18.7,0-28
	c0-20.7,5.2-40.3,12.1-59.5c8.9-24.5,22.3-46.3,39.4-65.9c13.5-15.4,29.1-28.2,46.5-38.8c4.5-2.7,8.8-5.6,13.6-7.7
	c1.7-0.7,13.5-6.6,14.7-7c18.9-8,38.7-12.7,59-15c6.4-0.7,13-2,19.3,1c-1.1,5.7-4.8,9.9-8.3,14.2c-4.4,5.5-8.8,11-13.4,16.3
	c-7.9,9-7.2,19.1-4.4,29.6c2.4,8.8,6.8,16.9,10,25.4c0.7,2,1.2,3.9,1.1,5.9c0.7,4.3,1.5,8.5,0,12.8c0.2,4.7-2.6,8.4-4.4,12.2
	c-7.4,15.4-16.5,29.7-28.9,41.5c-8.6,8.2-17.6,16.1-29.5,19.5C880.1,512.9,878.1,512.9,876.1,511.7z"/>
<path class="st1" d="M965.8,505.2c0,0-6.3,16.5-21.7,20.4c0,0-27.3,10.4-29.4,11.4c-2,1-14.3,5-11.3,13.2c0,0,1.9,4.8,6.1,5.9
	s12.4,10,12.7,18.9c0.3,8.9-0.9,19.6,1.5,22.2c2.5,2.6,10.6-2.8,10.6-2.8s17.2-7.7,30.9-1.6c0,0,16.3,2.5,25.2,6.8
	c8.9,4.3,20.4,9.7,21.3-1.2c0.9-10.9,5.9-14.6,5.9-14.6s27.6-12,24.2-27.8s-8-21.7-15.8-27.2c-7.8-5.5-24.8-11.3-28-15.1
	c0,0-19.6-13.2-20.9-17.5c-1.4-4.3-9.5-6.6-9.3,1.6L965.8,505.2z"/>
<path class="st1" d="M889.3,731.6c0,0,1.4-19.9-14.2-17.1c-15.6,2.8-32.7-22.6-32.7-22.6s-14.6-27.7,0.8-32.6
	c15.4-4.9,65.6-18.5,82.6-10.9c0,0,15.4,1,29.7,18.8c14.3,17.7,52.1,29.7,52.1,29.7s24.3,10.5,15.2,30.7c0,0-7,10.6-23.9,9.8
	c-16.8-0.8-15.8,5.5-15.8,5.5S917,751.9,889.3,731.6z"/>
<path class="st1" d="M1078.7,372.9c0,0-38.9,2.2-56-14.8c0,0-34.1-12.2-42.9-13.6c-8.8-1.5,6.1,24,6.1,24l74.2,82.4
	c0,0,4.7,20.4,26.6,28.4c21.9,8,53.3,26.2,53.3,26.2s8.6,9.4-9.4,13.5c-18,4.1-43.8,29.7-41.6,42.1c2.2,12.4-2.2,19.1,14.2,24.5
	c16.4,5.5,34,10.5,21.7,27.5c-12.3,17.1-71.5,89.2-69.2,111.5c0,0,104.9-42.8,111.6-182.4C1167.3,542.2,1171.2,433.2,1078.7,372.9z"
	/>
<path class="st1" d="M1025,557.3c0,0,174,24.6,235.4-9c0,0,13-5.7-2-17.3"/>
<polyline class="st1" points="1263.8,526.6 1253,531.2 1259.6,538.7 "/>
<g>
	<polygon class="st1" points="1193,500.9 1253.1,498.4 1243.1,508.2 1239.3,525.1 1230.2,521.2 1223.1,526.7 	"/>
	<line class="st1" x1="1222.7" y1="526.3" x2="1235.3" y2="513.1"/>
	<polyline class="st1" points="1239.3,525.1 1235.7,512.5 1194.6,501.2 1243.1,508.2 	"/>
</g>
</svg>
