<?xml version="1.0" encoding="utf-8"?>
<!-- Generator: Adobe Illustrator 25.1.0, SVG Export Plug-In . SVG Version: 6.00 Build 0)  -->
<svg version="1.1" id="Calque_1" xmlns="http://www.w3.org/2000/svg" xmlns:xlink="http://www.w3.org/1999/xlink" x="0px" y="0px"
	 viewBox="0 0 607.6 462.5" style="enable-background:new 0 0 607.6 462.5;" xml:space="preserve">
<style type="text/css">
	.st0{fill:#E5BE9E;}
	.st1{fill:#19935C;}
	.st2{fill:#004C26;}
	.st3{fill:#006836;}
	.st4{fill:#FFFFFF;}
	.st5{fill:#B25E26;}
	.st6{fill:#D3803C;}
	.st7{fill:#662704;}
	.st8{fill:#A0A0A0;}
	.st9{fill:#7C7C7C;}
	.st10{fill:#D8D8D8;}
	.st11{fill:#FFAF2E;}
	.st12{fill:#E27600;}
	.st13{fill:#FF6695;}
	.st14{fill:#FFEB76;}
	.st15{fill:#FFCF48;}
	.st16{fill:#6D6D6D;}
	.st17{fill:#C6C6C6;}
	.st18{fill:#CCCCCC;}
	.st19{fill:#F987B6;}
	.st20{fill:#CE3A6F;}
	.st21{fill:#CECECE;}
	.st22{fill:#565656;}
	.st23{fill:#F77CA9;}
	.st24{fill:#723100;}
	.st25{fill:#E8D09C;}
	.st26{fill:#6B5738;}
	.st27{fill:#69C498;}
	.st28{fill:#FF8B2C;}
	.st29{fill:#B2B2B2;}
	.st30{fill:#848484;}
	.st31{fill:#726359;}
	.st32{fill:#CABAAB;}
	.st33{fill:#E8E2DD;}
	.st34{fill:#D3BD90;}
	.st35{fill:#EAAD8B;}
	.st36{fill:#CEB78A;}
	.st37{fill:#EAE4DC;}
	.st38{fill:#7F7870;}
	.st39{fill:#84AFD3;}
	.st40{fill:#5F94B7;}
	.st41{fill:#D37E02;}
</style>
<g>
	<path class="st0" d="M509.3,434.7c-35.3-7.1-66.8-20.7-94.3-41.1c-27.6-20.3-49.1-45.2-64.5-74.8s-23.2-60.7-23.2-93.3
		c0-32.2,7.1-62.7,21.2-91.4s33.8-53.4,58.9-74.1s54-35.3,86.7-43.7c19.8-5.3,40.1-7.9,60.9-7.9h41.7v54.9h-40.4
		c-8,0-17,0.5-27.2,1.3C519,65.5,508,68.1,496,72.5c-21.2,7.5-40.2,18.9-57.3,34.1c-17,15.2-30.3,33.2-40,54s-14.5,42.2-14.5,64.2
		c0,21.2,4.5,41.8,13.6,61.9c9,20.1,22.1,37.7,39.4,53c17.2,15.2,36.9,27,58.9,35.4c12,4,22.8,6.4,32.8,7.3
		c9.9,0.9,19.1,1.3,27.5,1.3h40.4v55H555C539.5,438.6,524.3,437.3,509.3,434.7z"/>
</g>
<g>
	<path class="st8" d="M192.5,401.4c-2.3-0.5-3.9,1.1-5.6,2c-6.8,3.3-13.7,6.5-20.9,8.7c-25.7,7.7-50.8,6.6-75-5.8
		c-7.7-3.9-14.6-9-20.9-14.9c-7.9-7.5-14.7-15.9-20.4-25.2c-5-8.1-8.4-16.8-8.9-26.5c-0.2-4.7,0.1-9.4,2.1-13.8
		c3.1-6.7,9.4-8.7,15.2-7c3.7,1.1,6.7,3,9,6c2.5,3.2,4.6,6.8,6.2,10.6c2.2,5.5,4.2,11.1,6.2,16.6c2.1,5.7,4,11.6,6.5,17.2
		c8.9,19.3,24.1,30.6,44.9,34.1c8,1.4,15.9,0.2,23.5-2.5c3.9-1.4,7.6-3,11.1-5.2c6.6-4.1,13.1-8.4,19.7-12.5c1.4-0.9,1.9-2.1,2-3.6
		c0.3-4.5,0.6-9,1.3-13.4c2.6-15.3,7.8-29.6,15.7-42.9c2.9-4.9,6-9.7,9.3-14.4c11.1-15.9,17.1-33.8,20.6-52.7
		c0.5-2.8,1.4-5.5,0.9-8.7c-2.4-0.3-4.4,0.7-6.4,1.6c-3.4,1.4-6.7,3.1-10,4.6c-1.7,0.8-3,0-2.9-1.7c0.1-1.4,0.3-2.8,0.6-4.2
		c2.2-11.5,5.2-22.7,10.1-33.4c0.4-0.8,1.1-1.7,0.6-2.9c-1.9-0.5-3.4,1-5.1,1.4c-1,0.3-2,0.7-2.8-0.2c-0.8-1-0.3-1.9,0.1-2.9
		c1.5-3.6,2.8-7.2,4.5-10.8c2.1-4.4,4.4-8.8,6.7-13.1c0.8-1.5,1-2.9,0.4-4.6c-1.9-5.8-3.7-11.7-5.5-17.5c-0.3-1-0.5-2-0.6-3
		c-0.1-0.8,0.5-1.1,1.1-1.3c1.4-0.4,2.8,0,4.2,0.4c4.5,1.2,9.1,2.4,13.6,3.8c2.9,0.9,5.4,0.8,8.3-0.4c7.5-3.2,15.5-5.1,23.6-6.5
		c12.9-2.2,25.3-0.2,37.1,5.1c4.1,1.8,7.5,2,11.6,0.5c3.8-1.5,7.6-2.9,11.8-3.3c2.1-0.2,3.1,0.7,2.9,2.8c-0.2,2-0.5,4.1-0.9,6.1
		c-1.5,7.4-3,14.8-4.7,22.2c-0.4,1.8-0.3,3.1,0.8,4.6c1.8,2.5,3.6,5,5.2,7.6c4.8,7.4,8.6,15.3,10.9,23.9c0.2,0.8,0.5,1.6,0.6,2.4
		c0.3,1.8-0.5,2.8-2.3,2.7c-3.2-0.3-6.4-0.8-9.6-1.2c-0.3,1.4,0.6,2,1.3,2.7c2.5,2.4,5.1,4.8,7.6,7.2c0.9,0.8,1.7,1.8,2.5,2.7
		c1,1.3,0.6,2.9-0.9,3.4c-2.1,0.7-4.3,1.2-6.5,1.7c-8.7,2.1-7.7,0.9-6.6,9.5c1,7.5,3.3,14.7,5.4,22c5.3,18.5,10.7,36.9,15.9,55.4
		c2.5,8.7,3.9,17.6,4.2,26.6c0.5,12.4-1.6,24.4-6.2,36c-3.5,8.8-4.2,7.1,1.2,14.9c1.4,2,2.6,4.2,3.2,6.6c1.3,5.2-1.8,9.5-7.2,9.8
		c-2.7,0.2-5.3-0.1-7.8-1.2c-4-1.7-8.1-3-11.8-5c-5.9-3.2-12.3-4.4-18.8-4.8c-10.6-0.6-21.2-1-31.8-1.6c-17.5-1-35.1-1.2-52.6-3.2
		c-5-0.6-9.7-0.1-14.3,2.1c-4.8,2.3-9.7,4.4-15,5.3c-2,0.4-4,0.6-6.1,0c-4.1-1.2-6-4.2-5-8.4c0.6-2.4,1.5-4.7,2.3-7
		c0.4-1.1,1.1-2.2,0.6-3.5c0.8-0.3,0.1,0.7,0.5,0c0.2-0.4,0.1-0.6-0.4-0.4C191.8,401.3,192.8,400.7,192.5,401.4z"/>
	<path class="st9" d="M239.9,426.8c-2.3,1.2-2.8,3.1-4.1,4.4c-0.8,0.8-1.7,1.2-2.8,0.9c-1.2-0.3-1.5-1.2-1.8-2.2
		c-0.4-1.5,0-3.3-1.2-4.7c-2.1,0.8-2.6,3-4.2,4.3c-1.2,1-2.5,1.4-4,0.6c-1.4-0.7-2.1-1.9-1.8-3.5c0.2-1.4,0.6-2.8,1-4.2
		c7.1-25.4,13.1-51,19.3-76.6c0.7-3,1.7-5.9,2.7-8.7c0.6-1.7,2.2-2.4,3.9-2.3c1.2,0.1,2.4,0.4,3.6,0.7c6.5,1.9,12.9,3.8,19.4,5.7
		c0.8,0.2,1.6,0.5,2.3,0.9c1.5,0.7,2.1,1.9,1.7,3.5c-0.3,1.2-0.6,2.4-1,3.5c-8.5,26.2-16.9,52.4-25.4,78.7c-0.4,1.4-0.9,2.7-1.5,4
		c-0.5,1-1.4,1.5-2.5,1.5c-1.4,0-2.4-0.7-2.9-1.9C240.4,430.1,240.3,428.6,239.9,426.8z"/>
	<path class="st9" d="M290.8,398.9c0.9-17.3,1.6-34.7,3.7-51.9c0.8-6.5,1.4-7.1,8.1-6.8c5.3,0.3,10.6,0.7,15.9,1
		c0.4,0,0.8,0,1.2,0.1c4.6,0.6,5.7,1.7,5.4,6.3c-0.5,6.3-1,12.6-1.6,18.9c-1.7,17.5-3.9,34.9-7.1,52.1c-0.6,3.2-1.4,6.4-2.3,9.5
		c-0.3,1.2-0.8,2.3-1.4,3.4c-1.7,2.9-3.8,3.3-6.5,1.2c-0.5-0.4-0.8-0.9-1.2-1.4c-0.7-0.7-1.5-0.5-2,0.2c-1.1,1.4-2.8,2.6-4.2,1.3
		c-2-1.9-3.6-1.8-5.8-0.6c-0.9,0.5-1.9-0.3-2.5-1.3c-0.9-1.5-0.9-3.1-0.9-4.8c0.1-3.9,0.2-7.8,0.4-11.6
		C290.3,409.5,290.5,404.2,290.8,398.9z"/>
	<path class="st10" d="M316,293.5c-1.8,0.1-3.7,0.3-5.5,0.3c-1.8,0-3.1-0.9-3.2-2.2c-0.2-1.6,1-2.8,3.1-3c2.4-0.2,4.9-0.3,7.3-0.4
		c6.9-0.5,13.9-1,20.8-1.5c1.4-0.1,2.9-0.3,4.2,0.3c0.7,0.4,1.3,1,1.3,1.9c0,0.9-0.5,1.7-1.3,1.9c-1.6,0.4-3.2,0.8-4.8,0.9
		c-7.3,0.7-14.7,1.3-22,2C316,293.6,316,293.6,316,293.5z"/>
	<path class="st10" d="M240.4,295.4c-4.3-0.2-8.5-0.4-12.8-0.7c-1.2-0.1-2.4-0.3-3.5-0.7c-0.8-0.3-1.2-1.1-1.1-2
		c0.1-0.9,0.5-1.6,1.3-1.9c0.7-0.3,1.6-0.4,2.4-0.4c9.1,0.3,18.2,0.6,27.4,1c0.8,0,1.6,0.2,2.4,0.5c1,0.4,1.6,1.3,1.5,2.4
		c0,1.1-0.6,2-1.7,2.2c-1,0.2-2,0.2-3,0.2C249,295.8,244.7,295.6,240.4,295.4C240.4,295.4,240.4,295.4,240.4,295.4z"/>
	<path class="st10" d="M239.5,319c-8.8-0.7-16.7-1.4-24.6-2.1c-1.2-0.1-2.5-0.2-3.4-1.1c-0.6-0.6-0.9-1.4-0.6-2.2
		c0.2-0.5,0.7-1.1,1.2-1.3c0.7-0.3,1.6-0.4,2.4-0.3c7.7,0.4,15.5,0.8,23.2,1.3c1.8,0.1,3.6,0.5,5.4,1c1,0.3,1.6,1.2,1.7,2.3
		c0,1.1-1.1,2.3-2.3,2.4C241.2,319.1,239.9,319,239.5,319z"/>
	<path class="st10" d="M45.5,351.2c-1.3-0.1-2.1-0.5-2.5-1.2c-0.5-1-0.4-2.1,0.4-2.8c0.9-0.8,1.9-1.5,3-2
		c7.8-3.6,15.6-7.2,23.4-10.7c0.4-0.2,0.8-0.3,1.1-0.4c1.1-0.2,2,0,2.6,1c0.6,1,0.3,2-0.5,2.8c-0.6,0.6-1.3,1-2,1.4
		c-7.9,3.8-15.8,7.7-23.7,11.5C46.7,351,45.8,351.1,45.5,351.2z"/>
	<path class="st10" d="M329.1,318.1c-3,0-5.5,0.1-7.9,0c-1.4-0.1-2.3-1.1-2.3-2.3c0-1.4,0.9-2.2,2.2-2.5c0.6-0.1,1.2-0.2,1.8-0.2
		c8.3-0.4,16.6-0.9,24.9-1.3c0.4,0,0.8,0,1.2,0c2,0.1,3,0.8,3,2.2c-0.1,1.4-1,2.4-2.9,2.5C342.2,317,335.4,317.5,329.1,318.1z"/>
	<path class="st10" d="M80.7,358.4c1.1,0.3,1.8,0.6,2.2,1.4c0.3,0.8,0.2,1.6-0.4,2.2c-0.6,0.6-1.3,1-2,1.4
		c-7.2,3.8-14.4,7.5-21.6,11.2c-0.5,0.3-1.1,0.5-1.7,0.6c-1.1,0.2-1.9-0.3-2.5-1.3c-0.6-1-0.4-2,0.3-2.8c0.7-0.7,1.5-1.3,2.4-1.8
		c7.1-3.5,14.2-7,21.3-10.5C79.4,358.6,80.2,358.5,80.7,358.4z"/>
	<path d="M282.2,204c2,0,4,0.3,6,0.9c2.4,0.9,3.2,3.4,1.7,5.4c-1.7,2.1-4,3.3-6.4,4.4c-2.5,1.1-8.9-4.7-7.8-7.6
		c0.4-1,0.9-1.8,1.8-2.3C279,204.2,280.6,203.9,282.2,204z"/>
	<path class="st10" d="M286.8,165.7c-0.2,3.3-0.4,6.2-0.6,9c-0.1,1-0.3,2-0.6,3c-0.3,1.1-1.2,1.6-2.3,1.5c-1.2-0.1-1.9-0.8-2.2-1.8
		c-0.2-0.6-0.3-1.2-0.2-1.8c0.3-6.1,0.7-12.2,1.1-18.4c0-0.4,0.1-0.8,0.3-1.2c0.4-0.7,1-1.3,1.9-1.3c0.9,0,1.7,0.3,2,1.1
		c0.4,0.9,0.6,1.9,0.6,2.9C286.9,161.2,286.8,163.7,286.8,165.7z"/>
	<path class="st10" d="M332.4,257.6c1.6,0,3.1-0.2,3.7,1.6c0.4,1.4-0.7,2.8-2.9,3.2c-5.8,0.9-11.6,1.7-17.5,2.5
		c-0.6,0.1-1.2,0-1.8-0.2c-1-0.4-1.6-1.2-1.7-2.3c-0.1-0.9,0.4-1.6,1.1-2c0.7-0.4,1.5-0.7,2.3-0.8
		C321.2,258.8,326.9,258.2,332.4,257.6z"/>
	<path class="st10" d="M237.9,260.4c5.5,0.4,10.2,0.7,14.9,1.2c1,0.1,2,0.5,2.8,1c0.7,0.4,0.9,1.3,0.8,2.2c-0.1,0.9-0.7,1.5-1.5,1.7
		c-1,0.2-2,0.3-3,0.2c-5.5-0.4-11-1-16.5-1.5c-0.6-0.1-1.3-0.2-1.7-0.5c-0.6-0.5-1.2-1.1-1.1-2.1c0.1-0.9,0.6-1.7,1.3-1.9
		C235.4,260.5,237.1,260.5,237.9,260.4z"/>
	<path class="st10" d="M78.2,396.6c-1.5-0.1-2.6-1.7-2.2-2.8c0.3-0.7,0.7-1.5,1.3-2c4.2-3.8,8.5-7.6,12.8-11.4
		c0.3-0.3,0.7-0.4,1.1-0.6c0.8-0.4,1.6-0.2,2.2,0.4c0.9,0.8,0.9,1.7,0.5,2.8c-0.2,0.4-0.4,0.7-0.7,1c-4.2,3.9-8.3,7.8-12.5,11.7
		C79.8,396.4,78.9,396.7,78.2,396.6z"/>
	<path class="st10" d="M267.7,169.8c0.2,2,0.3,4.1,0.4,6.1c0.1,1-0.1,2-0.7,2.9c-0.8,1.2-2.9,1.4-3.6,0.2c-0.4-0.7-0.9-1.5-0.9-2.2
		c-0.1-5.1-0.1-10.2-0.1-15.3c0-0.6,0.3-1.2,0.6-1.7c0.4-0.8,1.1-1.2,2-1.1c0.9,0.1,1.6,0.6,1.8,1.4c0.3,1,0.4,2,0.4,3
		c0.1,2.2,0,4.5,0,6.7C267.6,169.8,267.6,169.8,267.7,169.8z"/>
	<path d="M213.4,215.9c3.6,0.5,7.4,0.9,11.3,1.4c8.9,1.2,17.8,2.4,26.7,3.6c0.4,0.1,0.8,0.2,1.2,0.3c0.5,0.1,0.7,0.4,0.7,0.8
		c0,0.9-0.6,0.9-1.2,1c-0.6,0.1-1.2,0-1.8-0.1c-12.2-1.5-24.3-3.1-36.5-4.6c-0.6-0.1-1.2-0.2-1.8-0.3c-0.6-0.2-1.1-0.4-1.2-1.1
		c-0.1-0.9,0.6-0.9,1.1-0.9C212.3,215.9,212.7,215.9,213.4,215.9z"/>
	<path class="st10" d="M298.1,167.9c0-2.4,0-4.9,0-7.3c0-1,0.3-2,0.9-2.8c0.7-0.9,2.7-0.8,3.2,0.2c0.3,0.5,0.6,1.1,0.6,1.7
		c-0.1,5.1-0.2,10.2-0.3,15.3c0,0.4-0.2,0.8-0.3,1.2c-0.5,1-1.2,1.7-2.4,1.6c-1.2,0-1.9-0.7-2.1-1.8c-0.2-1.4-0.2-2.8-0.1-4.2
		c0-1.2,0.2-2.4,0.2-3.7C298,167.9,298,167.9,298.1,167.9z"/>
	<path d="M327.6,214.5c-0.4-0.2-0.9-0.3-1-0.6c-0.1-0.6,0.1-1.3,0.8-1.4c3.2-0.7,6.4-1.3,9.6-1.9c9.2-1.7,18.4-3.5,27.6-5.2
		c0.8-0.1,1.6-0.1,2.4-0.1c0.2,0,0.5,0.2,0.5,0.3c-0.1,0.4-0.1,0.9-0.4,1.1c-0.5,0.3-1.1,0.5-1.7,0.7c-12.3,2.8-24.8,4.9-37.2,7.1
		C327.9,214.6,327.7,214.5,327.6,214.5z"/>
	<path d="M251.2,212.7c-0.1,0.2-0.2,0.3-0.3,0.4c-0.1,0.1-0.4,0.3-0.5,0.2c-0.6-0.2-1.2-0.3-1.7-0.6c-9.8-5.9-19.6-11.7-29.4-17.7
		c-1.7-1-4.3-1.3-4.3-4.2c2.3-0.6,3.7,1.3,5.3,2.3c7.9,4.6,15.8,9.4,23.6,14.2c2.3,1.4,4.4,2.9,6.6,4.4
		C250.9,211.9,251,212.4,251.2,212.7z"/>
	<path class="st10" d="M110.6,396.7c-0.1,0.4-0.1,1-0.4,1.5c-2.1,3.7-4.4,7.4-7.1,10.7c-0.5,0.7-1.3,1-2.1,1
		c-1.4,0.1-2.9-1.6-2.2-2.9c2.5-4.4,5.2-8.7,8.8-12.4c0.3-0.3,1.2-0.3,1.7-0.1C110.1,394.8,110.4,395.6,110.6,396.7z"/>
	<path d="M333.8,221c6,0.9,12.6,1.8,19.3,2.9c4.2,0.6,8.5,1.3,12.7,2c0.6,0.1,1.3,0.4,1,1.1c-0.2,0.4-1,0.8-1.4,0.8
		c-3.8-0.5-7.7-1.1-11.5-1.6c-6.5-0.9-12.9-1.8-19.4-2.8c-1-0.1-2-0.4-2.9-0.8c-0.3-0.1-0.5-0.7-0.5-1c0-0.3,0.5-0.5,0.8-0.6
		C332.3,220.9,332.7,221,333.8,221z"/>
	<path class="st4" d="M260.3,202.7c-3-0.1-5.3-2.2-5.3-4.8c0-2.5,2.6-4.9,5.2-5c2.6,0,5.1,2.4,5.2,5
		C265.6,200.7,263.3,202.8,260.3,202.7z"/>
	<path d="M215.6,236.9c-0.4,0-0.8,0-1.2-0.1c-0.3-0.1-0.8-0.4-0.8-0.7c0-0.3,0.2-0.8,0.5-1c0.5-0.3,1.1-0.5,1.7-0.6
		c8.9-1.2,17.8-2.4,26.7-3.6c1-0.1,2-0.3,3.1-0.2c0.8,0,2.2-0.7,2.3,0.8c0.1,0.9-1.1,1.1-1.9,1.2c-9.5,1.3-19,2.6-28.5,3.9
		C216.9,236.9,216.3,236.9,215.6,236.9z"/>
	<path d="M326.8,204.2c-0.1-0.2-0.3-0.3-0.4-0.5c-0.1-0.2-0.1-0.5,0-0.6c0.4-0.4,0.8-0.9,1.3-1.2c8.8-4.3,17.6-8.6,26.4-12.8
		c0.5-0.3,1.2-0.3,1.8-0.4c0.1,0,0.5,0.2,0.5,0.3c0,0.3,0.1,0.8-0.1,1c-0.4,0.4-0.9,0.8-1.5,1.1c-8.4,4.2-16.8,8.3-25.3,12.4
		C328.8,204,327.9,204.7,326.8,204.2z"/>
	<path d="M283.7,221.2c0,1,0,2,0,3.1c0,1.4,1.1,2.1,2.5,1.7c2-0.6,3.6-1.8,5.2-3.2c0.9-0.8,1.8-1.6,2.8-2.3c0.4-0.3,0.8-0.2,1,0.4
		c0.1,0.2,0.2,0.4,0.1,0.6c-2.6,6-11.3,9.1-17.2,6.1c-1.7-0.8-3.1-2-4.2-3.4c-0.3-0.4-0.6-1.3-0.4-1.7c0.6-1.1,1.3-0.2,1.9,0.2
		c0.3,0.2,0.6,0.6,0.9,0.8c1.2,1,2.5,2.7,4.1,2.2c2.2-0.7,1.2-3.1,1.5-4.8c0.1-0.8,0.1-1.6,0.2-2.4c0.1-0.6,0.1-1.3,0.9-1.3
		c1.2,0,1.1,1,1.1,1.7c0,0.8-0.1,1.6-0.1,2.4C283.9,221.2,283.8,221.2,283.7,221.2z"/>
	<path class="st4" d="M308.7,190.8c2.4,0,5,2.2,5.1,4.3c0.1,2.6-2.5,5-5.1,4.9c-2.6-0.1-4.6-2.1-4.6-4.7
		C304,193,306.2,190.9,308.7,190.8z"/>
	<path class="st10" d="M129.7,402.1c1.2,0,2.5,1.3,2.2,2.4c-1,3.5-2.2,7-3.4,10.4c-0.4,1.3-1.8,1.9-3,1.4c-1.3-0.5-1.9-1.6-1.6-2.9
		c0.8-3.6,2.2-7,3.8-10.3c0.2-0.3,0.5-0.6,0.9-0.8C128.9,402.3,129.3,402.2,129.7,402.1z"/>
	<path d="M262.8,202c-2,0.1-4-1.8-4-3.7c0-2,1.9-3.9,3.9-3.9c2,0,4,1.9,4.1,3.7C266.8,199.9,264.7,201.9,262.8,202z"/>
	<path d="M315,194.9c0,2-1.8,4-3.7,4.1c-2,0.1-3.5-1.3-3.6-3.3c-0.1-2.2,1.5-4,3.6-4C313.2,191.6,315,193.2,315,194.9z"/>
</g>
</svg>
