<?xml version="1.0" encoding="utf-8"?>
<!-- Generator: Adobe Illustrator 25.1.0, SVG Export Plug-In . SVG Version: 6.00 Build 0)  -->
<svg version="1.1" id="Calque_1" xmlns="http://www.w3.org/2000/svg" xmlns:xlink="http://www.w3.org/1999/xlink" x="0px" y="0px"
	 viewBox="0 0 607.6 462.5" style="enable-background:new 0 0 607.6 462.5;" xml:space="preserve">
<style type="text/css">
	.st0{fill:#E5BE9E;}
	.st1{fill:#19935C;}
	.st2{fill:#004C26;}
	.st3{fill:#006836;}
	.st4{fill:#FFFFFF;}
</style>
<g>
	<path class="st1" d="M354.3,440.6c-2.9,0.7-3.2,3.5-4.6,5.3c-1.4,1.9-2.6,4.3-5.4,3.7c-2.1-0.4-2.9-2.5-3.6-4.4
		c-0.7-2.2-0.6-4.7-3-6.4c-1.9,2.6-3.9,5.3-6,7.7c-1.4,1.7-4.2,1-5-1c-1.5-3.5-1.5-7.2-1.5-10.9c0-12.7,0.6-25.6,1.7-38.3
		c0.1-1.7,0.3-3.3,0.3-5c0-1.5-0.8-2.5-2.2-2.9c-0.3-0.1-0.7-0.1-1-0.3c-6.5-1.4-13.1-2.8-19.7-4.2c-4.2,5.7-4.3,12.6-6.2,18.8
		c-3.9,12.6-7.3,25.2-12,37.4c-1.4,3.5-2.6,6.9-5.4,9.5c-1.2,1.1-3.3,0.8-4.6-0.3c-1.7-1.7-0.7-4.6-3.3-6c-2.4,2.4-4.7,4.7-7.2,6.9
		c-1.9,1.7-4.8,0.6-5.5-1.9c-0.4-1.2-0.6-2.6-0.7-4c-0.3-1.2-0.1-2.6-1.4-3.7c-2.5-0.4-2.9,2.1-4.3,3.3c-1.2,1.1-2.4,2.5-3.6,3.5
		c-1.9,1.7-5.4,0.1-5.3-2.4c0.3-4.3,0.4-8.7,1.5-13c2.4-9.8,5.1-19.5,7.9-29.2c1.8-6.5,3.7-12.9,6.1-19.2c1.7-4.4,1-8.3-1.1-12.5
		c-9.5-17.9-18-36.1-25.6-54.8c-13.1-32.4-25.3-65.2-33.8-99.1c-0.4-1.7-0.8-3.3-1.2-4.8c-0.6-2.1-2.1-2.5-3.9-2.2
		c-2.6,0.6-5.3,1.1-7.9,1.8c-13.3,3.6-26.6,7.2-39.9,10.8c-4.3,1.1-8.6,1.8-13,1.4c-2.6-0.3-3.9-2.8-2.6-5.3
		c0.8-1.8,2.9-2.8,3.2-5.7c-1.9-1.1-4.2,0.1-6.4,0.1c-1.9,0-4.3,0.7-5.1-1.8c-0.8-2.2,1-3.7,2.4-5.1c1.4-1.4,3-2.6,4.4-4.2
		c0.7-0.7,0.8-1.7,1.2-2.6c-2.6-1.1-4.8,0.3-7.1,0.4c-2.1,0.1-4,0.4-6.1,0.6c-1.4,0-2.8-0.4-3.3-1.8s0-2.6,1.1-3.5
		c1.7-1.2,3.2-2.5,5-3.5c4.4-2.5,8.7-5.1,13.3-7.3c17.9-8.7,35.4-17.7,53.8-25.3c1.8-0.8,3.7-1.5,5.5-2.5c1.5-0.8,2.8-2.1,2.6-4
		c-0.6-10.8-1.1-21.4-1.8-32.2c0-1-0.6-1.9-1.1-2.8c-3-4-6.1-7.9-9-11.5c-3.2,0.8-3,3.2-3.9,4.8c-1.4,3-2.5,6.2-3.9,9.3
		c-1.5,3.5-3.5,4-6.2,1.7c-2.8-2.4-5.5-5-8.2-7.5c-1.5-1.4-2.9-2.8-4.8-4.6c-2.9,3.5-3.5,7.5-4.8,10.9c-6,15.2-6.5,12.5-16.5,4
		c-3.6-3-6.5-6.8-11.3-9c-2.9,5.1-5.7,10.1-8.4,15.1c-1.1,2.1-2.2,4.2-3.6,6.1c-1.1,1.5-2.9,1.8-4.4,0.4c-2.1-1.8-3.9-3.7-5.8-5.5
		c-1.2-1.2-2.2-2.5-3.5-3.6c-2.1-2.1-3.2-2.1-5,0c-2.4,2.9-4.6,5.8-6.8,8.7c-1.2,1.5-2.5,3.2-3.9,4.6c-0.7,0.7-1.8,1.1-2.8,0.4
		c-0.6-0.4-1.1-1-1.1-1.5c-0.3-4.7-0.6-9.4-0.6-14.1c0.1-6.6,0.7-13.3-1-20.1c-1.7-6.9,4.6-11.8,11.2-8.9c3.9,1.8,6.8,1.8,10.4-0.1
		c2.2-1.2,3.7-2.8,4.2-5.3c0.3-1.2,0.6-2.6,1.1-3.9c2.5-5.3,8-7.5,13.6-5.3c1.5,0.6,2.9,1.7,4.3,2.5c1.2,0.7,2.5,0.8,3.9,0.3
		c1-0.4,1.9-0.7,2.8-1.2c22.1-12,45.4-21.9,68.4-32.2c4.7-2.1,7.7-4.7,8.3-10.1c0.7-6.4,3.2-12.3,6.9-17.7
		c4.7-6.5,10.9-9.8,19.1-8.6c5.7,0.8,10.2,3.7,13,8.6c2.2,3.9,5,5.1,9.1,4.4c1.4-0.3,2.6-0.3,4-0.3c3.6,0.1,6.4-1,8.3-4.4
		c1.7-2.9,4.3-5.1,7.1-7.1c10.2-6.9,21.4-3.6,24.8,8.3c2.1,7.3,4.8,13.6,10.7,18.7c4,3.5,6.8,8.3,9.1,13.3
		c6.8,14.3,12.9,28.8,16.2,44.4c4.3,20.1,8.3,40.1,11.6,60.3c3.5,20.9,8.4,41.5,14.4,61.9c3.7,12.6,9.7,24.4,17.4,35
		c4.2,5.8,9.1,10.8,15.4,14.3c18,9.8,36.8,8.3,52.6-5c13.6-11.5,23.4-25.9,31.1-41.8c5.3-10.9,9.7-22.1,13.8-33.6
		c2.8-7.6,5.5-15.2,9.3-22.3c2.4-4.6,5.1-8.7,8.9-12.2c6.1-5.7,12.5-4.6,16.5,2.8c2.4,4.3,3,8.9,3.7,13.6
		c2.1,16.9,1.2,33.6-2.1,50.2c-6.1,31-17.3,60.1-34.2,86.8c-12.2,19.2-27.5,35.6-46.1,48.9c-17.2,12.3-36,21-56.6,25.3
		c-8.3,1.7-12.6,4.6-13.6,13.8c-1.2,11.6-4.4,23.1-7.1,34.6c-0.8,3.6-2.1,7.1-3.3,10.5c-0.6,1.5-1.5,2.9-2.6,4.3
		c-1.5,1.9-4.8,1.5-5.8-1C356,446.3,355.1,443.4,354.3,440.6z"/>
	<path class="st2" d="M436.5,269c2.2-2.6,1.2-5.7,1.5-8.7c0.4-4.3,0.4-8.7,1-13c0.3-2.9,1.9-4,5-3.6c5,0.6,10,1.5,14.9,2.1
		c3.9,0.6,5-0.6,4.6-4.3c-0.7-7.3-1.8-14.7-2.5-22c-0.4-4.3,0.4-5.5,4.6-6.2c3.6-0.6,7.3-0.8,10.9-1.4c1.2-0.3,2.5-1.2,1.7-2.9
		c-1-2.1-2.1-4.3-3-6.4c-1.7-3.3-3.3-6.6-4.8-10c-1.7-4-0.6-6.4,4-7.2c4.8-1,10-1.2,14.7-1.8c1.2-2.5,0-4.3-0.6-6.1
		c-1.9-5.7-4-11.5-5.7-17.2c-1-3,0.7-5.4,4-5.4c4.4-0.1,8.7-0.1,13.1,0.4c16.2,1.7,18-1.4,8.4,14.3c-4.4,7.2-7.5,14.9-10,23.1
		c-4.7,15.1-10.7,29.8-17.6,43.9c-7.9,15.9-19.4,29.2-32.8,40.5c-15.9,13.4-40,15.9-58.4,4.6c-10-6.2-18-14-23.8-24.1
		c-8.2-14.4-14.3-29.6-17.6-45.9c-2.5-12.9-5.8-25.6-7.5-38.6c-0.4-3.6-1.2-7.3-2.4-10.8c-6-19.1-10.4-38.5-14.3-57.8
		c-3.2-15.5-7.9-30.6-12.7-45.7c-1-2.9-1.7-5.8-2.2-8.7c-0.4-2.2,1-4.2,3.3-4c6.4,0.1,12.7,0.3,19.1,0.7c2.2,0.1,3.5,2.4,2.6,4.4
		c-1.2,3.2-2.6,6.2-4,9.3c-1.4,3-3,6-4.4,9c-1.1,2.4-0.6,3.7,2.1,4.7c4.4,1.7,8.9,3.2,13.3,4.7c2.8,1.1,5.7,2.2,8.4,3.5
		c2.1,1,2.6,3,1.1,5c-2.8,3.7-5.7,7.5-8.9,11.1c-5.8,6.6-6,6.6,2.5,11.2c4.4,2.4,8.9,5,13,7.6c3.3,2.1,3.5,3.5,1,6.5
		c-3.6,4.4-7.6,8.4-11.5,12.7c-1.9,2.1-1.8,3.5,0.8,4.6c3.3,1.7,6.8,3,10.1,4.6c2.2,1,4.3,1.8,6.4,2.9c2.9,1.5,3.5,3.7,1.5,6.6
		c-1.5,2.2-3.3,4.3-4.8,6.5c-2.8,4.4-7.6,7.5-8.4,13.1c3.5,3.9,8.3,5.5,12.5,8.3c3.6,2.4,7.5,4.6,11.1,6.9c2.9,1.9,3.3,3.7,1.2,6.8
		c-3.5,5-7.2,9.7-10.9,14.5c-7.5,9.7-7.5,9.7,4.3,13.1c5.5,1.5,10.9,3.2,16.3,5c2.2,0.7,2.8,2.9,1.8,5c-1.1,2.1-2.4,4.2-3.6,6.1
		c-1.5,2.2-3,4.4-4.6,6.6c-1,1.4-2.4,2.9-1.1,4.4c0.6,0.7,2.5,0.7,3.7,0.7c3.7-0.3,7.3-0.8,11.1-1.1c7.7-0.6,8.3,0,9.3,8
		c0.6,4.3,1,8.7,1.5,13c0.1,0.8,0.6,1.9,1.2,2.5c1.4,1,2.6-0.3,3.5-1.1c2.2-2.5,4.3-5.1,6.4-7.7c1.5-1.8,2.8-3.9,4.4-5.5
		c1.2-1.4,3-1.5,4.6-0.3c2.1,1.7,4,3.6,6.1,5.3C432.8,266.5,433.7,269,436.5,269z"/>
	<path class="st3" d="M271.1,249.5c-2.5,0.4-5.1,1.2-7.7,1.4c-3.5,0.3-5.8-1.9-6-5.4c0-1.9,0.4-4,0.7-6c-2.8-1.4-5.1,0.8-7.9,0.6
		c-2.6-0.3-4.4-2.4-3.5-4.8c1.1-2.8,2.2-5.7,4-8c14.8-20.3,30.4-40,49.4-56.9c4-3.6,8.4-6.5,13.6-8.4c7.1-2.6,13.1-1.2,18.5,3.7
		c5.7,5.3,9.3,11.3,6.6,19.7c-1.5,4.8-3.5,9.4-6,13.8c-12.2,20.8-27.7,38.6-46.1,54.1c-3,2.6-6.2,5.1-10.4,6c-2.1,0.4-4-0.8-4.6-2.8
		C271.3,254.1,272.9,251.7,271.1,249.5z"/>
	<path class="st2" d="M214,96.5c-5,5.4-9.1,9.8-13.3,14.1c-2.1,2.2-4.3,4.3-6.5,6.4c-1.1,1-2.5,0.7-3.7-0.1c-1.5-1.1-2.1-2.8-1-4.4
		c1.5-2.2,3.2-4.3,5-6.4c4.4-5,8.9-10.1,13.4-14.9c5.3-5.4,8.3-5.1,13.1,0.8c1.9,2.4,3.5,5,5.1,7.5c3,4.2,3.9,4.2,7.3-0.1
		c2.1-2.6,4-5.4,6.2-7.9c1.1-1.2,2.2-2.6,3.5-3.6c1.4-1.1,3-1.2,4.6,0.1c1.5,1.2,1.5,2.9,1.1,4.6c-0.1,0.7-0.6,1.2-1,1.8
		c-4.3,5.5-8.4,11.3-13,16.6c-3.7,4.4-7.2,4.2-10.8-0.4C220.9,106.3,217.9,101.7,214,96.5z"/>
	<path class="st4" d="M236.5,38.2c0.1,4.7-3,8.4-7.6,8.9c-4.4,0.4-8.2-3.3-8-8c0.1-4.8,3.3-8.2,8-8.3
		C233.2,30.6,236.4,33.8,236.5,38.2z"/>
	<path class="st4" d="M288.3,34.6c0.3,3.7-2.5,7.1-6.2,7.6c-3.5,0.6-6.5-2.5-6.6-6.8c-0.1-3.6,2.2-6.6,5.4-7.1
		C284.4,27.8,288,30.9,288.3,34.6z"/>
	<path d="M223.1,33.8c3.2-0.3,6.4,2.6,6.6,6.1c0.3,3-2.2,5.7-5.4,5.8c-3.3,0.3-6.1-1.9-6.5-4.7C217.3,37.5,219.9,34.1,223.1,33.8z"
		/>
	<path d="M283.7,35.7c0.4,3.2-2.1,6-5.3,6.1c-3.3,0.3-6.1-2.2-6.2-5.3c0-2.8,2.1-5.3,4.8-5.7C280.4,30.5,283.4,32.7,283.7,35.7z"/>
</g>
</svg>
