<?xml version="1.0" encoding="utf-8"?>
<!-- Generator: Adobe Illustrator 25.1.0, SVG Export Plug-In . SVG Version: 6.00 Build 0)  -->
<svg version="1.1" id="Calque_1" xmlns="http://www.w3.org/2000/svg" xmlns:xlink="http://www.w3.org/1999/xlink" x="0px" y="0px"
	 viewBox="0 0 607.6 462.5" style="enable-background:new 0 0 607.6 462.5;" xml:space="preserve">
<style type="text/css">
	.st0{fill:#E5BE9E;}
	.st1{fill:#19935C;}
	.st2{fill:#004C26;}
	.st3{fill:#006836;}
	.st4{fill:#FFFFFF;}
	.st5{fill:#B25E26;}
	.st6{fill:#D3803C;}
	.st7{fill:#662704;}
	.st8{fill:#A0A0A0;}
	.st9{fill:#7C7C7C;}
	.st10{fill:#D8D8D8;}
	.st11{fill:#FFAF2E;}
	.st12{fill:#E27600;}
	.st13{fill:#FF6695;}
	.st14{fill:#FFEB76;}
	.st15{fill:#FFCF48;}
	.st16{fill:#6D6D6D;}
	.st17{fill:#C6C6C6;}
	.st18{fill:#CCCCCC;}
	.st19{fill:#F987B6;}
	.st20{fill:#CE3A6F;}
	.st21{fill:#CECECE;}
	.st22{fill:#565656;}
	.st23{fill:#F77CA9;}
	.st24{fill:#723100;}
	.st25{fill:#E8D09C;}
	.st26{fill:#6B5738;}
	.st27{fill:#69C498;}
	.st28{fill:#FF8B2C;}
	.st29{fill:#B2B2B2;}
	.st30{fill:#848484;}
	.st31{fill:#726359;}
	.st32{fill:#CABAAB;}
	.st33{fill:#E8E2DD;}
	.st34{fill:#D3BD90;}
	.st35{fill:#EAAD8B;}
	.st36{fill:#CEB78A;}
	.st37{fill:#EAE4DC;}
	.st38{fill:#7F7870;}
	.st39{fill:#84AFD3;}
	.st40{fill:#5F94B7;}
	.st41{fill:#D37E02;}
</style>
<g>
	<path class="st0" d="M341.9,426.1c-23-14.9-40.8-36.4-53.5-64.5c-12.7-28.1-19.1-61.6-19.1-100.7V14.2h52.3V261c0,43,9,76,27,99
		c18.1,23,41.6,34.5,70.7,34.5c29.9,0,54-11.5,72-34.5c18-23,27.1-56,27.1-99V14.2h52.9V261c0,39-6.4,72.6-19.1,100.7
		c-12.7,28.1-30.6,49.6-53.5,64.5c-23,14.9-49.5,22.4-79.4,22.4C390.7,448.5,364.9,441,341.9,426.1z"/>
</g>
<g>
	<g>
		<path class="st19" d="M136.1,229.2c1.1,1.2,1.3,3,1.8,4.6c4.6,16.1,9.2,32.1,14,48.2c0.9,2.9,0.6,5.1-1.4,7.5
			c-7.4,8.9-12.8,19-16.5,30.2c-1.6,4.8-3.1,9.7-4,14.7c-3.8,20.4-4.5,40.9-1.9,61.3c0.2,1.3,0.4,2.5,0.6,3.7
			c0.3,1.7,1.3,2.5,2.8,2.7c3.3,0.4,6.6,0.7,9.9,0.9c1.6,0.1,2.5-0.8,2.7-2.7c0.4-5.7,0.6-11.4,0.9-17.1c0.7-11.7,2-23.3,4.4-34.7
			c2.2-10.2,6.7-19.1,13.5-26.6c2-2.3,2.5-2.3,4.9-0.4c5.7,4.3,5.8,4.3,5.6,11.7c-0.3,10-0.9,19.9-1.3,29.9
			c-0.5,13.3-1.3,26.7-0.8,40c0.1,1.7,0.2,3.4,0.3,5.1c0.1,2.2,1.1,3.5,3.2,3.8c3.7,0.6,7.3,1.2,11,1.7c1.7,0.2,2.6-0.6,2.9-2.4
			c0.5-3.8,0.8-7.6,1.3-11.4c1.9-16.9,3.8-33.7,5.9-50.6c0.4-3.2,1.1-6.3,1.8-9.4c0.7-3.3,1.1-3.5,4-3.1c5,0.8,10,1.6,15,2.5
			c13.7,2.3,27.3,4.9,41.2,6.2c0.6,0.1,1.2,0.1,1.7,0.2c3.1,0.5,3.2,0.6,3.5,3.9c0.6,6.9,1.3,13.9,1.6,20.8c0.7,15,1.2,30,1.8,45
			c0.1,3.2,0.5,6.3,0.8,9.5c0.1,1.5,1,2.3,2.3,2.4c4.1,0.3,8.2,0.6,12.3,0.7c2,0,2.8-0.8,3-3.1c0.5-5.9,1-11.8,1.3-17.8
			c0.9-17.6,1.7-35.1,2.6-52.7c0-0.8,0.1-1.7,0.3-2.5c0.2-0.9,0.8-1.5,1.7-1.5c5.5-0.1,11-0.2,16.4-0.2c1.8,0,2.4,0.7,2.6,2.7
			c0.6,7.6,1.2,15.1,1.7,22.7c1,15.8,1.8,31.6,2.9,47.5c0.5,8.4,1,8.8,8.8,8.6c2.3-0.1,4.7-0.1,7-0.3c1.5-0.2,2.5-1.2,2.7-2.9
			c0.2-2.7,0.4-5.5,0.5-8.3c0.6-21.8,1-43.6,0.2-65.4c-0.6-17.8-4-34.7-11.4-50.5c-4-8.5-9.4-15.9-16.2-22
			c-5.8-5.2-12.5-8.4-19.9-10c-5.2-1.1-10.4-2-15.6-2.6c-8.4-1-16.6-2.6-24.8-4.5c-9.1-2.2-17.3-6.4-24.3-12.9
			c-7.1-6.6-13.5-13.8-19.6-21.4c-4.6-5.7-9-11.5-13.6-17.2c-4.8-6-9.9-11.7-15.5-16.9c-6.6-6-13.8-10.8-22.4-12.8
			c-2.5-0.6-4-1.9-4.9-4.6c-1.7-5-4.5-9.3-8.4-12.6c-1.3-1.1-2.5-0.8-3.3,0.8c-2.1,4-3.1,8.3-2.9,12.8c0.1,1.3,0.1,2.5,0.3,3.8
			c0.3,1.7-0.3,2.8-1.7,3.6c-3.7,2-7.4,4.1-11.1,6.2c-5.7,3.3-11.5,6.7-16.9,10.7c-3.8,2.8-7.4,5.7-10.7,9.2
			c-3,3.2-5.4,6.9-6.9,11.1c-2.2,6.3,0.3,15.5,5.2,19.4c4.9,3.9,11.8,3.6,17-0.7c1.8-1.4,3.2-3.2,4.5-5.1c0.8-1.3,1.9-2.1,3.3-2.6
			c7.2-2.3,14.4-4.6,21.5-6.8C135.3,228.9,135.7,229.1,136.1,229.2z"/>
		<path class="st20" d="M209.3,216.5c-2.5-0.1-6.2-0.4-9.9-0.4c-1.8,0-2.9-0.9-3.6-2.6c-3.2-7.9-6.4-15.7-9.5-23.6
			c-1.9-4.9-4.4-9.3-7.8-13.1c-6.6-7.6-14.8-9.5-24.1-7.1c-2.5,0.7-4.8,1.9-6.8,3.7c-3.6,3.4-4.7,8-2.7,12.6c0.8,1.9,1.9,3.7,3,5.3
			c12.3,17.5,24.3,35.3,39.2,50.3c3.5,3.6,6.7,7.5,10.1,11.3c8.4,9.5,17.4,18.4,27.2,26.3c6.9,5.5,14,10.4,22.2,13.4
			c5.8,2.1,11.8,2.9,17.9,2.1c1.9-0.2,3.9-0.8,5.7-1.3c12.2-3.6,14.9-19.8,7.7-28.1c-5.6-6.5-12.4-10.5-20.3-12.7
			c-0.8-0.2-1.5-0.4-2.3-0.5c-5.2-1-4.9-0.7-7.1-6C241.1,228.3,227.9,219.3,209.3,216.5z"/>
		<path class="st20" d="M385.4,333.1c1.1-7.1,0.8-15.3-0.4-23.4c-1.8-12.6-5.5-24.5-12-35.2c-6.4-10.4-15.1-17.2-26.4-20.2
			c-14.4-3.9-31.4,3.1-39.6,16.2c-1.8,2.9-3.2,5.9-3.9,9.3c-0.1,0.5,0.3,1.1,0.6,1.6c0.4,0.6,1.2,0.4,1.6,0.1
			c5.2-4.2,11.1-5.1,17.3-5.5c3.1-0.2,6.2-0.7,9.2-1.8c0.9-0.3,1.6,0.1,1.7,1.1c0.2,1.5,0.2,2.9,0.4,4.4c0.7,6.3,2.2,12.4,5.4,17.8
			c3.5,6,8,10.7,14.4,13.1c0.5,0.2,1.1,0.4,1.6,0.8c0.8,0.5,0.9,1.3,0.5,2.2c-0.9,1.9-2,3.7-2.9,5.6c-5.1,10.2-6.5,20.9-4.4,32.1
			c0.8,4.4,2.6,8.3,5.6,11.5c5.2,5.5,12.1,5.9,18.1,1.1c3.2-2.6,5.5-6.1,7.4-9.9C382.3,348.1,384.2,341.7,385.4,333.1z"/>
		<path class="st39" d="M102,142.2c0.2,1.4,0.2,2.9,0.5,4.3c1,5.8,1.9,11.6,3.1,17.4c1.7,8.7,3.5,17.3,5.3,25.9
			c0.3,1.6,0.7,3.3,1.3,4.8c0.5,1.5,1.6,2.5,3.1,2.2c3.9-0.7,7.7-1.9,11.1-4.2c1.3-0.8,1.6-2.2,1.1-3.9c-0.2-0.6-0.5-1.2-0.7-1.7
			c-6-14.3-12.4-28.5-19.4-42.2c-0.6-1.3-1.4-2.5-2.2-3.7c-0.5-0.7-1.4-1-2.1-0.5C102.7,140.8,102.4,141.5,102,142.2z"/>
		<path class="st16" d="M333.8,425.7c1.1-8.6,0.5-9.5-6.6-9.5c-3.7,0-7.4,0.2-11.1,0.6c-3.4,0.4-4.1,1.4-3.7,4.9
			c0.3,2.3,0.6,4.6,1.1,6.8c0.4,1.8,1.5,3,3.2,3.1c3.7,0.3,7.4,0.6,11,0.5c4.3-0.2,5.2-1.3,5.9-6.1
			C333.8,425.5,333.8,425.1,333.8,425.7z"/>
		<path class="st16" d="M278.1,412.5c-3.1-0.1-6.2-0.3-9.4-0.2c-3,0.1-3.8,1.1-3.6,4.4c0.1,2.5,0.5,5,0.8,7.5c0.3,1.8,1.5,3,3.2,3.2
			c4.1,0.4,8.2,0.8,12.2,0.9c2.9,0.1,4.1-1.4,4.5-4.8c0.3-2.3,0.4-4.6,0.5-7c0.1-2.3-0.4-3.2-2.4-3.4c-1.9-0.2-3.9-0.3-5.8-0.5
			C278.1,412.6,278.1,412.5,278.1,412.5z"/>
		<path class="st16" d="M181.9,398.3c-2.7-0.2-5.4-0.6-8.1-0.6c-2.4,0-3.6,1.3-3.7,3.9c0,2.5,0.1,5,0.3,7.6c0.2,2,1.2,3.5,3.2,3.9
			c4.2,0.8,8.5,1.2,12.8,1c2-0.1,3-1,3.3-2.9c0.5-2.9,0.8-5.9,1-8.8c0.1-1.3-0.6-2.5-1.9-2.7c-2.3-0.4-4.6-0.7-6.9-1
			C181.8,398.5,181.8,398.4,181.9,398.3z"/>
		<path class="st16" d="M138.6,388.2c-2.5-0.1-5.1-0.4-7.6-0.4c-3.8,0.1-4.5,1-4.2,4.9c0.9,10.9,1.2,9.7,10,10.5
			c0.6,0.1,1.2,0.1,1.8,0.1c5.3,0.2,6-0.4,6.6-6.3c0.2-1.7,0.3-3.4,0.3-5.1c0-2-0.9-3-2.7-3.4c-0.8-0.1-1.6-0.2-2.3-0.2
			C139.8,388.4,139.2,388.3,138.6,388.2C138.6,388.3,138.6,388.2,138.6,388.2z"/>
		<path class="st4" d="M125.9,202.6c-0.3,2,1.1,4.4,2.8,4.8c1.8,0.5,3.8-1.3,4.1-3.5c0.3-2.2-1.2-4.3-3.1-4.5
			C128.1,199.3,126.2,200.9,125.9,202.6z"/>
		<path class="st20" d="M160.5,228.9c0.6-0.3,1-0.4,1.2-0.7c0.2-0.3,0.4-0.8,0.3-1.2c-0.8-2.4-2-4.4-3.8-6c-0.1-0.1-0.4-0.2-0.5-0.1
			c-0.4,0.1-0.7,0.2-1.1,0.4c-0.1,0.1-0.2,0.4-0.2,0.6C156.9,224.9,158.7,227,160.5,228.9z"/>
		<path d="M89.1,234.3c-0.2,1.9,0.9,3.8,2.6,4.2c1.2,0.3,2.7-0.9,2.8-2.4c0.3-2-0.9-3.8-2.5-4.2C90.8,231.6,89.3,232.9,89.1,234.3z"
			/>
		<path class="st20" d="M178.8,283.9c-0.6,0.2-1.1,0.6-1.1,1.3c0.3,2.3,1.6,4.2,2.9,5.9c0.3,0.4,1.1,0.6,1.5,0.4
			c0.9-0.3,1-1.3,0.6-2.1c-0.9-1.8-1.9-3.5-3-5.2C179.6,284,179.1,284,178.8,283.9z"/>
		<path class="st20" d="M177,264.2c0,0.2-0.2,0.4-0.1,0.6c0.7,2.3,1.7,4.5,3.6,6c0.2,0.2,0.8,0.1,1-0.1c0.3-0.2,0.6-0.7,0.5-1
			c-0.5-2.7-1.6-5-3.8-6.4C177.7,262.9,177.3,263.6,177,264.2z"/>
		<path class="st20" d="M161.3,252.3c0.5,1.5,1.2,3.8,2.9,5.4c0.4,0.4,1.2,0.3,1.5-0.4c0.8-1.8-1.3-6.3-3.2-7
			C162,250.2,161.2,250.8,161.3,252.3z"/>
		<path class="st20" d="M199.1,289.7c0,0.2-0.1,0.4-0.1,0.6c0.6,2.5,2.2,4.3,4.2,5.7c0.2,0.2,0.8,0.1,1.1-0.1c0.3-0.2,0.6-0.7,0.6-1
			c-0.7-2.7-2.4-4.6-4.8-5.7C199.9,289.1,199.4,289.5,199.1,289.7z"/>
		<path class="st20" d="M150.6,242.9c0.7,0,1.1-0.5,1.1-1.2c0.2-2.2-0.9-4-1.8-5.8c-0.2-0.4-1-0.9-1.4-0.8c-0.8,0.3-1.2,1.2-0.9,2
			c0.6,1.7,1.3,3.4,2,5.1C149.8,242.6,150.3,242.7,150.6,242.9z"/>
		<path class="st20" d="M163.9,272.5c0.1,1.9,0.7,3.6,1.8,5.2c0.3,0.4,1.1,0.9,1.5,0.7c0.8-0.3,1.1-1.2,0.8-2.1
			c-0.5-1.5-1.2-3-1.9-4.5c-0.3-0.6-1-0.6-1.5-0.3C164.3,271.6,164.2,272.1,163.9,272.5z"/>
		<path d="M108.7,179c0.1,0.4,0.1,0.9,0.3,1.1c0.4,0.4,0.9,0.8,1.4,1c4.8,2.1,9.7,4.2,14.5,6.3c0.6,0.3,1.2,0,1.5-0.5
			c0.5-0.8,0.2-1.6-0.5-2.1c-0.6-0.5-1.3-0.9-2-1.2c-4.5-1.9-8.9-3.9-13.4-5.7C109.6,177.5,109,178.1,108.7,179z"/>
		<path d="M106.2,165.1c0.1,0.4,0.1,1,0.3,1.1c3.9,2.6,8.2,4.4,12.6,5.7c0.3,0.1,1-0.3,1-0.4c0.1-0.6,0.1-1.5-0.2-1.7
			c-3.5-2.6-7.6-3.9-11.4-5.7c-0.5-0.2-1.1-0.1-1.7,0.1C106.5,164.3,106.4,164.8,106.2,165.1z"/>
		<path d="M111.5,158.3c1.6,0.4,2.1,0.1,2.4-0.5c0.4-0.6,0.2-1.3-0.3-1.7c-2.6-1.8-5.3-3.3-8.3-4.3c-0.6-0.2-1.6-0.3-1.8,0.9
			c-0.1,0.7,0.1,1.3,0.7,1.6C106.9,155.9,109.6,157.3,111.5,158.3z"/>
		<path d="M127.2,207.5c1.5,0.1,3-1.3,3.2-3.1c0.2-1.7-0.9-3.5-2.4-3.8c-1.6-0.3-3.6,1.5-3.6,3.3
			C124.4,205.7,125.7,207.4,127.2,207.5z"/>
	</g>
</g>
</svg>
