<?xml version="1.0" encoding="utf-8"?>
<!-- Generator: Adobe Illustrator 25.1.0, SVG Export Plug-In . SVG Version: 6.00 Build 0)  -->
<svg version="1.1" id="Calque_1" xmlns="http://www.w3.org/2000/svg" xmlns:xlink="http://www.w3.org/1999/xlink" x="0px" y="0px"
	 viewBox="0 0 607.6 462.5" style="enable-background:new 0 0 607.6 462.5;" xml:space="preserve">
<style type="text/css">
	.st0{fill:#E5BE9E;}
	.st1{fill:#19935C;}
	.st2{fill:#004C26;}
	.st3{fill:#006836;}
	.st4{fill:#FFFFFF;}
	.st5{fill:#B25E26;}
	.st6{fill:#D3803C;}
	.st7{fill:#662704;}
	.st8{fill:#A0A0A0;}
	.st9{fill:#7C7C7C;}
	.st10{fill:#D8D8D8;}
	.st11{fill:#FFAF2E;}
	.st12{fill:#E27600;}
	.st13{fill:#FF6695;}
	.st14{fill:#FFEB76;}
	.st15{fill:#FFCF48;}
	.st16{fill:#6D6D6D;}
	.st17{fill:#C6C6C6;}
	.st18{fill:#CCCCCC;}
	.st19{fill:#F987B6;}
	.st20{fill:#CE3A6F;}
	.st21{fill:#CECECE;}
	.st22{fill:#565656;}
	.st23{fill:#F77CA9;}
	.st24{fill:#723100;}
	.st25{fill:#E8D09C;}
	.st26{fill:#6B5738;}
	.st27{fill:#69C498;}
	.st28{fill:#FF8B2C;}
	.st29{fill:#B2B2B2;}
	.st30{fill:#848484;}
	.st31{fill:#726359;}
	.st32{fill:#CABAAB;}
	.st33{fill:#E8E2DD;}
	.st34{fill:#D3BD90;}
	.st35{fill:#EAAD8B;}
	.st36{fill:#CEB78A;}
	.st37{fill:#EAE4DC;}
	.st38{fill:#7F7870;}
	.st39{fill:#84AFD3;}
	.st40{fill:#5F94B7;}
	.st41{fill:#D37E02;}
</style>
<g>
	<path class="st0" d="M387,8.3h84.6h5.3c5.4,0,11.1,0.2,17,0.6c5.9,0.5,11.6,1.3,17,2.6c15.3,4,28.9,11.5,40.6,22.5
		c11.8,11,20.7,24.4,26.8,40.3c6.1,15.9,9.1,33,9.1,51.5c0,15-2,28.5-6,40.7c-4,12.1-9.2,22.3-15.5,30.7
		c-6.4,8.4-13.6,14.8-21.5,19.2c9.5,3.1,18.8,9.5,27.7,19.2c8.9,9.7,16.3,21.7,22,36c5.7,14.3,8.6,30.3,8.6,47.9
		c0,21.1-4.1,40.8-12.2,58.8c-8.1,18.1-19.9,32.5-35.4,43.3c-15.4,10.8-33.5,16.2-54.3,16.2H387V8.3z M492.1,194.6
		c16.9,0,30.2-6.2,39.9-18.5c9.7-12.3,14.6-28.4,14.6-48.2c0-19.4-5.5-35.4-16.5-47.9c-11-12.6-25.4-18.8-43.3-18.8h-59.3v133.5
		H492.1z M500.7,384.9c12.1,0,22.8-3,32-8.9c9.2-5.9,16.4-14,21.5-24.1c5.1-10.1,7.6-21.3,7.6-33.7c0-11.9-2.5-23.2-7.4-34
		c-4.9-10.8-12.1-19.6-21.5-26.4c-9.4-6.8-20.5-10.2-33.2-10.2h-72.2v137.4H500.7z"/>
</g>
<g>
	<g>
		<path class="st5" d="M221.6,248.9c-1.9,0.2-2.5,1.4-3.2,2.3c-6.2,7.4-11.3,15.6-15.9,24c-2.9,5.2-5.9,10.3-8.9,15.3
			c-1.4,2.3-3.1,4.5-5.4,6c-3,2-5.7,1-6.7-2.6c-0.3-1.1-0.3-2.3-0.5-3.6c-2.6,0-4,2.1-6.1,2.8c-3.6,1.2-5.8,0-6.1-3.8
			c-0.1-1.2,0-2.4,0-4c-2.2-0.3-3.7,1.2-5.5,1.5c-2.1,0.4-3.9-1-4.3-3c-0.3-1.7,0-3.4,0.4-5.1c1.3-5.3,3.4-10.3,5.7-15.2
			c9.4-19.9,21.8-37.5,38.6-51.9c7.3-6.2,14.3-12.9,21-19.9c4.8-5,9.1-10.4,12.3-16.6c7.3-14.3,14.7-28.5,20.2-43.6
			c0.5-1.4,0.9-2.8,1.3-4c-1.6-2.1-3.9-2.5-5.7-3.8c-2.2-1.6-4.5-3.2-6.4-5.1c-3.6-3.6-4.3-7.7-2.3-11.5c2-4,6.5-6.4,11.1-5.9
			c4.6,0.6,8.7,2.4,11.7,5.9c2.5,2.8,4.9,3.6,8.4,2.2c4.6-1.9,9.5-2.6,14.4-3.3c13-1.9,25.6-0.4,37.6,5c0.9,0.4,1.8,0.9,2.7,1.3
			c1.3,0.5,2.4,0.3,3.4-0.7c1.9-1.9,3.8-3.9,5.9-5.6c2.5-2.1,5.4-3.5,8.7-3.7c5.7-0.3,9.4,3.1,9.8,8.7c0.2,3.4-0.8,6.4-2.7,9
			c-1.8,2.4-3.8,4.6-6,6.5c-2.1,1.9-2.9,3.7-1.9,6.4c4.3,11.9,7,24.1,9.3,36.5c0.8,4.6,1.6,9.2,2.2,13.9c0.4,2.8,1.2,5.3,3.2,7.3
			c6.2,6.4,12.3,12.9,18.6,19.1c3.7,3.6,8,6.6,12.8,8.6c1.8,0.8,3.4,0.7,4.9-0.4c2.2-1.6,4.4-3.2,6.5-5c5.1-4.3,10.1-8.6,15.3-12.9
			c2.3-1.9,4.7-3.6,7.7-4.4c2.2-0.6,4.8,0.4,4.7,2.3c-0.2,3.6,1.6,4,4.4,3.8c0.7-0.1,1.5,0.2,2.2,0.4c2.4,0.8,3.3,2.6,2.4,5.3
			c-0.4,1.1-1,2.2-1.5,3.3c1.4,1.5,3.4,0.9,4.9,1.7c2.6,1.4,3.6,3.6,2.5,6.1c-0.8,1.8-1.8,3.5-3.1,5c-2.4,2.8-4.9,5.6-7.6,8.1
			c-8.9,8.3-18.9,15.1-29.5,20.9c-1.1,0.6-2.2,1.1-3.3,1.7c-9,4.9-17.4,4.8-25.1-2.7c-0.8-0.8-1.7-1.8-3.1-1.4
			c-0.6,1.2-0.1,2.4,0.2,3.6c3.9,14.6,5.6,29.5,6.9,44.6c0.8,9.1,1.5,18.2,1.2,27.4c-0.9,24-3.8,47.7-11.7,70.6
			c-2.1,6.1-4.6,12-8.1,17.4c-1.5,2.3-2.8,4.6-4.2,7c-2.3,3.9-5.2,7.2-8.7,10c-4,3.1-8.5,5-13.6,5c-4.7,0-9.4,0-14-1.2
			c-1.2-0.3-2.4-0.5-3.6-0.9c-5.9-2.3-7.8-7.7-4.8-13.3c1.3-2.4,3.1-4.5,5.3-6.1c1.8-1.4,2.2-3,1.9-5.2c-1.3-11.8-2.5-23.6-3.7-35.3
			c-0.1-0.7-0.1-1.5-0.3-2.2c-0.5-3.2-1-3.8-4.2-4.1c-2.9-0.3-5.9-0.5-8.9-0.7c-6.2-0.3-12.3-0.5-18.5-0.9c-2.3-0.1-3.8,0.7-4.6,2.8
			c-1.2,3-2.5,5.9-3.6,8.9c-3.7,9.9-7.4,19.9-11,29.8c-1,2.9-0.9,3,1.5,5c1.7,1.4,3.6,2.7,5,4.4c2.6,2.9,3.7,6.5,2.7,10.3
			c-1.1,4.1-3.7,6.8-8.2,7.4c-7.2,1-14.3,0-21.4-0.6c-9.6-0.9-15.7-6-19.8-14.5c-4.4-9.2-7.3-18.9-9.1-28.8
			c-5.2-29.1-6.7-58.3-3.7-87.7c1.8-17.4,3.9-34.8,7.6-52C221.9,250.2,221.7,249.7,221.6,248.9z"/>
		<path class="st6" d="M262.2,273.8c-1.1-15.6,4.1-29.6,11.2-43.1c3.1-6,8.3-9.9,14.8-11.4c12.9-3.1,25.5-1.6,37.4,4.3
			c5,2.4,8.8,6.3,11.9,10.9c6,8.8,9.3,18.5,9.6,29.1c0.5,17.6-4.4,33.6-14.3,48.1c-6.5,9.4-15.6,14.8-27,16.4
			c-16,2.2-31.4-6.2-38-21c-3.3-7.3-4.9-15-5.5-22.9C261.9,280.7,262.2,277.2,262.2,273.8z"/>
		<path class="st6" d="M306.8,179.9c-4.3-0.3-8.5-0.2-12.5-1.6c-5.3-1.8-8.3-5.3-8.5-10.9c-0.2-8,1.7-15.7,5.4-22.8
			c5.6-10.9,22.2-10.2,28-0.9c4.4,7,6.8,14.8,6.7,23.2c-0.1,8.3-5.7,12.5-11.7,12.6C311.7,179.5,309.2,179.7,306.8,179.9z"/>
		<path class="st4" d="M284.4,135.2c0.1,3.5-3.1,7-6.2,6.9c-2.7-0.1-5.1-2.8-5.3-6c-0.2-3.5,2.3-6.2,5.7-6.2
			C281.7,129.8,284.3,132.2,284.4,135.2z"/>
		<path class="st4" d="M334.6,135.3c-0.1,2.5-2.7,4.8-5.6,4.9c-3,0.1-5.6-2.7-5.4-5.8c0.3-3.2,3-5.7,5.9-5.4
			C332.4,129.3,334.8,132.2,334.6,135.3z"/>
		<path class="st7" d="M234.8,308c-0.5,3.2-0.9,6.7-1.6,10c-0.2,1.3-1.3,2.2-2.7,2c-1.4-0.2-2.3-1.3-2.2-2.6c0.4-3.7,0.9-7.3,1.5-11
			c0.2-1.2,0.9-2.3,2.4-2.4c1.3-0.1,2.5,1.2,2.5,3C234.8,307.3,234.8,307.6,234.8,308z"/>
		<path class="st7" d="M249.5,261.4c-0.4,2.7-0.8,5.1-1.3,7.5c-0.2,0.9-0.8,1.8-1.4,2.5c-0.4,0.4-1.3,0.7-1.9,0.6
			c-0.6-0.1-1.5-0.8-1.5-1.4c-0.2-1.4-0.1-2.9,0.1-4.4c0.4-2.2,0.8-4.4,1.5-6.5c0.4-1.2,1.4-2.1,2.8-1.8c1.4,0.4,1.8,1.5,1.8,2.9
			C249.5,261.2,249.5,261.4,249.5,261.4z"/>
		<path class="st7" d="M255.1,330.9c-0.2,2.4-0.4,4.6-0.7,6.8c-0.2,1.2-1,2.2-2.5,2.2c-1.4,0-2.5-1-2.4-2.2
			c0.3-3.6,0.8-7.2,1.4-10.8c0.2-0.9,1.3-1.3,2.4-1.2c1.2,0.1,1.7,0.9,1.8,1.9C255.2,328.8,255.1,330,255.1,330.9z"/>
		<path class="st7" d="M235.9,218.1c-0.3,2.2-0.4,4.4-0.8,6.6c-0.3,1.3-1.4,2-2.7,1.8c-1-0.2-1.7-1-1.8-2c-0.3-3.7,0.2-7.3,0.9-10.9
			c0.2-1.3,1.4-2.1,2.7-1.9c1.4,0.3,1.9,1.5,1.9,2.8C236.1,215.7,235.9,216.9,235.9,218.1C235.8,218.1,235.8,218.1,235.9,218.1z"/>
		<path class="st7" d="M336.3,366.8c-0.3,2-0.1,4.5-1.4,6.7c-0.5,0.9-1.4,1.4-2.4,1.2c-1-0.2-1.8-0.9-1.9-2
			c-0.4-3.2,0.7-6.2,1.6-9.3c0.3-0.9,1.3-1.5,2.3-1.3c1.1,0.2,1.6,1,1.7,2C336.4,365,336.3,365.8,336.3,366.8z"/>
		<path class="st7" d="M281,192.5c-0.1,0.5-0.2,2-0.6,3.4c-0.3,1.2-1,2.3-2.4,2.2c-1.4,0-2.2-1.1-2.3-2.3c-0.2-2.4-0.2-4.8,0.8-7.1
			c0.4-0.9,1-1.7,2.2-1.6c1.4,0.1,2.1,1.1,2.3,2.3C281.1,190.1,281,190.8,281,192.5z"/>
		<path class="st7" d="M359.7,290.9c0.3-2,0.6-3.9,1.1-5.8c0.2-0.8,0.9-1.7,2.1-1.7c1.1,0,1.9,0.7,2.2,1.6c0.9,3.2,0.1,6.2-1.3,9.1
			c-0.2,0.5-1.3,0.8-1.9,0.7c-0.6-0.1-1.4-0.6-1.6-1.2C359.8,292.8,359.8,291.8,359.7,290.9z"/>
		<path class="st7" d="M308.1,342c-0.3,1.2-0.5,2.9-1.1,4.5c-0.3,0.9-1.2,1.6-2.3,1.4c-0.6-0.1-1.4-0.6-1.7-1.2
			c-1.2-2.3-0.3-7.7,1.5-9.5c0.7-0.7,2.7-0.1,3,0.9c0.1,0.2,0.2,0.4,0.2,0.7C307.9,339.6,308,340.6,308.1,342z"/>
		<path class="st7" d="M355.2,236.4c0.3-2.7,0.4-5.2,1.9-7.3c0.6-0.8,1.6-1.3,2.5-0.7c0.6,0.3,1.3,0.9,1.4,1.5
			c0.5,3-0.6,5.8-1.3,8.6c-0.3,1-1.2,1.6-2.2,1.5c-1.5,0-2-1.2-2.2-2.5C355.2,237,355.2,236.5,355.2,236.4z"/>
		<path class="st7" d="M358.3,336.4c-0.2,1.2-0.5,2.9-0.9,4.5c-0.5,1.8-1.8,2.8-3,2.4c-1.3-0.5-1.9-1.5-1.8-2.8
			c0.2-2.1,0.5-4.3,1.1-6.4c0.3-1.2,1.3-2.1,2.7-1.7c1,0.3,1.6,1.1,1.7,2.1C358.2,335,358.2,335.5,358.3,336.4z"/>
		<path class="st7" d="M336,212.4c0.4-2.4,0.2-4.6,1.4-6.5c0.5-0.9,1.3-1.4,2.4-1.2c1,0.2,1.7,0.9,1.9,2c0.4,2.7-0.4,5.2-1,7.8
			c-0.3,1.3-1.3,2-2.7,1.8c-1.5-0.2-1.7-1.4-1.9-2.6C335.9,213.1,336,212.6,336,212.4z"/>
		<path class="st7" d="M233.4,378.9c0.3-1.7,0.4-3.4,0.9-5c0.2-0.5,1.1-1.1,1.7-1.1c0.6,0,1.6,0.5,1.8,1c1.3,3.3,1,6.7,0.3,10.1
			c-0.2,0.9-1.3,1.6-2.3,1.3c-0.6-0.2-1.5-0.7-1.7-1.2C233.7,382.3,233.6,380.6,233.4,378.9z"/>
		<path class="st7" d="M357.3,380.1c-0.2,0.8-0.4,2.8-1,4.6c-0.3,0.9-1.3,1.6-2.3,1.4c-1-0.2-1.9-0.9-1.9-1.9
			c0.1-2.4,0.4-4.9,0.8-7.3c0.2-1,1.1-1.7,2.1-1.7c1.5-0.1,2,1.1,2.3,2.3C357.4,378,357.3,378.5,357.3,380.1z"/>
		<path class="st7" d="M274.1,355.7c-0.2,1.2-0.4,2.9-0.8,4.5c-0.3,1-1.2,1.4-2.2,1.4c-1.1,0-1.8-0.7-2.1-1.7
			c-0.6-2.4,0-4.8,0.5-7.1c0.3-1.4,1.4-2,2.7-1.8c1.1,0.2,1.6,1,1.7,2C274,353.8,274,354.5,274.1,355.7z"/>
		<path d="M308.6,183.2c2.2,1,4,0.4,5.9-0.3c1.6-0.6,3.1-1.4,4.8-1.9c0.5-0.2,1.6,0.3,1.9,0.8c0.3,0.5,0,1.4-0.2,2
			c-0.1,0.4-0.6,0.8-1.1,1c-9,4.9-17.9,4.6-26.6-0.7c-0.9-0.6-1.4-1.5-0.8-2.5c0.6-0.9,1.7-0.8,2.7-0.4c1.8,0.7,3.6,1.6,5.5,2.2
			c2.2,0.7,3.5-0.1,3.5-2.2c0.2-5.2,0.2-10.3,0.3-15.5c0.1-2.2-1.1-3.6-2.4-5.2c-1.6-1.8-3.9-3.6-2.3-6.4c1.3-2.3,3.8-1.8,6-2
			c1.7-0.1,3.4,0,5.1,0.2c2.9,0.4,4,2.8,2.5,5.4c-0.7,1.3-1.5,2.6-2.6,3.6c-2.2,2-2.9,4.4-2.8,7.2
			C308.2,173.6,307.7,178.5,308.6,183.2z"/>
		<path d="M281.9,132.2c1.9,0,3.7,1.7,3.8,3.7c0.1,2.2-1.7,4.2-3.9,4.4c-1.8,0.1-3.5-1.7-3.7-3.7
			C277.9,134.2,279.7,132.2,281.9,132.2z"/>
		<path d="M336.5,133.8c0.2,2.1-1.2,3.7-3.3,4c-2.2,0.3-4.2-1.1-4.2-3c0.1-2.2,1.9-4.1,4.2-4.2C334.8,130.5,336.4,131.9,336.5,133.8
			z"/>
	</g>
</g>
</svg>
