<?xml version="1.0" encoding="utf-8"?>
<!-- Generator: Adobe Illustrator 25.1.0, SVG Export Plug-In . SVG Version: 6.00 Build 0)  -->
<svg version="1.1" id="Calque_1" xmlns="http://www.w3.org/2000/svg" xmlns:xlink="http://www.w3.org/1999/xlink" x="0px" y="0px"
	 viewBox="0 0 607.6 462.5" style="enable-background:new 0 0 607.6 462.5;" xml:space="preserve">
<style type="text/css">
	.st0{fill:#E5BE9E;}
	.st1{fill:#19935C;}
	.st2{fill:#004C26;}
	.st3{fill:#006836;}
	.st4{fill:#FFFFFF;}
	.st5{fill:#B25E26;}
	.st6{fill:#D3803C;}
	.st7{fill:#662704;}
	.st8{fill:#A0A0A0;}
	.st9{fill:#7C7C7C;}
	.st10{fill:#D8D8D8;}
	.st11{fill:#FFAF2E;}
	.st12{fill:#E27600;}
	.st13{fill:#FF6695;}
	.st14{fill:#FFEB76;}
	.st15{fill:#FFCF48;}
	.st16{fill:#6D6D6D;}
	.st17{fill:#C6C6C6;}
	.st18{fill:#CCCCCC;}
	.st19{fill:#F987B6;}
	.st20{fill:#CE3A6F;}
	.st21{fill:#CECECE;}
	.st22{fill:#565656;}
	.st23{fill:#F77CA9;}
	.st24{fill:#723100;}
	.st25{fill:#E8D09C;}
	.st26{fill:#6B5738;}
	.st27{fill:#69C498;}
	.st28{fill:#FF8B2C;}
	.st29{fill:#B2B2B2;}
	.st30{fill:#848484;}
	.st31{fill:#726359;}
	.st32{fill:#CABAAB;}
	.st33{fill:#E8E2DD;}
	.st34{fill:#D3BD90;}
	.st35{fill:#EAAD8B;}
	.st36{fill:#CEB78A;}
	.st37{fill:#EAE4DC;}
	.st38{fill:#7F7870;}
	.st39{fill:#84AFD3;}
	.st40{fill:#5F94B7;}
	.st41{fill:#D37E02;}
</style>
<g>
	<path class="st0" d="M275.6,14.2h56.8v374.1c64.2-8.4,112.3-34.5,144.3-78.2c32-43.6,48.1-105.7,48.1-186.4V14.2h56.8v108.9
		c0,74.4-12,135.7-36.1,184c-24,48.3-58.8,83.9-104.2,106.9c-45.4,22.9-100.6,34.4-165.7,34.4V14.2z"/>
</g>
<g>
	<path class="st16" d="M297.1,260.6c0.5,1.8,2.6,2.2,3.5,3.7c0.5,0.8,0.7,1.6,0.1,2.4c-0.7,1.1-1.7,1.3-2.8,0.7
		c-1-0.5-1.8-1.2-2.7-1.8c-1.7-1-2.5-0.6-2.5,1.1c0,1.9,0.1,3.9-0.1,5.8c-0.1,1.2-1,1.9-2.2,1.9c-1,0-1.7-0.6-2-1.4
		c-0.4-1.4-0.6-3-0.7-4.4c-0.2-1.7-0.3-3.5-0.2-5.2c0.1-2.5-1.2-4-3-5.3c-5.9-4.4-11.8-8.8-17.7-13.3c-1.2-0.9-2.4-1.9-3.4-3
		c-0.3-0.4-0.4-1.3-0.1-1.8c0.4-0.8,1.3-1.1,2.2-1c1.8,0.4,3.1,1.6,4.5,2.6c6,4.3,12,8.5,17.9,13c2.1,1.6,4.1,2.1,6.6,1.3
		c2-0.7,4.2-1.2,6.2-1.8c0.6-0.2,1.3-0.2,1.9-0.2c0.9,0.1,1.6,0.7,1.8,1.6c0.2,0.9-0.1,1.8-0.9,2.2c-0.9,0.5-2,0.8-3,1.1
		C299.3,259.3,297.9,259.4,297.1,260.6z"/>
	<path class="st16" d="M201,295.3c-1.4,2.3-2.3,4.1-3.4,5.6c-0.5,0.7-1.4,0.9-2.3,0.6c-0.9-0.4-1.2-1.1-1.3-2
		c-0.1-1.5,1.5-2.7,0.8-4.3c-0.9-0.9-2-0.4-3.1-0.3c-2.1,0.1-4.6,1.2-5.5-1.7c-0.6-1.8,1.7-3.1,4.7-3.2c1.7-0.1,3.4-0.6,5.1-0.7
		c1.9-0.2,3.2-1.2,4-2.8c2.7-5.2,5.4-10.4,8.2-15.5c0.7-1.3,1.5-2.6,2.5-3.8c0.6-0.7,1.7-0.6,2.4-0.1c0.4,0.3,0.9,1.2,0.8,1.7
		c-0.3,1.3-0.8,2.5-1.4,3.6c-2.5,5.1-4.9,10.2-7.5,15.1c-1,2-1.1,3.6,0.2,5.4c1.1,1.6,2.1,3.3,3.1,5c0.4,0.7,0.8,1.5,1,2.3
		c0.1,0.5-0.3,1.2-0.7,1.7c-0.6,0.7-1.5,0.8-2.3,0.2c-0.7-0.5-1.3-1.1-1.8-1.8C203.4,298.9,202.4,297.4,201,295.3z"/>
	<path class="st17" d="M184,156.7c2,0,3,1.3,4.2,2.1c3.2,2.3,6.5,4.4,10,6c11.8,5.4,23.7,3.2,32.8-6.1c3.7-3.8,6.2-8.3,8.4-13.1
		c1.1-2.3,1.4-2.5,4-1.8c6.2,1.7,12.3,2,18.6,0.4c5.8-1.5,10.9-4.1,15.2-8.3c10.4-10.6,19-22.5,24.5-36.5c1.1-2.8,2.2-5.7,3.2-8.5
		c0.3-0.8,0.7-1.6,1-2.4c3.7-9,4.4-9.2,12.5-4.3c7.2,4.4,14,9.5,20.2,15.3c13.4,12.5,25.4,26.1,35.4,41.5
		c5.8,8.9,10.9,18.2,16.4,27.4c0.8,1.3,1.3,2.7,1.9,4.1c0.3,0.8-0.4,1.7-1.4,1.6c-1.7-0.2-3.4-0.5-5.1-0.7
		c-9.1-1.3-15.7,2.1-19.6,10.4c-2.5,5.4-3.7,11.1-4,17c-0.1,1.3-0.1,2.6-0.3,3.9c-0.1,0.8-1.5,1.3-2.1,0.7c-0.9-0.9-1.8-1.9-2.6-2.9
		c-2-2.3-3.9-4.7-5.9-6.9c-2.2-2.4-4.7-4.5-7.5-6.2c-6.9-4.5-14.2-2.8-19.3,1.4c-3.1,2.5-5.4,5.7-7,9.2c-2.1,4.5-3.8,9.2-5.1,14.1
		c-0.4,1.7-1,3.3-1.5,5c-0.3,0.8-1.6,0.9-2.1,0.2c-1-1.4-2-2.8-2.9-4.3c-1.7-2.6-3.6-4.8-5.8-7c-9-9.2-25.6-6.4-30.8,6.4
		c-1.4,3.4-2.3,7-2.5,10.7c-0.5,7.1-1,14.3-1.4,21.4c-0.3,5.9-1.5,11.6-3.7,17.1c-5.2,12.7-22.7,20.7-36.7,14c-4.2-2-8-4.5-11.3-7.6
		c-3.9-3.7-7.7-7.6-11.5-11.5c-4.3-4.3-8.4-8.8-12.8-13c-3.8-3.7-8.4-6.1-13.8-6.7c-2.4-0.3-4.8-0.2-7.1,0.3
		c-5.5,1.1-9.5,4.2-11.4,9.6c-1.5,4.1-2.3,8.4-2.3,12.7c0,4.3,0.1,8.7,0.2,13c0,1,0.6,2.3-0.7,2.8c-1.2,0.5-1.9-0.7-2.8-1.3
		c-1.4-1.1-2.6-2.3-4-3.3c-1.9-1.4-3.9-2.8-6-3.8c-7.2-3.4-14-2.5-20,2.7c-5,4.3-8.4,9.9-11.3,15.7c-0.9,1.8-0.9,4.9-3.5,4.8
		c-1.9-0.1-2.2-2.9-3-4.6c-2-4.1-4.6-7.9-8.1-10.9c-5.9-5.2-11.6-5.9-18.6-2.4c-3.8,1.9-6.8,4.6-9.3,7.9c-1,1.4-1.7,3-3.3,4
		c-0.6,0.4-1.4,0.3-1.7-0.3c-0.5-0.9-0.9-2-1.2-3c-8.3-32.4-6.2-64,7.6-94.7c3.3-7.3,7.7-14.1,12.8-20.3c1.1-1.3,2.3-2.6,3.5-3.8
		c1.6-1.6,3.4-1.8,5.3-0.5c2.6,1.6,5.2,3.1,7.7,4.9c15.8,10.9,33.6,15.7,52.5,17.1c3.7,0.3,7.4-0.3,11-1.2
		c5.9-1.5,10.6-4.6,13.7-10.1c2.4-4.2,4.4-8.4,6.3-12.8C182.7,159.7,183.3,158.2,184,156.7z"/>
	<path class="st16" d="M75.1,246.7c0.9-19.5,5.3-38.2,13.1-56.1c0.9-2,1.6-4.1,3.1-5.7c0.6-0.6,1.5-0.9,2.4-0.4
		c0.9,0.5,1.3,1.2,1,2.1c-0.4,1.2-0.9,2.4-1.4,3.6c-7.6,18.2-12.4,37-13,56.7c-0.1,2.4-0.3,4.8-0.5,7.1c-0.1,0.8-0.3,1.8-0.7,2.5
		c-0.3,0.5-1,0.8-1.6,0.9c-0.9,0.2-1.7-0.3-2-1.2c-0.7-1.7-0.3-3.4-0.3-5.1C75.1,249.8,75.1,248.3,75.1,246.7z"/>
	<path class="st16" d="M363.5,159.5c0.1,1.2-1.6,2.5-2.7,2c-0.8-0.4-1.5-0.8-2.1-1.5c-1.7-2-3.3-4-4.9-6.1
		c-11.6-14.1-24.9-26.6-39.2-37.9c-0.8-0.7-1.7-1.3-2.4-2.1c-0.6-0.7-0.5-1.6,0.1-2.4c0.6-0.9,1.5-1,2.3-0.6
		c1.7,0.9,3.4,1.9,4.9,3.1c15.9,12.2,30.1,26.1,42.3,42C363.4,158.1,363.4,158.2,363.5,159.5z"/>
	<path class="st16" d="M342.7,176.6c0,1.2-1.9,2.3-3,1.6c-0.9-0.6-1.7-1.3-2.4-2.1c-2.5-3.3-4.8-6.6-7.4-9.9
		c-8.7-11.1-18.2-21.4-29.6-29.9c-0.7-0.5-1.3-1.1-1.9-1.7c-0.6-0.7-0.5-1.6,0-2.4c0.6-0.8,1.6-1.1,2.3-0.6c2.1,1.2,4.1,2.4,6,3.9
		c10,8,18.9,17.1,26.7,27.3c2.8,3.6,5.4,7.3,8.1,10.9C342.4,174.5,342.8,175.4,342.7,176.6z"/>
	<path class="st16" d="M122,197c-0.3,1.9-0.8,4-1.1,6.1c-2.2,13.7-2.8,27.5-2.3,41.4c0.1,1.9,0.5,3.9-0.3,5.8
		c-0.3,0.8-1.1,1.4-2,1.2c-0.6-0.1-1.4-0.5-1.6-1c-0.4-1-0.7-2.1-0.7-3.1c-1.1-16.7-0.2-33.3,3.3-49.7c0.2-1,0.6-2.1,1.1-3.1
		c0.4-0.8,1.2-1.3,2.1-1c0.9,0.2,1.5,0.9,1.6,1.8C122,195.9,122,196.4,122,197z"/>
	<path class="st16" d="M146.8,206.2c0,7.6,1.1,15.1,2.2,22.5c0.3,1.7,0.4,3.4,0.4,5.1c0,0.9-0.8,1.5-1.7,1.7c-0.9,0.1-1.8-0.2-2.2-1
		c-0.4-0.7-0.8-1.6-0.9-2.4c-1.7-10.5-3-21-2.5-31.6c0.1-1.7,0-3.5,1-5c0.5-0.8,1.3-1.2,2.2-0.9c0.5,0.2,1.2,0.8,1.4,1.3
		c0.3,0.8,0.2,1.7,0.2,2.6C146.8,201,146.8,203.6,146.8,206.2z"/>
	<path class="st16" d="M309.3,180.7c0,1.1-1.9,2.1-3,1.7c-1.1-0.5-1.7-1.3-2.3-2.2c-5.7-8.9-12.1-17.3-19-25.3
		c-0.7-0.8-1.5-1.6-1.5-2.8c0-0.6,0.3-1.3,0.7-1.7c0.4-0.3,1.3-0.4,1.7-0.2c0.8,0.3,1.5,0.9,2,1.5c7.4,8.1,14.3,16.7,20.1,26.1
		C308.8,178.6,309.4,179.5,309.3,180.7z"/>
	<path class="st16" d="M218.1,230.7c0.4,0.1,0.9,0.1,1.2,0.4c1.9,2.4,2.9,5.2,3.5,8.2c0.1,0.4-0.5,1.1-0.9,1.5
		c-0.2,0.1-1-0.1-1.1-0.3c-1.8-2.7-3-5.6-3.3-8.9C217.3,231.3,217.8,231,218.1,230.7z"/>
	<path class="st16" d="M188.8,189.4c-0.2,0.3-0.4,0.9-0.7,1c-0.3,0.1-0.8-0.1-1.2-0.3c-0.3-0.2-0.7-0.6-0.8-1
		c-0.7-2.3-2.7-4.4-1.6-7.2c0.1-0.1,0.4-0.2,0.6-0.2C186.9,182,188.8,186,188.8,189.4z"/>
	<path class="st16" d="M227.9,214.1c0.3,0.1,0.9,0.1,1,0.4c1.2,2.4,3.2,4.6,1.8,7.6c-0.1,0.1-0.4,0.3-0.6,0.2
		c-3.2-1.3-2.5-4.5-3.4-6.9C226.6,214.8,227.2,214.2,227.9,214.1z"/>
	<path class="st16" d="M246,234.4c-0.2,1.2-0.4,1.8-1.1,1.8c-0.4,0-0.9-0.2-1.1-0.4c-1.2-2-2-4.2-1.8-6.6c0-0.4,0.5-1,0.6-1
		c0.6,0.1,1.4,0.3,1.6,0.7C245.2,230.7,245.9,232.7,246,234.4z"/>
	<path class="st16" d="M235.7,183.3c0,0.3-0.3,1-0.9,1.1c-0.5,0.1-1.2-0.3-1.6-0.7c-0.4-0.4-0.4-1.2-0.6-1.8c-1.3-4.3-1.2-6.5,0.2-6
		c2.7,1,2.2,3.7,2.8,5.8C235.7,182.1,235.7,182.5,235.7,183.3z"/>
	<path class="st16" d="M247.2,201.2c0.2,0,0.5,0,0.6,0.2c1.8,1.8,2.2,4.1,1.7,6.5c-0.1,0.3-0.6,0.5-1,0.6c-0.2,0.1-0.5,0-0.6-0.1
		c-1.7-1.9-2.2-4.1-1.8-6.5C246.3,201.6,246.9,201.4,247.2,201.2z"/>
	<path class="st16" d="M201.9,237.7c-0.3,0.3-0.6,0.7-1,0.7c-0.3,0.1-0.9-0.1-1.1-0.4c-0.8-1.4-1.6-2.9-2.4-4.4
		c-0.4-0.8-0.6-1.6,0.2-2.3c0.6-0.5,1.9-0.1,2.5,1.2C201.1,234.1,202.4,235.7,201.9,237.7z"/>
	<path class="st16" d="M214.6,192.4c0.2,1.7-0.2,2.3-0.8,2.4c-0.5,0-1.4-0.3-1.6-0.7c-0.6-1.3-1.1-2.8-1.5-4.2
		c-0.3-0.8-0.1-1.7,0.5-2.4c0.4-0.5,1.9,0.5,2.3,1.6C214.1,190.6,214.5,192,214.6,192.4z"/>
	<path class="st16" d="M227.1,257.9c0.4,0.1,0.9,0,1.2,0.3c1.6,1.6,2.5,3.5,2.5,5.7c0,0.3-0.4,0.8-0.7,0.9c-0.3,0.1-0.9,0.1-1.2-0.1
		c-1.5-1.6-2.5-3.5-2.5-5.8C226.5,258.6,226.9,258.2,227.1,257.9z"/>
	<path class="st16" d="M203.5,213.1c-0.2,0.3-0.4,0.8-0.7,0.9c-0.3,0.1-0.9,0.1-1.1-0.1c-2.1-2.1-3.1-5.5-2.1-6.8
		c0.1-0.1,0.4-0.2,0.5-0.2C201.7,207.1,203.5,210.3,203.5,213.1z"/>
	<path class="st16" d="M248.7,261.1c-0.2,0.9-0.4,1.6-1.2,1.5c-0.4,0-1-0.2-1.1-0.4c-0.9-1.8-2.7-3.5-1.2-5.8
		c0.1-0.1,0.4-0.2,0.6-0.1C248.4,257,248.2,259.3,248.7,261.1z"/>
	<g>
		<path class="st29" d="M178.9,114.8c1.6-1.1,3.1-2.2,4.6-3.3c10.9-8,23-12.9,36.6-13.6c0.9,0,1.9-0.2,2.8-0.2
			c1.8,0,3.2-0.8,4.1-2.3c0.7-1.2,1.4-2.5,2.2-3.6c7-10,16.5-16,28.7-17.7c3.3-0.5,4.3,0.3,4.5,3.7c0.7,11.9-3.5,21.7-12.6,29.4
			c-2.2,1.8-4.5,3.4-6.9,5c-1.9,1.2-2.4,2.7-2.1,4.8c1.3,8.5,1.3,17-0.6,25.3c-2.2,9.8-7.3,17.9-15.6,23.7
			c-6.1,4.3-12.8,5.7-20.2,3.5c-4.8-1.4-9.3-3.5-13.3-6.4c-7.8-5.8-14.8-12.4-19.8-20.9c-0.6-1-1.2-2-1.8-3c-0.8-1.4-2-1.8-3.5-1.8
			c-2.3,0-4.7-0.1-7-0.5c-14.1-2.4-23.1-10.9-28.4-23.8c-0.7-1.6,0-2.8,1.4-3.6c2-1.2,4.1-2.3,6.3-3.1c7.8-2.7,15.7-3,23.6-0.4
			c4.1,1.3,7.9,3.2,11.5,5.4C175.2,112.4,177,113.6,178.9,114.8z"/>
		<path d="M222.6,143.9c-3.9,4.2-9.1,6.8-15.2,7.1c-1.8,0.1-2.9,1.1-3.8,2.7c-0.7,1.2-1.5,2.4-2.4,3.4c-0.7,0.9-2.6,0.7-3-0.4
			c-0.6-1.5-1.1-3.1-1.5-4.7c-1-4.3-0.5-6.4,4.7-5.2c8.1,1.9,14.7-0.7,20-7.1c1.3-1.6,2.2-4.4,4.5-4.1c3.1,0.4,2.8,3.9,3.9,6.1
			c0.3,0.6,0.5,1.3,0.6,2c0.1,0.9,0.3,1.9-0.6,2.6c-0.9,0.6-1.7,0.4-2.6-0.1C225.7,145.6,224.8,143.9,222.6,143.9z"/>
		<path class="st4" d="M190.3,141.5c-2.6-0.1-5-2.5-5-4.9c0-2.5,2.5-4.6,5.3-4.3c2.8,0.3,4.8,2.5,4.5,5.1
			C194.8,139.7,192.6,141.6,190.3,141.5z"/>
		<path class="st4" d="M221,119.8c2.4,0.2,4.3,2.4,4.1,4.7c-0.2,2.4-2.4,4.1-4.9,3.7c-2.2-0.3-3.8-2.1-3.8-4.2
			C216.5,121.6,218.7,119.6,221,119.8z"/>
		<path d="M187.7,141.6c-1.8,0-3.5-1.7-3.6-3.6c-0.1-1.9,1.7-3.4,3.6-3.2c2,0.2,3.3,1.8,3.1,3.8
			C190.8,140.2,189.3,141.7,187.7,141.6z"/>
		<path d="M222.1,125.3c0,1.8-1.4,3.1-3,2.9c-1.7-0.2-2.9-1.4-2.9-3.2c0-1.7,1.3-2.9,3.1-2.9C221,122.3,222.2,123.5,222.1,125.3z"/>
	</g>
</g>
</svg>
