<?xml version="1.0" encoding="utf-8"?>
<!-- Generator: Adobe Illustrator 25.1.0, SVG Export Plug-In . SVG Version: 6.00 Build 0)  -->
<svg version="1.1" id="Calque_1" xmlns="http://www.w3.org/2000/svg" xmlns:xlink="http://www.w3.org/1999/xlink" x="0px" y="0px"
	 viewBox="0 0 607.6 462.5" style="enable-background:new 0 0 607.6 462.5;" xml:space="preserve">
<style type="text/css">
	.st0{fill:#E5BE9E;}
	.st1{fill:#19935C;}
	.st2{fill:#004C26;}
	.st3{fill:#006836;}
	.st4{fill:#FFFFFF;}
	.st5{fill:#B25E26;}
	.st6{fill:#D3803C;}
	.st7{fill:#662704;}
	.st8{fill:#A0A0A0;}
	.st9{fill:#7C7C7C;}
	.st10{fill:#D8D8D8;}
	.st11{fill:#FFAF2E;}
	.st12{fill:#E27600;}
	.st13{fill:#FF6695;}
	.st14{fill:#FFEB76;}
	.st15{fill:#FFCF48;}
	.st16{fill:#6D6D6D;}
	.st17{fill:#C6C6C6;}
	.st18{fill:#CCCCCC;}
	.st19{fill:#F987B6;}
	.st20{fill:#CE3A6F;}
	.st21{fill:#CECECE;}
	.st22{fill:#565656;}
	.st23{fill:#F77CA9;}
	.st24{fill:#723100;}
	.st25{fill:#E8D09C;}
	.st26{fill:#6B5738;}
	.st27{fill:#69C498;}
	.st28{fill:#FF8B2C;}
	.st29{fill:#B2B2B2;}
	.st30{fill:#848484;}
	.st31{fill:#726359;}
	.st32{fill:#CABAAB;}
	.st33{fill:#E8E2DD;}
	.st34{fill:#D3BD90;}
	.st35{fill:#EAAD8B;}
	.st36{fill:#CEB78A;}
	.st37{fill:#EAE4DC;}
	.st38{fill:#7F7870;}
	.st39{fill:#84AFD3;}
	.st40{fill:#5F94B7;}
	.st41{fill:#D37E02;}
</style>
<g>
	<path class="st0" d="M378.6,416.8c-35.9-19.4-64.3-45.4-85-78c-20.7-32.6-31-67.6-31-105.1c0-31.3,7.5-61.6,22.5-90.9
		c15-29.3,35-54.4,60.1-75.3c25.1-20.9,52.9-35.1,83.3-42.6c14.1-4,27.6-6.4,40.7-7.3c13-0.9,29.4-1.3,49.2-1.3h39v54.8h-39
		c-18.5,0-33.6,0.5-45.2,1.3c-11.7,0.9-23.3,3.1-34.7,6.6c-22.1,6.6-42.1,17.7-60.2,33.4c-18.1,15.7-32.4,34-42.9,55.2
		c-10.6,21.1-15.9,42.9-15.9,65.4c0,27.8,7.9,53.8,23.8,78c15.9,24.3,37.5,43.6,65.1,58.2c27.5,14.5,57.6,21.8,90.2,21.8h32.4V234.4
		h56.1v211.5h-87.9C454.7,445.9,414.5,436.2,378.6,416.8z"/>
</g>
<g>
	<path class="st11" d="M281.5,187.1c-1.1,1.3-1,2.8-1.1,4.3c-2.2,26.3-4.5,52.7-6.6,79c-1,12.6-1.6,25.3-2.1,38
		c-0.9,22.3-1.5,44.7-2.6,67c-0.8,14.8-2.3,29.6-3.5,44.3c-0.1,1.7-0.6,3.4-0.7,5.1c-0.2,2.3-1.2,3.5-3.5,3.8
		c-8.7,1.2-10.2,1.7-10.4-8.3c-0.3-15.5-0.8-30.9-1.1-46.4c-0.1-2.1-0.1-4.3-0.3-6.4c-0.1-1.2-0.8-1.9-2.1-2.1
		c-0.2,0-0.4-0.1-0.6-0.1c-10.5,0.1-9.1-1.2-10.5,8.4c-1.9,12.7-3.3,25.6-4.9,38.4c-0.6,4.9-1.3,9.8-2,14.7
		c-0.4,2.9-1.5,3.7-4.3,3.7c-1.5,0-3-0.1-4.5-0.2c-4.6-0.2-4.8-0.4-5.2-5.3c-1-11.8-0.7-23.6-0.2-35.4c0.3-6.2,0.5-12.5,0.8-18.7
		c0.1-1.4-0.3-2.6-2-2.6c-12,0.1-24,0.1-36.1,1.1c-1.4,3.4-1.3,6.8-1.9,10.1c-0.6,3.2-1.1,6.4-1.5,9.6c-1.5,12.6-2.9,25.2-4.4,37.8
		c-0.3,2.3-0.6,4.7-1,7c-0.3,1.4-1.2,2.3-2.7,2.3c-3.4,0.1-6.9,0.3-10.3-0.5c-1.7-0.4-2.7-1.4-2.7-3.1c-0.1-3.2-0.1-6.5,0.1-9.7
		c0.8-16.7,1.7-33.5,2.6-50.2c0-0.4-0.2-0.8-0.4-1.4c-0.7-0.1-1.6-0.4-2.4-0.4c-5.4-0.1-10.7-0.3-16.1-0.2c-2,0-2.5,0.5-2.7,2.8
		c-0.8,8.3-1.5,16.7-2.1,25.1c-0.7,10.5-1.9,21-3.7,31.4c-0.5,2.7-1.3,5.4-2.1,8.1c-0.6,1.8-1.9,2.8-3.9,2.8
		c-2.8-0.1-5.6-0.2-8.4-0.4c-2.1-0.2-2.9-1-3.1-3.4c-0.3-3.9-0.6-7.7-0.5-11.6c0.1-17.6-1.3-35.2-0.7-52.9
		c0.4-10.8,1.9-21.4,5.5-31.6c4.7-13.6,13.5-23.8,25.7-31.2c8.5-5.2,17.6-9,27.1-12c14.4-4.5,29-7.8,43.8-10.6
		c4.4-0.8,8.9-1.6,13.3-2.3c2.3-0.3,3.3-1.4,3.6-3.7c1-7.2,2.3-14.4,3.3-21.7c3.6-24,7.2-48,10.7-72c1-7,1.9-14.1,2.8-21.1
		c0.2-1.3-0.5-2.1-1.8-2.1c-3.3-0.1-6.3-1.1-9.3-2.4c-2.2-1-4.1-2.4-5.8-4c-2.6-2.5-2.4-4,0.8-6c4.3-2.8,9.1-3.6,14.2-3
		c1.3,0.1,2.5,0.5,3.8,0.6c1.1,0.1,2-0.2,3-0.9c2.5-1.8,2.7-2.6,0.7-5.1c-1.4-1.7-2.8-3-5.1-3.6c-2.6-0.7-3.6-2.9-3-4.9
		c0.8-2.9,3.7-5.1,6.2-4.7c1.8,0.3,3.4,1.7,3.7,3.9c0.3,1.9,0.4,3.7,1.7,5.4c4,4.9,3,4.4,8.2,1.7c0.8-0.4,1.5-0.8,2.3-1.2
		c2.6-1.5,2.9-2,1.9-4.6c-0.9-2.6-1.7-5.1-4.4-6.8c-2.6-1.6-2.7-4.6-1.2-6.8c1.7-2.4,5.7-3.3,8.1-1.6c1.7,1.2,2.9,3.1,2,5
		c-1.6,3,0,5.4,0.9,8c0.4,1.1,1,2,2.2,2c1.3-0.1,2.6-0.3,3.3-1.7c0.5-1.2,0.9-2.4,1.5-3.6c2.3-5,6-8.9,10.8-11.6
		c2.3-1.3,3.6-0.8,4.5,1.6c2.1,6,1.8,12.1-1.7,17.3c-2.6,3.9-2.2,6.6,0.1,10.3c5.5,9,10.5,18.2,15.7,27.4c1.5,2.6,2.9,5.3,3.9,8.1
		c1.5,4.3,1,8.5-2.1,12.1c-3.9,4.7-9,5.8-14.4,2.8c-3.8-2.1-7.1-4.9-10.3-7.7C284.8,189,283.7,187.2,281.5,187.1z"/>
	<path class="st11" d="M90.3,338.4c-5.4-2.1-10.4-5.9-15.1-10c-6.2-5.3-11.8-11.2-16.9-17.6c-1.8-2.3-3.8-3.7-6.9-4.2
		c-9.7-1.5-15.6-7.6-18.4-16.7c-0.7-2.3-1.4-4.5-1.9-6.8c-0.7-2.8,0.4-3.9,3.4-3.7c8.5,0.7,15,4.8,19.5,12c0.9,1.4,1.9,3,2.3,4.6
		c1.3,5.3,4.7,9,8.5,12.5c5.5,5.1,10.7,10.6,16.5,15.3c3.3,2.7,6.9,5.1,10.7,7.1c7.4,3.8,15.1,4.8,23.1,3.1c2.1-0.4,4.2-1,6.3-1.4
		c1.4-0.3,2.6,0,3.1,1.5c0.8,2.3,0.4,4.4-1.1,5.2c-1.2,0.5-2.4,1-3.6,1.3C109.8,343.1,100.1,342.6,90.3,338.4z"/>
	<path class="st24" d="M202.7,356.3c-0.8-0.1-2.1,0-3.3-0.2c-6.3-1.3-12.4-3.3-18.1-6.4c-1.7-0.9-3.3-2.1-4.5-3.6
		c-1.6-2.1-1.8-4.4-0.4-6.6c2.6-4.1,6.4-6.8,10.6-9.1c1.6-0.8,3.4-0.7,5-0.3c5.6,1.6,11.1,3.2,16.7,4.9c2.2,0.6,3.9,1.8,4.9,3.9
		c1.3,2.9,3,5.8,2.3,9.2c-0.2,1-0.7,2.1-1.5,2.8C211.3,353.9,207.7,356.1,202.7,356.3z"/>
	<path class="st24" d="M225.5,291.1c0.6,4.6-0.6,7.4-3.1,9.3c-6,4.6-12.6,8.2-20,9.8c-4.1,0.9-8.1-0.4-11.9-2
		c-1.4-0.6-2.5-1.7-3.3-3c-0.9-1.4-1.9-2.9-2.6-4.4c-4.1-8.7-2.4-7.6,4.3-9.2c10.2-2.4,20.5-4.5,30.7-6.7c3.4-0.7,4.1-0.2,5.1,3.1
		C225.3,289.5,225.5,291,225.5,291.1z"/>
	<path class="st24" d="M258.8,198.9c-0.3,6.4-1.2,12.8-2.9,19c-0.6,2.3-2.1,4.2-4,5.7c-4,3-8.3,5.3-12.8,7.4
		c-1.6,0.8-3.1-0.3-2.8-2.2c0.8-6,1.7-11.9,2.5-17.8c1.2-8.9,2.5-17.8,3.7-26.7c0.2-1.2,1.3-1.9,2.3-1.4c3.9,2.2,7.8,4.5,11,7.8
		C258.1,193,258.8,195.8,258.8,198.9z"/>
	<path class="st24" d="M255.5,282.2c-5.2,0-9.5-2.1-13.1-5.9c-1.1-1.2-1.5-2.6-1.5-4.1c-0.1-6.1,1.5-11.9,4.4-17.2
		c0.6-1.1,1.6-2.1,2.6-2.8c6.3-4.9,8.9-4.5,14.2-0.1c2,1.6,3.7,3.6,5.4,5.5c1.9,2.1,2.5,4.6,1.6,7.2c-1.8,5.3-4.3,10.3-8,14.6
		C259.6,281,257.8,282.1,255.5,282.2z"/>
	<path class="st24" d="M138.3,344.7c0,1.6,0.1,3.3-0.1,5c-0.3,2.9-1.5,5.4-4,7c-3.6,2.3-7.2,4.6-11.1,6.5c-3.1,1.5-6.7,1.4-10.1,1.1
		c-1.5-0.1-2.2-1.2-2.2-2.7c0.1-1.9,0.3-3.8,0.6-5.7c0.9-7,3.1-13.7,5.5-20.4c0.9-2.3,2.3-3.5,4.8-3.4c2.4,0.1,4.7,0.1,7,0.3
		c5.2,0.5,7.7,2.7,8.9,7.7C138,341.6,138.1,343.1,138.3,344.7z"/>
	<path class="st24" d="M244.5,366.2c-7.3,0.2-7.3,0.1-9.2-6.7c-0.8-2.8-0.8-5.5,0.3-8.2c2.5-6.2,5.6-12.1,9.4-17.6
		c0.7-1,1.6-2,2.6-2.8c2.4-1.8,5.8-1.7,7.5,0.7c4,5.7,7.1,11.9,4,19.2c-1.4,3.3-3,6.7-4.8,9.8C251.5,365.6,250.4,366,244.5,366.2z"
		/>
	<path class="st24" d="M152.4,318.1c-5.5,0.2-9.8-1.7-14-3.9c-1.2-0.6-1.3-2.2-0.2-3.3c0.6-0.6,1.3-1.1,2-1.6c7.7-5.1,16-9,25-11.5
		c0.6-0.2,1.3-0.3,1.9-0.4c1.5-0.2,2.6,0.5,2.8,1.9c1.1,5.3,0.1,9.7-4.8,12.8c-2.9,1.8-5.9,3.6-9,4.9
		C154.8,317.7,153.3,317.9,152.4,318.1z"/>
	<path class="st24" d="M279.4,221.7c-0.9,7.9-1.7,16-2.7,24.1c-0.3,2.5-2.1,3.4-4.2,2.2c-2.4-1.4-4.8-2.9-7-4.6
		c-3.3-2.5-4.2-5.8-3-9.7c0.2-0.6,0.5-1.2,0.6-1.8c1.3-7.2,6-11.1,12.7-13.1C278.2,218,279.4,218.8,279.4,221.7z"/>
	<path class="st24" d="M273.3,301.8c0.2,6.6-0.3,12.1-1,17.7c-0.1,1-0.4,2.1-0.8,3.1c-0.3,0.9-1.2,1.2-2.1,0.9
		c-6.2-2.3-10.3-7.8-10.4-14.2c-0.1-4.6,1.5-8.5,5.6-10.9c2.3-1.4,4.7-4.4,7.3-3.2C274.8,296.5,273,300.1,273.3,301.8z"/>
	<path d="M121.7,441.5c-2.6-0.1-5.4,0.2-8.2-0.6c-2.1-0.6-2.8-1.4-3-3.6c-0.1-1.3,0-2.6,0.1-3.9c0.2-1.7,1.2-2.8,3-2.8
		c4.1,0,8.2,0.1,12.2,0.2c1.2,0,2.2,0.6,2.4,1.7c0.5,2.4,0.3,4.7-0.7,6.9c-0.5,1.1-1.4,1.6-2.5,1.8
		C124,441.4,122.9,441.4,121.7,441.5z"/>
	<path d="M165.2,437.1c-2.7-0.2-5.9-0.4-9.1-0.8c-2.1-0.3-2.9-1.3-3.1-3.5c-0.1-1.3-0.1-2.6,0-3.8c0.1-1.8,1.1-2.8,2.9-2.8
		c4.3,0.2,8.5,0.5,12.8,0.9c1.2,0.1,1.9,1,2,2.2c0,1.3,0,2.6-0.2,3.8C169.8,436.3,168.8,437.1,165.2,437.1z"/>
	<path d="M258.8,420c0.4,0,0.8,0,1.3-0.1c5.4-0.4,6.2-0.3,5.9,5.9c-0.1,2.3-1.2,3.6-3.5,3.9c-2.7,0.3-5.5,0.4-8.2,0.2
		c-2.3-0.1-3.3-1.3-3.5-3.7c-0.1-1-0.1-2.1,0-3.2c0.2-1.4,0.9-2.4,2.4-2.6C255,420.2,256.9,420.2,258.8,420
		C258.8,420,258.8,420,258.8,420z"/>
	<path d="M224,432.1c-0.7,0-1.9-0.1-3.2-0.2c-5-0.5-5.7-1.3-5.3-6.5c0.1-2,0.8-2.9,2.6-3c3.6-0.3,7.3-0.3,10.9,0.3
		c1.8,0.3,2.5,1.2,2.4,3.1c0,0.6-0.1,1.3-0.2,1.9c-0.6,3.3-1.7,4.2-5.2,4.4C225.4,432.1,225,432.1,224,432.1z"/>
	<path class="st4" d="M269.8,167.5c-1.9,0.2-3.6-0.8-3.9-2.5c-0.4-1.9,1-3.9,3-4.2c2.1-0.4,4,0.9,4.3,2.9
		C273.4,165.5,271.9,167.2,269.8,167.5z"/>
	<path class="st4" d="M290.6,153.7c0,1.8-1.3,3.4-3,3.6c-1.8,0.2-3.4-1.1-3.5-2.9c-0.1-1.9,1.2-3.4,2.9-3.6
		C288.9,150.5,290.5,151.9,290.6,153.7z"/>
	<path d="M300.5,192.2c0,1.2-1.2,2.3-2.5,2.3c-1.3,0-2.3-1-2.3-2.4c0-1.3,1.1-2.3,2.4-2.2C299.5,189.9,300.5,190.9,300.5,192.2z"/>
	<path d="M308.3,186.1c0,0.2-0.8,0.9-1.8,1.2c-1.1,0.3-2.1,0-2.6-1.1c-0.5-1.1,0.5-2.5,1.8-2.8C306.8,183.2,307.8,183.9,308.3,186.1
		z"/>
	<path d="M268.8,163.2c0-1.6,1.3-2.8,3-2.6c1.4,0.1,2.4,1,2.6,2.4c0.2,1.5-1,2.9-2.6,3C270.2,166.1,268.8,164.8,268.8,163.2z"/>
	<path d="M289.6,150.4c1.4-0.1,2.6,0.8,2.7,2.1c0.2,1.6-1,3-2.5,3.1c-1.3,0.1-2.5-0.8-2.7-2.2C286.8,151.8,287.9,150.5,289.6,150.4z
		"/>
</g>
</svg>
