<?xml version="1.0" encoding="utf-8"?>
<!-- Generator: Adobe Illustrator 25.1.0, SVG Export Plug-In . SVG Version: 6.00 Build 0)  -->
<svg version="1.1" id="Calque_1" xmlns="http://www.w3.org/2000/svg" xmlns:xlink="http://www.w3.org/1999/xlink" x="0px" y="0px"
	 viewBox="0 0 607.6 462.5" style="enable-background:new 0 0 607.6 462.5;" xml:space="preserve">
<style type="text/css">
	.st0{fill:#E5BE9E;}
	.st1{fill:#19935C;}
	.st2{fill:#004C26;}
	.st3{fill:#006836;}
	.st4{fill:#FFFFFF;}
	.st5{fill:#B25E26;}
	.st6{fill:#D3803C;}
	.st7{fill:#662704;}
	.st8{fill:#A0A0A0;}
	.st9{fill:#7C7C7C;}
	.st10{fill:#D8D8D8;}
	.st11{fill:#FFAF2E;}
	.st12{fill:#E27600;}
	.st13{fill:#FF6695;}
	.st14{fill:#FFEB76;}
	.st15{fill:#FFCF48;}
	.st16{fill:#6D6D6D;}
	.st17{fill:#C6C6C6;}
	.st18{fill:#CCCCCC;}
	.st19{fill:#F987B6;}
	.st20{fill:#CE3A6F;}
	.st21{fill:#CECECE;}
	.st22{fill:#565656;}
	.st23{fill:#F77CA9;}
	.st24{fill:#723100;}
	.st25{fill:#E8D09C;}
	.st26{fill:#6B5738;}
	.st27{fill:#69C498;}
	.st28{fill:#FF8B2C;}
	.st29{fill:#B2B2B2;}
	.st30{fill:#848484;}
	.st31{fill:#726359;}
	.st32{fill:#CABAAB;}
	.st33{fill:#E8E2DD;}
	.st34{fill:#D3BD90;}
	.st35{fill:#EAAD8B;}
	.st36{fill:#CEB78A;}
	.st37{fill:#EAE4DC;}
	.st38{fill:#7F7870;}
	.st39{fill:#84AFD3;}
	.st40{fill:#5F94B7;}
	.st41{fill:#D37E02;}
</style>
<g>
	<path class="st0" d="M371.6,316.2c0-66.1,8-121.9,23.9-167.5c16-45.6,40.1-80.4,72.6-104.4c32.4-24,72.8-36,121.1-36v429.5h-41.1
		V330.1H412.8v107.7h-41.1V316.2z M548.1,277.9V67.1c-41.2,8.4-73.1,29.8-95.5,64.4c-22.4,34.6-35.2,83.4-38.4,146.4H548.1z"/>
</g>
<g>
	<path class="st1" d="M313.8,418.9c-2.1,0.5-2.3,2.5-3.3,3.8c-1,1.4-1.9,3.1-3.9,2.7c-1.5-0.3-2.1-1.8-2.6-3.2
		c-0.5-1.6-0.4-3.4-2.2-4.6c-1.4,1.9-2.8,3.8-4.3,5.6c-1,1.2-3,0.7-3.6-0.7c-1.1-2.5-1.1-5.2-1.1-7.9c0-9.2,0.4-18.5,1.2-27.7
		c0.1-1.2,0.2-2.4,0.2-3.6c0-1.1-0.6-1.8-1.6-2.1c-0.2-0.1-0.5-0.1-0.7-0.2c-4.7-1-9.5-2-14.2-3c-3,4.1-3.1,9.1-4.5,13.6
		c-2.8,9.1-5.3,18.2-8.7,27c-1,2.5-1.9,5-3.9,6.9c-0.9,0.8-2.4,0.6-3.3-0.2c-1.2-1.2-0.5-3.3-2.4-4.3c-1.7,1.7-3.4,3.4-5.2,5
		c-1.4,1.2-3.5,0.4-4-1.4c-0.3-0.9-0.4-1.9-0.5-2.9c-0.2-0.9-0.1-1.9-1-2.7c-1.8-0.3-2.1,1.5-3.1,2.4c-0.9,0.8-1.7,1.8-2.6,2.5
		c-1.4,1.2-3.9,0.1-3.8-1.7c0.2-3.1,0.3-6.3,1.1-9.4c1.7-7.1,3.7-14.1,5.7-21.1c1.3-4.7,2.7-9.3,4.4-13.9c1.2-3.2,0.7-6-0.8-9
		c-6.9-12.9-13-26.1-18.5-39.6c-9.5-23.4-18.3-47.1-24.4-71.6c-0.3-1.2-0.6-2.4-0.9-3.5c-0.4-1.5-1.5-1.8-2.8-1.6
		c-1.9,0.4-3.8,0.8-5.7,1.3c-9.6,2.6-19.2,5.2-28.8,7.8c-3.1,0.8-6.2,1.3-9.4,1c-1.9-0.2-2.8-2-1.9-3.8c0.6-1.3,2.1-2,2.3-4.1
		c-1.4-0.8-3,0.1-4.6,0.1c-1.4,0-3.1,0.5-3.7-1.3c-0.6-1.6,0.7-2.7,1.7-3.7c1-1,2.2-1.9,3.2-3c0.5-0.5,0.6-1.2,0.9-1.9
		c-1.9-0.8-3.5,0.2-5.1,0.3c-1.5,0.1-2.9,0.3-4.4,0.4c-1,0-2-0.3-2.4-1.3c-0.4-1,0-1.9,0.8-2.5c1.2-0.9,2.3-1.8,3.6-2.5
		c3.2-1.8,6.3-3.7,9.6-5.3c12.9-6.3,25.6-12.8,38.9-18.3c1.3-0.6,2.7-1.1,4-1.8c1.1-0.6,2-1.5,1.9-2.9c-0.4-7.8-0.8-15.5-1.3-23.3
		c0-0.7-0.4-1.4-0.8-2c-2.2-2.9-4.4-5.7-6.5-8.3c-2.3,0.6-2.2,2.3-2.8,3.5c-1,2.2-1.8,4.5-2.8,6.7c-1.1,2.5-2.5,2.9-4.5,1.2
		c-2-1.7-4-3.6-5.9-5.4c-1.1-1-2.1-2-3.5-3.3c-2.1,2.5-2.5,5.4-3.5,7.9c-4.3,11-4.7,9-11.9,2.9c-2.6-2.2-4.7-4.9-8.2-6.5
		c-2.1,3.7-4.1,7.3-6.1,10.9c-0.8,1.5-1.6,3-2.6,4.4c-0.8,1.1-2.1,1.3-3.2,0.3c-1.5-1.3-2.8-2.7-4.2-4c-0.9-0.9-1.6-1.8-2.5-2.6
		c-1.5-1.5-2.3-1.5-3.6,0c-1.7,2.1-3.3,4.2-4.9,6.3c-0.9,1.1-1.8,2.3-2.8,3.3c-0.5,0.5-1.3,0.8-2,0.3c-0.4-0.3-0.8-0.7-0.8-1.1
		c-0.2-3.4-0.4-6.8-0.4-10.2c0.1-4.8,0.5-9.6-0.7-14.5c-1.2-5,3.3-8.5,8.1-6.4c2.8,1.3,4.9,1.3,7.5-0.1c1.6-0.9,2.7-2,3-3.8
		c0.2-0.9,0.4-1.9,0.8-2.8c1.8-3.8,5.8-5.4,9.8-3.8c1.1,0.4,2.1,1.2,3.1,1.8c0.9,0.5,1.8,0.6,2.8,0.2c0.7-0.3,1.4-0.5,2-0.9
		c16-8.7,32.8-15.8,49.4-23.3c3.4-1.5,5.6-3.4,6-7.3c0.5-4.6,2.3-8.9,5-12.8c3.4-4.7,7.9-7.1,13.8-6.2c4.1,0.6,7.4,2.7,9.4,6.2
		c1.6,2.8,3.6,3.7,6.6,3.2c1-0.2,1.9-0.2,2.9-0.2c2.6,0.1,4.6-0.7,6-3.2c1.2-2.1,3.1-3.7,5.1-5.1c7.4-5,15.5-2.6,17.9,6
		c1.5,5.3,3.5,9.8,7.7,13.5c2.9,2.5,4.9,6,6.6,9.6c4.9,10.3,9.3,20.8,11.7,32.1c3.1,14.5,6,29,8.4,43.6c2.5,15.1,6.1,30,10.4,44.7
		c2.7,9.1,7,17.6,12.6,25.3c3,4.2,6.6,7.8,11.1,10.3c13,7.1,26.6,6,38-3.6c9.8-8.3,16.9-18.7,22.5-30.2c3.8-7.9,7-16,10-24.3
		c2-5.5,4-11,6.7-16.1c1.7-3.3,3.7-6.3,6.4-8.8c4.4-4.1,9-3.3,11.9,2c1.7,3.1,2.2,6.4,2.7,9.8c1.5,12.2,0.9,24.3-1.5,36.3
		c-4.4,22.4-12.5,43.4-24.7,62.7c-8.8,13.9-19.9,25.7-33.3,35.3c-12.4,8.9-26,15.2-40.9,18.3c-6,1.2-9.1,3.3-9.8,10
		c-0.9,8.4-3.2,16.7-5.1,25c-0.6,2.6-1.5,5.1-2.4,7.6c-0.4,1.1-1.1,2.1-1.9,3.1c-1.1,1.4-3.5,1.1-4.2-0.7
		C315,423,314.4,420.9,313.8,418.9z"/>
	<path class="st2" d="M373.2,294.9c1.6-1.9,0.9-4.1,1.1-6.3c0.3-3.1,0.3-6.3,0.7-9.4c0.2-2.1,1.4-2.9,3.6-2.6
		c3.6,0.4,7.2,1.1,10.8,1.5c2.8,0.4,3.6-0.4,3.3-3.1c-0.5-5.3-1.3-10.6-1.8-15.9c-0.3-3.1,0.3-4,3.3-4.5c2.6-0.4,5.3-0.6,7.9-1
		c0.9-0.2,1.8-0.9,1.2-2.1c-0.7-1.5-1.5-3.1-2.2-4.6c-1.2-2.4-2.4-4.8-3.5-7.2c-1.2-2.9-0.4-4.6,2.9-5.2c3.5-0.7,7.2-0.9,10.6-1.3
		c0.9-1.8,0-3.1-0.4-4.4c-1.4-4.1-2.9-8.3-4.1-12.4c-0.7-2.2,0.5-3.9,2.9-3.9c3.2-0.1,6.3-0.1,9.5,0.3c11.7,1.2,13-1,6.1,10.3
		c-3.2,5.2-5.4,10.8-7.2,16.7c-3.4,10.9-7.7,21.5-12.7,31.7c-5.7,11.5-14,21.1-23.7,29.3c-11.5,9.7-28.9,11.5-42.2,3.3
		c-7.2-4.5-13-10.1-17.2-17.4c-5.9-10.4-10.3-21.4-12.7-33.2c-1.8-9.3-4.2-18.5-5.4-27.9c-0.3-2.6-0.9-5.3-1.7-7.8
		C298,204,294.8,190,292,176c-2.3-11.2-5.7-22.1-9.2-33c-0.7-2.1-1.2-4.2-1.6-6.3c-0.3-1.6,0.7-3,2.4-2.9c4.6,0.1,9.2,0.2,13.8,0.5
		c1.6,0.1,2.5,1.7,1.9,3.2c-0.9,2.3-1.9,4.5-2.9,6.7c-1,2.2-2.2,4.3-3.2,6.5c-0.8,1.7-0.4,2.7,1.5,3.4c3.2,1.2,6.4,2.3,9.6,3.4
		c2,0.8,4.1,1.6,6.1,2.5c1.5,0.7,1.9,2.2,0.8,3.6c-2,2.7-4.1,5.4-6.4,8c-4.2,4.8-4.3,4.8,1.8,8.1c3.2,1.7,6.4,3.6,9.4,5.5
		c2.4,1.5,2.5,2.5,0.7,4.7c-2.6,3.2-5.5,6.1-8.3,9.2c-1.4,1.5-1.3,2.5,0.6,3.3c2.4,1.2,4.9,2.2,7.3,3.3c1.6,0.7,3.1,1.3,4.6,2.1
		c2.1,1.1,2.5,2.7,1.1,4.8c-1.1,1.6-2.4,3.1-3.5,4.7c-2,3.2-5.5,5.4-6.1,9.5c2.5,2.8,6,4,9,6c2.6,1.7,5.4,3.3,8,5
		c2.1,1.4,2.4,2.7,0.9,4.9c-2.5,3.6-5.2,7-7.9,10.5c-5.4,7-5.4,7,3.1,9.5c4,1.1,7.9,2.3,11.8,3.6c1.6,0.5,2,2.1,1.3,3.6
		c-0.8,1.5-1.7,3-2.6,4.4c-1.1,1.6-2.2,3.2-3.3,4.8c-0.7,1-1.7,2.1-0.8,3.2c0.4,0.5,1.8,0.5,2.7,0.5c2.7-0.2,5.3-0.6,8-0.8
		c5.6-0.4,6,0,6.7,5.8c0.4,3.1,0.7,6.3,1.1,9.4c0.1,0.6,0.4,1.4,0.9,1.8c1,0.7,1.9-0.2,2.5-0.8c1.6-1.8,3.1-3.7,4.6-5.6
		c1.1-1.3,2-2.8,3.2-4c0.9-1,2.2-1.1,3.3-0.2c1.5,1.2,2.9,2.6,4.4,3.8C370.5,293.1,371.2,294.9,373.2,294.9z"/>
	<path class="st3" d="M253.7,280.8c-1.8,0.3-3.7,0.9-5.6,1c-2.5,0.2-4.2-1.4-4.3-3.9c0-1.4,0.3-2.9,0.5-4.3c-2-1-3.7,0.6-5.7,0.4
		c-1.9-0.2-3.2-1.7-2.5-3.5c0.8-2,1.6-4.1,2.9-5.8c10.7-14.7,22-28.9,35.7-41.1c2.9-2.6,6.1-4.7,9.8-6.1c5.1-1.9,9.5-0.9,13.4,2.7
		c4.1,3.8,6.7,8.2,4.8,14.2c-1.1,3.5-2.5,6.8-4.3,10c-8.8,15-20,27.9-33.3,39.1c-2.2,1.9-4.5,3.7-7.5,4.3c-1.5,0.3-2.9-0.6-3.3-2
		C253.8,284.1,255,282.4,253.7,280.8z"/>
	<path class="st2" d="M212.4,170.2c-3.6,3.9-6.6,7.1-9.6,10.2c-1.5,1.6-3.1,3.1-4.7,4.6c-0.8,0.7-1.8,0.5-2.7-0.1
		c-1.1-0.8-1.5-2-0.7-3.2c1.1-1.6,2.3-3.1,3.6-4.6c3.2-3.6,6.4-7.3,9.7-10.8c3.8-3.9,6-3.7,9.5,0.6c1.4,1.7,2.5,3.6,3.7,5.4
		c2.2,3,2.8,3,5.3-0.1c1.5-1.9,2.9-3.9,4.5-5.7c0.8-0.9,1.6-1.9,2.5-2.6c1-0.8,2.2-0.9,3.3,0.1c1.1,0.9,1.1,2.1,0.8,3.3
		c-0.1,0.5-0.4,0.9-0.7,1.3c-3.1,4-6.1,8.2-9.4,12c-2.7,3.2-5.2,3-7.8-0.3C217.4,177.3,215.2,174,212.4,170.2z"/>
	<path class="st4" d="M228.7,128.1c0.1,3.4-2.2,6.1-5.5,6.4c-3.2,0.3-5.9-2.4-5.8-5.8c0.1-3.5,2.4-5.9,5.8-6
		C226.3,122.6,228.6,124.9,228.7,128.1z"/>
	<path class="st4" d="M266.1,125.5c0.2,2.7-1.8,5.1-4.5,5.5c-2.5,0.4-4.7-1.8-4.8-4.9c-0.1-2.6,1.6-4.8,3.9-5.1
		C263.3,120.6,265.9,122.8,266.1,125.5z"/>
	<path d="M219,124.9c2.3-0.2,4.6,1.9,4.8,4.4c0.2,2.2-1.6,4.1-3.9,4.2c-2.4,0.2-4.4-1.4-4.7-3.4C214.8,127.6,216.7,125.1,219,124.9z
		"/>
	<path d="M262.8,126.3c0.3,2.3-1.5,4.3-3.8,4.4c-2.4,0.2-4.4-1.6-4.5-3.8c0-2,1.5-3.8,3.5-4.1C260.4,122.5,262.6,124.1,262.8,126.3z
		"/>
</g>
</svg>
