<?xml version="1.0" encoding="utf-8"?>
<!-- Generator: Adobe Illustrator 25.1.0, SVG Export Plug-In . SVG Version: 6.00 Build 0)  -->
<svg version="1.1" id="Calque_1" xmlns="http://www.w3.org/2000/svg" xmlns:xlink="http://www.w3.org/1999/xlink" x="0px" y="0px"
	 viewBox="0 0 607.6 462.5" style="enable-background:new 0 0 607.6 462.5;" xml:space="preserve">
<style type="text/css">
	.st0{fill:#E5BE9E;}
	.st1{fill:#19935C;}
	.st2{fill:#004C26;}
	.st3{fill:#006836;}
	.st4{fill:#FFFFFF;}
	.st5{fill:#B25E26;}
	.st6{fill:#D3803C;}
	.st7{fill:#662704;}
	.st8{fill:#A0A0A0;}
	.st9{fill:#7C7C7C;}
	.st10{fill:#D8D8D8;}
	.st11{fill:#FFAF2E;}
	.st12{fill:#E27600;}
	.st13{fill:#FF6695;}
	.st14{fill:#FFEB76;}
	.st15{fill:#FFCF48;}
	.st16{fill:#6D6D6D;}
	.st17{fill:#C6C6C6;}
	.st18{fill:#CCCCCC;}
	.st19{fill:#F987B6;}
	.st20{fill:#CE3A6F;}
	.st21{fill:#CECECE;}
	.st22{fill:#565656;}
	.st23{fill:#F77CA9;}
	.st24{fill:#723100;}
	.st25{fill:#E8D09C;}
	.st26{fill:#6B5738;}
	.st27{fill:#69C498;}
	.st28{fill:#FF8B2C;}
	.st29{fill:#B2B2B2;}
	.st30{fill:#848484;}
	.st31{fill:#726359;}
	.st32{fill:#CABAAB;}
	.st33{fill:#E8E2DD;}
	.st34{fill:#D3BD90;}
	.st35{fill:#EAAD8B;}
	.st36{fill:#CEB78A;}
	.st37{fill:#EAE4DC;}
	.st38{fill:#7F7870;}
	.st39{fill:#84AFD3;}
	.st40{fill:#5F94B7;}
	.st41{fill:#D37E02;}
</style>
<g>
	<path class="st0" d="M102.2,16.4h60.7c35.7,0,70.1,8.2,103.3,24.7c33.3,16.5,59.5,40.2,78.9,71c18-30.8,43.9-54.4,77.6-71
		c33.6-16.5,68.1-24.7,103.3-24.7h60.7v429.1h-56.1V70.5h-4c-33.9,2.6-62.4,9.6-85.5,20.8s-40.4,27.3-51.8,48.2
		c-11.4,20.9-17.1,46.1-17.1,75.6v230.4h-54.8V215.1c0-29.5-5.9-54.7-17.5-75.6c-11.7-20.9-29-37-51.8-48.2
		c-22.9-11.2-51.3-18.2-85.2-20.8h-4.6v374.9h-56.1V16.4z"/>
</g>
<g>
	<path class="st5" d="M459.2,94.1c0.3-2.6,0.7-5.2,1.1-7.9c0.1-0.5,0.4-1.1,1.1-1c0.5,0.1,1.1,0.3,1.4,0.7c1,1.3,0.6,3.4,2.4,4.3
		c0,0-0.3,0.2-0.3,0.2l0.3,0c0.4-2.2,0.7-4.5,1.2-6.7c0.1-0.4,0.8-1,1.2-0.9c0.4,0,1.1,0.6,1.2,1.1c0.5,2.2,1.2,4.4,1.2,6.7
		c0.3,11.3,4.4,21.5,8.9,31.6c6.1,13.7,12.5,27.2,18.8,40.9c0.6,1.2,1.2,2.4,1.8,3.5c2.5,4.4,5.4,5,9.6,1.7c1-0.7,1.4-1.8,1.5-2.9
		c0.4-2.7-0.1-5.3-0.7-7.9c-1.9-8.7-4.1-17.3-6.6-25.9c-2.7-9.3-5.1-18.7-7.7-28c-2.9-10.4-2.7-21-1.3-31.6c0.1-0.7,0.3-1.5,0.6-2.2
		c0.1-0.3,0.6-0.6,0.8-0.6c0.5,0.1,1.1,0.3,1.4,0.7c0.4,0.6,0.4,1.5,0.6,2.2c0.4,1.2,0.1,2.7,1.1,3.8c1.3,0,1.1-1.2,1.4-2
		c0.8-2.1,1.4-4.3,2.2-6.5c0.2-0.4,0.9-0.9,1.3-0.9c0.4,0,1.1,0.5,1.2,0.9c0.4,1,0.3,2.3,1.4,2.9c-0.1,0-0.2,0-0.3,0
		c0.1,0.1,0.1,0.1,0.2,0.2c0.3-0.9,0.4-1.9,0.8-2.7c0.5-1.2,0.7-2.6,2.3-3c0.9-0.2,1.4,1.2,1.2,3.8c-0.2,3-0.4,6.1-0.8,9.1
		c-0.3,2.9,0.2,5.6,1.5,8.2c3.9,7.8,7.7,15.7,11.3,23.6c6,13.3,10.2,27.4,14.7,41.3c4,12.5,6.7,25.3,8.3,38.3c0.2,1.3,0.3,2.6,0.5,4
		c0.1,1.2-0.3,2.2-1.6,2.7c-3.4,1.2-6.5,3.1-9.6,4.9c-7.7,4.4-14.1,10.2-19.6,17.1c-5.9,7.4-11.7,15-15.9,23.5
		c-0.7,1.5-1.7,2.4-3.4,2.5c-1.7,0.1-3.4,0.4-5.1,0.7c-16.3,2.5-31.6,7.8-45.5,16.9c-5.6,3.6-11.2,7.1-17,10.5
		c-8.6,5.1-17.8,8.4-27.6,10.2c-8.9,1.7-17.8,1.6-26.4-1.2c-2-0.6-3.6-0.4-5.5,0.2c-3.8,1.2-7.6,2.4-11.5,3.3
		c-9.6,2.3-18.9,1.2-27.8-2.7c-5.8-2.5-11.1-5.7-15.8-10c-12.2-11.3-21.6-24.4-27.1-40.2c-4.7-13.3-4.5-26.9-0.5-40.3
		c2.2-7.2,5.8-13.6,11.3-18.9c5.3-5.2,11.5-8.6,19.3-8.5c5,0.1,9.3,1.7,12.7,5.4c0.9,1,1.6,2.1,2.1,3.3c1.5,3.8-0.2,6.8-4.3,7.5
		c-1.7,0.3-3.4,0.3-5.1,0.3c-1.9,0.1-3.8,0-5.7,0c-4.7,0.1-8.3,2.2-11,6.1c-3.8,5.5-5.6,11.6-5.6,18.2c0,7.5,1.3,14.7,4,21.7
		c4.2,10.8,10.9,19.9,19.1,28c2.5,2.4,5.3,4.3,8.1,6.2c8.2,5.4,17,6,26.2,3.7c2.3-0.5,2.6-1.3,1.7-3.8c-0.9-2.5-1.9-4.9-2.9-7.4
		c-3.9-9.9-4.8-20.3-3.6-30.8c1.7-15.2,5.6-29.8,12.5-43.6c0.2-0.3,0.4-0.7,0.5-1c1.6-3.3,1.5-3.8-1.3-6.3c-1.8-1.6-3.8-3.1-5.8-4.6
		c-4.9-3.6-9.8-7.2-14.3-11.3c-3.3-3-5.8-6.5-7.7-10.5c-1.4-2.9-1.7-5.8-0.8-8.9c1.9-6.2,5.2-11.8,8.5-17.3c0.8-1.4,2.2-1.2,3.1,0.2
		c0.2,0.3,0.2,0.8,0.4,1.1c0.2,0.3,0.5,0.4,0.9,0.7c0.6-0.9,1.3-1.9,1.9-2.8c0.5-0.8,1.1-1.7,2.2-1.5c1.3,0.3,0.8,1.5,0.8,2.3
		c0,0.9-0.6,1.7,0.1,2.6c1.5-0.4,2-2.3,3.7-2.5c0.6-0.1,1.7,0.6,1.6,1.2c-0.1,0.9-0.2,1.9-0.6,2.7c-1.4,2.9-3,5.7-4.4,8.6
		c-0.8,1.5-2,2.8-2.3,4.7c1.6,1.4,3.7,1.6,5.6,2.3c8.7,2.8,17.3,5.9,25.2,10.4c1.6,0.9,3.3,1.9,4.8,3c3.6,2.6,5.5,6.1,5.9,10.6
		c0.3,3.6,0.2,7.2-0.1,10.8c-0.7,10.2-0.9,20.5-0.6,30.7c0.1,3.2,0.5,6.4,1.4,9.6c0.3,1.1,0.7,2.2,1.8,2.8c1.4-0.6,1.6-2,2.1-3.2
		c2-5.7,4.1-11.5,5.8-17.3c3-10.6,5.8-21.2,8.6-31.9c0.8-3.1,1.4-6.3,1.9-9.5c0.7-4.1-0.4-7.4-3.8-10c-4.2-3.2-8.2-6.7-12.4-10
		c-2.6-2-4.9-4.2-7.1-6.6c-2.5-2.7-3.5-5.7-2.7-9.4c0.8-3.7,2-7.3,3.5-10.8c0.4-0.9,0.9-1.8,2-1.8c1.1,0,1.3,1.1,1.8,1.9
		c0.2,0.3,0.6,0.5,0.8,0.7c-0.5,0-0.6,0.3-0.4,0.3c0.8,0-0.1,0.3,0.3-0.4c0.6-1.4,1.2-2.8,1.8-4.2c0.4-1,0.8-2.4,2.3-2
		c1.4,0.4,1,1.8,1.1,2.9c0.2,1.4-0.5,2.9,0.5,4.8c1.2-1.9,2.3-3.6,3.4-5.3c0.3-0.4,0.9-0.7,1.4-0.7c0.9,0,1.2,0.8,1.2,1.6
		c0,3.4-1.2,6.7-1.7,10.1c1.1,1.6,2.8,2,4.3,2.7c7.2,3.4,13.9,7.8,20.2,12.6c3.3,2.5,6.4,5.3,8.7,8.9c2.3,3.6,3.5,7.5,3.7,11.8
		c0.1,3.4,0,6.8-0.5,10.2c-1.4,8.4-2.8,16.8-4.3,25.2c-0.7,3.9-1.4,7.8-2.1,11.5c1.3,1.1,2,0.3,2.7-0.2c4.6-3.4,9.2-6.7,13.7-10.2
		c5.7-4.5,11.8-8.2,18.4-11.2c0.7-0.3,1.4-0.6,2-1c2.5-1.3,2.7-1.7,1.8-4.5c-3.7-11.1-7.4-22.3-11.1-33.4
		c-4.6-13.9-7.2-28.2-9.7-42.6c-0.3-1.8-0.3-3.8-0.3-5.7c0-1.1,0.2-2.4,1.7-2.5c1.1-0.1,1.6,0.9,1.9,1.8c0.5,1.6,0.7,3.4,2.1,4.5
		c0,0-0.2,0.3-0.2,0.3L459.2,94.1z"/>
	<path class="st7" d="M399.7,228.3c-4.5-9.9-8.9-20.2-9-31.7c0-3.1,0.4-4.7,1.4-4.2c1.8,0.9,1.2,2.6,1.3,4c0.4,10.5,4.2,20,8.5,29.3
		c0.6,1.4,1.6,1.6,2.7,0.6c3.5-3.1,7.1-6.3,10.5-9.6c9.4-9.4,20.2-17.2,30.9-25c2.6-1.9,4.8-2.3,4.9-1.2c0.2,2.2-1.7,2.8-3.1,3.7
		c-13.1,8.8-25,19-36.4,29.9c-2,2-4.2,3.8-6.4,5.6C402.6,231.6,401.3,231.2,399.7,228.3z"/>
	<path class="st7" d="M441.4,240.6c1.5-0.4,3.6-1.1,5.8-1.6c0.8-0.2,1.5,0.1,1.8,0.9c0.3,0.8,0,1.6-0.8,1.9
		c-2.3,0.8-4.6,1.6-6.9,2.2c-0.8,0.2-1.5-0.1-1.8-1c-0.3-0.8,0.1-1.4,0.7-1.9C440.4,241.1,440.6,241,441.4,240.6z"/>
	<path class="st7" d="M514.9,193.1c-0.4-0.4-0.1-1.8,0.4-2c2.7-1,5.5-1.3,8.3-0.4c0.6,0.2,0.7,0.8,0.6,1.4c-0.1,0.3-0.3,0.8-0.6,0.9
		c-2.7,0.7-5.5,1-8.3,0.5C515.1,193.4,515,193.2,514.9,193.1z"/>
	<path class="st7" d="M449.7,225.3c-1.9,0.8-3.9,1.8-6.2,2c-0.6,0-1.1-0.4-1.2-1c-0.1-0.5,0-1.3,0.3-1.5c2-1.6,4.4-2.1,6.8-2.6
		c0.7-0.1,1.6,0.3,1.6,1.2c0,0.5-0.4,1-0.7,1.4C450.3,225,450.1,225.1,449.7,225.3z"/>
	<path class="st7" d="M493.6,199.8c-2,0.9-4.1,1.8-6.3,1.8c-0.4,0-1-0.5-1.2-0.9c-0.2-0.4,0-1.3,0.3-1.5c2.2-1.5,4.7-2.2,7.3-2.2
		c0.4,0,0.8,0.7,1.1,1.1c0.1,0.2-0.1,0.7-0.2,1C494.3,199.4,493.9,199.5,493.6,199.8z"/>
	<path class="st7" d="M474.9,216.4c1.1-0.2,3-0.8,5-1.1c0.7-0.1,1.5,0.2,1.6,1.2c0.1,0.9-0.4,1.5-1.1,1.7c-1.7,0.6-3.5,1.2-5.3,1.6
		c-0.9,0.2-1.8,0.1-2.4-0.9C472.5,218.2,473,217.3,474.9,216.4z"/>
	<path class="st7" d="M426.3,228.7c-1.2,0.5-2.4,1-3.7,1.4c-0.5,0.2-1.2,0.1-1.4-0.5c-0.1-0.5-0.2-1.2,0-1.6
		c1.7-1.9,3.9-2.8,6.3-3.2c0.3,0,0.7,0.3,0.9,0.5c0.3,0.5,0.4,1.1,0,1.5C427.8,227.4,427,228,426.3,228.7z"/>
	<path class="st7" d="M462.5,207c-1.6,0.7-3.3,1.7-5.2,1.7c-0.5,0-1.2-0.3-1.4-0.7c-0.4-0.7-0.1-1.5,0.6-2c1.8-1.1,3.7-2,5.8-2.2
		c0.8-0.1,1.5,0.1,1.8,1c0.3,0.9-0.4,1.3-0.9,1.8C463,206.8,462.8,206.8,462.5,207z"/>
	<path class="st7" d="M497.7,180.8c2-1,4.2-1.4,6.5-1.3c0.5,0,1,0.4,1.2,1c0.1,0.6,0,1.1-0.5,1.4c-2,1.3-4.2,1.4-6.4,1.6
		c-0.4,0-1.1-0.4-1.3-0.8C496.4,182,497.2,181.4,497.7,180.8z"/>
	<path class="st7" d="M412.2,245.5c1.6-0.7,3.3-1.7,5.2-1.8c0.8,0,1.6,0.2,1.6,1.1c0,0.5-0.2,1.2-0.6,1.4c-1.8,1.1-3.6,2-5.7,2.4
		c-0.8,0.1-1.5-0.1-1.9-0.9c-0.4-0.9,0.3-1.4,0.8-1.9C411.7,245.8,411.9,245.7,412.2,245.5z"/>
	<path class="st7" d="M473.4,191.3c-1.2,0.5-2.2,1-3.2,1.3c-0.4,0.1-1.1-0.3-1.3-0.6c-0.2-0.4-0.2-1.2,0.1-1.5
		c1.3-1.7,3.2-2.5,5.2-2.8c0.6-0.1,1.1,0.3,1.2,0.9c0.1,0.3,0.1,0.8-0.1,1C474.7,190.1,474,190.7,473.4,191.3z"/>
	<g>
		<path class="st5" d="M561,265.8c-3.5,1.6-7.9,4.5-12.9,6.3c-10.6,3.9-21.3,5-32,0.8c-1.4-0.5-2.5-0.4-3.6,0.5
			c-1.8,1.3-3.5,2.6-5.5,3.6c-6.2,3.1-12,0.3-13.7-6.4c-1-4.1-1.1-8.3,1.1-12.1c0.7-1.2,1.3-2.4,0.4-3.7c-4.2-6.7-2.1-13,1.2-19.2
			c1.6-3.1,3.8-5.9,5.7-8.8c5.5-8.2,12-15.6,19.2-22.3c7.2-6.6,15.5-11.5,24.8-14.5c6.6-2.1,13.4-2,19.8,1.2
			c1.2,0.6,2.4,1.1,3.5,1.9c2.5,1.9,4.8,1.9,7.9,0.9c6.6-2.2,13,0.7,16.1,6.7c2.5,5,2.1,10.1-2.1,13.8c-3.8,3.2-4.9,6.1-3.6,11.2
			c1.8,6.8,0,13.4-3.9,19.4C578,253.3,570.9,260.1,561,265.8z"/>
		<path class="st6" d="M527.2,210.3c5.8-3.8,12.2-5.8,19.1-6.1c11.7-0.6,21.5,4.9,26.9,17.1c1.5,3.3,1.4,6.8,0.3,10.3
			c-2,6.2-6.1,10.8-12.1,13c-6.7,2.5-11.7,6.6-15.6,12.4c-0.6,0.9-1.4,1.7-2.2,2.5c-5.6,6-11.3,7.3-18.9,4.2
			c-8.1-3.4-13.2-9.4-14.6-18c-2.3-13.9,2.7-24.8,13.7-33.2C524.9,211.6,526.1,211,527.2,210.3z"/>
		<path class="st7" d="M580.3,204.9c-0.4-0.8-0.9-1.5-1.3-2.3c-0.5-1-0.5-2.1,0.3-3c0.8-0.9,1.9-1.1,3-0.9c4.1,0.6,6,3.2,5.2,7.4
			c-0.3,1.3-0.6,2.7-2,3.1c-1.4,0.4-2.5-0.5-3.3-1.6C581.5,206.6,580.9,205.7,580.3,204.9z"/>
		<path class="st7" d="M505.8,270.4c-0.9,0.1-1.7,0.4-2.5,0.3c-4.3-0.8-6.4-4.6-5.1-8.8c0.3-1,1.8-1.6,2.7-1.1
			c2.8,1.9,4.4,4.7,5.6,7.7C506.6,269,506.1,269.7,505.8,270.4z"/>
		<path d="M535.6,225.7c0.1,0.2,0.6,0.9,1,1.7c0.3,0.6,0.3,1.2-0.2,1.8c-0.6,0.6-1.3,0.5-1.7,0.1c-1.3-1.2-2.4-2.5-3.6-3.7
			c-1.4-1.4-2.6-1.2-3.5,0.5c-0.2,0.4-0.3,0.8-0.5,1.2c-0.9,1.2-0.4,4.3-2.9,3.1c-1.8-0.9-0.4-3.2,0.2-4.7c2.2-5.4,6.3-8.7,12-10
			c0.6-0.1,1.3-0.1,1.9,0.1c0.3,0.1,0.7,0.5,0.9,0.8c0.4,0.7,0,1.3-0.5,1.6c-0.5,0.3-1.2,0.5-1.8,0.7
			C531.1,220.5,531.8,222.1,535.6,225.7z"/>
		<path d="M536.4,241.5c-0.2-0.7-0.6-1.4-0.5-2c0.2-1.9,0.4-3.9,0.9-5.8c0.2-0.8,0.9-1.7,1.5-2c2.4-0.9,4.9-1.7,7.6-0.9
			c1.3,0.4,2.1,2,1.4,3.1c-2.2,3.6-5.3,6.3-9.2,7.9C537.7,242.1,537,241.6,536.4,241.5z"/>
		<path class="st4" d="M528.9,257.1c-1.7,1-4.2,0.3-5.2-1.5c-1.2-2-0.6-4.6,1.4-5.9c1.8-1.1,4.3-0.7,5.4,0.9
			C531.7,252.6,531,255.8,528.9,257.1z"/>
		<path class="st4" d="M557.2,223.7c1.9-1.1,4.3-0.7,5.3,1c1.2,1.9,0.6,4.7-1.3,5.9c-1.8,1.2-4.4,0.4-5.6-1.8
			C554.6,226.8,555.2,224.8,557.2,223.7z"/>
		<path d="M527.7,257c-1.3,0.8-3.3,0.2-4.2-1.2c-1-1.6-0.5-3.6,1.1-4.7c1.4-0.9,3.4-0.6,4.3,0.7C529.9,253.5,529.4,256,527.7,257z"
			/>
		<path d="M556.7,225.5c1.4-0.8,3.1-0.5,3.8,0.7c0.8,1.3,0.4,3.3-0.9,4.2c-1.3,0.9-3.1,0.3-4-1.3
			C554.8,227.8,555.3,226.3,556.7,225.5z"/>
	</g>
</g>
</svg>
