<?xml version="1.0" encoding="utf-8"?>
<!-- Generator: Adobe Illustrator 25.1.0, SVG Export Plug-In . SVG Version: 6.00 Build 0)  -->
<svg version="1.1" id="Calque_1" xmlns="http://www.w3.org/2000/svg" xmlns:xlink="http://www.w3.org/1999/xlink" x="0px" y="0px"
	 viewBox="0 0 607.6 462.5" style="enable-background:new 0 0 607.6 462.5;" xml:space="preserve">
<style type="text/css">
	.st0{fill:#E5BE9E;}
	.st1{fill:#19935C;}
	.st2{fill:#004C26;}
	.st3{fill:#006836;}
	.st4{fill:#FFFFFF;}
	.st5{fill:#B25E26;}
	.st6{fill:#D3803C;}
	.st7{fill:#662704;}
	.st8{fill:#A0A0A0;}
	.st9{fill:#7C7C7C;}
	.st10{fill:#D8D8D8;}
	.st11{fill:#FFAF2E;}
	.st12{fill:#E27600;}
	.st13{fill:#FF6695;}
	.st14{fill:#FFEB76;}
	.st15{fill:#FFCF48;}
	.st16{fill:#6D6D6D;}
	.st17{fill:#C6C6C6;}
	.st18{fill:#CCCCCC;}
	.st19{fill:#F987B6;}
	.st20{fill:#CE3A6F;}
	.st21{fill:#CECECE;}
	.st22{fill:#565656;}
	.st23{fill:#F77CA9;}
	.st24{fill:#723100;}
	.st25{fill:#E8D09C;}
	.st26{fill:#6B5738;}
	.st27{fill:#69C498;}
	.st28{fill:#FF8B2C;}
	.st29{fill:#B2B2B2;}
	.st30{fill:#848484;}
	.st31{fill:#726359;}
	.st32{fill:#CABAAB;}
	.st33{fill:#E8E2DD;}
	.st34{fill:#D3BD90;}
	.st35{fill:#EAAD8B;}
	.st36{fill:#CEB78A;}
	.st37{fill:#EAE4DC;}
	.st38{fill:#7F7870;}
	.st39{fill:#84AFD3;}
	.st40{fill:#5F94B7;}
	.st41{fill:#D37E02;}
</style>
<g>
	<path class="st0" d="M445.6,391c29,0,50-6.5,62.8-19.5c12.7-13,19.1-34.7,19.1-65.1V16.3h56.2v290.1c0,46.3-11.6,81.1-34.7,104.4
		c-23.1,23.4-57.7,35-103.4,35V391z"/>
</g>
<g>
	<path class="st28" d="M356.7,406.3c-3.2-1.8-6.1-3.5-8.9-5.2c-11.5-7.2-20.1-17-25.5-29.5c-1.9-4.4-3.1-8.9-4.1-13.6
		c-0.3-1.3-0.7-2.7-1.1-4c-0.2-0.8-0.8-1.3-1.7-1.4c-1.2-0.2-2.3-0.4-3.5-0.6c-8.2-1.5-6.9-1.2-9,5.4c-5.3,16.5-10.3,33.1-15.5,49.7
		c-1.8,5.8-4,11.6-6,17.3c-0.5,1.3-1.1,2.6-1.5,3.8c-1.2,3.4-3.4,4.9-7.2,4.8c-4.7-0.2-9.5-0.5-14.1-1.2c-0.9-0.1-1.9-0.5-2.8-0.9
		c-1.4-0.7-1.6-2.3-0.7-3.5c0.9-1.1,2-2.1,3.3-2.4c2.9-0.7,3.5-2.8,3.7-5.3c0.4-4.9,0.9-9.8,1.4-14.7c1-10,2.1-20,3-30
		c1-11.2,1.8-22.4,2.7-33.6c0.2-2.3-0.1-2.7-2.3-3.4c-2.1-0.7-4.1-1.3-6.2-1.8c-2.1-0.5-2.8-0.1-3.5,2.1c-2.2,7.4-4.4,14.7-6.5,22.1
		c-4,14.2-7.2,28.7-11.7,42.8c-1.6,4.9-3.2,9.7-4.9,14.6c-0.6,1.7-1.4,3.3-2.1,4.9c-1.7,4.1-4.8,6.1-9.3,6
		c-3.5-0.1-7.1-0.2-10.6-0.5c-1.5-0.1-3.1-0.7-4.5-1.3c-1.3-0.5-1.7-2.2-1.1-3.5c0.6-1.3,1.3-2.6,2.6-3.2c2.5-1.3,2.9-3.6,3.3-5.9
		c0.9-4.8,1.7-9.7,2.5-14.6c2.7-18.2,6.7-36.1,10.4-54c2.5-12.2,4.3-24.5,4.1-37c-0.2-10.5-0.4-20.9-0.6-31.4
		c-0.1-5.7,0-11.4-0.2-17.2c-0.2-6.5,3.5-10.6,8.1-14.3c0.5-0.4,1-0.7,1.5-0.9c11.6-5.4,18.8-14.7,23.9-26c0.1-0.2,0.2-0.3,0.2-0.5
		c0.8-3.1,2.8-4.8,6-5.7c4.1-1.2,7.4-3.8,10-7.1c1.3-1.7,2.5-2.1,4.6-1.3c5.9,2.2,12,3.9,17.9,6.3c14.7,5.9,28.8,12.8,42.4,21
		c15.2,9.2,28.4,20.7,40.2,33.8c14.1,15.7,23.1,34.2,27.4,54.9c3.9,18.6,5.9,37.4,4.7,56.4c0,0.8-0.1,1.6-0.1,2.4
		c0,0.8-0.3,1.7,0.5,2.1c1.1,0.6,1.8-0.5,2.4-1.1c5.6-5.4,9.7-11.9,12.5-19.2c3.3-8.5,5.9-17.2,6.9-26.2c1.9-15.8,1.2-31.5-2.6-47
		c-3.4-14-10.1-26.5-19-37.8c-5.4-6.8-11.2-13.3-17.5-19.2c-12.5-11.8-25-23.6-36.6-36.2c-2.7-2.9-5.3-5.8-7.8-8.9
		c-2.7-3.2-4.6-6.9-5.6-11c-0.8-3-0.1-5.5,2.1-7.6c2.3-2.2,5-2.2,7.7-1.2c3.2,1.1,5.9,3.1,8.5,5.3c8.6,7.3,16.5,15.3,24.4,23.3
		c6.9,7,13.7,14.2,20.7,21.1c16.8,16.8,29.3,36.5,39.3,58c5,10.7,7.5,22,8,33.7c0.6,14.1-0.3,28-3.4,41.8c-2.7,12-8.2,22.6-16,32
		c-7.5,9-16,16.9-26.9,21.9c-1.8,0.8-2.8,2-3.5,3.8c-0.9,2.4-2,4.7-3.3,6.9c-5.4,9.2-13.2,14.9-23.7,17.1c-5,1-10.1,1.5-15.3,1.6
		c-16.2,0.1-32.4,0.6-48.5-0.2c-5.1-0.3-10.2-0.8-15.3-1.2c-2-0.2-3.9-0.7-5.6-1.8c-1.5-0.9-1.9-2.6-1-4.1c0.9-1.6,2.2-2.8,3.7-3.7
		c3.9-2.4,8.1-4.4,12.7-4.6c9-0.4,17.5-2.9,26.1-4.8c5-1.1,10-2.3,15-3.5C354.9,407.8,356,407.7,356.7,406.3z"/>
	<path class="st24" d="M314.3,342c0-5.9,1.1-11.8,1.9-17.6c0.1-0.8,0.3-1.5,0.5-2.3c0.3-1,0.9-1.8,2-1.8c1.1,0,1.9,1.1,1.8,2.6
		c-0.1,1.4-0.4,2.7-0.6,4.1c-0.9,7.6-1.7,15.2-0.7,23c2.4,18.5,10.4,33.7,25.7,44.7c4,2.9,8.1,5.6,12.2,8.3c1,0.7,2,1.2,2.5,2.4
		c0.4,1-0.7,2.7-1.7,2.6c-0.8-0.1-1.6-0.3-2.2-0.7c-9.7-6-19.1-12.4-26.6-21.4c-7-8.4-10.8-18.2-13.2-28.7c-0.6-2.5-1-5-1.3-7.6
		C314.4,347.1,314.4,344.6,314.3,342z"/>
	<path class="st24" d="M239.1,304c-0.4,0-0.8,0-1.2-0.1c-3.7-0.4-7.1-1.6-8.3-5.5c-1.2-3.8-0.5-7.5,2.4-10.4
		c2.9-2.9,6.4-4.5,10.5-4.8c3.2-0.2,5.9,1.5,6.8,4.5c0.9,3.1,1.2,6.2,0.1,9.3C247.4,302.7,244,304.4,239.1,304z"/>
	<path class="st24" d="M377.5,399.8c-4.8,0.1-8-3.2-7.2-7.9c0.9-5.3,3.6-9.5,8.4-12.2c3.1-1.7,6.1-1.2,8.8,1
		c2.7,2.2,3.4,5.1,2.2,8.5c-1.2,3.4-3.4,6.2-6.2,8.5C381.8,399,379.8,399.8,377.5,399.8z"/>
	<path class="st24" d="M346.7,237.4c0-0.1-0.1,0.9-0.6,1.8c-1.9,3.4-4.7,5.7-8.5,6.7c-3.7,0.9-7.4-0.6-9.6-4c-2.1-3.1-2-6.3-0.2-9.4
		c0.7-1.2,1.6-2.3,2.5-3.2c2.7-2.7,4.3-3,7.9-1.3c2.3,1.1,4.5,2.4,6.6,3.8C346.3,232.8,347,234.5,346.7,237.4z"/>
	<path class="st24" d="M289.1,264c-0.1,1.6-0.4,3.3-1.5,4.8c-2.8,3.7-6.4,5.7-11,5.7c-5.3-0.1-8.5-5.2-6.2-9.9
		c1.7-3.4,4.3-6.1,7.8-7.7C283.9,254.2,289.1,257.6,289.1,264z"/>
	<path class="st24" d="M351.1,331.1c0.1,4.6-3.8,10.1-7.7,11.4c-4.9,1.6-11.1-3.8-10.3-9c0.6-4.1,2.9-7.3,6.1-9.7
		c2-1.5,4.5-1.6,6.7-0.4C349.1,325,350.7,327.9,351.1,331.1z"/>
	<path class="st24" d="M292.6,293.2c4.1,0.1,7.7,2.7,8.9,6.5c1.1,3.5-0.6,8.1-3.8,10.4c-1.4,1-2.9,1.3-4.5,1.2
		c-4.5-0.2-7.7-2.6-9.9-6.4c-1-1.8-0.8-3.8,0-5.7C284.9,295.3,288.4,293.1,292.6,293.2z"/>
	<path class="st24" d="M389,335.9c-4.7-0.1-7.7-3.4-7.3-8.1c0.3-3.5,1.5-6.5,4.1-8.8c0.7-0.6,1.5-1.3,2.4-1.6
		c5.1-1.9,12.1,3.8,11.5,9.3C399.1,331.5,393.8,336,389,335.9z"/>
	<path class="st24" d="M455.5,297.7c-0.4,2.9-1.1,6.2-3.4,8.8c-1.7,1.9-3.8,2.7-6.3,1.9c-2.4-0.8-4.1-3.1-4.1-5.8
		c0-3.6,1.3-6.9,3.7-9.6c1.9-2.2,5.1-2.8,7.5-1.6C455.3,292.6,455.7,294.8,455.5,297.7z"/>
	<path class="st24" d="M359,304.9c-5.4,0.1-8.4-4-6.7-8.8c0.5-1.3,1.2-2.5,2-3.6c1.8-2.4,4.3-3.4,7.3-2.6c2.8,0.7,5.1,3.6,5.4,6.4
		c0.3,3.1-0.9,5.4-3.4,7C362.1,304.3,360.5,304.8,359,304.9z"/>
	<path class="st24" d="M313,255.6c-0.4-0.1-1.4-0.2-2.3-0.7c-3-1.5-3.9-4.2-4.2-7.3c-0.3-3,0.9-5.4,3.5-7c3.7-2.3,7.5-1.3,9.4,2.7
		c1.1,2.2,1.5,4.5,1,6.9C319.6,253.6,316.9,255.7,313,255.6z"/>
	<path class="st24" d="M375.3,266.1c-0.1,1.1-0.1,2.1-0.3,3.1c-0.5,2.4-1.8,4.4-4.3,5.1c-2.7,0.7-5.1-0.2-6.8-2.4
		c-2.3-3-2.7-6.5-1.4-10c0.9-2.3,2.8-3.8,5.4-3.9c2.7-0.1,5.9,2.2,6.8,4.8C375.1,263.9,375.2,265.1,375.3,266.1z"/>
	<path class="st24" d="M253,245.5c3.4,0,5.3,2.3,4.7,6.1c-0.7,4.9-4.5,7.9-9,7.2c-2.3-0.3-4.1-1.5-4.9-3.7c-0.8-2.4-0.5-4.6,1.4-6.5
		C247.2,246.5,249.7,245.6,253,245.5z"/>
	<path class="st24" d="M298.5,217.4c1.7,0,3.2,0.3,4.5,1.3c2.2,1.7,2.8,4.4,1.4,6.8c-1.7,3-4.4,4.4-7.7,4.7
		c-2.7,0.3-4.9-1.3-5.9-3.9c-1-2.5-0.3-5.2,1.7-6.9C294.3,218,296.4,217.4,298.5,217.4z"/>
	<path class="st24" d="M235.9,372.9c-3.8-0.1-5.8-2.3-5.4-6.1c0.6-6,6-8.9,11.2-6.1c2,1.1,2.8,2.7,2.6,4.9
		C244,370,240.5,373,235.9,372.9z"/>
	<path class="st24" d="M400.7,365.8c-4.8-0.1-7.3-4.4-5-8.7c0.5-0.9,1-1.7,1.6-2.5c2.3-2.9,4.7-3.5,7.7-2c3.1,1.6,4.4,4.6,3.3,7.9
		C407.4,363.9,404.5,365.9,400.7,365.8z"/>
	<path class="st24" d="M368.7,351.2c4.1-0.1,7,3.6,5.9,7.5c-1.3,4.5-7,6.8-11,4.4c-1.8-1.1-2.8-2.9-2.5-4.9
		C361.5,354.8,365.3,351.3,368.7,351.2z"/>
	<path class="st24" d="M371.7,194.2c0.1-0.5,0.3-1.4,0.7-2.3c1.4-3.2,4.9-5.4,7.3-4.5c2.5,0.9,4.7,4.6,4.4,7.7
		c-0.3,3.4-3.4,6.4-6.6,6.4C374.1,201.4,371.5,198.5,371.7,194.2z"/>
	<path class="st24" d="M304.4,334.4c-0.1,3.7-3,6.3-6.6,5.8c-1.3-0.2-2.7-0.6-4-1.1c-2.7-1.2-3.7-3.8-2.4-6.3c1-2,2.5-3.4,4.6-4.4
		C300.6,326.5,304.6,330.2,304.4,334.4z"/>
	<path class="st24" d="M414.2,239.1c0.1-2.3,1-4.1,2.4-5.8c1.7-2,3.9-2.5,6.3-1.5c2.5,1,4.1,3.4,3.9,5.9c-0.3,4.1-4.7,7.5-8.7,6.6
		C415.7,243.7,414.1,241.7,414.2,239.1z"/>
	<path class="st24" d="M426.5,379.4c0.3-2.5,0.8-5.2,2.9-7.2c2-2,4.3-2.4,6.3-1.1c2.3,1.4,3.4,4.1,2.7,6.5c-0.9,3.2-5,6.3-8.3,6.5
		C428,384.2,426.5,382.2,426.5,379.4z"/>
	<path class="st24" d="M287.6,353.7c-0.1,4.8-3.7,8-8,7.3c-2.9-0.5-4.4-2.9-3.5-5.7c0.6-1.9,1.5-3.6,2.9-5.1
		c1.8-2.1,3.8-2.6,5.7-1.7C286.8,349.4,287.7,351,287.6,353.7z"/>
	<path class="st24" d="M244.4,333.5c-0.4,3.7-4.1,6.9-7.8,6.7c-2.9-0.2-4.6-2.5-3.8-5.4c0.5-1.9,1.5-3.7,2.7-5.2
		c1.4-1.8,3.3-2.3,5.3-1.6C243.1,328.9,244.6,331.3,244.4,333.5z"/>
	<path class="st24" d="M326.8,269.6c3.1-0.1,6,3.2,5.5,6.3c-0.4,2.6-1.7,4.8-4.1,6.1c-1.3,0.7-2.6,0.7-3.9-0.2
		c-3.3-2.3-3.7-8.2-0.7-10.9C324.5,270.1,325.5,269.6,326.8,269.6z"/>
	<path class="st24" d="M447.2,339.4c2.4-0.1,3.9,1,4.8,2.9c1,1.9,1,3.7-0.2,5.5c-2.6,4-9,3.6-11.2-0.7c-0.7-1.3-0.6-2.7,0-3.9
		C442.1,340.5,444.3,339.2,447.2,339.4z"/>
	<path class="st24" d="M330.2,361.4c0.1-3.2,1.7-5.6,4-6.3c2.2-0.7,4.7,0.3,6.1,2.3c1.1,1.6,1.2,3.9,0.1,5.5c-0.9,1.3-2.1,2.3-3.5,3
		c-2.9,1.5-5.5,0.4-6.4-2.7C330.3,362.5,330.2,361.7,330.2,361.4z"/>
	<path class="st24" d="M405.5,218.8c-0.1,2.7-2.4,4.9-4.9,4.8c-3.1-0.1-6.3-3.4-6.2-6.6c0-2.5,2.8-4.8,5.7-4.8
		C402.7,212.3,405.6,215.8,405.5,218.8z"/>
	<path class="st24" d="M394.1,414.4c-1.5,0-2.9-0.4-3.8-2c-0.9-1.6-0.4-3.1,0.6-4.4c1.4-2,3.3-3.3,5.6-4c1.4-0.4,2.7-0.2,3.9,0.5
		c1.5,0.8,2.2,2.4,1.7,3.9C401.1,411.8,397.7,414.3,394.1,414.4z"/>
	<path class="st24" d="M263.7,324.4c-2.8-0.1-4.9-2.3-4.6-5c0.3-3.5,3.6-6.5,6.7-6.2c2.3,0.2,3.9,2.3,3.9,5.1
		C269.6,321.7,266.8,324.5,263.7,324.4z"/>
	<path class="st24" d="M280.9,379.6c0.8,0.3,1.7,0.5,2.6,1c1.6,1,2.7,2.3,2.7,4.3c0,1.7-1.6,3.5-3.7,4.1c-1.5,0.5-3.1,0.6-4.6,0.1
		c-2.3-0.7-3.8-3.2-3.5-5.5c0.2-1.9,1.8-3.3,4-3.7C279.1,379.6,279.9,379.6,280.9,379.6z"/>
	<path class="st24" d="M342.7,428.5c-0.4-0.1-1.2-0.1-1.9-0.4c-1.7-0.6-2.6-2.7-1.9-4.3c1.2-2.7,3.4-4.3,6.3-4.7
		c2-0.3,4.1,1,4.8,2.8c0.6,1.6,0.1,3.5-1.4,4.8C347,428,345.1,428.5,342.7,428.5z"/>
	<path class="st24" d="M392.1,286.7c2.3,0,4.3,2.4,4.1,4.8c-0.3,3-3.5,5.7-6.6,5.4c-1.3-0.1-2.2-0.8-2.7-2
		C385.5,291.6,388.6,286.8,392.1,286.7z"/>
	<path class="st24" d="M441.3,265.2c-0.1,2.4-1.4,4.1-3.3,4.7c-2,0.6-3.8-0.2-4.9-2.2c-0.2-0.3-0.3-0.7-0.5-1.1
		c-0.9-2.4-0.5-4.6,1.1-5.9c1.4-1,2.9-1.1,4.4-0.4C440.2,261.5,441.3,263.2,441.3,265.2z"/>
	<path class="st24" d="M231.2,410.7c0.1,2.4-1.8,4.5-4.3,5.2c-1.9,0.5-4-0.2-5.1-1.8c-1-1.4-0.8-3.5,0.4-4.8c1.8-1.9,6-2.1,8-0.3
		C230.7,409.5,231,410.3,231.2,410.7z"/>
	<path class="st24" d="M220.7,392.8c-0.1-2.3,0.4-4.2,2.7-5.3c2.1-1,4.5,0.1,4.9,2.4c0.4,2-0.2,3.8-1.6,5.3c-1.2,1.2-2.8,1.6-4.2,1
		C221.1,395.5,220.8,394.2,220.7,392.8z"/>
	<path class="st24" d="M375,424.9c-1.5,0-2.8-0.4-3.4-1.9c-0.6-1.4,0-3,1.4-4.2c1.6-1.4,3.6-1.6,5.6-1.3c2.3,0.4,3.3,3.3,1.7,5.1
		C378.9,424.2,377.3,424.9,375,424.9z"/>
	<path class="st24" d="M276.5,404.9c0,1.3-0.5,2.3-1.1,3.3c-1.3,2-3.5,2.7-5,1.7c-1.5-1.1-2-3.2-0.9-5.3c0.4-0.8,1.1-1.6,1.8-2.2
		c1-0.8,2.2-0.9,3.3-0.3C275.8,402.8,276.3,403.8,276.5,404.9z"/>
	<g>
		<path class="st28" d="M220.7,261.1c-13.4-0.4-22.6-4.7-30.3-11.9c-5.3-5-7.5-11.8-6.6-19c2.1-18.3,6.2-36.1,15.4-52.3
			c1.4-2.5,1.9-4.8,1.5-7.6c-0.4-2.8-0.3-5.8,0.1-8.7c1-7.2,7.2-10.5,13.9-7.7c2.5,1.1,4.8,2.6,6.2,4.9c1.9,3.1,4.5,3.5,7.9,3.8
			c13.3,1.2,25.9,4.9,36.9,12.9c2.7,2,5.2,4.2,7.5,6.6c1.9,2,3.7,3.6,6.8,3.4c2.2-0.1,4.4,0.6,6.6,1.2c5.8,1.9,7.6,7.5,3.7,12.2
			c-4.3,5.2-9.2,9.9-16,11.7c-2.5,0.7-3.7,2-4.8,4.2c-2,4-4.1,7.9-6.3,11.8c-4.1,7.2-9.9,12.8-17.2,16.5
			c-5.7,2.9-10.7,6.6-14.4,11.7C228,259.5,223.7,261.4,220.7,261.1z"/>
		<path class="st24" d="M207.8,242.1c-2.8-0.1-4.2-1.1-4.9-2.9c-1.2-2.9-1.9-6-2-9.1c-0.1-2.3,1.6-3.7,4-3.3
			c0.4,0.1,0.9,0.1,1.3,0.2c4.1,1.8,8.2,3.6,11.7,6.5c2.1,1.7,1.8,4.1-0.6,5.5C214,240.7,210.6,241.6,207.8,242.1z"/>
		<path class="st4" d="M245.9,222.5c0.1,1.8-1.6,3.8-3.6,4.3c-3.4,0.7-8.1-2-9.2-5.3c-0.9-2.9,1.3-6.1,4.4-6.2
			C241.2,215,245.7,218.9,245.9,222.5z"/>
		<path class="st4" d="M203.1,196.1c3.1,0,7,3,7.8,6.2c0.7,2.6-1.8,5.5-4.5,5.1c-2.8-0.3-5-1.7-6.7-3.9c-1.1-1.5-1.9-3-0.9-4.9
			C199.7,197,201.1,196.1,203.1,196.1z"/>
		<path class="st5" d="M271.4,184.6c-0.3,0.5-0.5,1-0.8,1.2c-0.8,0.4-1.6,0.7-2.5,0.8c-16.7,2.7-29.1,11.8-38.5,25.4
			c-3.7,5.3-6.6,11.1-9,17.1c-1.3,3.3-2.9,4.8-3.7,3.9c-1.6-1.7-0.1-3.4,0.4-4.9c4.6-12.3,11.5-23.1,21.4-31.9
			c8.3-7.4,18.1-11.2,28.8-13.2c0.8-0.2,1.8-0.1,2.6,0.2C270.7,183.4,271,184.1,271.4,184.6z"/>
		<path class="st5" d="M226.1,173.9c-0.5,8.1-1.5,16.7-4.8,25c-3.5,8.8-8,16.9-13.5,24.6c-0.7,0.9-1.4,1.8-2.1,2.6
			c-0.7,0.7-1.5,1-2.3,0.3c-0.6-0.5-0.6-1.2-0.2-1.8c0.8-1.3,1.7-2.6,2.6-3.9c4-5.9,7.4-12.2,10.4-18.7c4.5-10,6.5-20.4,6.1-31.3
			c-0.1-1.6-0.1-3.1,0-4.7c0-0.6,0.3-1.3,1.2-1.4c0.8-0.1,1.4,0.3,1.6,0.9c0.4,1.3,0.7,2.6,0.9,3.9C226.1,170.6,226,172,226.1,173.9
			z"/>
		<path class="st24" d="M208.5,252.6c-5.4-0.7-10.4-2.5-13.5-7.8c-0.4-0.6-0.2-1.3,0.3-1.8c0.5-0.5,1.2-0.6,1.8-0.1
			c0.7,0.6,1.3,1.2,1.9,1.8c1.1,1,2,0.7,2.7-0.4c1-1.5,1.7-3.1,2.7-4.6c0.4-0.5,1.2-0.8,1.7-0.3c0.4,0.4,0.5,1.1,0.7,1.7
			c0,0.2-0.2,0.4-0.2,0.6c-0.5,2.1-3,4-1.5,6.1c1.2,1.7,3.7,0.9,5.7,1.2c0.8,0.1,1.7,0.7,1.4,1.8c-0.2,0.5-0.8,1-1.3,1.3
			C210.2,252.5,209.5,252.4,208.5,252.6z"/>
		<path d="M235.4,222.1c-1.6,0-2.8-1.5-2.7-3.1c0.1-2.1,1.5-3.6,3.2-3.7c1.8,0,3.6,1.6,3.6,3.2C239.5,220.4,237.6,222.1,235.4,222.1
			z"/>
		<path d="M201.2,196.4c1.7,0.2,3.4,2,3.2,3.7c-0.1,2-2.1,3.4-4.4,3.1c-1.7-0.3-3-1.7-2.9-3.1C197.3,198,199.3,196.2,201.2,196.4z"
			/>
	</g>
</g>
</svg>
