<?xml version="1.0" encoding="utf-8"?>
<!-- Generator: Adobe Illustrator 25.1.0, SVG Export Plug-In . SVG Version: 6.00 Build 0)  -->
<svg version="1.1" id="Calque_1" xmlns="http://www.w3.org/2000/svg" xmlns:xlink="http://www.w3.org/1999/xlink" x="0px" y="0px"
	 viewBox="0 0 607.6 462.5" style="enable-background:new 0 0 607.6 462.5;" xml:space="preserve">
<style type="text/css">
	.st0{fill:#E5BE9E;}
	.st1{fill:#19935C;}
	.st2{fill:#004C26;}
	.st3{fill:#006836;}
	.st4{fill:#FFFFFF;}
	.st5{fill:#B25E26;}
	.st6{fill:#D3803C;}
	.st7{fill:#662704;}
	.st8{fill:#A0A0A0;}
	.st9{fill:#7C7C7C;}
	.st10{fill:#D8D8D8;}
	.st11{fill:#FFAF2E;}
	.st12{fill:#E27600;}
	.st13{fill:#FF6695;}
	.st14{fill:#FFEB76;}
	.st15{fill:#FFCF48;}
	.st16{fill:#6D6D6D;}
	.st17{fill:#C6C6C6;}
	.st18{fill:#CCCCCC;}
	.st19{fill:#F987B6;}
	.st20{fill:#CE3A6F;}
	.st21{fill:#CECECE;}
	.st22{fill:#565656;}
	.st23{fill:#F77CA9;}
	.st24{fill:#723100;}
	.st25{fill:#E8D09C;}
	.st26{fill:#6B5738;}
	.st27{fill:#69C498;}
	.st28{fill:#FF8B2C;}
	.st29{fill:#B2B2B2;}
	.st30{fill:#848484;}
	.st31{fill:#726359;}
	.st32{fill:#CABAAB;}
	.st33{fill:#E8E2DD;}
	.st34{fill:#D3BD90;}
	.st35{fill:#EAAD8B;}
	.st36{fill:#CEB78A;}
	.st37{fill:#EAE4DC;}
	.st38{fill:#7F7870;}
	.st39{fill:#84AFD3;}
	.st40{fill:#5F94B7;}
	.st41{fill:#D37E02;}
</style>
<g>
	<path class="st0" d="M288.4,9.3h70.3c15,0,28.7,0.5,41.3,1.6c12.5,1.1,25.5,4.1,38.8,8.9c30.4,8.4,57.1,23,80.3,43.9
		c23.2,20.9,41.4,45.3,54.3,73s19.4,56.6,19.4,86.5c0,28.6-6,56.3-18.2,82.9c-12.1,26.6-28.7,50.4-49.7,71.3
		c-21,20.9-44.9,36.2-71.6,45.9c-16.6,6.6-32.1,10.8-46.7,12.6c-14.6,1.7-30.5,2.6-47.9,2.6h-70.3V9.3z M372.7,383.8
		c31.1,0,59.6-6.8,85.5-20.5c25.9-13.6,46.1-32.8,60.7-57.5c14.6-24.6,21.9-51.7,21.9-81.2c0-29.9-7.3-57.4-21.9-82.2
		c-14.6-24.9-34.6-44.2-60.3-57.8c-25.7-13.6-54.3-20.5-85.8-20.5H340v319.7H372.7z"/>
</g>
<g>
	<g>
		<path class="st11" d="M82.6,274.9c0.7-2-1.1-3.7-0.6-5.5c0.1-0.5,0.6-1.1,1-1.4c0.2-0.2,0.8-0.1,1.2,0.1c0.6,0.3,1.1,0.6,1.5,1.1
			c9.3,8.5,20,15,30.7,21.5c6.9,4.2,14.1,4.6,21.7,2.3c7-2.2,13.6-5.4,19.6-9.6c17.4-12.1,31.9-26.8,41.1-46.2
			c3.9-8.3,8.1-16.4,12.4-24.6c4.3-8.1,9.2-15.9,15.2-22.9c5.2-6.1,11.1-11.3,18.5-14.7c10.6-4.9,21-4.6,30.9,2.1
			c9.6,6.5,13.3,16.6,10.5,27.9c-1.1,4.3-2.9,8.3-4.9,12.2c-1.5,3-2.9,6.1-4.7,8.8c-4.2,6.1-5.4,13-5.5,20.2
			c-0.2,8.2,0.9,16.2,1.7,24.3c1,10.2,2.2,20.3,3,30.5c1.7,23.5-5,44.6-19.3,63.1c-13.2,17-30.4,28-51.6,31.5
			c-18.1,2.9-35.7,0.2-52.5-7.6c-16-7.5-29.5-18.1-40.6-31.7c-7.9-9.7-14.9-20.2-20.1-31.6c-5.4-11.5-10.4-23.2-15.4-34.9
			c-1.6-3.8-2.8-7.8-4.1-11.8c-0.7-2.2,0.3-2.9,2.6-2.4c1.8,0.4,1.9,0.4,1.8-1.6c0-0.9-0.3-1.7,0.5-2.3c1.1-0.8,1.9,0.2,2.7,0.8
			c0.5,0.4,0.9,0.9,1.4,1.3C81.5,274.2,82,274.5,82.6,274.9z"/>
		<path class="st12" d="M163.7,321c-1.8-0.3-4.2-0.7-6.7-1.1c-9.2-1.4-17.8-4.6-25.8-9.1c-2.7-1.5-5.3-3.3-7.2-5.9
			c-2.5-3.4-1.5-6.3,2.5-7.7c0.8-0.3,1.6-0.3,2.4-0.6c0.6-0.2,1.1-0.5,1.6-0.8c-0.5-2.1-2.2-3.1-3.4-4.4c-6.8-7.1-13-14.7-17.8-23.3
			c-1.8-3.3-3.4-6.7-4.2-10.4c-0.3-1.4-0.5-2.9-0.4-4.3c0.2-3.5,2.4-5.7,5.8-6.4c3.6-0.6,7.1-0.1,10.5,1c7.2,2.2,14.1,5.2,20.9,8.3
			c16.7,7.6,33.9,14.1,51.3,20c9.9,3.3,19.6,7,29.4,10.6c1.8,0.6,3.5,1.4,5.1,2.4c1.7,1,2,2.6,1,4.3c-0.6,1.1-1.4,2.1-2.2,3.1
			c-6.9,9-15.1,16.7-24.4,23.2c-7.8,5.4-16.5,8.9-25.9,10.6c-1.4,0.3-2.9,0.5-4.3,0.4c-4.8-0.4-6.8-2.5-7.2-7.6
			C164.7,322.5,164.9,321.8,163.7,321z"/>
		<path class="st5" d="M128.7,437.7c-0.8-0.2-1.4-0.4-2-0.6c-0.9-0.3-1.4,0.1-2.1,0.8c-2.9,3.1-4.3,3.2-6.8-0.1
			c-3.4-4.5-5.7-9.7-8-14.8c-0.8-1.8-0.5-3.7,0.4-5.4c1.7-3.3,3.3-6.7,5.2-10c5-8.7,10.1-17.2,15.2-25.8c0.4-0.7,0.9-1.4,1.3-2.1
			c3.1-4.6,5.5-4.8,9.4-1c1.5,1.4,2.1,3.1,1.2,5.1c-0.9,1.9-1.8,3.7-2.8,5.6c-4.2,7.4-8.5,14.8-12.7,22.2c-1.6,2.8-1.6,2.9,0.8,5.3
			c2.2,2.3,4.4,4.4,6.6,6.7c1.3,1.3,2.5,2.8,3.1,4.6c0.6,1.7,0.2,3.6-1.5,4.3c-2,0.9-3.5,2-4.3,4.1
			C131.2,437.8,129.8,437.7,128.7,437.7z"/>
		<path class="st5" d="M213.9,438.1c-0.2,0.8-0.3,1.5-0.5,2.1c-1.2,3.1-3.4,3.6-5.6,1.3c-1.1-1.2-2.1-2.6-3-4
			c-1.8-2.8-3.4-5.7-5.1-8.6c-0.8-1.3-1.3-2.6-1.4-4.1c-0.8-9.3-1.6-18.7-2.4-28c-0.1-0.8,0-1.7,0-2.5c0-0.4,0.1-0.8,0.3-1.2
			c1.3-2.5,3.8-2.1,6-2.3c2-0.2,3.9,0.3,4.6,2.4c0.7,2.2,1.1,4.5,1.4,6.7c0.6,4.5,1.2,9.1,1.6,13.7c0.2,3,1.4,5.1,4,6.5
			c2.5,1.4,4.9,3.1,7.4,4.7c1.6,1,3.1,2.2,4.2,3.7c2,2.8,1.1,4.9-2.5,5.5c-1.2,0.2-1.7,0.5-1.9,1.8c-0.8,4.1-1.4,4.4-5.3,2.9
			C215.3,438.5,214.9,438.4,213.9,438.1z"/>
		<path class="st13" d="M298.8,199.2c2.9,2.1,5.1,3.6,7.3,5.1c2.5,1.8,5.2,3.6,7.1,6.1c0.9,1.1,1.7,2.4,1.1,4
			c-0.7,1.7-2.5,2.7-4.6,2.5c-1.2-0.1-2.5-0.5-3.6-0.9c-6.5-2.5-12.4-6-17.8-10.3c-2-1.6-3.6-3.4-3.6-6.2c-0.1-4.1,0.4-5.2,4.3-6.5
			c6.1-2,12.3-4.1,18.4-6.1c1.4-0.4,2.8-0.7,4.3-0.9c1.3-0.1,2.5,0.4,3.1,1.6c0.6,1.2,0.2,2.9-1.1,3.9c-1.2,0.9-2.4,1.6-3.7,2.3
			C306.6,195.5,303.2,197.1,298.8,199.2z"/>
		<path class="st4" d="M268.7,190.7c2.7-0.1,5.2,2.2,5.4,5c0.2,2.7-2.2,5-5.2,5.1c-2.7,0.1-5-2.4-5-5.2
			C263.9,193,266.1,190.8,268.7,190.7z"/>
		<path class="st14" d="M203.6,351.1c-0.1,0.3-0.2,1-0.6,1.4c-1.9,1.9-4.1,3.5-6.4,4.7c-0.7,0.4-1.6,0.2-2.2-0.5
			c-0.9-1-0.6-2,0.2-2.7c1.9-1.9,4-3.5,6.4-4.7C202,348.7,203.7,349.7,203.6,351.1z"/>
		<path class="st14" d="M238.5,331.5c-0.4,2.2-1.2,4.9-3.2,7.1c-0.3,0.4-1.1,0.5-1.7,0.4c-0.9-0.2-1.4-1-1.3-1.8
			c0.3-2.8,1.5-5.2,3.2-7.3c0.1-0.1,0.4-0.2,0.5-0.3C236.8,329.1,238.4,329.8,238.5,331.5z"/>
		<path class="st14" d="M249.1,279.1c-0.4,1.7-0.8,3.7-1.4,5.7c-0.3,0.8-1.2,1.2-2,1.1c-0.8-0.2-1.6-0.8-1.6-1.7
			c-0.1-2.5,0.5-4.9,1.4-7.2c0.3-0.9,1.2-1.2,2-1.1c0.9,0.1,1.4,0.8,1.6,1.7C249.2,277.9,249.1,278.3,249.1,279.1z"/>
		<path class="st14" d="M249.8,351.9c-1.3-0.2-1.7-1.1-1.6-1.8c0.3-2.7,1.7-5,3.4-7.1c0.6-0.7,1.5-0.7,2.2-0.2
			c0.4,0.3,0.9,1,0.9,1.5c-0.4,2.7-1.6,5.1-3.4,7C250.9,351.7,250.2,351.7,249.8,351.9z"/>
		<path class="st14" d="M212.1,370.2c0.1-0.3,0.1-1.1,0.4-1.5c1.7-1.9,3.7-3.3,6.1-4c0.9-0.3,1.7,0,2.2,0.7c0.5,0.7,0.4,1.7-0.2,2.3
			c-1.9,1.9-4.1,3.5-6.8,4.2C213.2,372.1,212.4,371.4,212.1,370.2z"/>
		<path class="st14" d="M257.1,309.2c-0.4,1.8-0.8,4.1-2.1,6c-0.5,0.7-1.3,1-2.2,0.6c-0.9-0.3-1.4-1.1-1.3-1.9
			c0.4-2.2,0.8-4.5,2.3-6.3c0.3-0.4,1.1-0.6,1.7-0.5C256.3,307.2,256.9,307.8,257.1,309.2z"/>
		<path class="st14" d="M261.3,259.7c-0.1,1.1-0.2,2.3-0.5,3.5c-0.3,1.1-1.2,1.7-2.3,1.6c-0.9-0.1-1.5-0.8-1.5-1.7
			c0-1.8,0.2-3.7,0.4-5.5c0.2-1.1,1.1-1.8,2.2-1.6c0.9,0.1,1.4,0.8,1.5,1.7C261.2,258.3,261.2,258.9,261.3,259.7z"/>
		<path class="st15" d="M146.3,303.5c-1.7,0.1-1.9,0.1-2.1,0.1c-2,0.1-3.1-0.5-2.9-1.4c0.3-1.5,1.6-1.8,2.8-1.9
			c4.3-0.6,8.6-1.1,13-1.6c9.5-1.1,18.9-2.6,28.2-4.9c0.4-0.1,0.8-0.3,1.2-0.2c0.8,0,1.7-0.1,1.9,1c0.2,1-0.6,1.5-1.3,1.8
			c-1.4,0.5-2.7,0.9-4.2,1.3c-8.5,2-17,3.5-25.7,4.6C153,302.7,148.9,303.2,146.3,303.5z"/>
		<path class="st15" d="M211.2,300.2c0.2,0.7,0,1.3-0.5,1.7c-1.1,0.9-2.3,1.8-3.5,2.6c-8,4.9-16.2,9.5-24.9,13
			c-1.3,0.5-2.7,1-4.2,1.2c-0.5,0.1-1.3-0.3-1.5-0.8c-0.2-0.4,0.1-1.3,0.5-1.6c0.8-0.6,1.8-1.1,2.7-1.5c9.7-4,18.9-8.7,27.8-14.3
			c0.9-0.6,1.7-1.3,2.9-1C210.6,299.5,210.9,299.9,211.2,300.2z"/>
		<path class="st15" d="M164.2,280.8c-3.4-0.4-6.8-0.7-10.1-1.1c-6.4-0.8-12.8-1.6-19.2-2.5c-0.8-0.1-1.6-0.4-2.3-0.8
			c-0.3-0.1-0.4-0.7-0.4-1.1c0-0.4,0.3-0.8,0.6-1c0.7-0.6,1.5-0.6,2.4-0.5c9.5,1.2,19,2.4,28.5,3.6c0.8,0.1,1.6,0.4,2.4,0.7
			c0.5,0.2,1.1,0.7,0.7,1.5c-0.2,0.3-0.5,0.7-0.8,0.8C165.3,280.7,164.7,280.7,164.2,280.8z"/>
		<path d="M275.7,195.2c0.2,2.1-2,4.3-4.4,4.4c-1.6,0.1-3.1-1.3-3.4-3c-0.4-2,1.2-4.2,3.3-4.6C273.3,191.6,275.5,193.2,275.7,195.2z
			"/>
	</g>
</g>
</svg>
