<?xml version="1.0" encoding="utf-8"?>
<!-- Generator: Adobe Illustrator 25.1.0, SVG Export Plug-In . SVG Version: 6.00 Build 0)  -->
<svg version="1.1" id="Calque_1" xmlns="http://www.w3.org/2000/svg" xmlns:xlink="http://www.w3.org/1999/xlink" x="0px" y="0px"
	 viewBox="0 0 607.6 462.5" style="enable-background:new 0 0 607.6 462.5;" xml:space="preserve">
<style type="text/css">
	.st0{fill:#E5BE9E;}
	.st1{fill:#19935C;}
	.st2{fill:#004C26;}
	.st3{fill:#006836;}
	.st4{fill:#FFFFFF;}
	.st5{fill:#B25E26;}
	.st6{fill:#D3803C;}
	.st7{fill:#662704;}
	.st8{fill:#A0A0A0;}
	.st9{fill:#7C7C7C;}
	.st10{fill:#D8D8D8;}
	.st11{fill:#FFAF2E;}
	.st12{fill:#E27600;}
	.st13{fill:#FF6695;}
	.st14{fill:#FFEB76;}
	.st15{fill:#FFCF48;}
	.st16{fill:#6D6D6D;}
	.st17{fill:#C6C6C6;}
	.st18{fill:#CCCCCC;}
	.st19{fill:#F987B6;}
	.st20{fill:#CE3A6F;}
	.st21{fill:#CECECE;}
	.st22{fill:#565656;}
	.st23{fill:#F77CA9;}
	.st24{fill:#723100;}
	.st25{fill:#E8D09C;}
	.st26{fill:#6B5738;}
	.st27{fill:#69C498;}
	.st28{fill:#FF8B2C;}
	.st29{fill:#B2B2B2;}
	.st30{fill:#848484;}
	.st31{fill:#726359;}
	.st32{fill:#CABAAB;}
	.st33{fill:#E8E2DD;}
	.st34{fill:#D3BD90;}
	.st35{fill:#EAAD8B;}
	.st36{fill:#CEB78A;}
	.st37{fill:#EAE4DC;}
	.st38{fill:#7F7870;}
	.st39{fill:#84AFD3;}
	.st40{fill:#5F94B7;}
	.st41{fill:#D37E02;}
</style>
<g>
	<path class="st0" d="M313.6,8.3h266.2v54.8H369.7v131.5H523v52.8H369.7v135.4h210.1v54.8H313.6V8.3z"/>
</g>
<g>
	<g>
		<path class="st16" d="M226.9,331c0.4,15.8-1.1,32.5-2.6,49.2c-0.5,5.2-0.9,10.3-1.6,15.5c-0.8,5.7-1,5.7-8.9,6
			c-4,0.1-7.9,0.1-11.9,0.3c-10.4,0.6-10.4,0.4-8.3-7.1c6.9-23.9,14-47.8,21-71.6c0.4-1.5,0.7-3,1.3-4.5c0.8-2,2.6-3,5.4-2.8
			c2.6,0.2,4.7,0.9,4.9,3.1C226.5,322.7,226.6,326.4,226.9,331z"/>
		<path class="st16" d="M295,439.4c-9.4-0.7-18.7-3.6-26.3-11c-2-2-2.6-4-1.9-6.8c6.6-24.7,10.7-49.8,13.8-75.1
			c0.1-0.5,0.1-1,0.4-1.3c0.2-0.2,1-0.2,1.2,0c0.5,0.4,0.9,1,1.2,1.7c4.5,10.4,11.5,19,19.3,27.1c5.1,5.4,10.4,10.6,15.6,15.8
			c3.8,3.8,7.1,8,9.2,13c4.6,11.1,1.6,22-8.3,28.7C312,436.2,304.5,439.5,295,439.4z"/>
		<path class="st17" d="M329.5,413.5c0.2,9.7-7.1,22.4-21.5,25.9c-3.6,0.9-7.3,1.4-11,1.2c-7.5-0.4-16.7-5.9-18.4-16.1
			c-1-6.2-0.5-12.1,2.3-17.6c5.3-10.2,13.3-17,24.7-19.7c7.5-1.7,13.3,1,17.7,6.7C327.4,399.3,329.6,405.3,329.5,413.5z"/>
		<path class="st16" d="M142.9,355.9c-1.4,13-1.8,27.1-2.4,41.3c-0.2,5.8-0.2,11.6-0.2,17.4c0,2.6-0.7,4.3-3.1,5.7
			c-10.5,6.1-21.6,9.5-33.8,8.9c-13.7-0.6-25.3-10.4-28.3-23.7c-0.8-3.5-0.6-6.9,0.8-10.2c1.7-3.9,4.1-7.3,7-10.3
			c4.9-5,10.5-9.1,16.6-12.6c5.4-3.1,10.9-6.1,16.4-9.1c8.2-4.4,16.2-9.1,23.3-15.1c0.4-0.3,0.7-0.6,1.1-0.8
			c0.6-0.4,1.1-0.8,1.9-0.6c0.9,0.3,0.8,1,0.8,1.7C143.2,350.6,143.1,352.7,142.9,355.9z"/>
		<path class="st17" d="M126.1,409c0.1,2.3-0.4,4.8-1.1,7.3c-2.4,8.9-9.4,14.7-18.6,15.2c-7.4,0.4-14.2-1.5-20.5-5.5
			c-13.6-8.5-15-25.2-9-36.1c1.1-2,2.5-3.9,3.8-5.8c4.5-6.4,10.7-8.4,18.2-7.3C115.1,379.1,126.3,392.3,126.1,409z"/>
		<path class="st17" d="M291.1,274.2c0.5,5,0.3,10-0.5,15.1c-2.2,14.7-3.8,29.4-5,44.3c-0.8,9.9-2.5,19.8-4.2,29.6
			c-2.9,17.1-5.6,34.4-9.5,51.3c-1.4,6.1-2.8,12.2-4.3,18.3c-0.8,3-1.2,3.4-4.4,3.2c-9.7-0.6-19.5-1.3-29.2-1.9
			c-3.7-0.3-7.4-0.5-11.1-1c-3-0.4-4.1-1.5-4.1-4.6c0-7.9,0-15.8,0.5-23.7c0.7-10.9,2.2-21.7,3-32.6c0.7-10.4,0.8-20.9,1.2-31.3
			c0-1.4-0.1-2.8-0.3-4.2c-0.2-1.5-1-2.5-2.6-2.9c-0.7-0.1-1.4-0.3-2-0.4c-5.2-0.7-7.1-0.4-8.5,5.3c-5.7,22.2-11.7,44.4-17.5,66.6
			c-1.7,6.5-3.5,13-5.4,19.5c-0.5,1.8-1.2,3.5-1.8,5.3c-1,2.8-3,4-5.9,3.8c-12.5-0.7-25-1.3-37.5-3.1c-0.5-0.1-0.9-0.1-1.4-0.2
			c-3-0.7-4-1.7-4-4.7c0-5.6,0-11.1,0.2-16.7c0.6-15.1,0.9-30.2,2.6-45.2c2.6-22.6,4.7-45.2,9.8-67.5c3.8-16.8,10.2-32.8,17.3-48.4
			c0.9-2.1,1.7-2.3,3.7-1c18.2,11.8,38.3,18.7,59.3,23.1c10.9,2.3,21.8,4.6,32.7,6.7c8.6,1.7,17.1,1.7,25.2-2.3
			C288.5,274.1,289.6,273.6,291.1,274.2z"/>
		<path class="st16" d="M154.6,423.5c1.6-1.8,2.6-3.1,3.8-4.1c4.2-3.7,8.4-3.4,12.1,0.8c0.9,1,1.1,2.6,2.9,3.1
			c1.3-1.1,2.5-2.4,4-3.4c4.1-2.6,8.3-1.2,10.1,3.4c1.2,2.9,1.1,5.9,0.3,8.9c-0.4,1.4-1.4,2.4-2.9,2.7c-1.4,0.2-2.8,0.4-4.1,0.4
			c-13-0.3-26-0.2-38.8-2.9c-1.4-0.3-2.8-0.4-4-0.9c-1.8-0.6-2.9-2.6-2.6-4.5c0.8-3.7,2.1-7.1,5.2-9.6c3.1-2.5,6.5-2.5,9.4,0.4
			C151.6,419.4,152.9,421.3,154.6,423.5z"/>
		<path class="st16" d="M255.1,426.3c1.8-1.3,3.2-2.5,4.8-3.4c2.2-1.2,4.6-0.7,6.4,1.1c2.7,2.7,3.3,6,2.7,9.6
			c-0.2,1.2-1.2,2-2.3,2.4c-2,0.8-4,1-6.2,0.9c-10.9-0.3-21.8-0.5-32.7-0.8c-2.3-0.1-4.6-0.3-6.8-1.2c-2.8-1.1-4-3.3-3.1-6.1
			c0.8-2.7,2.2-5.1,4.2-7.1c3.2-3.1,7.1-3.3,10.7-0.5c1.1,0.8,2,1.8,3,2.7C244.7,417.7,247.8,418.1,255.1,426.3z"/>
		<g>
			<path class="st17" d="M382.6,220.8c0,0.7,0,2.6,0,4.5c0,6.4-2,12.2-5.7,17.4c-0.8,1.2-1.6,2.4-2.5,3.5
				c-14.6,17.7-31.9,32.1-52.3,42.8c-2.3,1.2-4.8,2.2-7.2,3.2c-4.2,1.8-7.9,0.7-11.1-2.4c-0.5-0.5-1-1-1.5-1.6
				c-3.8-4.6-7.5-9.3-11.3-13.9c-1-1.3-1.2-2.5-0.3-3.9c2.5-4.3,5.1-8.6,7.4-13.1c1.5-2.7,2.5-5.7,3.8-8.5c4.9-10.6,4.3-21.3,0.3-32
				c-0.9-2.5-1.9-4.9-2.7-7.4c-1.4-4.1-2-8.3-1.1-12.7c1-4.7,1.7-9.4,2.6-14.1c0.4-2.3,1.5-3.8,4-4.4c14.5-3.1,29-6.2,43.9-3.9
				c5.7,0.9,11.2,2.4,16.3,5.2c6.1,3.3,10.5,8.1,13,14.7C381.1,202.5,382.6,210.9,382.6,220.8z"/>
			<path class="st16" d="M323,256.4c-5.8-0.1-11.4-1-16.9-2.6c-4.5-1.4-5.2-2.5-4.8-7.3c0.1-1.2,0.2-2.4,0.5-3.6
				c1.7-8.7,0.4-17.1-2.3-25.4c-1-3.2-2.3-6.3-2.5-9.7c-0.1-2.1,0.4-3.8,2.5-4.7c10.1-4.6,20.3-8.7,31.6-8.2
				c2.6,0.1,5.2,0.5,7.8,1.1c8.7,2.1,14.9,8.5,15.9,17.3c1.2,10.9-0.8,21.4-5.6,31.3c-2.1,4.2-5.6,7.2-10,8.9
				C334,255.5,328.6,256.6,323,256.4z"/>
			<path class="st17" d="M112,182.3c0.2-18,6.8-30.6,19.8-39.8c3.9-2.7,8-5.4,12.2-7.4c20.9-10,43.9-2.8,57.2,12.8
				c1.2,1.4,1.5,2.7,0.7,4.5c-1.9,4.4-3.5,8.9-5.2,13.4c-2.1,5.5-5.3,10.1-9.6,14c-3.5,3.2-7,6.5-10.4,9.9
				c-5.4,5.4-8.7,11.9-9.9,19.5c-1.2,7.6-2.2,15.1-2.2,22.8c0,2.2,0,4.3-0.1,6.5c0,1.6-0.8,2.7-2.3,3.3c-6.2,2.5-12.2,5.4-18.9,6.5
				c-4.6,0.8-8-0.7-10.3-4.6c-1.3-2.3-2.5-4.6-3.5-7.1c-4.7-11.8-9.3-23.6-13.8-35.4C113.3,194.5,111.7,187.6,112,182.3z"/>
			<path class="st16" d="M156.7,220c-4.1-0.4-8.9-0.8-13.3-2.8c-6.4-2.9-9.7-7.9-8.9-14.8c1.2-10.5,3.4-20.8,7.9-30.4
				c5.5-11.9,16.4-17.4,29.4-15c7.4,1.3,14.2,4.1,20.8,7.6c3.6,1.9,4.1,4.3,2,7.7c-0.8,1.2-1.7,2.3-2.7,3.4
				c-3.8,4.3-7.4,8.8-11.3,12.9c-5.8,6.1-9.1,13.4-11.5,21.2c-0.2,0.7-0.3,1.4-0.5,2.1C166.6,218.9,164.8,220.3,156.7,220z"/>
			<path class="st8" d="M163.5,229.2c-0.4-6.6,0.3-12.3,1.4-17.9c1.9-9.9,6.3-18.5,14.2-25.1c1.8-1.5,3.6-3.1,5.4-4.7
				c4.3-4,7.6-8.6,9.1-14.3c0.4-1.6,1-3.2,1.5-4.8c0.6-1.8,1.2-3.6,1.9-5.4c4.7-13,14.1-19.9,27.6-21.8c6.2-0.9,12.4-1,18.5,0.5
				c11.9,2.8,23.7,5.6,35.5,8.5c5.1,1.2,10,3.2,14.4,6.3c5.6,3.9,8.9,9.1,10,15.9c1.2,7.5,0.4,14.8-0.9,22.1
				c-0.5,2.8-1.4,5.6-1.8,8.4c-0.9,5.5-1.1,10.9,0.6,16.3c0.6,2,1.1,4.1,1.8,6.2c4.8,13.9,3.5,27.3-3.4,40.2
				c-2.4,4.4-5.2,8.6-7.7,12.9c-1.5,2.7-3.9,4.2-6.7,5c-6.9,1.9-14,3.1-21.2,2c-9.9-1.4-19.7-3.6-29.5-6
				c-13.9-3.4-27.8-6.9-41.4-11.6c-4.5-1.6-8.9-3.5-13-5.9c-0.4-0.2-0.8-0.5-1.2-0.7C168.9,248.9,161.2,241.4,163.5,229.2z"/>
			<path class="st16" d="M167,317.8c-16.8-0.2-33.3-3-49.7-6.4c-5.4-1.1-10.8-2.3-16-3.9c-8.3-2.5-9.8-5.3-7.4-13.9
				c0.7-2.5,1.5-5.1,2.7-7.4c1.9-3.8,4.1-4.8,8.2-3.9c2.1,0.5,4.1,1.2,6.2,1.8c19,5,38.2,6.3,57.5,2.2c8.7-1.9,17-5,24.8-9.3
				c13.9-7.7,22.9-19.2,26.2-35c0.2-0.9,0.3-1.9,0.7-2.8c0.7-1.9,2.6-2.9,4.6-2.5c1.9,0.4,3.7,0.8,5.5,1.5c6.7,2.4,13.4,5,20.2,7.5
				c0.9,0.3,1.8,0.7,2.6,1.2c2.8,1.6,3.6,3.5,2.9,6.6c-0.4,1.9-1,3.7-1.7,5.5c-4.3,10.8-10,20.7-17.6,29.4
				c-13.5,15.6-30.7,24.8-51,28.2C179.4,317.6,173.2,317.9,167,317.8z"/>
			<path class="st4" d="M273.6,220.2c2.9-0.2,5.8,2.6,6.1,5.9c0.2,2.7-2.2,5.5-5.1,5.9c-3.2,0.4-6.3-2.1-6.4-5.2
				C268,223.6,270.7,220.4,273.6,220.2z"/>
			<path class="st4" d="M206.9,217.3c-2.7-0.1-4.9-2.4-4.9-5.2c0-3.3,2.7-6.3,5.7-6.1c2.6,0.2,4.9,2.5,4.9,5.2
				C212.7,214.5,210,217.4,206.9,217.3z"/>
			<path class="st18" d="M232.3,200.3c8.3,1.3,16.8,2.6,25.2,3.9c0.5,0.1,1,0.1,1.3,0.4c0.5,0.5,1,1.1,1,1.7c0,0.5-0.7,1.2-1.3,1.5
				c-0.6,0.2-1.4,0.1-2.1,0c-8.7-1.3-17.3-2.6-26-3.9c-0.5-0.1-0.9-0.3-1.3-0.5c-0.4-0.3-0.9-0.8-0.9-1c0.2-0.6,0.6-1.4,1.1-1.6
				C230.3,200.4,231.3,200.4,232.3,200.3z"/>
			<path class="st18" d="M241.7,177.1c6.5,0.9,14.5,2,22.5,3.1c0.7,0.1,1.3,0.5,1.8,1c0.3,0.2,0.4,0.8,0.4,1.2
				c-0.1,0.4-0.4,1-0.7,1.1c-0.9,0.3-1.8,0.5-2.7,0.4c-8.5-1.1-16.9-2.3-25.4-3.5c-1.1-0.2-2.4-0.1-3.2-1.1
				c-0.1-0.2-0.3-0.4-0.2-0.6c0.1-0.4,0.2-1,0.5-1.2C236.4,176.5,238.3,177.2,241.7,177.1z"/>
			<path class="st18" d="M260.6,162.7c-6.3-1.2-12.6-2.4-18.9-3.7c-0.9-0.2-1.9-0.6-1.9-1.8c0-1.3,1.1-1.6,2-1.5
				c6.6,0.6,13.1,1.9,19.6,3.5c0.9,0.2,1.6,0.9,1.8,2C263.5,162.2,262.2,163,260.6,162.7z"/>
			<path class="st18" d="M229.9,220c4.7,1.4,10.2,3,15.6,4.7c0.6,0.2,1,0.9,1,1.7c-0.1,0.9-0.7,1.2-1.4,1.3c-0.9,0.1-1.9,0-2.8-0.2
				c-4.8-1.4-9.6-2.9-14.3-4.4c-0.7-0.2-1.1-0.8-1.1-1.6c0.1-0.9,0.8-1,1.4-1.2C228.6,220,228.8,220,229.9,220z"/>
			<path d="M271.6,221.6c2,0.2,3.8,2.4,3.5,4.5c-0.3,2.5-2.5,4.4-4.7,4.4c-2.1,0-3.8-2.2-3.4-4.4
				C267.4,223.4,269.4,221.4,271.6,221.6z"/>
			<path d="M207.7,210.6c0.1,2.5-2.1,4.8-4.4,4.6c-1.8-0.1-3.4-2-3.3-4c0.1-2.4,1.8-4.2,4-4.2C206,207.1,207.7,208.6,207.7,210.6z"
				/>
		</g>
	</g>
</g>
</svg>
