<?xml version="1.0" encoding="utf-8"?>
<!-- Generator: Adobe Illustrator 25.1.0, SVG Export Plug-In . SVG Version: 6.00 Build 0)  -->
<svg version="1.1" id="Calque_1" xmlns="http://www.w3.org/2000/svg" xmlns:xlink="http://www.w3.org/1999/xlink" x="0px" y="0px"
	 viewBox="0 0 607.6 462.5" style="enable-background:new 0 0 607.6 462.5;" xml:space="preserve">
<style type="text/css">
	.st0{fill:#E5BE9E;}
	.st1{fill:#19935C;}
	.st2{fill:#004C26;}
	.st3{fill:#006836;}
	.st4{fill:#FFFFFF;}
	.st5{fill:#B25E26;}
	.st6{fill:#D3803C;}
	.st7{fill:#662704;}
	.st8{fill:#A0A0A0;}
	.st9{fill:#7C7C7C;}
	.st10{fill:#D8D8D8;}
	.st11{fill:#FFAF2E;}
	.st12{fill:#E27600;}
	.st13{fill:#FF6695;}
	.st14{fill:#FFEB76;}
	.st15{fill:#FFCF48;}
	.st16{fill:#6D6D6D;}
	.st17{fill:#C6C6C6;}
	.st18{fill:#CCCCCC;}
	.st19{fill:#F987B6;}
	.st20{fill:#CE3A6F;}
	.st21{fill:#CECECE;}
	.st22{fill:#565656;}
	.st23{fill:#F77CA9;}
	.st24{fill:#723100;}
	.st25{fill:#E8D09C;}
	.st26{fill:#6B5738;}
	.st27{fill:#69C498;}
	.st28{fill:#FF8B2C;}
	.st29{fill:#B2B2B2;}
	.st30{fill:#848484;}
	.st31{fill:#726359;}
	.st32{fill:#CABAAB;}
	.st33{fill:#E8E2DD;}
	.st34{fill:#D3BD90;}
	.st35{fill:#EAAD8B;}
	.st36{fill:#CEB78A;}
	.st37{fill:#EAE4DC;}
	.st38{fill:#7F7870;}
	.st39{fill:#84AFD3;}
	.st40{fill:#5F94B7;}
	.st41{fill:#D37E02;}
</style>
<g>
	<path class="st0" d="M292.6,16.8c32.6,0,64.5,5.5,95.8,16.5c31.2,11,59.5,26.8,84.9,47.2c25.3,20.5,45.4,44.4,60.5,71.7v-10.6V16.8
		h56.1v429.6h-56.1V308.9c0-37-7.9-71.4-23.8-103.1c-15.9-31.7-37.8-58.4-65.8-79.9c-28-21.6-59.8-36.6-95.5-45v365.5h-56.1V16.8z"
		/>
</g>
<g>
	<path class="st34" d="M328.4,324.8c0-8.9,0-17.8,0-26.6c0-1.3,0-2.7-0.1-4c-0.7-9.3-0.7-8.1-8.4-7.3c-8.2,0.9-16.1,2.9-24.2,4.4
		c-3.1,0.6-4.4,2.2-5,5.3c-1.9,9.8-4.1,19.5-6,29.3c-2.7,13.7-5.3,27.4-7.9,41.2c-0.7,3.8-0.5,4.2,3.1,6.3c1.9,1.1,3.9,2.2,5.7,3.4
		c1.3,0.8,2.5,1.8,3.3,3.2c1,1.7,0.5,3.5-1.1,4.6c-1.6,1.1-3.3,1.2-5.1,0.9c-7-1.1-14-2.3-20.8-4.3c-3.6-1.1-5.7-3.2-6.1-7
		c-0.6-5.3-1.4-10.6-1.7-15.9c-0.6-10.9-1.4-21.7-2.9-32.5c-0.3-2.4-0.8-4.8-1.3-7.2c-0.4-1.8-1.8-2.5-3.5-2.6
		c-3.2-0.1-5.7,1.5-6.7,4.4c-0.6,1.9-0.9,3.9-1.3,5.8c-2.5,15.1-3.9,30.4-4.4,45.7c0,1.1,0,2.2,0,3.3c-0.1,2,0.8,3.4,2.5,4.4
		c2.5,1.5,5,2.9,6.9,5.2c1.8,2.1,1,4.5-1.7,4.9c-6.3,0.8-12.4-0.4-18.3-2.6c-2.5-0.9-3.8-3-4.1-5.6c-0.5-3.7-1.2-7.5-1.4-11.2
		c-0.6-8.6-1-17.3-1.5-25.9c-0.4-6.1-0.6-6.2-6.2-4.4c-19.2,6.1-37.1,14.8-53.3,26.7c-4.5,3.3-8.7,6.9-12.3,11.1
		c-9.2,10.7-6.1,22.3,5.9,28.7c3.4,1.8,7.1,2.7,10.8,3c3.8,0.3,7.5,1.2,10.9,2.8c2.1,1,4.1,1.1,6.4,0.6c4.3-1.1,8.7-1.8,13-2.6
		c4.6-0.9,9.3-1,13.9-0.5c5.4,0.6,10.5,2,14.7,5.6c1.9,1.6,3.7,1.8,6.1,1.3c8.5-1.8,17-3.2,25.7-3.7c9.6-0.5,19.1,0.4,28.3,3.2
		c2.6,0.8,5,1.7,7.2,3.3c4.7,3.3,4.6,7.6-0.5,10.5c-2.5,1.4-5.2,2.4-8,3.3c-9.3,3-18.8,5.1-28.4,6.9c-13.1,2.5-26.2,4.7-39.5,6.1
		c-23.6,2.5-47,2-70-4.6c-9.7-2.8-18.8-6.6-26.8-12.9c-14.4-11.4-19.1-30-12.1-47.4c2.2-5.4,5.4-10.2,9.3-14.5
		c5.2-5.6,10.8-10.5,17.1-14.8c10.2-6.8,20.8-12.8,32.2-17.3c1-0.4,2-0.9,3.1-1.2c3.1-0.9,4.4-2.9,4.9-6.2c2.4-16,4.8-32,9-47.7
		c1-3.9,2.1-7.7,3.3-11.5c5.1-17.5,15.2-32,28.1-44.6c12.9-12.5,28.2-20.7,46-24c11.3-2,22.6-1.5,33.8,0.1
		c7.9,1.2,15.8,2.3,23.7,3.6c10.3,1.8,20.4,0.3,30.3-2.1c4.3-1,8.5-2.5,12.7-3.9c1.9-0.6,2.4-1.5,1.9-3.6c-1-4.5-2.1-9.1-3.1-13.6
		c-0.7-3.1-0.7-6.2-0.6-9.3c0.1-2,0.6-3.9,1.7-5.7c1.7-2.7,4.9-3.4,7.4-1.3c1.5,1.2,2.8,2.8,4,4.4c3.4,4.7,5.8,10,8,15.3
		c4.1,9.9,1.5,8.7,12.7,6.2c2.8-0.6,4.1-2,5-4.6c1.6-4.8,3.3-9.7,5.7-14.2c1.5-2.7,3.2-5.4,5.7-7.3c2.9-2.2,5.7-1.3,6.5,2.3
		c0.8,3.3,0.5,6.6-0.2,9.9c-0.9,4.1-2.5,8-4.1,11.9c-1,2.3-0.8,3,1.3,4.5c3.5,2.7,7,5.4,10.6,8.1c6,4.5,9.6,10.4,10.5,17.9
		c0.2,1.8,0.8,3.5,1.1,5.2c0.9,5.3,3.5,9.5,7.5,13c2.2,1.9,4.3,3.9,6.2,6c2.5,2.6,3.6,5.7,1.9,9.1c-1.8,3.6-5.1,4.9-8.9,4.3
		c-3.1-0.4-6.1-1.2-9.1-1.9c-7.3-1.8-14.3-4.7-21.4-7.4c-7.2-2.8-5.9-3.1-11,2.8c-0.1,0.2-0.3,0.4-0.4,0.5
		c-5.8,6.1-8.1,13.4-8.7,21.7c-0.8,12.2-1.2,24.4-0.9,36.6c0.3,9.1-0.2,18.2-0.4,27.3c0,2.4,0,4.9-0.2,7.3c-0.2,3.4,1,6,4,7.8
		c2.9,1.7,5.4,3.9,7.6,6.5c1,1.2,1.8,2.6,0.9,4.2c-0.8,1.5-2.2,2.2-3.8,2.2c-1.3,0.1-2.7,0-4-0.3c-4.8-1-9.6-2-14.3-3.1
		c-6.2-1.6-7.3-2.9-7.5-9.1c-0.3-8-0.4-16-0.5-24c-0.2-8.7-0.3-17.3-0.5-26c-0.1-4-0.4-8-1.6-11.8c-0.8-2.4-2-3.1-4.5-2.8
		c-2.7,0.4-4.5,1.9-5.3,4.4c-0.8,2.5-1.4,5.1-1.8,7.8c-2.6,16.9-5.5,33.7-7.2,50.8c-0.1,0.7,0,1.4-0.2,2c-1.9,5.3-0.7,9.4,4.3,12.4
		c1.2,0.8,2.1,2.2,2.9,3.6c1.2,2.1,0.2,4.7-2.1,5.4c-1,0.3-2.2,0.6-3.3,0.4c-4.6-0.8-9.1-1.8-13.5-3.5c-3.4-1.3-5.2-3.6-5.7-7.4
		c-1.3-10.4-0.8-20.8-0.5-31.3c0.1-2.2,0.2-4.4,0.4-6.6C328.2,324.8,328.3,324.8,328.4,324.8z"/>
	<path class="st26" d="M276.3,253.7c0,3.1,0.1,6.2,0,9.3c-0.1,1.3-0.3,2.8-2.1,2.9c-1.6,0.2-2.2-1.2-2.8-2.4
		c-0.7-1.4-1.2-2.9-1.7-4.3c-4.5-12.5-8.9-25.1-13.4-37.6c-2-5.6-4.1-11.2-6.2-16.9c-1.6-4.4-1.1-5.5,3.6-6.2
		c4.6-0.7,9.3-1.1,13.9-1.2c3.9-0.1,4.6,0.8,4.9,4.6c0.9,11.3,1.8,22.5,2.7,33.8C275.8,241.8,276.8,247.7,276.3,253.7z"/>
	<path class="st26" d="M255.8,274.1c-0.4,0.7-0.6,1.5-1,1.8c-0.8,0.5-1.7,0.4-2.4-0.3c-0.8-0.8-1.6-1.5-2.3-2.4
		c-13.2-15-25.4-30.8-36.6-47.4c-0.5-0.7-1-1.5-1.5-2.2c-0.8-1.3-0.7-2.6,0.3-3.6c4.2-3.9,8.9-7.3,14.2-9.8c1.1-0.5,2.2,0,2.9,1
		c0.6,0.9,1.1,1.9,1.6,2.9c6.2,13.7,12.5,27.4,18.6,41.2c2,4.5,3.5,9.1,5.1,13.7C255.2,270.7,255.4,272.4,255.8,274.1z"/>
	<path class="st26" d="M411.8,228.9c-1.4-0.2-3.6-0.5-5.8-1c-5.4-1.2-10.6-3.1-15.6-5.6c-9.7-5-18.5-11.4-26.6-18.6
		c-1.1-1-2.1-2.3-2.9-3.5c-0.7-1.1,0.2-3,1.5-3.1c1.1-0.2,2.2-0.2,3.3,0c1.9,0.4,3.9,1,5.7,1.6c6.7,2.3,13.6,3.8,20.7,4.6
		c12.9,1.5,20.8,8.9,24.6,21.1c0.9,2.9,0,4.3-2.8,4.5C413.4,228.9,413,228.9,411.8,228.9z"/>
	<path class="st26" d="M242.9,285.6c0.2,1.3-1.2,2.6-2.2,2.4c-1.3-0.3-2.6-0.5-3.8-1.1c-3-1.5-5.9-3-8.8-4.6
		c-12.8-7.4-25.7-14.9-38.5-22.4c-5.3-3.1-5.5-3.9-2.6-9.4c1.3-2.6,3-4.9,4.9-7.1c1.6-1.7,2.9-1.9,4.7-0.7c2,1.4,3.9,2.9,5.8,4.5
		c12.1,10.1,23.6,20.8,35,31.7c1.8,1.7,3.3,3.6,4.9,5.4C242.6,284.6,242.8,285.3,242.9,285.6z"/>
	<path class="st26" d="M308.8,206.3c-1.4,12.8-2.8,25.4-4.2,37.9c-0.4,3.5-1.2,7-2.5,10.3c-0.4,1.1-1.2,2-2.4,1.8
		c-1.3-0.1-1.8-1.2-2-2.4c-0.8-4.8-1.6-9.6-2.3-14.4c-1.2-9-2.4-18-3.5-27c-0.4-3.5-0.7-7.1-0.8-10.6c-0.1-1.5,1.1-2.7,2.5-2.5
		c4.4,0.5,8.8,1,13.2,1.6c1.5,0.2,2.2,1.3,2.3,2.8C308.9,204.8,308.8,205.7,308.8,206.3z"/>
	<path class="st26" d="M219.8,312.5c-0.2,0-1.3-0.1-2.4-0.4c-1.9-0.5-3.8-1.2-5.7-1.8c-11.5-4-22.8-8.6-34.5-11.8
		c-3-0.8-4-2-3.4-5.3c0.5-2.6,1.1-5.2,2-7.7c1-2.9,2.9-3.6,5.7-2.4c0.8,0.3,1.6,0.7,2.4,1.2c10.7,6.2,21.5,12.3,32.2,18.6
		c2.5,1.4,4.9,3,6.8,5.3c0.7,0.9,1.1,1.9,0.5,3.1C222.9,312.3,221.8,312.5,219.8,312.5z"/>
	<path class="st26" d="M328,202.3c0.4,0,0.9,0,1.3,0c5.4,0.3,6.1,1.1,5.3,6.5c-1.5,9.4-3.1,18.7-4.6,28.1c-0.3,1.8-0.7,3.5-1.8,4.9
		c-0.8,1.1-2.9,1.1-3.3-0.2c-0.6-1.6-1.2-3.3-1.4-5.1c-1-9.7-1.9-19.3-2.7-29c-0.4-4.6,0.5-5.2,5.2-5.4
		C326.7,202.2,327.3,202.2,328,202.3C328,202.2,328,202.2,328,202.3z"/>
	<path d="M439.7,250.5c0.4-1.3,0.7-2.6,1.2-3.8c0.6-1.3,1.6-2.2,3.1-2.1c1.5,0.1,2.8,1.5,3.1,3c0.4,2.3-0.2,4.4-1.7,6.2
		c-0.9,1.1-2.1,1.6-3.6,1.1c-1.2-0.4-1.7-1.4-1.9-2.5C439.7,251.8,439.7,251.1,439.7,250.5z"/>
	<path class="st26" d="M118.6,374.9c-0.6-0.4-1.1-0.5-1.3-0.8c-0.2-0.3-0.4-0.9-0.2-1.2c1.8-2.5,4.1-4.4,7.1-5.3
		c0.3-0.1,0.8,0.3,1,0.6c0.2,0.3,0.4,0.9,0.2,1.2C123.6,371.9,121.1,373.5,118.6,374.9z"/>
	<path class="st26" d="M166,438.7c-1.9-0.5-4.1-0.9-6.2-1.5c-0.6-0.2-1-0.9-0.8-1.6c0.1-0.7,0.6-1.3,1.3-1.2
		c2.4,0.3,4.8,0.7,7.1,1.3c0.8,0.2,1.6,1,1,2c-0.3,0.5-1,0.7-1.5,1C166.7,438.7,166.4,438.7,166,438.7z"/>
	<path class="st26" d="M153.8,419.1c0.2,0.9-0.5,1.4-1,1.4c-2.9,0-5.4-1.1-7.5-3.1c-0.2-0.2-0.2-0.8-0.1-1.2
		c0.1-0.3,0.6-0.8,0.9-0.7c2.9,0.1,5.4,1.3,7.5,3.2C153.7,418.7,153.7,419,153.8,419.1z"/>
	<path class="st26" d="M244.2,421.5c-0.1,0.4-0.2,1-0.4,1.1c-2.2,1.2-4.5,1.7-6.9,1.6c-0.7,0-1.2-0.4-1.3-1.2
		c-0.1-0.8,0.3-1.3,0.9-1.5c2.3-1,4.6-1.4,7.1-0.8C243.8,420.7,244,421.2,244.2,421.5z"/>
	<path class="st26" d="M126.6,418.6c1.1-0.1,1.9,1,2.9,1.7c2.9,2.2,3.7,3.8,2.5,4.4c-2,1-3.1-0.8-4.4-1.7c-1-0.8-2.2-1.6-2.5-2.9
		C125,419.4,125.5,418.9,126.6,418.6z"/>
	<path class="st26" d="M216.6,433.6c0.7,0.1,1.6,0.2,2.4,0.5c0.3,0.1,0.6,0.6,0.6,1c0,0.4-0.2,1-0.5,1.1c-2,0.9-4.2,1.1-6.3,0.8
		c-0.6-0.1-1.3-0.5-1.2-1.3c0.1-0.7,0.2-1.3,1-1.4C213.9,433.9,215.1,433.8,216.6,433.6z"/>
	<path class="st26" d="M187.4,428.7c-0.7-0.1-1.5-0.2-2.4-0.4c-0.3-0.1-0.6-0.6-0.6-1c0-0.4,0.2-1,0.5-1.1c2.3-1,4.6-1.2,7-0.5
		c0.3,0.1,0.6,0.6,0.7,1c0.2,0.8-0.4,1.3-1,1.5C190.2,428.5,188.9,428.5,187.4,428.7z"/>
	<path class="st26" d="M263.5,428.8c-0.4-0.1-1.2-0.2-2-0.4c-0.3-0.1-0.5-0.6-0.6-1c0-0.4,0.2-0.9,0.5-1.1c1.8-1,3.8-0.8,5.7-1
		c0.9-0.1,1.7,0.1,2.1,1.1c0.4,0.9-0.4,1.8-1.9,2C266.1,428.6,265,428.7,263.5,428.8z"/>
	<path class="st26" d="M122.3,391.2c-0.2,1.2-0.3,2.4-0.7,3.4c-0.2,0.4-1,0.9-1.5,0.9c-0.6,0-1.1-0.6-1.1-1.3
		c-0.1-2-0.1-3.9,0.6-5.8c0.1-0.3,0.6-0.6,1-0.6c0.3,0,0.9,0.2,1,0.5C121.9,389.2,122.1,390.3,122.3,391.2z"/>
	<path class="st26" d="M149.2,361.3c-0.1,0.4-0.1,0.9-0.3,1.2c-0.4,0.5-0.9,0.9-1.4,1.2c-1.1,0.6-2.2,1.4-3.5,0.5
		c-0.7-0.5-0.5-1.2-0.1-1.7c1.6-2,3.4-2.6,4.9-1.7C149,361,149.1,361.2,149.2,361.3z"/>
	<path class="st4" d="M400.8,214.3c-0.2,2.3-2.2,4.1-4.5,4c-2.3-0.1-4.1-2-4.1-4.3c0-2.8,2.3-4.8,4.9-4.3
		C399.4,210.1,400.9,212,400.8,214.3z"/>
	<path d="M401.9,215.2c-0.1,1.8-1.7,3.2-3.5,3.1c-1.8-0.1-3.3-1.6-3.2-3.4c0-2.2,1.8-3.8,3.8-3.4
		C400.8,211.8,402.1,213.4,401.9,215.2z"/>
</g>
</svg>
