<?xml version="1.0" encoding="utf-8"?>
<!-- Generator: Adobe Illustrator 25.1.0, SVG Export Plug-In . SVG Version: 6.00 Build 0)  -->
<svg version="1.1" id="Calque_1" xmlns="http://www.w3.org/2000/svg" xmlns:xlink="http://www.w3.org/1999/xlink" x="0px" y="0px"
	 viewBox="0 0 607.6 462.5" style="enable-background:new 0 0 607.6 462.5;" xml:space="preserve">
<style type="text/css">
	.st0{fill:#E5BE9E;}
	.st1{fill:#19935C;}
	.st2{fill:#004C26;}
	.st3{fill:#006836;}
	.st4{fill:#FFFFFF;}
	.st5{fill:#B25E26;}
	.st6{fill:#D3803C;}
	.st7{fill:#662704;}
	.st8{fill:#A0A0A0;}
	.st9{fill:#7C7C7C;}
	.st10{fill:#D8D8D8;}
	.st11{fill:#FFAF2E;}
	.st12{fill:#E27600;}
	.st13{fill:#FF6695;}
	.st14{fill:#FFEB76;}
	.st15{fill:#FFCF48;}
	.st16{fill:#6D6D6D;}
	.st17{fill:#C6C6C6;}
	.st18{fill:#CCCCCC;}
	.st19{fill:#F987B6;}
	.st20{fill:#CE3A6F;}
	.st21{fill:#CECECE;}
	.st22{fill:#565656;}
	.st23{fill:#F77CA9;}
	.st24{fill:#723100;}
	.st25{fill:#E8D09C;}
	.st26{fill:#6B5738;}
	.st27{fill:#69C498;}
	.st28{fill:#FF8B2C;}
	.st29{fill:#B2B2B2;}
	.st30{fill:#848484;}
	.st31{fill:#726359;}
	.st32{fill:#CABAAB;}
	.st33{fill:#E8E2DD;}
	.st34{fill:#D3BD90;}
	.st35{fill:#EAAD8B;}
	.st36{fill:#CEB78A;}
	.st37{fill:#EAE4DC;}
	.st38{fill:#7F7870;}
	.st39{fill:#84AFD3;}
	.st40{fill:#5F94B7;}
	.st41{fill:#D37E02;}
</style>
<g>
	<path class="st0" d="M404.8,20.3H461v429.6h-56.1V20.3z"/>
</g>
<g>
	<path class="st2" d="M257.3,399.3c-1.8,0.3-2.3,2-3.3,3.1c-1.7,1.9-3.2,3.9-4.9,5.8c-0.9,1-2.1,1.1-3.2,0.4c-1-0.5-1.2-1.5-1-2.5
		c0.5-2.5,1.1-5,1.8-7.4c3.2-10.7,6.5-21.3,9.7-32c0.5-1.5,0.9-3,1.3-4.5c0.1-0.3-0.1-0.8-0.3-1c-0.2-0.2-0.8-0.3-1-0.2
		c-2.4,1.4-4.7,2.8-7,4.2c-1.2,0.7-2.3,1.5-3.5,2.2c-0.9,0.4-2,0.4-2.8-0.3c-0.8-0.7-1-1.7-0.6-2.7c0.6-1.4,1.2-2.9,2-4.2
		c5.5-9.9,11-19.8,17.8-29c0.6-0.8,1-1.6,1.5-2.4c-1-1.3-1.8-0.4-2.6-0.1c-2.7,1.1-5.4,2.3-8.1,3.3c-1,0.4-2,0.2-2.7-0.7
		c-0.8-1-0.9-2.2-0.1-3.2c2.3-3.1,4.6-6.3,7.1-9.3c4.4-5.3,9.2-10.1,14.5-14.5c1.6-1.4,3.2-2.8,4.8-4.2c-0.7-1.1-1.7-1-2.6-0.7
		c-2.5,0.5-5,1.1-7.5,1.6c-1,0.2-1.9,0.3-2.9,0.3c-1.1,0-1.9-0.5-2.3-1.5c-0.5-1-0.2-1.9,0.4-2.7c0.2-0.3,0.5-0.6,0.8-0.8
		c4.5-3.4,8.9-7,13.7-10.1c7.4-4.8,14.7-9.7,22-14.6c0.2-0.2,0.5-0.7,0.4-0.9c-0.1-0.3-0.5-0.7-0.8-0.7c-2.5-0.1-5.1-0.2-7.6-0.3
		c-1.8,0-3.5,0.1-5.3,0c-1.2-0.1-2.4-0.5-2.8-1.8c-0.4-1.3,0.3-2.3,1.4-2.9c1.5-0.9,3-1.9,4.5-2.7c7.2-3.9,14.5-7.7,21.8-11.5
		c2.1-1.1,4.2-2.1,6.2-3.3c0.6-0.3,1.6-0.6,1.4-1.6c-0.3-1.4-1.5-0.9-2.4-0.9c-3.1,0.1-6.3,0.2-9.4,0.3c-1.2,0-2.3,0.1-3.5,0.1
		c-1-0.1-1.9-0.6-2.2-1.7c-0.4-1-0.1-2,0.8-2.6c1.3-0.9,2.6-1.7,4-2.5c6.6-3.5,13.2-6.9,19.8-10.3c3.5-1.8,7-3.6,10.4-5.4
		c0.6-0.3,1.4-0.6,1.3-1.9c-2.7-0.2-5.3,0.6-7.9,0.9c-1.5,0.2-3.1,0.4-4.6,0.3c-1.7-0.1-2.5-2.1-1.6-3.5c0.8-1.2,1.9-1.9,3-2.8
		c7.6-5.8,15.3-11.6,22.9-17.4c0.6-0.5,1.2-1,1.8-1.5c0.5-0.4,0.7-1,0.4-1.5c-0.1-0.3-0.6-0.5-1-0.5c-2,0.1-3.9,0.2-5.8,0.3
		c-1.6,0.1-3.1,0.3-4.7,0.2c-2.3-0.1-3.4-2.4-2.1-4.2c0.7-0.9,1.5-1.8,2.4-2.6c7.4-7.3,15.5-13.7,24.1-19.6c2.3-1.5,4.6-3,7.3-3.6
		c2.6-0.6,4.2,1,3.6,3.6c-0.5,2.1-1.1,4.2-1.8,6.2c-2.3,6.7-4.6,13.3-7,19.9c-4.6,12.4-10.9,23.8-19,34.3
		c-12,15.4-24.2,30.7-36,46.3c-9.9,13.1-19.8,26.2-27.8,40.6c-8.3,14.9-12.7,30.9-13.5,48.1c-0.7,16-0.3,32.1-0.4,48.1
		c0,5.6-0.6,10.9-3.3,15.9c-1.7,3.3-3,6.8-4.6,10.2c-0.5,1.1-1.1,2.1-1.8,3c-1,1.2-3.6,0.6-3.8-0.9c-0.2-1.5-0.3-3.1-0.2-4.7
		c0.6-10.9,1-21.9,2.4-32.8C257.6,402,258.3,400.7,257.3,399.3z"/>
	<path class="st1" d="M450.7,247.7c2.6-0.2,4.2-0.3,5.7-0.4c1.4,0,2.7,0,4.1,0.2c1.2,0.2,2.2,1,2.3,2.3c0.1,1.1-0.6,1.8-1.5,2.3
		c-2.2,1.2-4.5,2.4-7,2.9c-1.1,0.2-2.3,0.4-3.4,1.5c0.4,1.5,2,2,3.1,2.9c2.3,1.8,4.9,3.2,6.7,5.7c0.3,0.4,0.4,1.1,0.3,1.6
		c-0.2,0.8-1,1.2-1.8,1.2c-1,0-2-0.1-2.9-0.4c-1.9-0.6-3.8-1.1-5.5-1.9c-3.3-1.5-6.5-2.1-10.1-0.4c-2.6,1.2-5.6,1.6-8.5,2
		c-5.2,0.7-10.1,0-14.7-2.8c-2.5-1.5-5.1-3-7.6-4.5c-1-0.6-1.9-1.4-3.3-1.3c-0.3,0.4-0.8,0.8-1,1.3c-5.2,10.9-5.3,10.9,0.5,21.6
		c1.7,3.1,3.5,6.1,5.2,9.2c2.2,3.9,5.4,5.9,10,6c7.3,0.2,14.5-0.3,21.6-1.7c4.4-0.9,8.9-1.5,13.4-1.6c1.7,0,3.5,0.2,5.2,0.5
		c1.4,0.3,2.4,1.3,2.6,2.8c0.1,1.3-0.7,2.2-1.7,2.9c-1.6,1.1-3.5,1.8-5.4,2.2c-0.9,0.2-2.2-0.1-2.5,1c-0.5,1.4,1,1.9,1.7,2.7
		c0.8,0.8,1.7,1.6,2.5,2.5c0.8,0.9,1.5,1.8,2.1,2.8c1.3,2.1,1.5,4,0.4,4.8c-1.5,1.2-3,0.6-4.4-0.1c-1.7-0.9-3.3-2.1-5-3.1
		c-0.2-0.1-0.8,0-1.1,0.2c-0.2,0.2-0.3,0.7-0.2,1c0.3,0.9,0.8,1.8,1,2.7c0.6,2.1,1.3,4.1,1.7,6.2c0.3,1.3,0.5,2.8-0.8,3.8
		c-0.9,0.7-2.8,0.2-4-1.5c-1.8-2.5-3.5-5.2-5.2-7.8c-0.8-1.3-1.9-1.9-3.4-1.5c-2.9,0.7-5.7,1.3-8.6,1.9c-5.7,1.3-11.5,2.2-17.4,2.4
		c-9.2,0.4-16.3-3.2-21.1-11.2c-2.2-3.7-4.4-7.4-6.6-11.1c-0.7-1.2-1.4-2.3-2.1-3.4c-1.7,0-2.1,1.3-2.6,2.3
		c-2.8,5.6-5.6,11.2-8.4,16.8c-4.5,9.1-8.6,18.4-13.8,27.2c-0.3,0.5-0.6,1-0.1,2c1.7-0.4,3.5-0.8,5.3-1.2c7.6-2,15.3-3.4,23-4.4
		c3.3-0.4,6.6-0.6,9.9-0.2c7.4,0.8,9.5,5.9,9.2,11.3c-0.2,2.4-0.9,4.6-1.8,6.8c-2.4,6-5.5,11.7-8.7,17.3c-0.9,1.5-1.7,3-2.6,4.4
		c0.6,1.7,2,1.3,3,1.4c3.1,0.2,6.3,0.1,9.4,0.3c3.8,0.2,5.6,1.3,5.5,3.1c-0.1,1.8-2,3.3-5.4,3.7c-2.7,0.3-5.5,0.2-8.2,0.3
		c-1.1,0-2.3-0.4-3.5,0.4c0.2,2.1,1.8,3.3,3.1,4.7c1.7,1.9,3.3,3.9,4,6.4c0.7,2.4-0.9,4.3-3.4,4.2c-2.3-0.1-4.2-1.1-5.9-2.4
		c-2.1-1.5-4-3.2-6-4.7c-0.2-0.2-0.7-0.1-1.1-0.1c-0.5,0.1-0.6,0.4-0.4,0.9c0.5,1.9,1.1,3.7,1.6,5.6c0.4,1.5,0.6,3.1,0.7,4.6
		c0.1,1.6-0.2,3.2-2,3.9c-1.8,0.7-3-0.4-4.1-1.5c-0.7-0.7-1.3-1.5-1.8-2.3c-1-1.7-2.1-3.3-3-5c-4.9-9.5-4.1-7.5-0.7-15.7
		c1.5-3.6,2.9-7.3,4.1-11c0.7-2,1-4.2,1.2-6.3c0.2-2.9-1-4.4-3.8-5c-0.8-0.2-1.5-0.2-2.3-0.3c-8.2-0.6-16.4-0.2-24.6,1.1
		c-10,1.6-16.7,7.1-19.9,16.8c-2.8,8.5-4.2,17.1-1.6,25.9c3.4,11.7,12,18.8,24.1,20c5.3,0.5,10.6,0,15.7-1.2
		c15.6-3.7,29.8-10.4,42.9-19.7c10.2-7.3,19.1-16.1,28.5-24.4c9.5-8.4,18.8-17.1,28.8-24.9c2.9-2.3,6-4.4,9.5-5.8
		c3-1.1,5.1,0.7,4.4,3.9c-0.4,2.1-1.4,4-2.5,5.9c-2.6,4.6-5.7,8.9-8.9,13.1c-10.5,13.9-22,27-35,38.6
		c-14.3,12.8-30.3,22.8-47.8,30.4c-13.9,6-28.7,8.9-43.7,10.7c-9.4,1.1-18.7,1.2-28.1,0.2c-1.2-0.1-2.3-0.3-3.5-0.4
		c-22.7-2.8-38.4-15.2-48.1-35.7c-3-6.3-4.5-12.9-5.4-19.7c-3-22.7-0.1-44.8,7.1-66.5c6.2-18.8,16.1-35.6,28.2-51.1
		c9.9-12.6,19.9-25.1,30.9-36.8c1.7-1.8,3.4-3.8,5.1-5.7c8.5-9.3,15.1-19.9,19.8-31.6c3.6-8.9,7.5-17.7,12.2-26
		c3-5.3,6.3-10.4,10.4-14.9c9.5-10.2,21-12.8,34.2-9c8.2,2.4,12.6,8.2,14.2,16.3c1.6,8.3,0.8,16.4-1.6,24.3
		c-1.4,4.7-3.3,9.2-4.9,13.8c-2.3,6.5-4.4,13-6.7,19.4c-1,2.7-0.8,4.7,1.7,6.6c4.5,3.4,8.8,7.1,13.1,10.8c4.4,3.8,9.3,3.4,14.4,2.1
		c1.4-0.3,2.2-1.5,3.1-2.5c2.5-2.8,4.9-5.6,7.8-7.9c1.4-1.1,2.9-2.1,4.6-2.6c0.9-0.3,2-0.4,2.8,0.4c1,0.9,1.1,2.1,0.6,3.2
		c-0.6,1.4-1.3,2.8-2.2,4.1C453.7,244.4,452.4,245.6,450.7,247.7z"/>
	<path class="st2" d="M375.4,291.5c2.1-1.1,4.2-2.1,6.6-2c1.9,0.1,3.3,1.7,2.8,3.6c-0.4,1.3-0.9,2.6-1.6,3.7
		c-7.8,13.1-14.4,26.8-21.3,40.4c-1,1.9-2.1,3.8-3.3,5.5c-1,1.4-3.1,1-3.9-0.4c-0.8-1.4-1-2.9-1.1-4.5c-0.3-6.1,0.3-12.1,2.4-17.9
		c2.1-5.7,4.6-11.2,7.6-16.5C366.4,298.4,370.2,294.3,375.4,291.5z"/>
	<path class="st27" d="M341.7,304.9c2.1,4.2,0.7,9.4-2.9,11.9c-3.9,2.8-9.2,2.4-12.2-0.9c-0.1-0.1-0.3-0.3-0.4-0.4
		c-2.1-3.1-1.4-6.3,0.1-9.4c1.5-3.1,3.7-5.5,7.6-5.4C337.3,300.8,340.1,302.3,341.7,304.9z"/>
	<path class="st27" d="M372.3,242.6c2.8-1.6,7.4-0.5,8.7,2.1c1.4,2.9-0.2,7.2-3.4,8.9c-2.9,1.6-6.7,0.6-8.2-2
		C367.8,248.9,369.3,244.3,372.3,242.6z"/>
	<path class="st27" d="M300.3,356.9c2.1,3.9-1.4,9.9-5.8,9.9c-0.4,0-0.8-0.1-1.2-0.1c-2.2-0.5-3.8-2.6-4-5.2
		c-0.3-2.8,1.3-5.9,3.4-6.9c2.3-1.1,5.4-0.5,7,1.4C299.9,356.2,300.1,356.6,300.3,356.9z"/>
	<path class="st27" d="M387,272.6c1.4,2.4,0.1,6.6-2.6,8.2c-2.3,1.3-5.8,0.5-7.3-1.8c-1.6-2.5-1.2-6.7,0.9-8
		C380.8,269.3,385.7,270.2,387,272.6z"/>
	<path class="st4" d="M390.5,170.2c2.7-1.5,6.4-0.5,7.6,2c1.2,2.3-0.1,5.6-2.6,7c-2.3,1.3-5.2,0.4-6.6-1.8
		C387.3,174.7,388,171.5,390.5,170.2z"/>
	<path class="st27" d="M326.5,292.2c-1.8,0.7-3.4,0.9-5-0.3c-1.5-1.2-2-3.3-1.2-5.3c1.4-3.9,4.6-5.3,7.7-3.3c1.5,0.9,2.1,2.2,2,3.9
		C329.7,289.5,328.3,291.1,326.5,292.2z"/>
	<path class="st4" d="M421.8,181.6c0.4,0.6,0.1,2.2-0.7,2.5c-0.7,0.3-1.5,0.5-2.2,0.6c-4,0.5-7.7-0.2-11.1-2.3
		c-0.6-0.4-1.1-1-1.6-1.6c-0.4-0.6,0.5-2.3,1.3-2.2c0.6,0,1.2,0,1.7,0.2c3.2,1.6,6.6,2.2,10.1,1.7
		C420.3,180.3,421.2,180.5,421.8,181.6z"/>
	<path d="M398.2,171.4c0.9,1.8,0.2,4-1.6,5c-1.8,1-4.1,0.3-4.9-1.5c-0.8-1.8,0.1-4,1.9-4.9C395.3,169.2,397.4,169.9,398.2,171.4z"/>
</g>
</svg>
