<?xml version="1.0" encoding="utf-8"?>
<!-- Generator: Adobe Illustrator 25.1.0, SVG Export Plug-In . SVG Version: 6.00 Build 0)  -->
<svg version="1.1" id="Calque_1" xmlns="http://www.w3.org/2000/svg" xmlns:xlink="http://www.w3.org/1999/xlink" x="0px" y="0px"
	 viewBox="0 0 607.6 462.5" style="enable-background:new 0 0 607.6 462.5;" xml:space="preserve">
<style type="text/css">
	.st0{fill:#E5BE9E;}
	.st1{fill:#19935C;}
	.st2{fill:#004C26;}
	.st3{fill:#006836;}
	.st4{fill:#FFFFFF;}
	.st5{fill:#B25E26;}
	.st6{fill:#D3803C;}
	.st7{fill:#662704;}
	.st8{fill:#A0A0A0;}
	.st9{fill:#7C7C7C;}
	.st10{fill:#D8D8D8;}
	.st11{fill:#FFAF2E;}
	.st12{fill:#E27600;}
	.st13{fill:#FF6695;}
	.st14{fill:#FFEB76;}
	.st15{fill:#FFCF48;}
	.st16{fill:#6D6D6D;}
	.st17{fill:#C6C6C6;}
	.st18{fill:#CCCCCC;}
	.st19{fill:#F987B6;}
	.st20{fill:#CE3A6F;}
	.st21{fill:#CECECE;}
	.st22{fill:#565656;}
	.st23{fill:#F77CA9;}
	.st24{fill:#723100;}
	.st25{fill:#E8D09C;}
	.st26{fill:#6B5738;}
	.st27{fill:#69C498;}
	.st28{fill:#FF8B2C;}
	.st29{fill:#B2B2B2;}
	.st30{fill:#848484;}
	.st31{fill:#726359;}
	.st32{fill:#CABAAB;}
	.st33{fill:#E8E2DD;}
	.st34{fill:#D3BD90;}
	.st35{fill:#EAAD8B;}
	.st36{fill:#CEB78A;}
	.st37{fill:#EAE4DC;}
	.st38{fill:#7F7870;}
	.st39{fill:#84AFD3;}
	.st40{fill:#5F94B7;}
	.st41{fill:#D37E02;}
</style>
<g>
	<path class="st0" d="M156.3,430.8c-21.5-12.1-38.3-30.5-50.4-55.3c-12.1-24.8-18.1-55.5-18.1-91.9V14h56v269.6
		c0,36.9,7.2,64.7,21.7,83.3s36,28,64.6,28c25.5,0,44.5-6.9,57-20.8c12.6-13.8,20.2-29.2,23.1-46.1c2.9-16.9,4.3-34.8,4.3-53.7V14
		h52.1v260.3c0,31.2,5.4,59.1,16.1,83.7c10.8,24.6,34.2,36.9,70.2,36.9c28.1,0,49.2-9.2,63.2-27.7c14.1-18.4,21.1-46.3,21.1-83.7V14
		h56.6v269.6c0,36.5-6,67.1-18.1,91.9c-12.1,24.8-28.5,43.3-49.4,55.3c-20.9,12.1-45.2,18.1-72.8,18.1c-28.6,0-52.6-6.5-72.2-19.5
		c-19.5-12.9-33.3-31.7-41.2-56.3c-7.9,24.6-21.3,43.4-40.2,56.3c-18.9,13-42.2,19.5-69.9,19.5S177.8,442.9,156.3,430.8z"/>
</g>
<g>
	<path class="st39" d="M389.6,149.2c0.5,25.7-4.6,49.4-15.5,71.6c-18.3,37.3-46.5,64.7-84.8,81.4c-15.3,6.7-31.2,10.8-47.7,13
		c-7.1,1-14.3,1.8-21.4,2.1c-20.2,0.9-39.3-2.8-56.9-13.5c-10-6.1-18-14.3-25.3-23.3c-9-11.1-15.8-23.4-19.8-37.2
		c-4.8-16.6-2.8-32.7,3.9-48.4c8.8-20.4,24.9-32.4,45.7-38.7c13.8-4.2,27.5-3.4,41.1,0.6c7.5,2.2,14.9,4.9,22.1,7.8
		c11.3,4.5,22.7,8.9,34.5,11.8c16.1,3.9,32.3,4.4,48.5,0.8c9.9-2.2,19-6.3,27.2-12.2c4.8-3.5,9.3-7.1,13.5-11.4
		c9.9-10.1,19-21,26.7-32.9c0.7-1.1,1.4-2.2,2.2-3.2c0.7-0.9,2.2-0.7,2.7,0.3c0.9,2,1.3,4.1,1.6,6.3
		C389,132.6,389.8,141.3,389.6,149.2z"/>
	<path class="st37" d="M146.6,239.7c30.2,0.2,57,10.2,80.6,28.9c12.1,9.6,22.8,20.8,32.7,32.7c1.1,1.3,2.1,2.7,3.1,4.2
		c2.7,4.3,2,6.3-2.8,7.4c-2.1,0.5-4.3,0.9-6.4,1.1c-9.7,1-19.5,1.8-29.2,2.8c-6.5,0.7-13,0.6-19.5,0c-25.2-2.3-46.3-12.8-63.6-30.9
		c-9.5-10-17.4-21.1-22.3-34.2c-0.6-1.6-1.2-3.3-1.5-5c-0.5-2.7,0.4-4.1,3.1-4.7c5.5-1.3,11.1-1.9,16.8-2.3
		C140.5,239.5,143.5,239.7,146.6,239.7z"/>
	<path class="st40" d="M387.3,107.9c2.3-1.5,3.9-2.6,5.6-3.5c3.2-1.9,6.6-3.3,10.4-3.6c4.6-0.4,8.6,0.7,12.2,3.6
		c3.4,2.8,6.4,5.9,8.8,9.6c1.1,1.6,2.1,3.3,3.2,4.9c2.7,3.9,6.2,6.6,10.6,8.4c2.2,0.9,4.5,1.7,6.6,2.8c2,1,2.6,3,1.2,4.9
		c-3.4,4.8-7.9,8.1-13.6,9.4c-9.5,2.1-18.1-0.1-26-5.4c-4.3-2.9-8.2-6.4-11.6-10.4c-2.5-3-5.1-5.9-7.6-8.9c-0.9-1.1-2-1.4-3.5-1
		c-4.7,1.1-9.3,2.2-14,2.9c-15.5,2.2-34.3-6.2-41.9-19.8c-2.9-5.3-4.6-10.8-3.5-16.9c0.2-1.1,0.4-2.2,0.9-3.1c0.6-1.3,1.7-2,3.2-1.7
		c1.3,0.3,2.5,0.7,3.7,1.2c9,3.8,18.4,5,28,5.3c2.4,0.1,4.8-0.1,7.2,0.2c9.3,1.2,15.7,6,18.6,15.1
		C386.1,103.5,386.6,105.4,387.3,107.9z"/>
	<path class="st40" d="M276.8,266.9c10.1,0.6,19.7,2.8,28.7,7.5c5.8,3.1,10.9,7.1,15,12.2c5.5,6.8,9.7,14.3,13,22.4
		c0.3,0.8,0.7,1.6,0.9,2.4c1.3,5.4-1.5,6.7-5.2,6.4c-19.1-1.3-36-7.4-49.3-21.7c-5.6-6-9.3-13-11.2-21c-0.4-1.5-0.6-3-0.6-4.5
		c0-2.2,1.3-3.6,3.6-3.9C273.3,266.8,275.1,266.9,276.8,266.9z"/>
	<path class="st39" d="M273.4,145.6c-1.7-0.2-2.4-1-2.5-2.2c-0.1-1,0-2.2,0.3-3.2c1.7-6.1,4.1-11.9,7.3-17.3
		c1.6-2.6,3.5-4.9,6.5-6.2c2.4-1,4.7-1.1,6.7,0.6c2,1.7,2.5,4,1.7,6.5c-0.7,1.8-1.4,3.7-2.5,5.3c-4,6.3-9.8,11-15.4,15.7
		C274.8,145.4,273.8,145.5,273.4,145.6z"/>
	<path class="st39" d="M262.3,149c-0.1,1.5-0.5,2.5-1.6,2.9c-1.1,0.4-2.2,0.1-2.9-0.9c-0.7-1-1.3-2.3-1.7-3.5
		c-2-5.2-5.4-9.3-9.9-12.5c-1.2-0.9-2.5-1.7-3.6-2.8c-2.5-2.3-3.1-5.4-1.7-7.6c1.5-2.4,4.9-3,8.2-1.6c2.5,1.1,4.2,3,5.8,5.1
		c3.4,4.6,5.3,9.9,6.6,15.4C261.8,145.5,262.1,147.4,262.3,149z"/>
	<path class="st39" d="M299.6,148.2c2.2-0.1,4.5,0.3,6.7,1.4c2.7,1.3,4.1,3.9,3.5,6.3c-0.5,2.1-2.6,3.8-5.4,3.9
		c-1.7,0.1-3.5,0-5.1-0.4c-4.7-1.2-9.3-1.7-14.1-1.1c-1.8,0.2-3.5,0-4.5-1.8c-0.7-1.3,0.6-2.9,3.2-4.2
		C288.3,150.1,295.4,148.3,299.6,148.2z"/>
	<path d="M145.3,204.3c-9.4-0.1-17.3-5.3-20.3-12.9c-0.3-0.8-0.5-1.7-0.4-2.5c0.1-0.5,0.6-1.2,1.1-1.4c0.5-0.2,1.4-0.2,1.8,0.2
		c0.8,0.7,1.3,1.6,1.8,2.6c3.3,6.1,8.4,9,15.3,9c1.3,0,2.6-0.1,3.9,0.1c0.9,0.1,1.5,0.8,1.7,1.7c0.2,1.2-0.5,2.2-1.5,2.6
		C147.3,204.2,145.8,204.2,145.3,204.3z"/>
	<path class="st4" d="M179.5,189c-3.5,0-6.2-2.7-6.1-6.2c0.1-3.1,2.7-5.9,5.7-6c3.4-0.2,6.8,2.9,6.9,6.3
		C186.1,186.3,183.1,189,179.5,189z"/>
	<path class="st39" d="M130.6,251.1c26.3,1.7,50.8,9,73.6,22.2c16.3,9.4,31,20.9,44.9,33.4c1.6,1.4,3.4,2.8,4.2,4.9
		c0.1,0.3-0.2,0.8-0.5,1.1c-0.3,0.3-0.9,0.6-1.1,0.4c-1.1-0.7-2.1-1.5-3.1-2.4c-12-10.7-24.6-20.8-38.2-29.5
		c-21.5-13.9-44.9-22.7-70.4-25.8c-4.5-0.5-9.1-0.9-13.6-1.3c-0.9-0.1-1.7-0.3-2.5-0.5c-0.3-0.1-0.6-0.6-0.7-1
		c-0.1-0.7,0.2-1.3,0.9-1.5c1.1-0.2,2.1-0.2,3.2-0.3C128.4,251,129.5,251.1,130.6,251.1z"/>
	<path class="st39" d="M140.6,267.8c36.6,1.5,66.3,17.6,91.4,43.3c0.7,0.7,1.2,1.7,1.7,2.7c0.1,0.2-0.2,0.8-0.4,1.1
		c-0.3,0.2-0.9,0.5-1.2,0.3c-1.2-0.9-2.4-1.8-3.5-2.9c-5.5-5.3-11.3-10.2-17.3-14.8c-15.1-11.4-31.7-19.7-50.4-23.4
		c-8.1-1.6-16.4-2.2-24.6-2.9c-1.1-0.1-2.2-0.1-3.2-0.3c-0.5-0.1-1.1-0.8-1.2-1.3c-0.1-0.9,0.5-1.7,1.5-1.7
		C135.9,267.7,138.3,267.8,140.6,267.8z"/>
	<path class="st39" d="M153.4,286.6c21.9,0.7,39.7,10.3,54.4,26.1c0.4,0.5,0.9,1,1.1,1.6c0.2,0.5,0.3,1.3,0,1.8
		c-0.6,1-1.6,0.5-2.2,0c-1.5-1.3-2.8-2.8-4.2-4.1c-9.7-9-20.4-16.3-33.5-19.4c-4.5-1-8.9-1.9-13.5-2.1c-1.5-0.1-3-0.1-4.6-0.3
		c-1.1-0.2-2.1-0.7-2-2c0.1-1,1-1.3,1.9-1.4C151.6,286.5,152.5,286.6,153.4,286.6z"/>
	<path d="M186.9,183.8c-0.1,2.5-2.6,4.8-5.2,4.7c-2.2,0-4-2-3.9-4.3c0.1-2.5,2-4.7,4.4-4.7C184.6,179.4,187,181.6,186.9,183.8z"/>
</g>
</svg>
