<?xml version="1.0" encoding="utf-8"?>
<!-- Generator: Adobe Illustrator 25.1.0, SVG Export Plug-In . SVG Version: 6.00 Build 0)  -->
<svg version="1.1" id="Calque_1" xmlns="http://www.w3.org/2000/svg" xmlns:xlink="http://www.w3.org/1999/xlink" x="0px" y="0px"
	 viewBox="0 0 607.6 462.5" style="enable-background:new 0 0 607.6 462.5;" xml:space="preserve">
<style type="text/css">
	.st0{fill:#E5BE9E;}
	.st1{fill:#19935C;}
	.st2{fill:#004C26;}
	.st3{fill:#006836;}
	.st4{fill:#FFFFFF;}
	.st5{fill:#B25E26;}
	.st6{fill:#D3803C;}
	.st7{fill:#662704;}
	.st8{fill:#A0A0A0;}
	.st9{fill:#7C7C7C;}
	.st10{fill:#D8D8D8;}
	.st11{fill:#FFAF2E;}
	.st12{fill:#E27600;}
	.st13{fill:#FF6695;}
	.st14{fill:#FFEB76;}
	.st15{fill:#FFCF48;}
	.st16{fill:#6D6D6D;}
	.st17{fill:#C6C6C6;}
	.st18{fill:#CCCCCC;}
	.st19{fill:#F987B6;}
	.st20{fill:#CE3A6F;}
	.st21{fill:#CECECE;}
	.st22{fill:#565656;}
	.st23{fill:#F77CA9;}
	.st24{fill:#723100;}
	.st25{fill:#E8D09C;}
	.st26{fill:#6B5738;}
	.st27{fill:#69C498;}
	.st28{fill:#FF8B2C;}
	.st29{fill:#B2B2B2;}
	.st30{fill:#848484;}
	.st31{fill:#726359;}
	.st32{fill:#CABAAB;}
	.st33{fill:#E8E2DD;}
	.st34{fill:#D3BD90;}
	.st35{fill:#EAAD8B;}
	.st36{fill:#CEB78A;}
	.st37{fill:#EAE4DC;}
	.st38{fill:#7F7870;}
	.st39{fill:#84AFD3;}
	.st40{fill:#5F94B7;}
	.st41{fill:#D37E02;}
</style>
<g>
	<path class="st0" d="M373.7,225.4L242.8,14.2h64.8l99.5,158.3l97.5-158.3h66.2L440.5,225.4l140.3,223.1h-66.1L407.1,276.1
		L297.5,448.5h-64.8L373.7,225.4z"/>
</g>
<g>
	<path class="st41" d="M185.7,420.5c-1.7,0.1-3.3-0.1-4.8-0.8c-1.7-0.8-2.2-3-1-4.6c1.4-1.8,3.3-2.7,5.3-3.6
		c3.6-1.5,7.4-2.6,11.3-3.6c2.3-0.6,2.7-1.2,1.9-3.4c-2.6-7.5-4.4-15.1-5.7-22.9c-1.4-8.5-2.4-17.1-0.5-25.7
		c2-8.9,6.9-15.7,14.9-20.1c4.5-2.5,6.5-1.6,7.7,3.4c0.8,3.7,1.3,7.4,1.8,11.1c0.3,2-0.3,3.9-1.5,5.6c-0.5,0.7-1.1,1.4-1.7,2.1
		c-5.4,6.4-6.1,13.6-3.4,21.2c0.6,1.7,1.4,3.3,2.2,4.9c1.6,3.4,3.3,6.8,5,10.1c2.6,5.2,4.2,10.6,5.3,16.3c0.7,4,0.3,4.5-3.8,5.3
		c-1.2,0.2-2.5,0.3-3.7,0.5c-3.7,0.6-7.5,1-11.1,1.8C197.8,419.7,191.7,419.9,185.7,420.5z"/>
	<path class="st11" d="M214.6,437c-5.9,0-11.8,0-17.8,0c-2.4,0-4.7-0.3-6.8-1.3c-2.6-1.2-2.8-3.9-0.4-5.5c3.2-2.1,6.8-3.2,10.5-3.9
		c6-1.2,12.1-1.4,18.2-2c0.9-0.1,1.8-0.1,2.7-0.1c2-0.2,2.5-0.8,2.2-2.8c-0.7-4.5-2-8.7-3.6-12.9c-1.9-4.9-4.3-9.5-6.7-14.1
		c-1.8-3.3-3.5-6.7-4.8-10.2c-1.3-3.4-2-6.9-2.2-10.5c-0.4-6.4,1.2-12.2,5.8-16.8c2.3-2.3,2.7-4.7,2.2-7.7
		c-2.1-11.1-6.3-21.3-12.1-30.9c-3.4-5.7-7.1-11.2-10.6-16.8c-2.6-4.3-5.3-8.6-7.6-13c-4.5-8.4-8-17.2-8.6-27
		c-0.1-1.7-0.6-2-2.5-1.9c-2.1,0.2-4.3,0.6-6.4,0.7c-8.3,0.2-16.5,0.2-24.8,0.3c-2.3,0-4.6-0.4-6.9-1.1c-5.5-1.7-8.7-5.4-10.4-10.7
		c-1.1-3.5-0.7-6.9,1.9-9.6c4.4-4.6,7.8-9.8,11.5-14.9c1.6-2.3,3.8-4.3,5.8-6.3c1.6-1.7,3.3-3.3,5.1-4.8c2-1.7,3.2-3.8,3.4-6.4
		c0.1-0.9,0.4-1.8,0.7-2.6c1.4-3.9,5.1-5.2,8.7-3.2c1.7,1,3.2,2.4,4.2,4.1c0.7,1.2,1.8,1.6,3.2,1.5c3.4-0.3,6.8-0.6,10.2-0.9
		c1.1-0.1,2.1-0.5,2.9-1.3c1.5-1.4,3.1-2.4,5-3.1c3.4-1.2,6.5-0.1,8.3,3.1c0.6,1.1,1.1,2.3,1.4,3.5c0.6,2.6,2.3,4.3,4.4,5.9
		c5.9,4.5,12.1,8.2,18.9,11.2c22,9.7,40,24.4,54.4,43.7c6.7,9,11.5,19,14.7,29.8c2.4,8.3,4.6,16.6,5.2,25.3c2.2,31.5-7,59.1-27.7,83
		c-3.3,3.8-6.8,7.4-10.2,11.1c-1.6,1.8-2.8,3.7-2.4,6.3c0.1,0.5,0,1.1,0,1.6c-0.4,4-2.4,6.8-6.2,7.9c-2.4,0.7-4.9,1.1-7.4,1.4
		C231.4,436.1,223,435.9,214.6,437z"/>
	<path class="st41" d="M355.8,292.3c-0.2,16.4-4.5,32.6-13.3,47.4c-10.4,17.5-25.9,27.9-45.9,31.6c-1.9,0.4-3.9,0.8-5.8,1
		c-1,0.1-2.2,0.1-3.2-0.1c-1.2-0.2-1.8-2.2-1-3c0.6-0.6,1.4-1.2,2.1-1.6c7.1-4.4,13-10.2,18.1-16.7c5.5-6.9,10-14.4,13.6-22.5
		c7.5-17.2,6.8-34.6,0.3-51.9c-1.7-4.5-4-8.8-6.2-13.1c-4.2-8.1-8.6-16.2-12.9-24.2c-3.8-7.1-6.8-14.6-8.6-22.5
		c-0.8-3.6-0.9-7.1,0.5-10.6c2.8-7.4,10-10.6,16.9-8.2c4.6,1.6,8.2,4.3,11.3,7.9c6.2,7.2,11.6,15,16.3,23.4
		c7.9,14,13.7,28.8,16.2,44.8C355,279.7,355.7,285.6,355.8,292.3z"/>
	<path class="st24" d="M281.3,337.1c0,10.2-1.2,19.4-4.5,28.2c-0.5,1.3-1.1,2.6-1.8,3.9c-0.5,0.8-1.3,1.2-2.3,0.9
		c-0.9-0.3-1.5-1-1.6-1.9c-0.1-1.4-0.1-2.9,0-4.3c0.7-6.6,0.8-13.2,0.8-19.9c-0.1-14.8-2.2-29.2-6.6-43.4
		c-3.7-12-7.9-23.8-13.3-35.1c-0.6-1.3-1.1-2.6-1.5-4c-0.2-0.7,0.3-1.4,0.9-1.8c0.7-0.4,1.5-0.3,2,0.2c0.8,0.7,1.5,1.6,2.1,2.4
		c5.9,9.2,11.4,18.6,15.9,28.6c4.9,10.7,7.4,22,9,33.6C281,328.9,281.6,333.4,281.3,337.1z"/>
	<path d="M123.1,246.5c-0.2-3.8,0.8-6.3,2.5-8.5c1.2-1.5,2.7-1.5,4.1,0c0.2,0.3,0.5,0.5,0.7,0.8c3.9,5.1,1.7,9.1-3.3,11.8
		c-1.4,0.7-3,0-3.5-1.5C123.3,248,123.2,246.8,123.1,246.5z"/>
	<path class="st5" d="M147.8,245.1c0.7,0.1,1.1,0.5,1.2,1c0,0.7,0,1.5-0.4,2c-3.7,5.3-8.8,8.8-14.8,11c-0.5,0.2-1.1,0.2-1.6,0
		c-0.5-0.1-0.9-0.5-1.2-0.9c-0.5-0.7-0.2-1.4,0.3-2c0.5-0.5,1.1-0.9,1.8-1.1c4.9-2,9.1-4.9,12.5-9
		C146.5,245.1,146.8,245.1,147.8,245.1z"/>
	<path class="st41" d="M197,245.8c0.3,0.2,0.9,0.3,1.2,0.7c1.2,2.2,2.3,4.4,3.4,6.7c0.3,0.7-0.1,1.4-0.8,1.8c-0.7,0.4-1.5,0.3-2-0.2
		c-1.7-2.1-2.9-4.5-3.5-7.1C195.1,246.8,196.2,245.6,197,245.8z"/>
	<path class="st41" d="M184.6,262.7c0.2,0.1,0.9,0.3,1.1,0.7c1.4,2.1,2.2,4.5,2.7,6.9c0.1,0.7-0.3,1.3-1.1,1.7
		c-0.8,0.3-1.5,0.1-1.9-0.5c-1.5-2.1-2.2-4.5-2.7-6.9C182.6,263.7,183.6,262.6,184.6,262.7z"/>
	<path class="st41" d="M231.6,312.5c-0.4,0.6-0.6,1.1-1,1.4c-0.6,0.4-1.3,0.4-2-0.1c-0.1-0.1-0.3-0.2-0.4-0.4
		c-1.4-2.3-2.2-4.8-2.8-7.4c-0.2-0.7,0.2-1.4,0.9-1.7c0.7-0.4,1.5-0.1,1.9,0.4C230,307.1,230.6,310,231.6,312.5z"/>
	<path class="st4" d="M163.9,231.2c-1.9,0-3.4-1.6-3.3-3.4c0.1-1.7,1.4-2.9,3.1-3c1.9-0.1,3.3,1.5,3.3,3.4
		C167,229.9,165.6,231.2,163.9,231.2z"/>
	<path class="st41" d="M246.6,312.5c0.3,0.2,1,0.3,1.2,0.7c1.3,2,1.8,4.3,2.3,6.5c0.2,0.7-0.3,1.4-1,1.7c-1,0.5-1.8,0-2.2-0.8
		c-1-1.9-1.7-4-1.9-6.1C244.9,313.7,245.8,312.5,246.6,312.5z"/>
	<path class="st41" d="M221.9,328.1c0.3,0.2,1,0.3,1.2,0.6c1.2,1.7,1.8,3.8,2.2,5.9c0.2,0.9-0.3,1.7-1.3,2c-0.8,0.2-1.4-0.1-1.8-0.7
		c-1.1-1.8-1.7-3.8-2-5.9C220,329.1,221,328.1,221.9,328.1z"/>
	<path d="M161.6,231.2c-1.5,0.1-2.8-1.1-2.8-2.5c0.1-1.9,1.5-3.7,3-3.7c1.5,0.1,2.9,1.6,2.8,3.2
		C164.6,229.8,163.3,231.1,161.6,231.2z"/>
	<path class="st5" d="M145.2,296c-7.1,0-11.3-5.1-9.7-12.1c1.5-6.8,5.7-11.4,12-14.1c2.5-1.1,5.2-1.3,7.9-0.8
		c5.4,0.9,8.1,5.2,7.1,10.6c-1,5.4-3.8,9.6-8,12.9C151.9,294.7,148.8,296.1,145.2,296z"/>
	<path class="st41" d="M237.4,268.5c0,3.4-1,6.6-2.3,9.8c-1.1,2.5-2.4,4.8-4.1,6.9c-7.6,9.6-15.7,18.7-25.1,26.5
		c-2.8,2.3-5.7,4.3-8.8,6.2c-6.3,3.8-12.9,4.1-19.6,1.2c-2-0.9-3.9-1.9-5.7-3c-5.1-3.3-10-7-14.6-11c-4.7-4-8.1-9.1-11.5-14.2
		c-0.3-0.4-0.5-0.9-0.7-1.4c-0.6-1.5-0.2-3,1.4-3.5c1.8-0.6,2.6-1.1,2.2-3.3c-0.3-1.7,0.7-2.5,2.8-2.1c1.6,0.3,2.1-0.1,2.8-1.5
		c0.9-1.8,2.4-2,4-1c2,1.3,3.5,3.1,5,4.9c2.2,2.6,4.3,5.3,6.5,7.9c5,6,10.6,6,16.2,0.6c1.8-1.7,3.3-3.8,4.8-5.8
		c3.8-5.4,7.5-10.9,11.2-16.4c3.1-4.6,7-8.7,11.3-12.2c1.7-1.4,3.4-2.6,5.5-3.4c3.6-1.5,7.1-1.4,10.3,0.7
		C234.2,257.6,237.7,262,237.4,268.5z"/>
</g>
</svg>
