<?xml version="1.0" encoding="utf-8"?>
<!-- Generator: Adobe Illustrator 25.1.0, SVG Export Plug-In . SVG Version: 6.00 Build 0)  -->
<svg version="1.1" id="Calque_1" xmlns="http://www.w3.org/2000/svg" xmlns:xlink="http://www.w3.org/1999/xlink" x="0px" y="0px"
	 viewBox="0 0 607.6 462.5" style="enable-background:new 0 0 607.6 462.5;" xml:space="preserve">
<style type="text/css">
	.st0{fill:#E5BE9E;}
	.st1{fill:#19935C;}
	.st2{fill:#004C26;}
	.st3{fill:#006836;}
	.st4{fill:#FFFFFF;}
	.st5{fill:#B25E26;}
	.st6{fill:#D3803C;}
	.st7{fill:#662704;}
	.st8{fill:#A0A0A0;}
	.st9{fill:#7C7C7C;}
	.st10{fill:#D8D8D8;}
	.st11{fill:#FFAF2E;}
	.st12{fill:#E27600;}
	.st13{fill:#FF6695;}
	.st14{fill:#FFEB76;}
	.st15{fill:#FFCF48;}
	.st16{fill:#6D6D6D;}
	.st17{fill:#C6C6C6;}
	.st18{fill:#CCCCCC;}
	.st19{fill:#F987B6;}
	.st20{fill:#CE3A6F;}
	.st21{fill:#CECECE;}
	.st22{fill:#565656;}
	.st23{fill:#F77CA9;}
	.st24{fill:#723100;}
	.st25{fill:#E8D09C;}
	.st26{fill:#6B5738;}
	.st27{fill:#69C498;}
	.st28{fill:#FF8B2C;}
	.st29{fill:#B2B2B2;}
	.st30{fill:#848484;}
	.st31{fill:#726359;}
	.st32{fill:#CABAAB;}
	.st33{fill:#E8E2DD;}
	.st34{fill:#D3BD90;}
	.st35{fill:#EAAD8B;}
	.st36{fill:#CEB78A;}
	.st37{fill:#EAE4DC;}
	.st38{fill:#7F7870;}
	.st39{fill:#84AFD3;}
	.st40{fill:#5F94B7;}
	.st41{fill:#D37E02;}
</style>
<g>
	<path class="st0" d="M304,15.1h55.6c14.6,0,27.3,0,38.1,0s20.2,0.2,28.2,0.6c32.2,1.3,60.5,8.2,84.7,20.5
		c24.3,12.4,43.2,29.1,56.6,50.3c13.4,21.2,20.2,46.8,20.2,76.8c0,19-3,36.3-8.9,52c-6,15.7-14.5,29.6-25.8,41.7
		c-11.3,12.1-24.8,21.7-40.7,28.8c25.6,12.8,45,31.9,58.2,57.3c13.3,25.4,19.9,55.1,19.9,89v13.3h-56.3v-13.3
		c0-21.2-3.9-41-11.6-59.6c-7.7-18.5-18.9-33.3-33.5-44.4c-14.5-11-31.1-16.5-49.6-16.5h-78.8v133.7H304V15.1z M413.9,262.1
		c21.2,0,40.7-3.4,58.6-10.2c17.9-6.8,32-17.8,42.4-32.8c10.4-15,15.6-32.9,15.6-53.6c0-34-10.9-58.7-32.8-74.1
		c-21.8-15.4-49.5-23.2-83.1-23.2h-54.3v194H413.9z"/>
</g>
<g>
	<path class="st8" d="M302.4,361.9c-1.5,1.1-1.7,2.6-2.2,4c-6,16.5-12,33-18.1,49.4c-1.1,3-2.5,5.9-3.9,8.8
		c-1.7,3.3-4.5,5.2-8.1,5.6c-7.7,0.8-15.4,0.6-23-1.2c-0.6-0.1-1.2-0.5-1.8-0.7c-1.5-0.8-2.2-2.3-1.4-3.8c0.7-1.3,1.5-2.6,2.4-3.7
		c2.3-2.7,3.6-5.7,4-9.3c1.1-8.3,2.3-16.5,3.5-24.8c0.8-5.3,1.6-10.6,2.4-15.9c0.3-2.2-0.1-2.8-2.1-3c-1.1-0.1-2.1-0.1-3.2-0.2
		c-13.1-0.5-26.1-1-39.2-1.5c-0.9,0-1.7-0.1-2.6-0.1c-1.1,0.1-2.1,0.5-2.5,1.6c-0.9,2.2-1.9,4.3-2.7,6.5c-3.9,10-7.7,20-11.6,29.9
		c-2.2,5.8-4.8,11.4-7.8,16.9c-3.3,5.9-8.1,9-14.8,10c-6.9,1-13.7,0.7-20.4-0.5c-2.1-0.4-4.5-0.8-5.2-3.1c-0.8-2.7,1-4.5,3-5.8
		c3.5-2.2,5-5.5,6-9.4c2.5-10.6,5.5-21.1,8.2-31.7c1-3.9,1.7-8,2.4-11.9c0.2-0.8-0.1-1.7-1-2.1c-2.5-1.2-5.4-0.7-7,1.4
		c-1,1.3-1.9,2.9-2.7,4.4c-3.3,6.5-6.5,13-9.7,19.6c-4,8.3-8.2,16.5-13.2,24.2c-1.3,2-2.6,3.9-4.1,5.8c-2.3,3-5.5,4.7-9.3,5.2
		c-6,0.6-12,0.3-17.9-0.5c-0.6-0.1-1.3-0.3-1.9-0.5c-3.9-1.2-4.7-3.6-2-6.7c1.4-1.6,3.1-3,4.8-4.2c1.7-1.2,2.7-2.7,3.3-4.6
		c1-3.3,2-6.5,3-9.8c4.5-15,8.9-30,14.6-44.5c1.2-3.1,2.1-6-0.2-9.1c-0.9-1.2-0.6-2.9-0.2-4.4c0.7-2.5,1.4-4.9,2.1-7.4
		c0.7-2.6,0.2-3.2-2.3-2.9c-6.6,0.7-13.1,1.9-19.8,2.1c-7.9,0.3-15.9,0.3-23.8-0.2c-7.7-0.5-15.3-2-22.5-5c-2.2-0.9-4.3-1.9-6.3-3.1
		c-7.4-4.6-9.8-11.7-8.5-20.6c0.5-3.4,2.8-5.7,5.6-7.5c2.9-1.9,6.2-2.9,9.6-3.6c2.7-0.6,5.5-1,8.2-1.3c4.9-0.5,9-2.5,12.6-5.7
		c3.6-3.2,6.4-6.9,8.7-11.1c1.5-2.8,3-5.7,4.5-8.5c6-11.4,14.8-19.8,26.2-25.6c1.1-0.6,2.3-1.1,3.5-1.7c3.5-1.7,3.5-1.7,2.6-5.7
		c-0.7-2.9-1.1-5.9-0.5-8.9c0.3-1.7,1.8-2.5,3.3-1.7c3.1,1.7,5.2,4.4,7,7.4c0.7,1.1,1.2,2.3,1.9,3.3c0.4,0.5,1.2,0.5,1.6-0.1
		c0.9-1.4,1.7-2.9,2.5-4.5c1.6-3,3.6-5.8,5.8-8.4c0.8-1,1.8-1.8,3.1-2.3c1.3-0.4,2.8,0.3,2.9,1.6c0.3,2.2,0,4.3-0.5,6.4
		c-0.6,2.5-1.3,5-1.9,7.5c-0.6,2.3-0.3,3.1,2.2,3.6c7,1.6,13.3,4.7,19.6,7.9c2.3,1.1,4.6,2.2,6.9,3.5c17.2,9.6,35.9,13.7,55.4,14.6
		c13,0.6,26.1,0.9,39.1,1.7c12.8,0.8,25.7,1.4,38.3,3.6c10.2,1.8,19.9,5,28.2,11.6c6.3,4.9,10.8,11.1,13,18.6
		c4.4,14.8,5.6,29.8,3.5,45.1c-1.2,9.4-3.7,18.5-6.4,27.5c-3.7,12.6-5.8,25.4-5.8,38.6c0,3.8-0.2,7.7-0.8,11.5
		c-0.7,4.8-3.2,7.2-8.1,7.7c-7.9,0.8-15.9,0.5-23.7-0.6c-5.2-0.7-6.3-3.9-2.1-7.3c4.1-3.4,4.6-7,3.9-11.8
		c-2.1-14.8-3.8-29.7-5.7-44.6C303.5,364.5,303.4,363,302.4,361.9z"/>
	<path class="st16" d="M35.6,272.5c0.3-10.4,3-20.2,7.3-29.6c0.3-0.6,0.6-1.2,1-1.6c0.4-0.4,1.2-0.7,1.7-0.6
		c0.5,0.1,1.2,0.7,1.3,1.2c0.3,1.2,0.4,2.5,0.4,3.8c0.2,15.6,5.9,29.1,15.4,41.2c1.1,1.3,2.2,2.6,3.2,4c0.8,1.1,0,3-1.3,2.8
		c-6.3-0.8-11.6,2.1-17.1,4.4c-3.2,1.3-4,1-5.8-1.8c-3.8-5.9-5.4-12.5-6.1-19.4C35.5,275.5,35.6,274,35.6,272.5z"/>
	<path class="st16" d="M355.3,224c-0.2,5.3-1.1,10.1-4.5,14c-2,2.3-2.6,4.8-2.8,7.6c-0.5,5.3-1.5,10.6-2.9,15.7
		c-1.7,6.1-4.5,11.6-9.3,15.8c-0.9,0.8-2.1,1.5-3.2,2c-0.6,0.3-1.3-0.1-1.7-0.6c-0.3-0.5-0.7-1.2-0.6-1.7c0.2-0.8,0.7-1.6,1.3-2.2
		c4.1-4.3,6.4-9.6,7.8-15.2c1.2-5,2-10,3-15.1c0.3-1.7,0.4-3.3-0.5-5c-4.8-8.9-3.4-17.7,0.4-26.5c0.9-1.9,1.9-3.8,3-5.7
		c1.1-1.8,2.7-1.8,4.2-0.2C353.9,212,355.1,218,355.3,224z"/>
	<path class="st16" d="M68.2,271.5c0-2.4,1.7-3.5,3.4-2.4c3.5,2.4,7,4.9,10.4,7.4c1.2,0.8,1.6,2.2,0.7,3.4c-2.1,2.7-4.2,5.3-6.5,7.9
		c-1.2,1.3-2.7,0.9-3.6-0.7C69.9,282.1,68.8,276.7,68.2,271.5z"/>
	<path class="st16" d="M192.8,265.3c-0.1,0.9-0.1,1.7-0.3,2.5c-1.8,8.6-2.9,17.3-6.3,25.5c-1,2.5-2.4,3.8-3.3,3
		c-1.5-1.3-0.6-2.7,0-4.1c3.2-8,4.3-16.5,6.4-24.8c0.6-2.5,0.7-5.1-0.4-7.5c-0.4-0.8-0.3-1.7,0.5-2.3c0.7-0.5,2,0.3,2.5,1.4
		C192.7,261,193,263.1,192.8,265.3z"/>
	<path class="st16" d="M205,287.5c-0.1,10.9-3.5,21-7.1,31.1c-0.3,0.7-0.9,1.5-1.5,1.9c-0.4,0.3-1.3,0.2-1.5-0.6
		c-0.2-0.8-0.3-1.7-0.1-2.5c0.8-2.7,1.6-5.3,2.5-7.9c2.2-6.1,3.7-12.2,4.1-18.7c0.1-1.9,0.5-3.8,1-5.7c0.1-0.5,0.8-1.1,1.2-1.2
		c1-0.1,1.4,0.7,1.4,1.6C205.1,286.2,205,286.9,205,287.5z"/>
	<path class="st16" d="M314.1,296.6c0,1.1,0,2.1,0,3.2c0,0.9-0.5,1.7-1.5,1.8c-1,0.1-1.6-0.6-1.8-1.4c-0.2-1-0.2-2.1-0.3-3.2
		c-0.3-3.6-0.8-7.2-1-10.8c-0.3-5.2-1.2-10.1-4.1-14.6c-0.4-0.7-0.5-1.8,0.4-2.2c0.8-0.4,1.6,0.1,2.2,0.8c1.9,2.6,3.3,5.5,3.8,8.7
		c0.9,5.9,1.6,11.8,2.4,17.7C314.3,296.6,314.2,296.6,314.1,296.6z"/>
	<path class="st16" d="M262.7,292.7c0-0.1,0.1,0.6-0.1,1.2c-0.2,0.5-0.8,1-1.3,1.2c-0.6,0.2-1.3-0.2-1.5-0.8c-0.3-1-0.5-2-0.6-3.1
		c-0.4-3.8-0.8-7.6-1-11.5c-0.2-4.3-0.7-8.5-3.5-12c-0.4-0.4-0.5-1.2,0.3-1.6c0.6-0.3,1.2-0.5,1.8-0.1c2,1.4,3.1,3.5,3.7,5.8
		c0.5,1.8,0.8,3.8,1,5.7C261.9,282.2,262.2,287.1,262.7,292.7z"/>
	<path class="st16" d="M168.6,341.6c-0.1,0.6-0.1,1.3-0.3,1.8c-2.9,6.9-5.6,13.9-9.4,20.4c-0.5,0.9-1.1,1.8-2.2,2.2
		c-0.4,0.1-1.5-0.5-1.5-0.9c0-0.4,0-0.9,0.2-1.2c3.8-6.7,6.4-14,9.5-21c0.3-0.7,0.9-1.4,1.5-2c0.2-0.2,0.8-0.2,1.2-0.1
		C168,340.8,168.2,341.2,168.6,341.6z"/>
	<path class="st4" d="M108.8,276.6c0.1,3.4-2,5.8-5.2,6c-3,0.2-5.2-2-5.3-5c0-3,2.4-5.4,5.7-5.6
		C106.9,271.8,108.8,273.6,108.8,276.6z"/>
	<path d="M62.2,331.8c-0.2-0.3-0.6-0.5-0.7-0.9c-0.1-0.3,0-0.9,0.2-1.1c0.7-0.5,1.4-0.9,2.2-1.3c6.2-2.5,11.9-5.8,16.9-10.4
		c0.6-0.6,1.4-0.9,2.2-1.2c0.3-0.1,0.8,0.2,1.1,0.4c0.2,0.3,0.4,0.8,0.3,1.1c-0.2,0.6-0.5,1.2-1,1.6c-5.6,5.5-12.4,9.1-19.7,11.6
		C63.1,331.9,62.6,331.8,62.2,331.8z"/>
	<path class="st16" d="M123,350.2c-0.5-0.3-0.9-0.5-1.1-0.8c-0.2-0.3-0.3-0.9-0.1-1.2c3.5-5.9,5-12.7,8.4-18.6
		c0.5-0.9,1-1.9,1.7-2.7c0.3-0.4,1.2-0.6,1.7-0.5c0.4,0.2,0.8,0.9,0.8,1.5c0.1,0.6-0.2,1.3-0.5,1.8c-2.4,4.3-4.1,8.9-6,13.4
		c-0.9,2.1-2.2,4.1-3.5,6.1C124.2,349.7,123.5,349.9,123,350.2z"/>
	<path class="st16" d="M229.7,365.8c-0.8-0.4-1.4-1.1-1-1.5c3.8-4,3.9-9.3,5-14.3c0.2-0.8,0.7-1.5,1.2-2.2c0.2-0.2,0.8-0.3,1.1-0.3
		c0.4,0.1,1,0.5,1,0.7c-0.7,6-0.4,12.5-5.5,17.1C230.9,365.7,230.1,365.7,229.7,365.8z"/>
	<path class="st16" d="M304.7,350.6c0,3,0,5.9-0.1,8.9c0,0.4-0.9,0.8-1.4,1c-0.3,0.1-0.8-0.3-1-0.6c-0.3-0.5-0.5-1.2-0.6-1.8
		c-0.3-5.5-0.5-11-0.7-16.6c0-0.6,0.2-1.3,0.4-1.8c0.1-0.3,0.6-0.6,0.9-0.7c0.7-0.2,1.3,0.2,1.5,0.8c0.2,0.8,0.4,1.7,0.4,2.5
		c0,2.8,0,5.5,0,8.3C304.4,350.6,304.6,350.6,304.7,350.6z"/>
	<path class="st16" d="M323.5,308.7c0-2.3,0-4.6,0-6.9c0-0.6,0.6-1.1,1.3-1c0.4,0.1,0.9,0.4,0.9,0.7c0.3,1.4,0.7,2.9,0.8,4.3
		c0.3,3.6,0.4,7.2,0.6,10.7c0,1.1-1.1,2.4-1.7,2.2c-0.8-0.3-1.5-0.9-1.5-1.8c-0.2-2.7-0.3-5.5-0.5-8.2
		C323.4,308.7,323.4,308.7,323.5,308.7z"/>
	<path class="st16" d="M261.9,353.8c-0.9,3.9-1.9,8.6-3.1,13.3c-0.2,0.8-0.9,1.5-1.9,1.1c-0.6-0.2-1-0.8-0.9-1.5c1-4.9,2-9.9,3-14.8
		c0.2-1,1.1-1.4,1.9-1.1c0.4,0.2,0.6,1,0.9,1.5C261.9,352.5,261.8,352.7,261.9,353.8z"/>
	<path d="M57,310c-1.9-0.1-3.6-1.9-3.6-3.8c0-2.3,2-4.3,4-4.1c2,0.2,3.6,2,3.6,3.8C61,308.2,59.1,310.1,57,310z"/>
	<path d="M97.3,424.4c-0.3-0.2-0.8-0.4-1-0.7c-0.2-0.3-0.2-0.9,0-1.2c1.4-2.4,3.4-4.3,5.7-5.8c0.2-0.1,0.4-0.2,0.6-0.2
		c0.4,0.1,0.8,0.2,1.1,0.5c0.2,0.3,0.5,0.9,0.4,1.1c-1.6,2.5-3.6,4.6-6.1,6.3C97.7,424.5,97.5,424.4,97.3,424.4z"/>
	<path d="M161.1,423.8c0,0.4,0.2,0.9,0,1.2c-1.5,2-3.1,4-4.7,5.9c-0.4,0.5-1.2,0.4-1.7-0.1c-0.3-0.2-0.6-0.8-0.5-1.1
		c1-2.9,2.9-5.1,5.4-6.7C160.1,422.7,160.7,423.2,161.1,423.8z"/>
	<path d="M111.4,419.7c-0.1,1.8-1.5,2.9-2.4,4.3c-2,3-3.3,4-3.9,2.9c-1.1-2.1,0.5-3.6,1.5-5.1c0.8-1.2,1.6-2.6,3-3.2
		c0.3-0.2,0.9-0.2,1.2,0C111.1,418.8,111.2,419.3,111.4,419.7z"/>
	<path d="M152.3,421.7c0.2,0.5,0.8,1.2,0.7,1.5c-1.2,2.4-2.9,4.6-5.1,6.2c-0.2,0.2-0.8,0-1.1-0.2c-0.3-0.2-0.5-0.7-0.6-1
		c-0.1-0.4,0-0.9,0.2-1.2c1.3-1.9,2.7-3.7,4.6-5.1C151.3,421.6,151.8,421.7,152.3,421.7z"/>
	<path d="M326.8,431.2c-0.7,0-1.3-0.5-1.3-1.1c-0.2-2.3,0.4-4.5,1.9-6.4c0.3-0.4,1.2-0.6,1.6-0.5c0.4,0.2,0.8,1.1,0.7,1.5
		c-0.5,2-1.2,4-1.8,5.9C327.7,431,327.2,431.1,326.8,431.2z"/>
	<path d="M170,425.4c-1.1,1.9-2,4.1-3.9,5.6c-0.3,0.2-0.9,0.2-1.2,0c-0.3-0.2-0.7-0.7-0.6-1c0.3-2.7,1.8-4.7,4-6.1
		c0.2-0.1,0.8,0.1,1.1,0.3C169.6,424.4,169.7,424.9,170,425.4z"/>
	<path d="M114.4,426.4c-0.7,0-1.4-0.5-1.3-1c0.5-2.8,2.2-4.8,4.5-6.4c0.5-0.3,1.3,0.1,1.4,0.7C119.3,421.6,116.3,425.8,114.4,426.4z
		"/>
	<path d="M249.2,427.5c-0.7-0.1-1.4-0.5-1.2-1.1c0.7-2.7,2-5,4.2-6.8c0.3-0.2,0.9-0.2,1.1,0c0.3,0.2,0.6,0.7,0.5,1
		c-0.6,2.7-1.9,5-4.1,6.8C249.6,427.6,249.4,427.5,249.2,427.5z"/>
	<path d="M263.3,423c-0.8,1.8-1.7,3.9-2.8,6c-0.3,0.5-0.8,1-1.5,0.7c-0.6-0.3-1.1-0.7-1-1.4c0.3-2.5,1.2-4.8,3-6.7
		c0.5-0.5,1.1-0.5,1.6,0C263,421.9,263,422.3,263.3,423z"/>
	<path d="M271.6,421.9c0,0.4,0.1,0.6,0.1,0.8c-0.6,2.4-1.4,4.8-2.9,6.8c-0.2,0.2-0.8,0.4-1.1,0.3c-0.3-0.1-0.8-0.5-0.8-0.8
		c-0.1-3,0.8-5.7,3.2-7.7C270.3,421.1,271.1,421.7,271.6,421.9z"/>
	<path d="M321.7,424.2c-0.9,2-1.4,4.5-3.2,6.3c-0.2,0.2-0.8,0.2-1.1,0c-0.3-0.2-0.6-0.6-0.6-1c0-2.6,1.1-4.8,2.9-6.6
		c0.2-0.2,0.8-0.2,1.1,0C321.1,423.1,321.2,423.6,321.7,424.2z"/>
	<path d="M313,423.1c0,0.4,0.1,0.9,0,1.2c-0.9,1.7-1.9,3.3-2.9,4.9c-0.3,0.5-1.1,0.9-1.7,0.5c-0.4-0.3-0.9-1.1-0.8-1.5
		c0.8-2.2,1.6-4.4,3.8-5.7C311.9,422.2,312.6,422.4,313,423.1z"/>
	<path d="M100.5,272.3c2.6-0.1,4.6,1.9,4.8,4.8c0.1,2.4-1.4,4.1-3.7,4.2c-2.6,0.1-4.5-1.5-4.7-4C96.5,274.6,98.1,272.4,100.5,272.3z
		"/>
</g>
</svg>
