<?xml version="1.0" encoding="utf-8"?>
<!-- Generator: Adobe Illustrator 25.1.0, SVG Export Plug-In . SVG Version: 6.00 Build 0)  -->
<svg version="1.1" id="Calque_1" xmlns="http://www.w3.org/2000/svg" xmlns:xlink="http://www.w3.org/1999/xlink" x="0px" y="0px"
	 viewBox="0 0 607.6 462.5" style="enable-background:new 0 0 607.6 462.5;" xml:space="preserve">
<style type="text/css">
	.st0{fill:#E5BE9E;}
	.st1{fill:#19935C;}
	.st2{fill:#004C26;}
	.st3{fill:#006836;}
	.st4{fill:#FFFFFF;}
	.st5{fill:#B25E26;}
	.st6{fill:#D3803C;}
	.st7{fill:#662704;}
	.st8{fill:#A0A0A0;}
	.st9{fill:#7C7C7C;}
	.st10{fill:#D8D8D8;}
	.st11{fill:#FFAF2E;}
	.st12{fill:#E27600;}
	.st13{fill:#FF6695;}
	.st14{fill:#FFEB76;}
	.st15{fill:#FFCF48;}
	.st16{fill:#6D6D6D;}
	.st17{fill:#C6C6C6;}
	.st18{fill:#CCCCCC;}
	.st19{fill:#F987B6;}
	.st20{fill:#CE3A6F;}
	.st21{fill:#CECECE;}
	.st22{fill:#565656;}
	.st23{fill:#F77CA9;}
	.st24{fill:#723100;}
	.st25{fill:#E8D09C;}
	.st26{fill:#6B5738;}
	.st27{fill:#69C498;}
	.st28{fill:#FF8B2C;}
	.st29{fill:#B2B2B2;}
	.st30{fill:#848484;}
	.st31{fill:#726359;}
	.st32{fill:#CABAAB;}
	.st33{fill:#E8E2DD;}
	.st34{fill:#D3BD90;}
	.st35{fill:#EAAD8B;}
	.st36{fill:#CEB78A;}
	.st37{fill:#EAE4DC;}
	.st38{fill:#7F7870;}
	.st39{fill:#84AFD3;}
	.st40{fill:#5F94B7;}
	.st41{fill:#D37E02;}
</style>
<g>
	<path class="st0" d="M323.4,16.3h265v54.8H379.6v131.5h152.7v52.9H379.6v190.3h-56.1V16.3H323.4z"/>
</g>
<g>
	<g>
		<path class="st19" d="M361.1,268.8c3,1.8,6.1,3.7,9.1,5.5c0.9,0.6,1.8,1.3,2.6,2.1c0.2,0.2,0.4,0.8,0.3,1c-0.3,0.4-0.8,1.1-1.1,1
			c-2.2-0.3-4.4-0.6-6.6-1c-3.1-0.6-6.1-1.9-9.3-1.9c-0.3,0-0.4-0.9-0.8-0.2c0.3,0,0.6,0,1,0.1c-0.1,0.9,0.7,1.2,1.3,1.5
			c2.5,1.3,5,2.5,7.5,3.8c1.5,0.8,2.9,1.7,4.3,2.6c0.8,0.5,1.3,1.3,1,2.4c-0.3,0.8-1,1-1.8,1c-1.5,0-3,0-4.5-0.1
			c-6.9-0.7-13.8-1.4-20.6-2.3c-15.7-2.1-31.5-4.2-47.2-6.6c-21.6-3.2-43.2-6.8-64.6-11.5c-10.6-2.3-21.2-4.5-31.7-7.4
			c-5.4-1.5-10.7-3.4-15.8-5.6c-10.2-4.4-15.1-12.4-15.8-23.2c-0.5-7.5,0.4-15,2.7-22.2c1.8-5.7,3.8-11.3,5.9-16.9
			c3.9-10.5,8.1-20.9,12-31.4c1.4-3.7,2.4-7.5,3.5-11.2c0.9-3.3,0.8-6.7,0.3-10c-0.9-5.6-4.4-8.1-10-7.1c-2,0.4-3.9,1.1-5.9,1.7
			c-2.1,0.7-4.2,1.5-6.4,1.9c-6.5,1.3-12-1.9-14.1-8.2c-2.2-6.6-0.4-13.2,5.1-17.7c3.8-3.2,8.3-5.2,13.1-6.1
			c7.7-1.5,15.4-0.7,22.5,2.6c10.2,4.6,15.9,13,17.3,23.9c1.3,9.9,0.3,19.8-3.1,29.3c-3.6,10-7.4,20-12.2,29.5
			c-3.3,6.5-5.9,13.3-6.5,20.7c-0.1,1.5-0.3,3-0.2,4.5c0.3,4.7,2.6,6.8,7.2,6.5c3.7-0.2,6.9-1.7,9.9-3.6c7.1-4.5,14-9.3,20.3-14.9
			c5.3-4.7,10.7-9.3,16.1-14c1-0.9,2-1.7,3-2.6c8.6-7.6,18.8-9.5,29.9-7.9c2.8,0.4,5.4,1.5,7.9,2.7c4.7,2.3,9.2,5.1,13.4,8.2
			c7.6,5.6,14.5,11.8,20.8,18.8c7.5,8.3,15.1,16.6,22.3,25.2c9.2,11.1,19.2,21.5,29,32c1.3,1.4,2.5,2.7,3.7,4.2c0.8,1,1.9,2.1,1,3.5
			c-0.9,1.2-2.4,0.9-3.6,0.6c-2.2-0.5-4.3-1.2-6.5-1.9c-1.8-0.5-3.5-1.5-5.4-1.1C361.2,268.9,361.2,268.8,361.1,268.8
			c0.1,0,0.3,0,0.3,0C361,269.5,361.8,268.9,361.1,268.8z"/>
		<path class="st20" d="M308.8,256.5c0,1.2,0.1,2,0,2.7c-0.4,4.1-2.6,6.1-6.7,5.6c-2-0.2-4-0.8-6-1.5c-4.5-1.5-8.5-3.9-12.4-6.5
			c-1.1-0.7-2-1.7-3.4-1.9c-0.2,0.1-0.4,0.1-0.5,0.2c-3.7,5-5.2,5.5-10.7,3.3c-0.9-0.4-1.7-0.7-2.5-1.2c-16.6-9.1-29.3-21.8-37-39.3
			c-0.4-0.9-0.7-1.7-1-2.6c-1.3-3.9-0.2-6.7,3.8-7.9c3.2-1,6.5-1.6,9.9-2.1c9.1-1.5,18.2-2.4,27.4-1.2c18.8,2.4,35.8,9.2,50.4,21.4
			c5.7,4.8,11.4,9.8,16.4,15.3c1.6,1.8,3.2,3.7,4.5,5.7c1.7,2.5,0.9,5.2-1.6,6.8c-0.6,0.4-1.3,0.7-2,1c-7.1,2.6-14.4,3.9-22,2.7
			C313.4,256.8,311.4,256.2,308.8,256.5z"/>
		<path class="st8" d="M206,432.3c-1.1,0-2.2-0.2-3.1-1.1c-2-1.9-2.9-4.5-2.8-7.4c0.2-2.9,1.9-4.6,4.2-5.3c2.2-0.6,4.4-1.1,6.6-1.6
			c1.3-0.3,2.6-0.6,3.9-0.8c2.5-0.3,3.9-1.8,5.1-4.3c8.4-17.7,16.8-35.4,25.3-53.1c0.4-0.9,0.8-1.9,1.3-2.8c1.2-2.1,1.4-4.3,0.6-6.7
			c-1.1-3.4-1.8-7-2.8-10.4c-0.4-1.6-1.2-1.9-2.6-1.3c-5.7,2.8-11.3,5.6-17,8.4c-10.9,5.2-21.9,9.9-32.6,15.7
			c-6.1,3.3-6.1,3.3-9.1,10.4c-1.2,2.9-2.4,5.8-4,8.5c-2.5,4.3-8.4,4.3-11,0.2c-1.1-1.7-1.1-3.7-0.3-5.5c0.9-1.9,1.9-3.7,3.1-5.4
			c8.6-12.6,5.8-9.8,17.4-16.4c9.2-5.2,18.9-9.4,28.4-13.8c7.3-3.4,14.5-7,21.7-10.5c2.8-1.4,2.9-1.6,2.1-4.8
			c-4.3-16.9-8.6-33.8-12.8-50.6c-0.6-2.5-1.3-4.9-1.9-7.4c-0.3-1.3-0.2-2.6,0.4-3.7c1.1-2.3,4.4-2.4,5.7-0.1
			c0.7,1.2,1.1,2.7,1.6,4.1c4.6,13.6,8.2,27.6,11.5,41.7c1,4.1,2.1,8.2,3.2,12.3c0.7,2.5,1.3,2.9,3.2,2c7-3.5,14-7.1,20.8-11.3
			c2.1-1.3,2.3-1.9,1.2-4.6c-3.3-7.7-6.6-15.4-9.9-23.1c-1-2.3-2-4.6-3-6.9c-0.3-0.8-0.6-1.6-0.8-2.4c-0.6-2.5,0.2-4.7,1.8-5.5
			c1.7-0.8,3.6,0,4.7,2.3c3.8,7.7,7.5,15.3,11.1,23.1c1.9,4.2,3.6,8.5,5.1,12.9c1.4,4.2,0.7,6.8-2.4,9.6c-1.6,1.4-3.4,2.6-5.3,3.7
			c-6,3.4-12.1,6.7-18.2,10c-1,0.6-2,1.1-3.1,1.6c-1.2,0.6-1.7,1.7-1.3,3.1c0.8,3.1,1.7,6.1,2.5,9.2c2.5,9.5,2.5,9.5-1.6,18.2
			c-4.9,10.4-9.9,20.6-14.9,31c-3.9,8.1-7.7,16.2-11.4,24.4c-1.5,3.4-3.5,5.9-6.6,7.4c-3.2,1.6-6.3,3.8-9.4,5.7
			C208.9,431.5,207.5,432.3,206,432.3z"/>
		<path class="st21" d="M136.9,145.5c0.2-14.4,7-24.8,19.1-32.2c0.5-0.3,1-0.5,1.5-0.7c1.2-0.4,2.2-0.2,2.9,1c0.2,0.3,0.4,0.7,0.5,1
			c2.4,5.5,4.2,11.2,5.7,17c0.4,1.7,0,2.9-1.6,3.8c-1.1,0.6-2.3,1.2-3.5,1.9c-6,3.3-10.1,8.2-12.6,14.5c-1.4,3.5-2.3,7.1-3.1,10.7
			c-0.3,1.5-0.8,2.9-1.2,4.3c-0.2,0.8-0.9,1.3-1.6,1.3c-0.7,0-1.4-0.5-1.7-1.3c-1.1-3.2-2.4-6.3-3.1-9.6
			C137.3,153.4,136.8,149.5,136.9,145.5z"/>
		<path class="st4" d="M180.7,115.8c0,2.7-2.4,4.8-5.2,4.7c-2.4-0.1-4.5-2.4-4.5-4.9c0-2.1,2.5-4.7,4.7-4.8
			C178.2,110.6,180.8,113.3,180.7,115.8z"/>
		<path class="st22" d="M136.7,147.2c0-1.3-0.1-2.8,0-4.3c0.2-2.7,1.7-3.7,4.1-2.8c2.3,0.8,4.4,2,6.3,3.6c2.8,2.3,3.7,4,2.2,7.7
			c-1.1,2.9-1.6,6.1-2.4,9.2c-0.4,1.8-0.7,3.7-1.2,5.5c-0.4,1.7-0.5,4.1-2.9,4.1c-2.2-0.1-2.7-2.3-3.3-4.1
			C137.8,160,137,153.8,136.7,147.2z"/>
		<path class="st23" d="M269.9,217.3c1.1-0.2,1.8,0.5,2.5,1c5.7,3.9,11.6,7.5,17.6,10.9c12.1,6.8,24.7,12.2,38.2,15.7
			c0.9,0.2,1.8,0.5,2.6,0.9c0.5,0.2,0.8,0.8,0.5,1.4c-0.2,0.5-0.5,1.1-1.2,1c-0.9-0.1-1.8-0.3-2.7-0.5c-6.6-1.5-12.9-3.7-19.1-6.3
			c-12.4-5.2-24.2-11.6-35.2-19.4c-1.4-1-2.9-1.7-3.8-3.2c-0.2-0.3-0.2-0.8-0.1-1C269.2,217.6,269.7,217.5,269.9,217.3z"/>
		<path class="st23" d="M254.7,217.4c1.1,0,1.6,0.8,2.3,1.4c4.4,4.6,9.4,8.5,14.4,12.4c8.1,6.3,16.7,11.9,25.8,16.7
			c1.2,0.6,2.3,1.2,3.4,1.9c0.6,0.4,1.3,1,0.8,1.8c-0.5,1-1.4,1-2.4,0.6c-0.9-0.4-1.7-0.8-2.5-1.2c-13.9-7.3-26.7-16.3-38.2-27
			c-1.6-1.5-3.4-3-4.4-5c-0.1-0.3-0.1-0.8,0-1.1C254,217.7,254.4,217.6,254.7,217.4z"/>
		<path class="st23" d="M271.2,249.1c-0.3,0.2-0.6,0.4-0.9,0.6c-0.8,0.3-1.5-0.1-2.1-0.6c-6.9-5.2-13.3-10.9-19-17.5
			c-0.4-0.4-0.6-0.9-0.8-1.5c-0.1-0.3,0.2-0.7,0.5-0.9c0.2-0.2,0.8-0.4,1-0.3c0.6,0.4,1.3,0.8,1.8,1.3c5.4,5.8,11.3,10.9,17.5,15.8
			c0.7,0.6,1.3,1.3,1.9,2C271.2,248.3,271.1,248.7,271.2,249.1z"/>
		<path d="M173.7,112.2c1.8,0.1,3,1.6,2.9,3.4c-0.2,2.5-1.6,4.2-3.6,4.3c-2.2,0.1-4-1.7-3.9-3.9
			C169.1,113.7,171.1,112.1,173.7,112.2z"/>
	</g>
</g>
</svg>
