<?xml version="1.0" encoding="utf-8"?>
<!-- Generator: Adobe Illustrator 25.1.0, SVG Export Plug-In . SVG Version: 6.00 Build 0)  -->
<svg version="1.1" id="Calque_1" xmlns="http://www.w3.org/2000/svg" xmlns:xlink="http://www.w3.org/1999/xlink" x="0px" y="0px"
	 viewBox="0 0 607.6 462.5" style="enable-background:new 0 0 607.6 462.5;" xml:space="preserve">
<style type="text/css">
	.st0{fill:#E5BE9E;}
	.st1{fill:#19935C;}
	.st2{fill:#004C26;}
	.st3{fill:#006836;}
	.st4{fill:#FFFFFF;}
	.st5{fill:#B25E26;}
	.st6{fill:#D3803C;}
	.st7{fill:#662704;}
	.st8{fill:#A0A0A0;}
	.st9{fill:#7C7C7C;}
	.st10{fill:#D8D8D8;}
	.st11{fill:#FFAF2E;}
	.st12{fill:#E27600;}
	.st13{fill:#FF6695;}
	.st14{fill:#FFEB76;}
	.st15{fill:#FFCF48;}
	.st16{fill:#6D6D6D;}
	.st17{fill:#C6C6C6;}
	.st18{fill:#CCCCCC;}
	.st19{fill:#F987B6;}
	.st20{fill:#CE3A6F;}
	.st21{fill:#CECECE;}
	.st22{fill:#565656;}
	.st23{fill:#F77CA9;}
	.st24{fill:#723100;}
	.st25{fill:#E8D09C;}
	.st26{fill:#6B5738;}
	.st27{fill:#69C498;}
	.st28{fill:#FF8B2C;}
	.st29{fill:#B2B2B2;}
	.st30{fill:#848484;}
	.st31{fill:#726359;}
	.st32{fill:#CABAAB;}
	.st33{fill:#E8E2DD;}
	.st34{fill:#D3BD90;}
	.st35{fill:#EAAD8B;}
	.st36{fill:#CEB78A;}
	.st37{fill:#EAE4DC;}
	.st38{fill:#7F7870;}
	.st39{fill:#84AFD3;}
	.st40{fill:#5F94B7;}
	.st41{fill:#D37E02;}
</style>
<g>
	<path class="st0" d="M302.8,382.4c-29.4-17.3-52.6-40.9-69.7-70.8c-17.1-29.9-25.6-63.1-25.6-99.6c0-36.1,8.5-69,25.6-98.8
		c17.1-29.7,40.3-53.3,69.7-70.5c29.3-17.3,61.7-25.9,97-25.9c35.7,0,68.2,8.6,97.6,25.6c29.4,17.1,52.7,40.6,70,70.5
		c17.3,29.9,25.9,63,25.9,99c0,36.5-8.6,69.7-25.9,99.6c-17.3,29.9-40.6,53.5-70,70.8c-29.4,17.3-61.9,25.9-97.6,25.9
		C364.5,408.4,332.2,399.7,302.8,382.4z M473.3,341.6c22.1-13.1,39.5-31.1,52.1-54.1c12.7-23,19-48.2,19-75.4
		c0-27.2-6.3-52.2-19-74.9c-12.7-22.6-30-40.5-52.1-53.5C451.2,70.6,426.9,64,400.4,64c-26.9,0-51.1,6.5-72.8,19.6
		s-38.8,30.9-51.5,53.5c-12.7,22.7-19,47.6-19,74.9c0,27.3,6.3,52.4,19,75.4c12.7,23,29.8,41.1,51.5,54.1s46,19.6,72.8,19.6
		C426.9,361.1,451.2,354.6,473.3,341.6z M475,414.1c-8.3-8.8-21.6-13.8-40-15l55.2-31.7c15.4,6.5,27.6,17.1,36.6,31.7
		c9,14.6,13.5,29.9,13.5,46.1l-48.9,1.1C488.7,433.7,483.3,422.9,475,414.1z"/>
</g>
<g>
	<path class="st5" d="M355.2,384.4c4.8,2.8,8.3,7,11.7,11.2c0.4,0.4,0.5,1.1,0.7,1.7c0.3,0.8-0.8,2.2-1.7,2
		c-1.2-0.3-2.4-0.6-3.4-1.1c-3.4-1.8-6.6-3.7-10.4-5.9c-0.2,2,1.1,2.9,1.7,3.9c1.1,1.7,2.4,3.3,2.8,5.3c0.3,1.2-1.1,2.6-2.2,2.1
		c-1.5-0.6-3-1.2-4.4-2.1c-4.7-2.9-9.2-5.8-13.9-8.7c-3.6-2.2-7.2-4.6-10.9-6.6c-5.7-3-11.7-4-18.2-3c-8.7,1.3-16.7,4.6-24.6,8.4
		c-7.5,3.6-15,7.1-22.9,9.5c-31.7,9.4-60.4,3.5-86.1-16.9c-15.9-12.6-26.6-29.1-33.2-48.3c-7.5-21.9-10.2-44.5-8.5-67.5
		c0.9-11.9,3.1-23.6,6.9-35c1.6-4.8,3.7-9.4,6.2-13.8c5.6-9.6,13.7-16.2,23.9-20.6c15.4-6.6,30.7,2.4,35.7,15.7
		c2.5,6.8,2.7,13.8,1.8,20.9c-0.6,4.6-1,9.2-1.4,13.9c-0.1,1,0,2,0.1,3c0.2,2.4,0.7,3,3.3,3.6c6.1,1.3,12.3,2.5,18.4,3.8
		c7.9,1.7,15.7,3.9,23.5,6c21.1,5.9,38.4,17.6,52.6,34.1c6.8,7.8,12.9,16.1,17.7,25.3c9.5,18,22.6,32.9,38.4,45.6
		c3.6,2.9,7,6.1,10.4,9.3c1.4,1.3,3.3,3,2,5.2c-1.1,1.8-3.3,1.2-5,0.9c-2.4-0.5-4.7-1.2-7-1.9c-1.4-0.4-2.7-0.7-4,0.3
		c0,0,0.1-0.3,0.1-0.3L355.2,384.4z"/>
	<path class="st22" d="M174.9,192.6c0.2-1.8,0.3-4.1,0.8-6.2c2.7-13.3,11.7-20.2,24.2-23.2c7.1-1.7,14-0.8,20.6,2.2
		c3.6,1.6,6.5,4,8.9,7.1c2.2,2.8,3.1,6,3,9.6c-0.3,5.7-3.4,8.3-9.2,7.6c-2.6-0.4-5-1.4-7.3-2.8c-1.7-1-3.4-2.2-5.1-3.3
		c-6.7-4.2-13.3-4-19.9,0.2c-3.6,2.3-6.6,5.3-9.2,8.7c-1,1.3-1.9,2.6-2.9,3.9c-0.6,0.8-1.4,1.6-2.5,1.3c-1.5-0.4-1.4-1.7-1.5-2.9
		C174.8,194.2,174.9,193.6,174.9,192.6z"/>
	<path class="st7" d="M172.6,427.6c-3.1-0.6-6.2-0.3-9-1.5c-1-0.4-1.7-1.1-1.7-2.2c0-1.2,0.9-1.8,1.8-2.1c3.1-0.9,6.3-1.7,9.5-1.3
		c3.8,0.4,5.4-1.4,6.6-4.6c2-5.3,4.3-10.5,6.5-15.7c0.6-1.5,1.2-3,1.9-4.4c0.8-1.6,1.7-1.9,3.5-1.4c1,0.3,1.9,0.6,2.8,1
		c1.5,0.7,2,2,1.4,3.5c-0.5,1.3-1.2,2.6-1.8,3.8c-2.4,5.8-4.9,11.5-7.2,17.3c-1,2.4-0.9,2.5,1,4.1c1.7,1.5,3.4,2.9,5,4.4
		c1.3,1.4,1.4,2.8,0.6,3.8c-1.2,1.3-2.5,1.1-3.9,0.5c-1.3-0.6-2.6-1.2-3.8-1.9c-3.4-2.2-3.7-1.9-6.6,0.9c-2,2-4.3,3.7-6.5,5.4
		c-1.1,0.9-2.5,1.5-3.9,0.5c-1.1-0.8-0.9-2.2,0.3-4.4C170.2,431.5,172.3,430.2,172.6,427.6z"/>
	<path class="st7" d="M235.2,429.3c-1.3,2.5-2.4,4.7-3.6,6.7c-0.8,1.4-1.7,2.7-2.7,4c-0.7,0.8-1.6,1.1-2.7,0.8
		c-1.2-0.4-1.4-1.4-1.4-2.4c-0.1-2.1,0.6-4,1.3-5.9c0.3-0.7,0.5-1.5,0.6-2.2c-0.8-1.3-1.8-0.8-2.7-0.7c-2,0.4-3.9,0.9-5.9,1.2
		c-1.2,0.2-2.4,0-3.1-1.3c-0.6-1.1-0.1-2.5,1.5-3.5c1-0.7,2-1.3,3.1-1.8c1.3-0.6,2.6-1.1,3.9-1.6c5.7-2.3,5.7-2.3,6.4-8.6
		c0.3-3,0.7-6,1.2-9c0.2-1.4,1.2-2.1,2.5-2.2c1.2,0,2.4,0.1,3.6,0.3c1.3,0.2,2.1,1.1,2.2,2.5c0.1,1.2,0,2.4-0.1,3.6
		c-0.1,1.8-0.3,3.6-0.6,5.4c-0.8,4.4-0.9,8.5,4.6,10.1c1,0.3,1.9,1.4,2.7,2.3c0.9,1,1,2.2,0.5,3.4c-0.5,1.2-1.6,1.8-2.9,1.9
		c-1.4,0.1-2.8-0.1-4.1-0.8C238.3,430.8,237.1,430.2,235.2,429.3z"/>
	<path class="st35" d="M199.4,256.1c-7.7,2.2-14.7,0.6-20.9-4.3c-2.6-2-4.9-4.2-7-6.7c-0.6-0.7-1.1-1.6-1.4-2.5
		c-0.5-1.5,0.9-2.9,2.4-2.7c1.3,0.2,2.4,0.9,3.4,1.8c1.6,1.4,3.2,2.7,4.7,4.1c1.6,1.4,3.3,2.6,5.2,3.5c3,1.3,6.1,1.9,9.4,1.1
		c2.5-0.6,5-1.4,7.5-2c1.7-0.4,2.5,0,3.1,1.5c0.8,2.1,0.6,3.2-1,4.2C203.2,255.1,201.3,255.6,199.4,256.1z"/>
	<path class="st35" d="M167,214.8c-0.9-0.1-1.7-0.3-2.1-1.1c-0.4-0.8-0.2-1.6,0.3-2.2c0.6-0.7,1.3-1.4,2.1-2
		c7-5.1,14.8-8.2,23.1-10.4c1.9-0.5,4.6,1.6,4.8,3.6c0,0.4-0.3,1-0.6,1.2c-0.5,0.4-1.1,0.6-1.7,0.8c-6.7,2.2-13.2,4.8-19.6,8
		C171.3,213.7,169.2,214.6,167,214.8z"/>
	<path class="st22" d="M207.2,217.4c4.2-0.1,7,1,9.6,2.6c5.2,3.2,8.5,7.9,10.6,13.5c0.1,0.4,0.2,0.8,0.2,1.2c0.2,1.3-1,2.4-2.2,2
		c-0.4-0.1-0.8-0.3-1.1-0.5c-4.8-2.7-10-4.2-15.5-4.1c-2.3,0-2.9-0.5-3.3-2.7c-0.5-3-1-5.9-1.3-8.9c-0.2-2.1,0.7-2.9,2.8-3.1
		C207.4,217.4,207.9,217.4,207.2,217.4z"/>
	<path class="st35" d="M193.8,356c-3.5-0.1-6.4-1.1-8.9-2.8c-1.3-0.9-1.6-2.6-0.4-3.6c4.3-3.7,8.6-7.3,12.9-10.9
		c1.1-0.9,2.3-0.4,3.2,0.6c2.7,2.9,3.1,7.9,1.1,11.9C200,354.6,197.3,356.3,193.8,356z"/>
	<path class="st35" d="M172.9,349.9c-0.1,0.3-0.1,1.6-0.4,2.7c-1.1,3.3-4.5,4.9-7.7,3.7c-1.5-0.6-3-1.3-4.1-2.3
		c-5.4-4.6-4.5-5.6,0.3-8.8c2.3-1.6,4.6-3.2,7.3-4.1c1.6-0.5,2.7,0.1,3.4,1.6C172.5,344.7,173,346.8,172.9,349.9z"/>
	<path class="st35" d="M221.2,377.1c-0.1,4.7-3.3,7.6-7.6,7.2c-2.6-0.2-5-1.3-7.1-3.1c-1-0.8-1.2-2.2-0.4-3.2c2.6-3.3,5.5-6.3,8.8-9
		c1.2-1,2.7-0.6,3.6,0.7C220.2,372.1,220.9,374.8,221.2,377.1z"/>
	<path class="st35" d="M197.4,376.6c0,4.8-3,7.5-7.8,6.9c-1.4-0.2-2.7-0.6-4-1.2c-3.8-1.7-4.2-3.2-1.4-6.2c2.2-2.4,4.4-4.7,6.7-7
		c1.6-1.6,3.3-1.3,4.5,0.6C196.7,371.8,197.3,374.1,197.4,376.6z"/>
	<path class="st35" d="M228.5,398.5c-0.3,0-1.1-0.1-1.8-0.2c-3.8-0.8-4.6-2.5-2.7-5.9c1.2-2.1,2.5-4.1,3.8-6.1
		c0.8-1.1,2.1-1.3,3.2-0.5c1.7,1.2,2.9,2.7,3.8,4.6c1.9,4.1-0.1,7.8-4.6,8.2C229.9,398.5,229.5,398.5,228.5,398.5z"/>
	<path class="st35" d="M229.7,369.4c-0.4-0.1-1.6-0.2-2.7-0.5c-1.5-0.4-2.3-1.8-1.9-3.2c1-3.3,2.7-6.2,4.6-9.1c0.7-1,2.2-1,3.2-0.1
		c1.4,1.2,2.3,2.7,3.1,4.4C238.4,365.8,234.8,369.7,229.7,369.4z"/>
	<path class="st4" d="M178.3,219.8c2.9,0.1,5.1,2.3,5.1,4.9c0,2.5-2.1,4.8-4.5,4.8c-2.8,0-5.2-2.7-5-5.7
		C174.2,221.3,175.9,219.7,178.3,219.8z"/>
	<path d="M180.3,221c2.1,0.1,3.7,1.7,3.7,3.6c0,1.8-1.5,3.4-3.2,3.5c-2,0-3.8-2-3.6-4.1C177.3,222.1,178.5,220.9,180.3,221z"/>
	<path class="st35" d="M147.5,299.9c-3.9,0.1-7.5-3.8-7.3-8c0-0.3,0.4-0.7,0.7-0.8c0.3-0.1,0.9,0,1.1,0.3c0.7,1,1.1,2.1,1.8,3.1
		c1.7,2.5,4.4,3,6.7,1.1c1.2-1,2.2-2.4,3.3-3.5c0.5-0.5,1.1-0.4,1.6,0c0.3,0.2,0.5,0.7,0.4,1C155,296.5,151,299.8,147.5,299.9z"/>
	<path class="st35" d="M147.5,273.5c-1.8,0-3.4-0.9-4.2-2.7c-0.6-1.2-1-2.6-1.2-4c-0.1-0.7,0-1.7,1.1-1.8c0.6-0.1,1.1,0.3,1.4,0.9
		c0.3,0.9,0.5,2,1,2.9c1,2,2.7,2.3,4.5,1.2c1.4-0.9,2.3-2.3,3.3-3.6c0.5-0.6,1.1-1.2,1.8-1.5c0.3-0.1,1.3,0.5,1.3,0.8
		C156.4,269.4,151.4,273.7,147.5,273.5z"/>
	<path class="st35" d="M176.9,269.9c-1.7,0-3.1-0.4-4.4-1.6c-1.7-1.6-2.6-3.5-2.8-5.8c-0.1-0.7,0.3-1.1,1-1.2c0.3,0,0.9,0,1,0.3
		c0.7,1.2,1.2,2.5,2,3.6c1.6,2.2,3.7,2.3,5.5,0.3c0.4-0.4,0.6-1,1-1.5c1.1-1.4,2.2-1.9,2.7-1.2c0.8,1,0.3,1.9-0.1,2.7
		C181.6,268.1,179.9,269.9,176.9,269.9z"/>
	<path class="st35" d="M158.2,261.2c-1.8,0-3-0.9-4-2.3c-1-1.3-1.4-2.9-1.5-4.5c0-0.5,0.4-1.1,0.8-1.4c0.6-0.5,1.2,0,1.5,0.5
		c0.6,1.2,1.1,2.6,1.8,3.8c0.6,1,2.2,1.1,3.2,0.5c1.6-1,2.2-2.9,3.5-4.1c0.3-0.3,1.1-0.3,1.6-0.2c0.2,0,0.5,0.7,0.4,1
		C165,258,161.5,261.4,158.2,261.2z"/>
	<path class="st35" d="M162.5,284.6c-3.9,0-7.1-3.4-7.1-7.4c0-0.3,0.4-0.7,0.7-0.8c0.3-0.1,0.9,0,1.1,0.2c0.9,1.3,1.6,2.7,2.6,3.9
		c1.3,1.6,3.2,1.6,4.8,0.3c0.9-0.7,1.7-1.7,2.6-2.5c0.5-0.4,1.1-0.4,1.6,0.1c0.2,0.3,0.4,0.8,0.3,1.1
		C168.1,282.6,165.4,284.6,162.5,284.6z"/>
	<path class="st6" d="M322.3,358.7c-10.4-12.6-20.9-25.2-31.3-37.7c-8.6-10.4-16.8-20-28.6-26.8c-23.3-13.5-50.4-19.7-77.2-19.9
		c-1.2,0-1.8,0.8-2,1.7c0,0-0.1,0-0.1,0.1c-0.4,0.7-0.6,1.5-0.8,2.2c-0.7,3.6-0.4,7.3,0.3,10.8c3.7,20.4,16,34.8,32.7,46.1
		c0.2,0.1,0.4,0.2,0.5,0.3c5.9,3.1,8.3,2.9,13.7-1.3c0.9,1.3,1.9,2.6,2.9,3.8c5,6.4,10.6,12.2,17.3,16.8c2.4,1.6,4.8,3,7.6,3.6
		c4.1,0.8,6.2-0.7,6.5-4.9c0.1-1.8-0.7-3.6,0.1-5.3c0.3,0,0.5-0.1,0.6-0.1c0.9,0.4,1.8,0.8,2.7,1.4c8.1,5.1,16.9,8.4,26.3,10.3
		c8,1.6,16,2,24.1,2.3c0.7,0,1.3-0.1,2-0.2C321.4,363.3,323.9,360.6,322.3,358.7z"/>
</g>
</svg>
