<?xml version="1.0" encoding="utf-8"?>
<!-- Generator: Adobe Illustrator 25.1.0, SVG Export Plug-In . SVG Version: 6.00 Build 0)  -->
<svg version="1.1" id="Calque_1" xmlns="http://www.w3.org/2000/svg" xmlns:xlink="http://www.w3.org/1999/xlink" x="0px" y="0px"
	 viewBox="0 0 607.6 462.5" style="enable-background:new 0 0 607.6 462.5;" xml:space="preserve">
<style type="text/css">
	.st0{fill:#E5BE9E;}
	.st1{fill:#19935C;}
	.st2{fill:#004C26;}
	.st3{fill:#006836;}
	.st4{fill:#FFFFFF;}
	.st5{fill:#B25E26;}
	.st6{fill:#D3803C;}
	.st7{fill:#662704;}
	.st8{fill:#A0A0A0;}
	.st9{fill:#7C7C7C;}
	.st10{fill:#D8D8D8;}
	.st11{fill:#FFAF2E;}
	.st12{fill:#E27600;}
	.st13{fill:#FF6695;}
	.st14{fill:#FFEB76;}
	.st15{fill:#FFCF48;}
	.st16{fill:#6D6D6D;}
	.st17{fill:#C6C6C6;}
	.st18{fill:#CCCCCC;}
	.st19{fill:#F987B6;}
	.st20{fill:#CE3A6F;}
	.st21{fill:#CECECE;}
	.st22{fill:#565656;}
	.st23{fill:#F77CA9;}
	.st24{fill:#723100;}
	.st25{fill:#E8D09C;}
	.st26{fill:#6B5738;}
	.st27{fill:#69C498;}
	.st28{fill:#FF8B2C;}
	.st29{fill:#B2B2B2;}
	.st30{fill:#848484;}
	.st31{fill:#726359;}
	.st32{fill:#CABAAB;}
	.st33{fill:#E8E2DD;}
	.st34{fill:#D3BD90;}
	.st35{fill:#EAAD8B;}
	.st36{fill:#CEB78A;}
	.st37{fill:#EAE4DC;}
	.st38{fill:#7F7870;}
	.st39{fill:#84AFD3;}
	.st40{fill:#5F94B7;}
	.st41{fill:#D37E02;}
</style>
<g>
	<path class="st0" d="M303.6,16.3h56.1v200.2l156-200.2h68.1L426.5,215.9l10.6,0.6c28.6,2.6,54.1,11.9,76.3,27.8
		c22.3,15.9,39.5,37.1,51.9,63.8c12.3,26.6,18.5,57.6,18.5,92.9v44.9h-55.5v-44.9c0-42.3-10.6-74.9-31.7-97.8s-49.6-34.4-85.2-34.4
		h-51.6v177.1h-56.1V16.3z"/>
</g>
<g>
	<path class="st17" d="M276.8,422c-1.5,1.7-2.5,3.1-3.8,4.3c-1.8,1.7-3.4,1.6-5.1-0.1c-0.7-0.7-1.2-1.5-1.8-2.3
		c-2,0.1-2,2.2-3.2,3.1c-1.4,1-3.1,0.9-4.1-0.5c-1.3-2-2-4.2-2.6-6.5c-1.5-5.9-3.1-11.7-4.2-17.7c-0.6-3-2-4.3-4.8-4.7
		c-5.2-0.8-10.4-2-15.6-2.7c-7.2-1-14.3-2.2-21.3-4c-2.4-0.6-4.1-0.3-5.8,1.3c-1.4,1.4-3.2,2.2-4.2,4.1c1.7,1.8,4.2,1.9,6.2,2.9
		c2.1,1,4.3,1.7,6.5,2.7c1.8,0.8,3.6,1.5,5.3,2.4c1.4,0.8,2.5,1.9,2.6,3.7c0.2,1.9-1.4,2.6-2.6,3.6c0,1.5,1.4,1.7,2.1,2.5
		c2.1,2.4,1.9,3.9-0.7,5.7c-0.6,0.4-1.3,0.7-2,1.1c0.3,0.6,0.7,1.1,0.8,1.7c0.7,2.3,0,4-2.1,4.6c-0.9,0.3-1.9,0.4-2.9,0.4
		c-2.5,0-5.1,0.1-7.6-0.2c-10.1-1-20.2-2-30.3-3.2c-7.8-0.9-15.2-3.4-22.3-6.9c-5.7-2.8-9.1-7.1-10.4-13.3c-0.8-4-1.2-8.1-1.7-12.2
		c-0.2-1.3-0.9-1.7-2-1.2c-2.5,1.1-4.9,2.4-7.4,3.5c-2.9,1.2-4.2,0.6-4.5-2.3c-0.5-4.1-0.7-8.2-0.1-12.3c0.4-3.4,1.8-6.4,4-9
		c3.6-4.5,7.9-8.1,13.4-10.1c2.2-0.8,3.5-2.1,4.3-4.3c3.2-8.7,8.2-16.4,14-23.6c3.9-4.9,7.8-9.8,11.7-14.7
		c11.6-14.4,19.2-30.8,24.1-48.5c1.4-5.3,1.7-6.9,6.6-1.7c4.1,4.3,9,7.4,14.4,9.9c10.4,4.8,21.4,7.4,32.6,9.4
		c5.6,1,11.2,1.3,16.9,1.4c12.5,0.3,23.9-3.2,34.7-9.2c1.9-1,3.6-2.4,5.7-2.8c1.3,0.9,1.4,2.4,1.6,3.7c4.4,22.2,8.9,44.5,13.2,66.7
		c2.6,13.4,5.2,26.9,7.6,40.3c1.1,6,2,12,1.8,18.1c-0.1,2.2-0.1,4.3-1.2,6.3c-0.9,1.5-2.4,1.9-4,1.2c-1.5-0.6-2-2.4-3.8-2.7
		c-0.5,1.2-1,2.5-1.6,3.7c-1.5,2.9-3,3.2-5.6,1.3c-0.6-0.4-1.1-1-2-1.8c-0.7,1.5-1.2,2.9-1.8,4.2c-0.8,1.6-2.5,1.8-3.8,0.4
		c-1.4-1.4-2.3-3.2-3-5c-1.3-3.3-2.5-6.6-3.6-9.9c-2.9-8.5-5.6-17.1-8.4-25.6c-0.5-1.5-1-3-1.5-4.4c-0.5-1.2-1.2-2-2.7-1.6
		c-0.6,0.2-1.2,0.2-1.7,0.4c-10,3.3-8.4,1.1-8,10.8c0.3,8.6,1.7,17.1,2.9,25.6c0.4,3.3,0.7,6.6,0.9,9.9c0.1,1.7,0,3.5-0.9,5.1
		c-1,1.7-2.5,3-4.7,1C278.2,423.3,277.6,422.7,276.8,422z"/>
	<path class="st16" d="M230.4,344.7c0.4,15.9-4.2,27.7-11.8,38.5c-3.7,5.3-8.2,9.9-13.5,13.7c-1.1,0.8-2.2,1.7-3.7,1.7
		c-0.5,0-1.2-0.3-1.5-0.6c-0.5-0.6-0.6-1.4-0.3-2.2c0.5-1.1,1.6-1.6,2.6-2.3c11.4-8.5,18.8-19.7,22.4-33.4c1.6-5.9,1.9-11.9,1.4-18
		c-0.3-3.9-0.9-7.7-1.3-11.6c-0.1-0.7,0.1-1.5,0.3-2.3c0.2-0.8,1.9-1.1,2.5-0.5c0.9,0.8,1.2,1.9,1.4,3.1
		C229.9,336.2,230.4,341.7,230.4,344.7z"/>
	<path class="st16" d="M273.7,357c-0.2,1-0.3,1.8-1.2,2c-0.9,0.2-1.6-0.3-1.9-1c-1.2-3.1-2.3-6.2-2.7-9.5c0-0.4,0.4-1.1,0.8-1.4
		c0.8-0.5,1.6-0.1,1.9,0.6C272.1,350.7,273,353.9,273.7,357z"/>
	<path class="st16" d="M256.9,321.5c-0.1,1.2-0.6,1.7-1.2,1.7c-0.5,0.1-1.1-0.2-1.6-0.4c-0.2-0.1-0.3-0.3-0.4-0.4
		c-1.2-3.1-1.9-6.3-2.2-9.5c0-0.4,0.6-0.9,1-1.2c0.5-0.3,1.2-0.1,1.5,0.4C255.9,315.2,256.2,318.7,256.9,321.5z"/>
	<path class="st16" d="M276.5,325.9c0.2-0.8,0.2-1.2,0.4-1.6c0.2-0.6,0.7-0.9,1.3-0.9c0.3,0,0.7,0.2,1,0.5c0.3,0.3,0.5,0.6,0.6,1
		c0.6,3,1.2,6.1,1.8,9.1c0.2,0.9-0.9,2.1-1.7,2c-0.8-0.1-1.4-0.6-1.6-1.4C277.6,331.5,277,328.5,276.5,325.9z"/>
	<path class="st16" d="M300.1,320.7c-0.1,0.6-0.1,1.4-0.4,2.1c-0.2,0.4-0.8,0.9-1.3,1c-0.4,0-1.2-0.4-1.3-0.8
		c-0.8-2.4-1.2-4.9-0.8-7.4c0.1-0.8,0.8-1.4,1.6-1.2c0.5,0.1,1.1,0.6,1.2,1.1C299.6,317,299.8,318.8,300.1,320.7z"/>
	<path class="st16" d="M289,294.4c0.2-0.8,0.3-1.4,0.6-1.8c0.3-0.4,0.9-0.7,1.4-0.8c0.3-0.1,0.8,0.3,0.9,0.5c0.8,2.4,1.6,4.8,1,7.4
		c-0.1,0.4-0.8,0.9-1.3,1c-0.5,0-1.3-0.4-1.4-0.8C289.7,298,289.4,296.1,289,294.4z"/>
	<path class="st16" d="M292.8,343.5c0.4,0.2,0.9,0.3,1,0.6c1.3,2.4,2.1,4.9,1.7,7.6c0,0.3-0.5,0.7-0.8,0.7c-0.5,0.1-1.3,0-1.5-0.3
		c-1.4-2.3-2.1-4.9-1.6-7.6C291.7,344.1,292.4,343.8,292.8,343.5z"/>
	<path class="st16" d="M262.7,296c0.1-0.5,0.1-0.9,0.3-1.3c0.2-0.3,0.5-0.6,0.8-0.7c0.3-0.1,0.9-0.1,1.1,0.1c1.8,2,2,4.5,1.7,7
		c0,0.3-0.5,0.6-0.8,0.7c-0.6,0.1-1.1,0.1-1.5-0.5C263,299.7,263.1,297.7,262.7,296z"/>
	<g>
		<path class="st8" d="M311.5,202.8c5.9-3.9,11.6-7.2,18.2-8.6c6.4-1.3,12.5,0.2,18.1,3.4c7.7,4.4,14.1,10.1,18.7,17.7
			c4.7,7.7,7.9,15.9,9.5,24.7c0.3,1.5,0.3,3.2-1.5,3.4c-2.4,0.3-3,1.4-2.7,3.6c0.7,6.3,0.2,12.5-1.3,18.6c-0.2,0.8-0.4,1.6-0.7,2.3
			c-0.5,1.3-1.8,1.6-3,0.8c-0.3-0.2-0.6-0.5-1-0.7c-1.3-0.8-2-2.8-3.8-2.6c-1.7,0.2-2.6,1.8-3.9,2.7c-2.3,1.7-4.6,3.3-7.1,4.5
			c-3.5,1.6-7.3,2.6-11.2,2.2c-8.3-0.8-16.3-2.9-23.6-7.2c-3.1-1.8-3.1-2-1.9-5.9c2.1-6.8,4-13.6,4.8-20.6c0.9-8.1,0.8-16.1-1-24.1
			C317,212,314.9,207.3,311.5,202.8z"/>
		<path class="st16" d="M326.8,216.9c4.1,0,8,0.7,11.8,2.4c7.3,3.4,10,10.2,7,17.5c-4.5,11.1-12.3,15.7-25.5,14.5
			c-2.8-0.3-3.7-1.5-3.9-4.4c0-1.2,0-2.4,0.1-3.6c0.4-6.4,0.8-12.9,1.3-19.3c0.1-1.2,0.2-2.4,0.4-3.6c0.3-1.5,1.3-2.5,2.8-2.8
			C322.8,217.2,324.8,217.1,326.8,216.9z"/>
		<path class="st8" d="M147.6,237.2c-1.1,0.1-1.5,0.1-1.9,0.2c-1.6,0.6-3.1,2.9-4.8,1.9c-2.3-1.3-0.6-3.7-0.3-5.5
			c0.9-5,3.3-9.5,5.9-13.8c0.9-1.5,2.4-2.7,2.7-4.6c-1-1.1-2.3-0.2-3.4-0.5c-1.4-0.3-2-1.4-1.3-2.7c1-1.7,2.2-3.4,3.4-5
			c5.4-6.7,12.1-11.8,20-15.3c10.3-4.4,20.8-4.4,31.4-1.5c3.3,0.9,6.2,2.9,8.9,5.1c4.8,4,4.7,4.1,1.5,9.8
			c-6.8,12-10.2,24.9-10.7,38.7c-0.2,5.3,0.4,10.5,0.8,15.7c0.2,2.9-0.2,3.5-3,4.3c-11,3-21.9,3.3-32.7-0.8
			c-3.5-1.3-6.5-3.2-9.2-5.6c-4.6-4.1-7.2-9.1-7.5-15.3C147.5,240.8,147.6,239.2,147.6,237.2z"/>
		<path class="st16" d="M171.8,225.6c-0.2-4.2,1.2-7.8,4.2-10.9c5.6-5.7,15.8-7.7,23-4.5c1.9,0.8,3.6,1.8,4.9,3.5
			c1.5,1.8,2.2,3.8,1.6,6.2c-1.7,7.1-3.3,14.1-5.1,21.2c-1.1,4.1-2.4,4.9-6.7,4.1c-5-0.9-9.8-2.5-14.1-5.3
			C174.6,236.5,171.7,231.9,171.8,225.6z"/>
		<path class="st29" d="M255.6,182.5c0.3-4.1,0.7-7.6,2-10.7c0.9-2,1.7-4.1,3.7-5.4c0.8-0.5,1.6-0.4,2.1,0.4c0.5,0.9,0.8,1.8,1,2.8
			c1,4.1,1,8.4,1.2,12.5c1.7,0.7,2.3-0.6,3.1-1.3c2.6-2.3,5.5-4.1,8.8-5.2c0.9-0.3,2-0.4,3-0.5c1.3-0.1,2.3,1.2,1.9,2.4
			c-0.6,1.7-1.4,3.3-2.2,5c-0.7,1.4-1.5,2.8-2.4,4.5c2,1.2,4,1.2,5.9,1.4c4.6,0.5,9.1,1.8,13.6,3c6.2,1.6,11.5,5,16.4,8.9
			c4.2,3.4,7,7.7,8.3,13c1.3,5.3,2.1,10.7,1.7,16.2c-0.8,13.9-4,27.1-10.6,39.4c-0.5,0.9-1.1,1.7-1.4,2.7c-1.5,5-5.2,7.8-9.6,10.3
			c-10.6,5.9-22,8.9-34.1,9c-7.9,0.1-15.7-0.7-23.4-2.4c-8.9-2-17.7-4.1-26-7.8c-5.4-2.4-10.4-5.3-14.9-9.2c-2-1.7-3.8-3.7-5.3-5.8
			c-1-1.3-1.6-2.7-1.8-4.4c-0.3-4.8-0.9-9.6-1.2-14.5c-1.1-16.4,4.3-30.9,12.6-44.7c1.8-3,4.3-5.2,7.4-6.9c7.2-3.8,14.5-7.2,22.7-8
			c0.8-0.1,1.5-0.4,2.3-0.7c0.2-0.1,0.3-0.3,0.6-0.6c-1.3-1.8-3.7-2.3-5.2-3.7c-0.6-0.6-1.3-1.2-0.8-2c0.3-0.4,0.9-0.8,1.4-0.9
			c5.1-0.3,10.1,0.2,14.9,1.7C252.6,181.5,253.7,181.9,255.6,182.5z"/>
		<path class="st30" d="M260.6,260.9c-2.6-0.2-5.2-0.3-7.8-0.6c-2-0.3-4-0.6-5.9-1.3c-2.8-0.9-4.2-3-4.2-6c0-1.2,0-2.5,0.3-3.6
			c2.5-8.9,5.1-17.8,8.6-26.4c0.9-2.3,2.2-4.4,4.7-5.3c5.6-2,11.1-1.6,16.3,1.3c1.3,0.7,2.1,1.9,2.6,3.2c0.4,1.1,0.8,2.3,1,3.5
			c0.8,7.4,2,14.8,1.8,22.3c-0.1,2.7-0.5,5.2-1.6,7.6c-1.4,3.2-3.8,5.2-7.4,5.4c-2.8,0.1-5.6,0-8.5,0
			C260.5,261,260.5,261,260.6,260.9z"/>
		<path d="M259.5,269.6c-0.1,1.2-0.2,2.4-0.2,3.6c0,1.4,0.9,2.1,2.4,1.7c1.6-0.4,3.1-1,4.6-1.4c1.5-0.4,2.8,0.2,2.9,1.3
			c0.2,1.1-0.2,2-1.2,2.5c-4.8,2.6-9.9,3.5-15.2,1.9c-2.5-0.7-5-1.7-6.9-3.5c-0.8-0.7-1.1-1.7-0.4-2.7c0.6-0.7,1.4-0.8,2.2-0.5
			c1.5,0.6,2.9,1.4,4.4,2c1.5,0.6,2.3,0.1,2.5-1.4c0.5-2.8,0.9-5.6,1.4-8.3c0.2-0.8,1.1-1.2,1.9-1c0.8,0.1,1.4,0.7,1.5,1.6
			c0,0.4,0.1,0.8,0.1,1.2C259.7,267.6,259.6,268.6,259.5,269.6C259.5,269.6,259.5,269.6,259.5,269.6z"/>
		<path class="st4" d="M227.3,236.3c-2.7,0-5-2.2-5-4.9c-0.1-3.6,3-7.1,6.6-7.3c2.4-0.1,4.3,0.8,5.5,3c1.1,2,0.8,3.9-0.4,5.6
			C232.4,235,230.1,236.2,227.3,236.3z"/>
		<path class="st4" d="M293.3,237.7c-3.1-0.1-5.3-2.3-5.1-5.3c0.2-3.4,3-6.2,6.1-6.1c3,0.1,5.9,2.8,6,5.6
			C300.5,235,297.1,237.8,293.3,237.7z"/>
		<path d="M256.2,250.5c4.6,0,9.2,0.5,13.7,1.4c1.4,0.3,2.7,0.6,4,1.2c2.2,1.1,2.5,3.7,0.8,5.5c-1.4,1.5-3.2,2.5-5.2,2.9
			c-7.2,1.4-14.3,1.3-21.4-0.9c-0.4-0.1-0.8-0.2-1.1-0.4c-2.2-1-3.3-2.7-3.1-4.7c0.2-2.2,1.7-4.3,4-4.7c2-0.4,4-0.3,6-0.4
			C254.6,250.4,255.4,250.5,256.2,250.5z"/>
		<path d="M236.1,229.9c-0.1,2.7-2.3,4.9-4.5,4.8c-2.4-0.2-4.6-2.6-4.4-4.9c0.2-2.3,2.7-4.2,5.2-4
			C234.6,226,236.2,227.9,236.1,229.9z"/>
		<path d="M297.8,237.2c-2.3-0.1-4.2-2.2-4.1-4.4c0.1-2.6,2.4-4.6,4.8-4.4c2.4,0.2,4,2.2,3.7,4.6C302,235.4,299.9,237.3,297.8,237.2
			z"/>
	</g>
</g>
</svg>
