<?xml version="1.0" encoding="utf-8"?>
<!-- Generator: Adobe Illustrator 25.1.0, SVG Export Plug-In . SVG Version: 6.00 Build 0)  -->
<svg version="1.1" id="Calque_1" xmlns="http://www.w3.org/2000/svg" xmlns:xlink="http://www.w3.org/1999/xlink" x="0px" y="0px"
	 viewBox="0 0 607.6 462.5" style="enable-background:new 0 0 607.6 462.5;" xml:space="preserve">
<style type="text/css">
	.st0{fill:#E5BE9E;}
	.st1{fill:#19935C;}
	.st2{fill:#004C26;}
	.st3{fill:#006836;}
	.st4{fill:#FFFFFF;}
	.st5{fill:#B25E26;}
	.st6{fill:#D3803C;}
	.st7{fill:#662704;}
	.st8{fill:#A0A0A0;}
	.st9{fill:#7C7C7C;}
	.st10{fill:#D8D8D8;}
	.st11{fill:#FFAF2E;}
	.st12{fill:#E27600;}
	.st13{fill:#FF6695;}
	.st14{fill:#FFEB76;}
	.st15{fill:#FFCF48;}
	.st16{fill:#6D6D6D;}
	.st17{fill:#C6C6C6;}
	.st18{fill:#CCCCCC;}
	.st19{fill:#F987B6;}
	.st20{fill:#CE3A6F;}
	.st21{fill:#CECECE;}
	.st22{fill:#565656;}
	.st23{fill:#F77CA9;}
	.st24{fill:#723100;}
	.st25{fill:#E8D09C;}
	.st26{fill:#6B5738;}
	.st27{fill:#69C498;}
	.st28{fill:#FF8B2C;}
	.st29{fill:#B2B2B2;}
	.st30{fill:#848484;}
	.st31{fill:#726359;}
	.st32{fill:#CABAAB;}
	.st33{fill:#E8E2DD;}
	.st34{fill:#D3BD90;}
	.st35{fill:#EAAD8B;}
	.st36{fill:#CEB78A;}
	.st37{fill:#EAE4DC;}
	.st38{fill:#7F7870;}
	.st39{fill:#84AFD3;}
	.st40{fill:#5F94B7;}
	.st41{fill:#D37E02;}
</style>
<g>
	<path class="st0" d="M354.8,16.3H411V391h178.4v54.9H354.8V16.3z"/>
</g>
<g>
	<path class="st31" d="M285.7,422.9c0-3.5-0.2-7,0-10.5c0.3-4.5,1.7-5.6,6.4-5.6c1,0,2,0,2.9,0.2c3.8,0.6,5.1,2.1,4.8,5.9
		c-0.2,2.3-0.7,4.6-1.1,6.9c-0.8,4.6-1.6,9.2-2.5,13.8c-0.6,2.9-1.5,3.5-4.4,3.7c-0.2,0-0.4,0-0.6,0c-5.1,0.1-6.1-0.9-6.1-6.1
		c0-1.4,0.1-2.7,0.1-4.1c0-1.4,0-2.7,0-4.1C285.4,422.9,285.6,422.9,285.7,422.9z"/>
	<path class="st31" d="M184.9,429.2c0.4-4.7,0.6-8.9,1.1-13.2c0.5-4.1,2.2-5.3,6.4-4.8c1,0.1,1.9,0.3,2.9,0.5
		c2.7,0.8,3.8,2.3,3.9,5.2c0,1.9-0.1,3.9-0.3,5.8c-0.4,3.7-0.8,7.4-1.3,11.1c-0.2,1.1-0.4,2.3-0.9,3.4c-1.4,3.5-6.2,4.9-9.4,2.7
		c-1.2-0.8-1.8-2.1-2-3.5C185.1,433.9,185,431.3,184.9,429.2z"/>
	<path class="st31" d="M247,426.1c-0.1-4.1,0.1-8.1,0.9-12.2c0.3-1.8,1.4-2.7,3.1-2.9c0.6-0.1,1.2-0.2,1.7-0.2
		c8.6,0.3,8.7,2.2,7.9,8.5c-0.6,4.4-1.2,8.8-1.9,13.2c-0.2,1.3-0.6,2.7-1.2,3.9c-1.3,2.6-3.4,3.6-6.2,3.2c-2.4-0.4-4-2-4.3-4.8
		C246.8,431.9,247,429,247,426.1z"/>
	<path class="st31" d="M153.4,427.8c0-2.5-0.2-5.1,0-7.6c0.4-5.2,2.8-6.7,7.9-5.4c0.6,0.1,1.2,0.2,1.7,0.5c1.9,0.9,3.1,2.3,3.1,4.5
		c0,1.5-0.1,3.1-0.2,4.6c-0.4,3.7-0.8,7.3-1.3,11c-0.2,1.3-0.5,2.7-1,3.9c-1,2.8-2.6,4.1-5.1,3.9c-2.4-0.1-4.1-1.6-4.6-4.4
		c-0.4-2.5-0.5-5-0.7-7.5C153.3,430.1,153.4,428.9,153.4,427.8C153.4,427.8,153.4,427.8,153.4,427.8z"/>
	<path class="st32" d="M241.8,374.1c-7-0.2-14.1-0.2-21.3,0.1c-0.6,2.1-1,3.8-1.5,5.4c-1.5,5.3-4.5,9.4-9.1,12.5
		c-2.5,1.6-2.4,1.7-1.8,4.5c1.5,7-0.9,13.3-6.7,17.4c-2.9,2-6,2.7-9.4,2.2c-6.2-0.9-9.8-4.7-10.1-11c-0.2-4.6,0.9-9,3.3-12.9
		c1.2-2,1.7-3.6,0.6-5.9c-1.6-3.1-1.2-6.5,0.2-9.7c0.6-1.4,1.4-2.8,2.1-4.2c0.5-1,0-1.9-1.2-2c-1-0.1-2-0.2-2.9-0.3
		c-1.7-0.3-3,0.2-4,1.7c-1.3,1.9-2.9,3.7-4.4,5.5c-0.9,1-0.9,2-0.4,3.2c3,6.6,0.9,12.2-3.7,17.1c-1.7,1.8-2.9,3.2-1.9,6
		c1,2.8,0.4,5.8-0.9,8.6c-3.6,8-13.7,9.5-19.2,2.7c-3.3-4.1-4-8.8-2.6-13.8c0.7-2.4,1.6-4.7,2.5-7c-1.5-1.7-3.3-3.3-4.6-5.3
		c-2.8-4.3-3.6-9.2-2.2-14c1.2-4.1,1.6-7.5-2-10.4c-4-6.6-3.8-13.3-1.1-20.2c0.6-1.4,1.5-2.7,2.2-4c-0.8-1.3-1.8-0.6-2.6-0.3
		c-5,1.8-9.9,3.7-14.9,5.4c-2.1,0.7-4.4,2.8-6.5,0.8c-1.8-1.7-0.1-4.1,0.3-6.1c1.6-6.5,3.9-12.7,7.7-18.3
		c7.4-11,18.1-14.2,30.6-12.6c1.8,0.2,3-0.1,4-1.5c7.7-10.6,26.9-15.2,38.4-11.9c2,0.6,3.4,0.4,4.5-1.4c4.5-6.9,11.6-8.9,19.2-9.5
		c5.8-0.5,11.3,0.7,16.6,3c1.6,0.7,3.2,1.5,4.8,2.2c0.8,0.4,1.5,0.3,2.2-0.2c0.3-0.2,0.6-0.4,0.9-0.7c9.6-7.7,20.4-9.3,32-5.8
		c0.5,0.2,1.1,0.1,1.9,0.1c1-2.2,1.1-4.5,1.3-6.9c0.8-11.1,1.5-22.2,2.4-33.3c1.5-17.7,3.9-35.3,8.1-52.7c0.4-1.5,0.9-3,1.2-4.5
		c0.3-1.7,1.9-3.4,1.1-5c-0.8-1.7-3-1.5-4.6-2c-4.2-1.4-7.7-3.7-10.4-7.3c-0.7-0.9-1.3-2-1.7-3c-0.7-1.6,0.2-3.2,1.9-3.5
		c3.9-0.6,7.8-0.7,11.6,0.6c2,0.7,4.1,1.5,5.9,2.6c2.1,1.3,3.6,1.6,5.6-0.3c3.6-3.2,8.2-4.6,12.9-5.2c6.2-0.8,12.5-0.5,18.7,0.3
		c7.2,0.9,13,4.4,17.4,9.9c4.8,6.1,10.8,10.1,17.8,12.8c1.1,0.4,2.2,0.9,3.2,1.5c2,1.2,3.1,2.9,3,5.3c-0.1,1.6-0.1,3.1-0.3,4.7
		c-0.4,3.2-2,5.5-5.5,5.8c-1.7,0.2-3,0.6-3.6,2.4c-0.8,2.4-2.8,3.1-5.1,3.2c-1.2,0.1-2.4,0.1-3.5-0.2c-6.4-1.8-12.8,0-19.2-0.1
		c-1.2,0-1.7,0.8-1.7,1.9c0,1.2,0,2.3,0,3.5c0.4,11.5,0.7,23.1,1.2,34.6c0.5,11.1,1.7,22.2,3,33.3c1,8.4,1.4,16.7-0.3,25.1
		c-0.9,4.5-2.2,8.7-4.8,12.5c-1.1,1.5-1.3,3-0.9,4.9c2,8.8-0.5,16.2-7.5,22c-1.4,1.2-2.5,2.1-2.6,4.2c-0.3,7.3-4,12.9-9.7,17.3
		c-0.2,0.1-0.3,0.2-0.5,0.3c-2,1.6-2.1,1.6-1.3,3.8c0.6,1.7,1.1,3.3,1.2,5.1c0.4,5.6-1.4,10.4-5.3,14.4c-2,2.1-3,4.1-3.2,7.1
		c-0.5,9.4-9.3,14.5-18.9,10.5c-2.7-1.1-4.3-3.4-4.6-6.3c-0.5-3.7-0.2-7.4,1.4-10.9c0.6-1.4,0.6-2.6-0.7-3.6c-2.3-1.9-3-4.9-4.7-7.9
		c-3.3,4.9-7.2,8.7-11.9,11.6c-0.7,0.4-1,1.2-0.6,2.1c0.1,0.2,0.1,0.4,0.2,0.6c2.1,7.9-0.1,13.7-6.8,18.1
		c-7.4,4.8-15.4,0.8-16.3-7.9c-0.3-3.2,0.5-6.2,1.5-9.2c0.4-1.1,0.9-2.2,1.4-3.2c0.6-1.2,0.5-2.2-0.5-3.2c-0.7-0.7-1.4-1.4-2-2.1
		c-2.3-2.7-3.5-5.6-2.3-9.2C242.2,376.8,242.5,375.7,241.8,374.1z"/>
	<path class="st33" d="M324.8,149.5c1.9,0.1,4.6,0.4,6.8,2.3c1,0.8,2,1,3.2,0.4c0.9-0.4,1.8-0.8,2.7-1c5.3-1.1,10,1.1,11.8,6.2
		c0.9,2.6,2.2,3.9,4.7,4.4c0.7,0.1,1.5,0.6,2.1,1c4.3,2.5,5.4,7.5,2.5,11.6c-2.5,3.4-8.3,6.2-13,4.2c-1.4-0.6-2.9-1.2-4.2-2
		c-3.5-2-3.5-2-6.9,0.6c-2.2,1.7-4.5,3-7.2,3.9c-4.5,1.5-8.5,0.8-11.7-2.8c-0.7-0.7-1.3-1.4-1.9-2.3c-0.8-1.3-2-1.8-3.3-2.2
		c-1.3-0.3-2.7-0.6-3.9-1.2c-5.1-2.5-6.2-8.6-2.4-12.8c1.2-1.3,2.6-2.4,4.3-3c2.3-0.7,4.2-1.8,5.9-3.6
		C316.8,150.4,320.2,149.4,324.8,149.5z"/>
	<path class="st31" d="M183.2,321.1c-3.5-0.5-6.6,0.5-9.3,2.7c-3.4,2.8-5.4,9-1.9,13.1c0.6,0.7,1.3,1.5,1.7,2.4
		c0.4,0.7,0.1,1.5-0.5,2.1c-0.6,0.6-1.4,0.9-2.1,0.4c-3.1-1.8-4.7-4.6-5.2-8.1c-0.7-4.8,0.7-9,4.2-12.3c4.2-3.9,9.2-5.9,15-4
		c0.6,0.2,1.2,0.4,1.6,0.7c0.6,0.5,1,1.3,0.6,2.1c-0.2,0.4-0.8,0.9-1.2,1c-0.5,0.2-1.1,0-1.7,0C184,321.2,183.6,321.1,183.2,321.1z"
		/>
	<path class="st31" d="M232,297.5c5.5-0.3,9.9,4,11.2,8.6c0.3,1-0.1,1.9-1,2.5c-1.1,0.6-1.9,0.1-2.6-0.6c-0.7-0.9-1.1-2-1.8-3
		c-2.1-2.8-4.9-3.7-8.3-2.6c-2.9,0.9-5.1,2.8-6.8,5.3c-1,1.5-1.8,3-2.8,4.5c-0.6,0.9-1.6,1.2-2.6,0.7c-0.7-0.4-1-1.2-0.8-2
		C218.2,303.8,225.4,297.6,232,297.5z"/>
	<path class="st31" d="M196.7,352c0.1-1.9,0-3.1,0.9-4c0.4-0.4,1-0.7,1.5-0.7c0.5,0,1,0.5,1.4,0.9c0.9,1.2,0.5,2.6,0.6,4
		c0.1,1.8,0.5,3.5,1.5,5c2,3,5.2,3.5,8,1.2c1.2-1,2.2-2.2,3.3-3.3c0.8-0.7,1.7-0.9,2.6-0.2c0.9,0.7,1.2,1.6,0.6,2.6
		c-0.7,1.1-1.5,2.3-2.5,3.2c-6.3,6.5-14.3,3.2-16.8-3.7C197.1,355.2,196.6,353.3,196.7,352z"/>
	<path class="st31" d="M300.9,346.2c0-1.2-0.1-2.3,0-3.5c0-0.5,0.3-1.1,1-1.3c0.9-0.2,1.7,0.1,2,0.7c2.1,4.3,2.3,8.7-0.1,12.9
		c-2.4,4.1-6.3,5.6-10.9,5.4c-1.5-0.1-3.1-0.5-4.6-0.8c-1.8-0.4-2.7-1.5-2.6-2.7c0.1-1.2,1.4-2,3.2-1.7c1,0.1,1.9,0.4,2.9,0.6
		c4.8,1.1,10.1-1.4,9.4-8.5c0-0.4-0.1-0.8-0.1-1.2C301,346.2,300.9,346.2,300.9,346.2z"/>
	<path class="st31" d="M258.3,369.1c-1.9,0-3.9-0.8-5.4-2.5c-2.5-2.7-3.3-6-3.3-9.6c0-0.2,0.1-0.4,0.2-0.6c0.3-0.8,0.8-1.3,1.6-1.4
		c0.8-0.1,1.6,0.3,1.8,1.1c0.5,1.7,0.6,3.4,1.2,5.1c1.3,3.6,4.2,4.5,7.4,2.3c1.5-1,2.5-2.4,3.5-3.9c0.7-0.9,1.3-1.9,2.1-2.8
		c0.6-0.6,1.5-0.6,2.2-0.2c0.7,0.4,1.1,1.1,1,1.9C269.5,363,264.3,368.9,258.3,369.1z"/>
	<path class="st31" d="M150.8,362.2c0.4-3.9,1.7-7.5,4.6-10.4c0.4-0.4,0.9-0.8,1.4-1c0.7-0.4,1.5-0.3,2.2,0.2
		c0.7,0.6,0.9,1.4,0.4,2.1c-0.6,1-1.5,1.8-2.1,2.8c-1.4,2-2.1,4.2-2.1,6.6c0,3,1.2,5.3,3.9,6.8c1.5,0.9,3.2,1.5,4.7,2.4
		c0.7,0.4,1,1.2,0.7,2c-0.2,0.8-0.9,1.3-1.7,1.4c-2.3,0.3-4.2-0.9-6-2C152.8,370.6,151,366.9,150.8,362.2z"/>
	<path class="st31" d="M254.5,329.1c-0.1,0.7-0.3,1.4-0.5,2.2c-0.3,0.8-0.9,1.3-1.7,1.3c-0.8,0-1.6-0.4-1.8-1.2
		c-0.3-1.5-0.4-3.1-0.8-4.6c-1.1-4.9-4.9-6.6-9.3-4.4c-2.3,1.2-3.8,3.3-5.8,4.9c-0.7,0.6-1.4,0.5-2.1,0c-0.7-0.6-1-1.4-0.6-2.1
		c2.4-4.3,5.9-7.2,11-7.8c5.7-0.6,9.9,2.5,11.1,8.1C254.3,326.6,254.3,327.8,254.5,329.1z"/>
	<path class="st31" d="M331,267.7c-0.1,4.1-3.7,8.2-8,8.9c-1.3,0.2-2.6-0.4-2.9-1.4c-0.3-1.1,0.4-1.9,1.2-2.4c0.7-0.4,1.4-0.7,2.1-1
		c2-1.1,3.4-2.7,3.1-5.2c-0.4-2.8-2.6-5-5.5-5.4c-1.2-0.2-2.3,0-3.5-0.2c-0.4-0.1-1-0.7-1.1-1.1c-0.3-0.8,0-1.6,0.8-2
		c1.1-0.4,2.2-0.9,3.3-0.9C326.4,257.2,330.7,261.8,331,267.7z"/>
	<path class="st31" d="M294.3,291.9c-5-0.4-7.8,2.4-7.6,7.6c0.1,1.8,1.1,3.3,1.5,5c0.3,1,0.1,2-1,2.4c-1,0.4-1.9,0.1-2.6-0.7
		c-4.4-4.9-2.8-16.3,5.9-18.5c2.4-0.6,4.6,0,6.8,1c0.7,0.3,1.2,1,1.1,1.9c-0.2,1.2-1.1,1.5-2.1,1.5C295.6,292.1,295,292,294.3,291.9
		z"/>
	<path class="st31" d="M325.7,322.7c-0.1,7.1-4.9,10.5-11.2,10.7c-0.9,0-1.8-0.7-1.8-1.9c0-0.9,0.4-1.6,1.1-1.9
		c1.2-0.5,2.6-0.8,3.8-1.3c3.9-1.6,5-5.7,2.5-9c-1.1-1.4-2.5-2.4-4.1-3.2c-0.9-0.5-1.4-1.4-1-2.4c0.4-1.1,1.4-1.2,2.4-1
		C321.9,313.6,325.7,318.3,325.7,322.7z"/>
	<path class="st31" d="M296.4,226.3c-0.1-6.4,4.6-12,10.5-12.9c1.1-0.2,1.9,0.3,2.2,1.4c0.2,0.8-0.1,1.6-0.8,2
		c-1.2,0.7-2.5,1.1-3.6,1.9c-4,2.6-4.9,7.2-2.3,11.2c0.8,1.1,1.7,2.1,2.4,3.3c0.2,0.4,0,1.1-0.2,1.6c-0.4,0.8-1.2,0.9-2,0.9
		c-0.4,0-0.8-0.2-1.1-0.4C298.3,232.8,296.8,229.6,296.4,226.3z"/>
	<path class="st31" d="M299.3,243.1c0.4,0.3,1.1,0.5,1.3,0.9c0.3,0.4,0.4,1.2,0.1,1.6c-0.5,0.8-1.3,1.4-1.9,2.2
		c-1.2,1.3-2.1,2.8-2.4,4.6c-0.5,2.5,0.1,4.7,2.3,6.2c1.3,0.9,2.7,1.6,3.9,2.6c0.8,0.6,1.1,1.6,0.6,2.6c-0.5,1-1.6,1.3-2.5,0.9
		c-3.1-1.3-6-2.9-7.6-6c-2.6-5-0.1-12.5,5.1-15.1C298.4,243.3,298.8,243.2,299.3,243.1z"/>
	<path class="st4" d="M340.5,188.3c-1.5,0-3-1.6-2.9-3.1c0.1-1.7,1.8-3.3,3.5-3.3c1.2,0,2.7,1.3,2.9,2.5
		C344.3,186.2,342.4,188.3,340.5,188.3z"/>
	<path d="M370.2,188.3c1,0,2,1,1.8,1.9c-0.2,1-0.8,1.8-1.9,1.7c-1.2-0.1-1.7-0.8-1.8-1.9C368.1,189.1,369.2,188.2,370.2,188.3z"/>
	<path d="M343.3,182.5c1.3,0.1,2.3,1.3,2.3,2.8c-0.1,1.2-1.1,2.2-2.3,2.1c-1.4-0.1-2.4-1.3-2.3-2.8
		C341.1,183.4,342.2,182.4,343.3,182.5z"/>
</g>
</svg>
