<?xml version="1.0" encoding="utf-8"?>
<!-- Generator: Adobe Illustrator 25.1.0, SVG Export Plug-In . SVG Version: 6.00 Build 0)  -->
<svg version="1.1" id="Calque_1" xmlns="http://www.w3.org/2000/svg" xmlns:xlink="http://www.w3.org/1999/xlink" x="0px" y="0px"
	 viewBox="0 0 607.6 462.5" style="enable-background:new 0 0 607.6 462.5;" xml:space="preserve">
<style type="text/css">
	.st0{fill:#E5BE9E;}
	.st1{fill:#19935C;}
	.st2{fill:#004C26;}
	.st3{fill:#006836;}
	.st4{fill:#FFFFFF;}
	.st5{fill:#B25E26;}
	.st6{fill:#D3803C;}
	.st7{fill:#662704;}
	.st8{fill:#A0A0A0;}
	.st9{fill:#7C7C7C;}
	.st10{fill:#D8D8D8;}
	.st11{fill:#FFAF2E;}
	.st12{fill:#E27600;}
	.st13{fill:#FF6695;}
	.st14{fill:#FFEB76;}
	.st15{fill:#FFCF48;}
	.st16{fill:#6D6D6D;}
	.st17{fill:#C6C6C6;}
	.st18{fill:#CCCCCC;}
	.st19{fill:#F987B6;}
	.st20{fill:#CE3A6F;}
	.st21{fill:#CECECE;}
	.st22{fill:#565656;}
	.st23{fill:#F77CA9;}
	.st24{fill:#723100;}
	.st25{fill:#E8D09C;}
	.st26{fill:#6B5738;}
	.st27{fill:#69C498;}
	.st28{fill:#FF8B2C;}
	.st29{fill:#B2B2B2;}
	.st30{fill:#848484;}
	.st31{fill:#726359;}
	.st32{fill:#CABAAB;}
	.st33{fill:#E8E2DD;}
	.st34{fill:#D3BD90;}
	.st35{fill:#EAAD8B;}
	.st36{fill:#CEB78A;}
	.st37{fill:#EAE4DC;}
	.st38{fill:#7F7870;}
	.st39{fill:#84AFD3;}
	.st40{fill:#5F94B7;}
	.st41{fill:#D37E02;}
</style>
<g>
	<path class="st0" d="M279.3,417.9c-31.8-19-56.9-44.9-75.3-77.7c-18.5-32.8-27.7-69.3-27.7-109.3c0-39.6,9.2-75.7,27.7-108.3
		c18.4-32.6,43.6-58.4,75.3-77.4C311,26.3,346,16.8,384.2,16.8c38.6,0,73.8,9.4,105.5,28.1c31.8,18.7,57,44.5,75.6,77.4
		s28,69.1,28,108.6c0,40-9.3,76.4-28,109.3s-43.9,58.7-75.6,77.7c-31.8,18.9-66.9,28.4-105.5,28.4C346,446.4,311,436.9,279.3,417.9z
		 M463.6,373.1c23.9-14.3,42.7-34.1,56.3-59.4c13.7-25.3,20.5-52.8,20.5-82.8c0-29.9-6.8-57.3-20.5-82.1
		c-13.7-24.8-32.5-44.4-56.3-58.7c-23.9-14.3-50.1-21.5-78.8-21.5c-29,0-55.3,7.2-78.7,21.5s-42,33.9-55.7,58.7
		c-13.7,24.9-20.5,52.2-20.5,82.1c0,29.9,6.8,57.5,20.5,82.8c13.7,25.3,32.3,45.1,55.7,59.4s49.7,21.5,78.7,21.5
		C413.5,394.5,439.7,387.4,463.6,373.1z"/>
</g>
<g>
	<path class="st8" d="M432.7,334c3.5,1.2,6.2,1.4,8.8,1.7c3.2,0.4,6.3,0.9,9.5,1.5c0.7,0.1,1.3,0.7,1.5,1.5c0.1,0.9-0.4,1.5-1,1.9
		c-2.2,1.5-4.7,2.2-7.2,3.2c-2,0.8-4.3,1.1-6.6,2.7c3.3,0.5,6.1,0.9,8.8,1.5c0.9,0.2,1.8,0.6,2.6,1c0.9,0.4,1,1.9,0.2,2.3
		c-1,0.6-2,1.1-3,1.5c-11.3,4.3-22.7,8.1-34.8,9.5c-17.2,2.1-34.5,3.4-51.9,2.2c-4.1-0.3-8.3-0.4-12.4-0.5
		c-16.4-0.5-32.7-2-48.6-6.6c-36-10.6-61.9-32.6-76.4-67.5c-10.3-24.8-13.8-50.7-10.9-77.5c0.9-8.5,2.6-16.8,5-24.9
		c2.1-6.8,4.3-13.6,6.6-20.4c1.9-5.7,4.6-11.1,7.9-16.2c0.5-0.8,1.1-1.6,1.7-2.3c1-1.2,2.3-1.4,3.4-0.2c1.8,1.9,3.7,3.8,5.1,6
		c2,3.3,4.4,4.1,8,3.3c5.5-1.2,11.1-1.8,16.8-2.4c10-1.1,19.9-0.3,29.9,1c5.4,0.7,10.8,1.5,16.2,2.4c1.5,0.2,2.6-0.2,3.4-1.4
		c1.6-2.3,3.2-4.7,4.8-7c1-1.4,2-2.7,3.3-3.9c2.2-2,4.6-1.9,6.3,0.5c1.3,1.8,2.4,3.8,3.4,5.8c5.3,10.7,8.9,22,12,33.4
		c2.9,10.9,4.9,22.1,6.7,33.2c1.5,9.1,3.3,18.1,5.7,27.1c2.7,10.2,6.7,20,11.5,29.4c6.3,12.2,14.8,22.6,25,31.8
		c9.4,8.4,20.3,12.7,32.9,13c6,0.2,12.1,0.2,18.1-0.3c1.8-0.1,4.1-0.7,4.8,1.6c0.6,1.8-1,3.1-2.3,4.2c-2.9,2.5-6.3,4.1-9.8,5.6
		C436.5,332.5,435.1,333.1,432.7,334z"/>
	<path class="st9" d="M379.7,322.1c-6.5,0.1-12.8-1.2-18.7-3.8c-2.1-0.9-3.4-0.6-5,0.9c-3.8,3.9-8.4,4.5-13.6,3.3
		c-6.5-1.6-11.8-5.2-16-10.2c-3.3-3.9-7.1-6.2-11.8-8c-12.9-5.3-21-15.3-24.6-28.5c-2.2-8.1-1.6-16.5,1.3-24.5
		c2.4-6.5,6-12.2,10.8-17.1c7.7-7.8,17-10.1,27.5-7.7c5.6,1.3,10.7,3.8,15.6,6.6c7.2,4.2,13.8,9.2,19.6,15.2
		c5.3,5.4,10.5,10.9,15.6,16.4c6,6.5,12.3,12.7,18.9,18.7c8,7.2,16.9,13.3,26.4,18.3c1.4,0.7,3.6,1,3.5,3.2
		c-0.1,1.7-1.9,2.1-3.2,2.9c-11.6,6.5-23.7,11.4-36.9,13.7C386.1,321.9,382.9,322,379.7,322.1z"/>
	<path class="st9" d="M306.6,209c0,9.5-4.8,16.1-13.8,19.1c-5.4,1.8-10.7,2-16-0.1c-2.3-0.9-4.3-2.2-6.1-3.9
		c-9.5-9.3-7.1-27.5,4.4-34.2C285.9,183.4,306.1,188.7,306.6,209z"/>
	<path class="st9" d="M209.4,217.9c0.6-8.4,1.7-16.9,4.2-25.3c1.3-4.4,2.4-5.1,6.8-5.3c4.4-0.2,8.6,0.7,12.5,2.8
		c3.8,2.1,6.5,5.2,7.7,9.3c4.5,16.3-6.4,27.7-21.3,27.3c-2-0.1-4.1-0.5-6.1-1c-2.9-0.7-3.5-1.6-3.7-4.8
		C209.4,220.1,209.4,219.1,209.4,217.9z"/>
	<path class="st9" d="M263,375.5c-3-0.8-5.5-0.2-8,0.7c-1.4,0.5-2.8,1-4.3,1.2c-1,0.2-1.8-0.3-2.4-1.2c-0.6-0.9-0.3-1.8,0.2-2.6
		c1-1.7,2.6-2.7,4.3-3.5c2.1-1,4.2-1.5,6.5-1.8c1.7-0.2,3.4,0,5.1-1c1.4-4.4,1.7-9.1,2.6-13.7c0.5-2.8,0.9-5.6,1.4-8.3
		c0.2-1.3,1.4-1.9,2.5-1.5c1.1,0.4,2.1,0.8,3.1,1.4c1.5,0.8,2.2,2,2,3.7c-0.2,1.3-0.4,2.6-0.6,3.9c-0.8,4.4-1.6,8.9-2.3,13.3
		c-0.5,3.3-0.5,3.3,2.4,4.8c2,1,4,2.1,5.6,3.7c1,0.9,1.7,2,1.9,3.4c0.3,2.1-1.4,3.7-3.5,3.1c-0.7-0.2-1.4-0.6-2-1
		c-0.8-0.5-1.5-1.2-2.3-1.6c-4.5-2.6-4.8-2.4-6.6,1.9c-0.7,1.5-1.5,3-2.4,4.4c-0.5,0.8-1.5,1.1-2.5,0.8c-1.1-0.3-1.5-1.3-1.4-2.2
		C262.4,380.8,262.7,378.4,263,375.5z"/>
	<path class="st16" d="M252.9,211.9c0.7,0.4,1.5,0.6,2,1.1c3.1,3,6.1,6.1,9,9.2c0.9,0.9,0.9,2,0.6,3.1c-0.2,0.5-0.4,1.1-0.7,1.5
		c-2.7,4.7-5.4,9.4-8.2,14c-1.3,2.2-2.8,2.3-4.6,0.6c-4.4-4.2-7.8-9-10.8-14.3c-0.8-1.4-0.9-2.9,0.2-4.2c3.3-3.6,6.6-7.1,10.4-10.2
		C251.4,212.4,252.2,212.2,252.9,211.9z"/>
	<path class="st9" d="M312.3,363.9c-0.1,0.6-0.1,1.1-0.1,1.7c0,1.9-1.2,3.8-0.3,5.5c1,1.8,3.3,1.4,5,2c2.3,0.8,4.5,1.8,6.1,3.9
		c1.3,1.7,2,3.6,1.5,5.8c-0.3,1.3-1.9,2.1-3.1,1.5c-0.7-0.3-1.2-0.8-1.8-1.3c-0.9-0.7-1.6-1.6-2.6-2.1c-3.3-1.9-4.5-1.4-5.6,2.2
		c-0.4,1.3-0.7,2.5-1.2,3.7c-0.6,1.4-1.4,2.8-3.2,2.8c-1.2,0.1-2.3-1.6-2.6-3.9c-0.1-1.3,0-2.6-0.1-3.9c-0.1-1.8-0.7-2.3-2.4-2.1
		c-1.7,0.1-3.3,0.8-4.8,1.5c-1,0.5-2,1-3.1,1.4c-0.8,0.3-1.5,0.1-2.1-0.5c-0.8-0.7-0.9-1.6-0.5-2.6c1-2.6,3-4.3,5.5-5.4
		c1.4-0.6,2.8-1,4.3-1.3c1.3-0.3,2-0.9,2.2-2.2c0.3-2,0.6-4.1,0.9-6.1c0.2-1.7,0.3-3.4,0.6-5c0.3-1.7,1.3-2.2,2.8-1.9
		c0.5,0.1,1.1,0.3,1.6,0.5c2.8,1,3.2,1.6,3,4.5C312.4,363.1,312.4,363.5,312.3,363.9z"/>
	<path class="st10" d="M296.5,333.7c-0.4-0.1-0.8-0.1-1.1-0.3c-1.7-1.5-3.3-3-5-4.5c-0.5-0.5-0.3-1,0.1-1.5c0.4-0.5,1-0.5,1.5-0.2
		c2,1.4,4,2.8,5.4,4.9c0.2,0.3,0.1,0.8,0,1.1C297.3,333.4,296.8,333.5,296.5,333.7z"/>
	<path class="st10" d="M250.5,315.5c0.4,0,0.8-0.1,1.1,0.1c2,1.7,3.6,3.7,4.7,6.1c0.1,0.2-0.2,0.7-0.4,0.9c-0.2,0.2-0.8,0.4-1,0.3
		c-2.2-1.7-4.1-3.7-4.8-6.5C250,316.1,250.3,315.8,250.5,315.5z"/>
	<path class="st10" d="M281,336.5c2.1,0.9,4.1,2.1,5.5,4.2c0.1,0.2-0.4,1.2-0.7,1.3c-1.6,0.2-5.3-2.5-6.1-4.3
		c-0.1-0.1-0.1-0.4,0-0.5C280,337,280.4,336.9,281,336.5z"/>
	<path class="st10" d="M276.5,318.9c0,0.3-0.9,1-1.2,0.8c-2.1-1-3.5-2.7-4.2-4.9c-0.1-0.2,0.2-0.7,0.4-0.9c0.1-0.1,0.3-0.2,0.5-0.2
		C273.5,314.1,276.3,317.3,276.5,318.9z"/>
	<path class="st10" d="M235.4,258.7c-0.3,0.5-0.4,1-0.7,1.1c-0.3,0.1-0.9,0.1-1-0.1c-1.7-1.8-2.3-4.2-2.7-6.5c0-0.3,0.3-0.7,0.5-0.9
		c0.3-0.1,0.8-0.1,1,0.1C234.4,254.2,234.9,256.6,235.4,258.7z"/>
	<path class="st10" d="M255.8,301.3c-0.1,0.1-0.2,0.4-0.4,0.4c-0.3,0.1-0.8,0.3-1,0.1c-1.8-1.4-2.7-3.4-3.3-5.5
		c-0.1-0.3,0.2-0.8,0.4-0.9c0.5-0.4,1-0.3,1.4,0.1c1.2,1.4,2.1,3,2.8,4.7C255.9,300.6,255.8,301,255.8,301.3z"/>
	<path class="st10" d="M251.1,276.6c-0.4,0.5-0.6,0.9-0.9,1c-0.3,0.1-0.8,0.1-1-0.1c-1.6-1.6-2.7-3.5-3.2-5.6
		c-0.1-0.2,0.2-0.7,0.5-0.9c0.2-0.2,0.8-0.3,1-0.2C249.3,272.4,250.2,274.6,251.1,276.6z"/>
	<path class="st10" d="M230.2,281.4c0.2,0,0.4,0,0.5,0.1c1.9,1.6,3,3.6,3.3,6c0,0.3-0.2,0.7-0.5,0.9c-0.2,0.1-0.8,0.1-1-0.1
		c-1.8-1.7-2.9-3.7-3.1-6.2C229.5,281.9,230,281.7,230.2,281.4z"/>
	<path class="st10" d="M271.4,289.9c-0.1,0.1-0.2,0.3-0.4,0.4c-0.3,0.1-0.8,0.3-1,0.2c-1.7-1-2.5-2.7-2.7-4.6
		c-0.1-0.5,0.4-1.2,1.1-0.9C269.9,285.5,271.4,288.1,271.4,289.9z"/>
	<path class="st4" d="M272.1,209.2c0.1-4.1,3.4-7.4,7.3-7.4c4.4,0,7.8,3.7,7.6,8.3c-0.2,3.7-3.7,6.9-7.5,6.8
		C275.3,216.9,272,213.4,272.1,209.2z"/>
	<path class="st10" d="M364.7,301.9c-1.5,1-3.1,2-4.7,3c-5.6,3.5-11.4,3.5-17.2,0.5c-5.9-3.1-10.2-7.7-12.6-14
		c-0.3-0.9-0.7-1.8-0.9-2.7c-0.3-1.4-1.2-1.8-2.4-1.9c-0.9-0.1-1.9-0.1-2.8-0.3c-10.7-1.6-17.6-8.3-19.7-18.9
		c-0.3-1.7-0.6-3.3-0.8-5c-0.2-2.1,0-4.2,1.2-6c0.3-0.5,0.8-0.8,1.4-0.4c0.3,0.2,0.7,0.5,0.6,0.8c0,0.9-0.2,1.9-0.3,2.8
		c-0.3,4.2,0.5,8.3,2.2,12.1c3.2,7.2,8.8,11.1,16.7,11.7c0.9,0.1,1.9,0.1,2.8,0.1c2,0,3.1,1,3.6,2.9c0.3,1.1,0.5,2.2,0.9,3.3
		c2.2,5.9,6.2,10.3,11.9,13c4.5,2.2,9.1,2.1,13.5-0.6c1.4-0.9,2.9-1.8,4.2-2.8c1.8-1.4,3.3-1.2,5.1,0.2c6.9,5.5,14.8,7.1,23.4,5.9
		c3.4-0.5,6.7-1,9.9-2.1c0.7-0.2,1.4-0.5,2.2-0.6c1-0.2,1.9,0,2.3,1.1c0.3,1-0.5,1.4-1.2,1.6c-3.1,0.9-6.1,2.1-9.2,2.6
		c-7.7,1.2-15.4,1.5-22.7-2C369.6,304.9,367.3,303.4,364.7,301.9z"/>
	<path class="st4" d="M219.2,215.4c-4.3,0-7.8-3.5-7.7-7.9c0.1-5.2,4.2-7.2,7.8-7.2c4.4,0,8,3.7,7.9,7.8
		C227.1,212,223.4,215.4,219.2,215.4z"/>
	<path d="M271.5,209.5c0.1-2.6,2.2-4.7,4.6-4.7c2.8,0,4.9,2.4,4.8,5.3c-0.1,2.4-2.4,4.4-4.8,4.3
		C273.6,214.3,271.5,212.1,271.5,209.5z"/>
	<path d="M215.9,212.8c-2.7,0-4.9-2.2-4.9-5c0-3.3,2.7-4.6,5-4.6c2.8,0,5.1,2.3,5,5C220.9,210.7,218.6,212.8,215.9,212.8z"/>
	<path class="st10" d="M382.7,290.9c-10.2-0.1-18.9-3.1-26.1-9.9c-3.3-3.2-6.1-6.8-7.3-11.2c-0.7-2.7-2.2-3.5-4.8-3.5
		c-1.9,0-3.8-0.4-5.6-0.9c-8.8-2.5-16.7-12.9-16.7-22c0-0.5,0.2-1.1,0.3-1.6c0.1-0.5,0.4-0.7,0.8-0.6c0.3,0.1,0.9,0.2,0.9,0.4
		c0.3,0.9,0.5,1.8,0.7,2.7c0.7,3.7,2.1,7.2,4.4,10.3c4.1,5.4,9.4,8.6,16.3,8.8c0.8,0,1.5,0,2.3,0c2.4,0.2,3.1,0.5,3.6,2.7
		c1.4,6.7,5.2,11.6,10.6,15.5c6.1,4.5,13.1,6.4,20.7,6.5c1.9,0,3.7,0,5.6,0.2c0.4,0,1,0.6,0.7,1.3c-0.1,0.3-0.3,0.7-0.6,0.8
		C386.5,291,384.4,290.7,382.7,290.9z"/>
</g>
</svg>
