<?xml version="1.0" encoding="utf-8"?>
<!-- Generator: Adobe Illustrator 25.1.0, SVG Export Plug-In . SVG Version: 6.00 Build 0)  -->
<svg version="1.1" id="Calque_1" xmlns="http://www.w3.org/2000/svg" xmlns:xlink="http://www.w3.org/1999/xlink" x="0px" y="0px"
	 viewBox="0 0 607.6 462.5" style="enable-background:new 0 0 607.6 462.5;" xml:space="preserve">
<style type="text/css">
	.st0{fill:#E5BE9E;}
	.st1{fill:#19935C;}
	.st2{fill:#004C26;}
	.st3{fill:#006836;}
	.st4{fill:#FFFFFF;}
	.st5{fill:#B25E26;}
	.st6{fill:#D3803C;}
	.st7{fill:#662704;}
	.st8{fill:#A0A0A0;}
	.st9{fill:#7C7C7C;}
	.st10{fill:#D8D8D8;}
	.st11{fill:#FFAF2E;}
	.st12{fill:#E27600;}
	.st13{fill:#FF6695;}
	.st14{fill:#FFEB76;}
	.st15{fill:#FFCF48;}
	.st16{fill:#6D6D6D;}
	.st17{fill:#C6C6C6;}
	.st18{fill:#CCCCCC;}
	.st19{fill:#F987B6;}
	.st20{fill:#CE3A6F;}
	.st21{fill:#CECECE;}
	.st22{fill:#565656;}
	.st23{fill:#F77CA9;}
	.st24{fill:#723100;}
	.st25{fill:#E8D09C;}
	.st26{fill:#6B5738;}
	.st27{fill:#69C498;}
	.st28{fill:#FF8B2C;}
	.st29{fill:#B2B2B2;}
	.st30{fill:#848484;}
	.st31{fill:#726359;}
	.st32{fill:#CABAAB;}
	.st33{fill:#E8E2DD;}
	.st34{fill:#D3BD90;}
	.st35{fill:#EAAD8B;}
	.st36{fill:#CEB78A;}
	.st37{fill:#EAE4DC;}
	.st38{fill:#7F7870;}
	.st39{fill:#84AFD3;}
	.st40{fill:#5F94B7;}
	.st41{fill:#D37E02;}
</style>
<g>
	<path class="st0" d="M311.8,16.8h54.7c10.9,0,20.7,0.1,29,0.3c8.4,0.2,16.3,0.6,23.8,1c33.4,2.6,62.5,10.6,87.4,23.8
		C531.5,55.1,551,72.7,565,94.8c14.1,22,21.1,48.2,21.1,78.6c0,30.8-7.8,58.3-23.5,82.3c-15.6,24-37.6,42.8-65.9,56.5
		c-28.4,13.7-61.5,20.5-99.3,20.5h-29.7v113.7h-56V16.8z M397.5,279.2c24.2,0,46.4-4.5,66.6-13.6c20.2-9,36.2-21.4,47.8-37
		c11.6-15.6,17.5-34.3,17.5-55.8c0-22.9-5.7-42.1-17.2-57.5c-11.4-15.4-26.8-26.9-46.2-34.4c-19.3-7.5-41.1-11.2-65.3-11.2h-33
		v209.5H397.5z"/>
</g>
<g>
	<path class="st11" d="M179.9,430.5c-3.7,1.7-7.6,2.7-11.7,2.1c-2.3-0.4-3.2-2.8-1.7-4.6c0.7-0.8,1.5-1.7,2.4-2.3
		c1.8-1.3,3.7-2.6,5.7-3.5c5.3-2.4,10.7-4.7,16.1-6.8c2.5-1,5.1-1.2,7.9-0.4c6.4,2,12.9,3.9,19.5,4.7c0.6,0.1,1.3,0.3,1.9,0.7
		c0.8,0.5,1.1,1.4,0.7,2.3c-0.3,0.6-0.6,1.2-1,1.7c-5.8,6.5-12.1,12.6-19.2,17.8c-1.4,1-3,1.9-4.7,2.5c-2.4,0.8-3.8-0.2-4.8-3
		c-0.2-0.6-0.4-1.2-0.6-1.9c-2.2,0.8-4.3,1.6-6.5,2.1c-1.3,0.3-2.7,0.2-4,0.1c-2.2-0.2-3.6-2.3-2.7-4.4c0.7-1.6,1.7-3.1,2.6-4.7
		C180.3,432.1,180.1,431.3,179.9,430.5C179.9,430.4,179.9,431.1,179.9,430.5z"/>
	<path class="st11" d="M315.6,431.9c-0.7,1-0.8,2-0.2,3.1c0.7,1.4,1.5,2.8,2,4.2c0.4,1.3,0.6,2.7-0.5,3.7c-1.1,1-2.5,0.9-3.8,0.6
		c-2.2-0.5-4-2-5.9-3.1c-2.2-1.4-3.9-3.5-6.8-4.5c0,2.8,1.4,5.1,1.1,7.6c-0.2,2-2.2,3.2-3.9,2.2c-0.9-0.6-1.9-1.3-2.6-2.1
		c-5.1-6-9.3-12.6-13.5-19.2c-1.2-1.9-0.4-3.5,1.9-3.9c5.5-1.2,11-2.3,16.5-3.4c3.6-0.7,7.1-0.3,10.5,1.4c4.8,2.4,9.6,4.8,14.4,7.3
		c2.4,1.3,4.5,2.9,5.9,5.4c1.2,2.1,0.1,4.8-2.3,5.3c-1.3,0.2-2.7,0.3-4-0.1c-3.2-1-6.5-1.9-8.9-4.5c0.2,0.4-0.1,0.5-0.1,0.3
		C315.3,431.2,314.8,432.3,315.6,431.9z"/>
	<path class="st22" d="M324.2,312c0.4,2.3,0.4,3.4,0.7,4.4c3.8,14.6,6.4,29.3,8.2,44.3c1,8.5,1.2,16.9-0.5,25.4
		c-3,14.4-19.3,32.3-36.4,34.9c-16.5,2.5-33,3.4-49.6,3.3c-13-0.1-26-0.8-38.8-3.7c-7.9-1.8-15.5-4.4-22.8-8
		c-7.1-3.6-13.2-8.4-18.4-14.5c-7.7-9-11.8-19.4-12-31.4c-0.2-11.3,1.4-22.3,3.5-33.4c1-5.5,2.1-10.9,3.2-16.3
		c-1.8-0.9-2.8,0.3-3.8,0.9c-7.8,4-15.8,7.4-24.1,10.2c-2.4,0.8-4.8,1.3-7.2,1.2c-2.1-0.1-3.3-2-2.1-3.8c1.2-1.9,2.5-3.7,4-5.3
		c2.8-2.9,5.7-5.8,8.6-8.6c7.6-7.3,14.6-15.2,21-23.6c7-9.2,12.5-19.1,15.9-30.2c2.3-7.5,4.5-15,6.7-22.5
		c3.4-11.4,7.5-22.5,13.5-32.9c7-12.1,17-20.8,29.9-25.9c13.2-5.2,26.5-5.4,40-0.3c19.4,7.4,31.3,21.8,39,40.4
		c2.9,7.1,4.7,14.5,6.8,21.8c2.2,7.7,4.4,15.5,6.9,23.2c5.6,17.3,17.1,29.7,32.8,38.5c3.1,1.8,6.4,3.3,9.5,5c2,1,4,2.1,5.5,3.8
		c2.8,3.1,2.3,7.1-1.3,9.2c-4,2.3-8.5,2.8-13,2.3c-6.8-0.7-13.2-2.7-19.3-5.5C328.7,314,326.9,313.2,324.2,312z"/>
	<path class="st4" d="M203.2,267.6c-1.3-1-2.3-1.9-3.3-2.7c-7-5.6-10.1-13-10-21.8c0.1-11,3.5-21.2,9.8-30.2c3.8-5.4,9-8.6,15.6-9.5
		c6.6-0.8,11.8,2,14.9,7.9c2.5,4.9,3.1,10.2,3.9,15.6c0.4,2.9,0.7,5.8,1.1,8.7c0.2,1.6,1.2,2.3,2.8,2.2c0.9,0,1.8,0,2.7-0.1
		c3.3-0.2,7.2,0.8,9.9-0.9c2.8-1.8,2.3-6,3.4-9.1c1.6-4.7,3.4-9.2,6.1-13.4c1.1-1.7,2.2-3.4,3.6-4.9c5.9-6.6,11.9-6.9,18.7-1
		c3.4,3.1,5.6,6.9,7.1,11.2c3.1,9.2,3.5,18.5,0.7,27.8c-1.2,4.1-2.7,8.1-4.2,12.1c-0.6,1.6-0.1,2.6,1.2,3.3
		c20.8,11.8,29.4,31.2,33,53.5c2.7,16.9,0.1,33.5-5.4,49.6c-1.1,3.2-2.4,6.3-4,9.2c-9.5,18.3-25,27.6-45.2,29.2
		c-16.9,1.3-33-2.5-48.3-9.5c-12.6-5.8-22-15.1-28-27.8c-8.1-17-10.4-34.6-7.2-53c2.9-16.7,9.4-31.7,20.4-44.7
		C202.7,269,202.8,268.6,203.2,267.6z"/>
	<path d="M254.4,239.4c-0.1,0.3-0.1,1.1-0.5,1.6c-2.5,3.4-4.9,6.9-7.6,10.2c-1.3,1.6-3.1,1.7-4.8,0.4c-3.7-2.9-6.6-6.7-9-10.7
		c-0.9-1.5,0-3.3,1.7-3.6c0.9-0.2,1.8-0.4,2.6-0.4c4.9-0.1,9.8-0.2,14.7-0.2C253.4,236.8,254.6,237.9,254.4,239.4z"/>
	<path class="st13" d="M214.1,243.3c0.1,3.9-3.1,7.4-6.9,7.6c-4.1,0.2-8.6-3.6-8.9-7.6c-0.3-3.7,3-7.1,7.1-7.3
		C210.2,235.9,214,239,214.1,243.3z"/>
	<path class="st13" d="M280.4,234.2c4.5,0.1,7.8,3,7.6,6.8c-0.2,4-4.2,7.6-8.1,7.4c-4.1-0.2-7-3.4-6.9-7.5
		C273,236.4,275.7,234.1,280.4,234.2z"/>
	<path class="st8" d="M217.9,222.6c0,3.2-2.6,5.6-5.9,5.4c-2.6-0.1-4.6-2.3-4.6-5.1c0-3,2.2-5.3,5.2-5.4
		C215.6,217.5,217.9,219.6,217.9,222.6z"/>
	<path d="M219.1,222.8c0,2.4-2,4.2-4.5,4.1c-2-0.1-3.5-1.8-3.5-3.9c0-2.3,1.7-4.1,3.9-4.1C217.3,218.9,219.1,220.6,219.1,222.8z"/>
	<path class="st8" d="M277.6,224.6c-0.2,2.6-2.5,4.5-5.2,4.5c-2.7-0.1-4.5-2.2-4.3-5.1c0.2-2.8,2.4-4.9,4.9-4.5
		C275.7,219.8,277.8,222.2,277.6,224.6z"/>
	<g>
		<path class="st8" d="M234.1,300.9c0,1.9,0,2.8,0,3.6c0,1.2-0.4,2.4-1.7,2.4c-0.8,0-1.4-1-1.5-1.9c-0.3-2.6-0.6-5.3,0-7.9
			c0.1-0.5,0.8-1.2,1.3-1.3c1-0.2,1.6,0.5,1.7,1.5C234,298.8,234,300.3,234.1,300.9z"/>
		<path class="st8" d="M213.8,312.7c-0.1,4.5-0.9,6.8-2.2,6.1c-2.6-1.4-1.2-3.9-1.3-6c0-1.5,0.4-3,0.8-4.5c0.1-0.3,0.7-0.6,1.1-0.6
			c0.4,0,0.9,0.3,1.1,0.6C214.1,309.7,213.8,311.3,213.8,312.7z"/>
		<path class="st8" d="M231.1,338.9c0.1,3.4-0.6,5.3-1.7,4.9c-1.9-0.7-1.6-2.4-1.7-3.9c-0.1-1.1,0-2.2,0-3.3c0-0.9,0.5-1.8,1.5-2
			c1-0.2,1.6,0.7,1.7,1.6C231,337.2,231.1,338.3,231.1,338.9z"/>
		<path class="st8" d="M210,358.6c0-0.7,0-1.3,0-2c0.1-0.9,0.3-1.8,1.3-2.1c0.9-0.3,1.8,0.7,1.9,2.2c0.1,1.1,0.1,2.2,0.1,3.4
			c0,1.3,0,2.7-1.5,3.4c-1,0.5-1.9-1.1-1.9-3.5C209.9,359.5,210,359,210,358.6C210,358.6,210,358.6,210,358.6z"/>
		<path class="st8" d="M265,349c0.5-2-0.1-4.6,2.3-6.2c0.1-0.1,0.5,0,0.6,0.1c2.3,2.4,0.4,4.9,0.1,7.3c0,0.2-0.1,0.4-0.2,0.6
			c-0.3,0.6-0.8,0.9-1.5,1c-0.9,0.1-1-0.6-1.2-1.2C264.9,350.2,265,349.8,265,349z"/>
		<path class="st8" d="M251.8,319.6c-0.2,2.1,0.1,3.9-0.8,5.5c-0.2,0.3-0.7,0.8-1,0.7c-0.6-0.2-1.4-0.6-1.5-1
			c-0.5-2.8-0.2-5.7,0.8-8.4c0.1-0.3,0.7-0.4,1.1-0.5c0.5-0.1,0.9,0.1,1,0.7C251.6,317.8,251.7,318.8,251.8,319.6z"/>
		<path class="st8" d="M265.2,292c-0.5,1.9,0.5,4.4-2,5.8c-0.1,0.1-0.5,0-0.6-0.2c-2.2-1.9-0.6-4.1-0.4-6.1c0-0.4,0.2-0.9,0.4-1.3
			c0.3-0.6,0.7-1,1.5-1c0.9,0,1,0.7,1.1,1.4C265.2,290.9,265.2,291.4,265.2,292z"/>
		<path class="st8" d="M283,311.7c-0.1,0.9-0.3,2.5-0.5,4c-0.1,0.7-0.7,1-1.3,1.2c-0.8,0.1-1.3-0.5-1.4-1.1
			c-0.3-2.4-0.1-4.8,0.6-7.1c0.2-0.6,0.8-0.9,1.5-0.8c0.8,0.1,1,0.7,1.1,1.4C283.1,309.8,283,310.4,283,311.7z"/>
		<path class="st8" d="M283,355.8c-0.2,0.9-0.4,2.5-0.7,4c-0.2,0.9-0.9,1.6-1.9,1.3c-1-0.3-1.3-1.2-1.1-2.1c0.2-1.5,0.5-3.1,0.9-4.6
			c0.2-0.9,0.9-1.6,1.9-1.3C283,353.3,283.2,354.2,283,355.8z"/>
		<path class="st8" d="M249,367.2c0,1.6,0,2.3,0,2.9c-0.1,1.1-0.1,2.2-1.4,2.8c-1,0.4-1.8-0.8-1.8-2.9c0-1.8-0.3-3.6,0.6-5.3
			c0.3-0.5,0.6-0.7,1.1-0.5c0.4,0.2,0.9,0.3,1,0.6C248.8,365.9,248.9,367,249,367.2z"/>
	</g>
	<path d="M279.3,224.1c0,2.4-2,4.2-4.5,4.1c-2-0.1-3.5-1.8-3.5-3.9c0-2.3,1.7-4.1,3.9-4.1C277.5,220.2,279.3,221.8,279.3,224.1z"/>
</g>
</svg>
