<?xml version="1.0" encoding="utf-8"?>
<!-- Generator: Adobe Illustrator 25.1.0, SVG Export Plug-In . SVG Version: 6.00 Build 0)  -->
<svg version="1.1" id="Calque_1" xmlns="http://www.w3.org/2000/svg" xmlns:xlink="http://www.w3.org/1999/xlink" x="0px" y="0px"
	 viewBox="0 0 607.6 462.5" style="enable-background:new 0 0 607.6 462.5;" xml:space="preserve">
<style type="text/css">
	.st0{fill:#E5BE9E;}
	.st1{fill:#19935C;}
	.st2{fill:#004C26;}
	.st3{fill:#006836;}
	.st4{fill:#FFFFFF;}
	.st5{fill:#B25E26;}
	.st6{fill:#D3803C;}
	.st7{fill:#662704;}
	.st8{fill:#A0A0A0;}
	.st9{fill:#7C7C7C;}
	.st10{fill:#D8D8D8;}
	.st11{fill:#FFAF2E;}
	.st12{fill:#E27600;}
	.st13{fill:#FF6695;}
	.st14{fill:#FFEB76;}
	.st15{fill:#FFCF48;}
	.st16{fill:#6D6D6D;}
	.st17{fill:#C6C6C6;}
	.st18{fill:#CCCCCC;}
	.st19{fill:#F987B6;}
	.st20{fill:#CE3A6F;}
	.st21{fill:#CECECE;}
	.st22{fill:#565656;}
	.st23{fill:#F77CA9;}
	.st24{fill:#723100;}
	.st25{fill:#E8D09C;}
	.st26{fill:#6B5738;}
	.st27{fill:#69C498;}
	.st28{fill:#FF8B2C;}
	.st29{fill:#B2B2B2;}
	.st30{fill:#848484;}
	.st31{fill:#726359;}
	.st32{fill:#CABAAB;}
	.st33{fill:#E8E2DD;}
	.st34{fill:#D3BD90;}
	.st35{fill:#EAAD8B;}
	.st36{fill:#CEB78A;}
	.st37{fill:#EAE4DC;}
	.st38{fill:#7F7870;}
	.st39{fill:#84AFD3;}
	.st40{fill:#5F94B7;}
	.st41{fill:#D37E02;}
</style>
<g>
	<path class="st11" d="M195.2,414.6c-5.6,2.5-11.3,4.1-17.5,3.2c-3.4-0.5-4.8-4.2-2.5-6.8c1.1-1.3,2.3-2.5,3.6-3.4
		c2.8-1.9,5.5-3.9,8.5-5.3c7.9-3.6,16-7,24-10.2c3.8-1.5,7.6-1.8,11.8-0.5c9.6,3,19.2,5.8,29.3,7.1c1,0.1,2,0.5,2.8,1
		c1.2,0.8,1.7,2.1,1,3.5c-0.4,0.9-0.9,1.8-1.6,2.5c-8.8,9.8-18.1,18.9-28.7,26.6c-2.1,1.6-4.6,2.8-7,3.7c-3.6,1.3-5.7-0.3-7.2-4.5
		c-0.3-0.9-0.6-1.8-0.9-2.8c-3.3,1.1-6.4,2.4-9.7,3.2c-1.9,0.5-4,0.4-6,0.2c-3.3-0.3-5.3-3.4-4.1-6.6c1-2.5,2.5-4.7,3.9-7
		c0.8-1.3,0.6-2.5,0.1-3.8C195.1,414.5,195.2,415.5,195.2,414.6z"/>
	<path class="st11" d="M398.3,416.7c-1.1,1.5-1.1,3.1-0.3,4.7c1,2.1,2.3,4.1,3,6.3c0.7,1.9,0.9,4-0.8,5.6c-1.7,1.5-3.7,1.3-5.7,0.8
		c-3.4-0.8-6-2.9-8.8-4.7c-3.3-2-5.8-5.3-10.1-6.7c0,4.2,2.1,7.6,1.7,11.4c-0.3,3-3.3,4.8-5.8,3.3c-1.4-0.9-2.8-1.9-3.9-3.1
		c-7.6-9-14-18.9-20.3-28.8c-1.8-2.8-0.6-5.2,2.8-5.9c8.2-1.8,16.4-3.4,24.6-5.1c5.4-1.1,10.7-0.5,15.7,2.1
		c7.2,3.7,14.4,7.1,21.5,10.9c3.5,1.9,6.8,4.4,8.8,8c1.8,3.2,0.1,7.2-3.5,7.9c-1.9,0.4-4.1,0.4-5.9-0.1c-4.8-1.5-9.7-2.9-13.3-6.7
		c0.3,0.6-0.2,0.8-0.2,0.4C397.8,415.7,397.1,417.3,398.3,416.7z"/>
	<path class="st22" d="M411.1,237.2c0.5,3.4,0.6,5,1.1,6.6c5.7,21.8,9.5,43.9,12.3,66.3c1.6,12.7,1.8,25.4-0.8,38.1
		c-4.5,21.6-28.9,48.3-54.5,52.2c-24.7,3.7-49.4,5.1-74.2,4.9c-19.5-0.2-38.9-1.2-58-5.5c-11.8-2.6-23.2-6.5-34.1-12
		c-10.7-5.3-19.8-12.6-27.5-21.6c-11.5-13.5-17.7-29-18-46.9c-0.2-16.9,2.1-33.5,5.3-50c1.6-8.2,3.2-16.3,4.8-24.4
		c-2.7-1.3-4.1,0.5-5.7,1.3c-11.7,6-23.7,11-36.1,15.2c-3.5,1.2-7.1,2-10.9,1.8c-3.1-0.1-4.9-3-3.2-5.7c1.8-2.8,3.8-5.6,6.1-8
		c4.1-4.4,8.5-8.6,12.8-12.8c11.3-11,21.9-22.7,31.5-35.3c10.5-13.7,18.7-28.6,23.9-45.1c3.5-11.2,6.8-22.5,10.1-33.7
		c5.1-17.1,11.3-33.7,20.2-49.2C226.4,55,241.3,42,260.7,34.4c19.8-7.8,39.7-8.1,59.9-0.4c29.1,11,46.9,32.6,58.3,60.4
		c4.3,10.6,7,21.7,10.2,32.6c3.4,11.6,6.6,23.2,10.3,34.7c8.4,25.9,25.7,44.4,49,57.6c4.7,2.6,9.5,4.9,14.3,7.4
		c3,1.6,5.9,3.2,8.2,5.7c4.1,4.6,3.4,10.6-2,13.7c-6,3.5-12.7,4.1-19.5,3.4c-10.1-1-19.7-4-28.9-8.2
		C417.9,240.2,415.2,239,411.1,237.2z"/>
	<path class="st4" d="M230.1,170.8c-1.9-1.6-3.4-2.8-5-4.1c-10.5-8.3-15.2-19.5-15-32.6c0.2-16.5,5.2-31.7,14.7-45.2
		c5.7-8.1,13.5-12.9,23.4-14.2c9.9-1.3,17.7,2.9,22.3,11.9c3.8,7.3,4.7,15.3,5.8,23.3c0.6,4.3,1.1,8.6,1.6,13
		c0.3,2.5,1.8,3.4,4.1,3.3c1.3,0,2.7,0,4-0.1c5-0.4,10.7,1.3,14.8-1.3c4.3-2.7,3.5-9,5.1-13.7c2.4-7,5.1-13.8,9.1-20.1
		c1.6-2.5,3.4-5,5.4-7.3c8.9-9.9,17.9-10.4,28-1.4c5.2,4.6,8.4,10.3,10.6,16.8c4.6,13.8,5.2,27.6,1.1,41.6c-1.8,6.1-4,12.1-6.2,18
		c-0.9,2.4-0.2,3.9,1.8,5c31.1,17.7,44,46.7,49.4,80c4.1,25.4,0.1,50.1-8,74.3c-1.6,4.7-3.7,9.4-6,13.8
		c-14.3,27.4-37.4,41.3-67.7,43.7c-25.3,2-49.4-3.7-72.2-14.3c-18.9-8.7-32.9-22.6-42-41.6c-12.1-25.4-15.6-51.7-10.8-79.4
		c4.4-25,14.1-47.4,30.6-66.9C229.3,172.9,229.4,172.2,230.1,170.8z"/>
	<path d="M306.7,128.6c-0.1,0.5-0.2,1.6-0.7,2.4c-3.7,5.2-7.4,10.3-11.3,15.3c-1.9,2.4-4.7,2.6-7.1,0.6c-5.6-4.4-9.9-10-13.4-16
		c-1.3-2.2,0-4.9,2.5-5.4c1.3-0.3,2.6-0.5,4-0.6c7.4-0.1,14.7-0.3,22.1-0.2C305.2,124.6,307,126.3,306.7,128.6z"/>
	<path class="st13" d="M246.4,134.5c0.2,5.8-4.6,11.1-10.4,11.4c-6.1,0.3-12.8-5.4-13.4-11.3c-0.5-5.5,4.5-10.7,10.7-11
		C240.6,123.3,246.2,127.9,246.4,134.5z"/>
	<path class="st13" d="M345.6,120.7c6.8,0.2,11.7,4.5,11.4,10.2c-0.3,5.9-6.2,11.4-12.1,11.1c-6.1-0.3-10.5-5.1-10.4-11.3
		C334.6,124.1,338.5,120.6,345.6,120.7z"/>
	<path class="st8" d="M252,103.4c0,4.7-4,8.3-8.9,8.1c-3.9-0.2-6.9-3.5-6.9-7.6c0-4.5,3.3-8,7.7-8C248.6,95.7,252.1,98.9,252,103.4z
		"/>
	<path d="M253.8,103.7c0,3.6-3,6.4-6.8,6.2c-3-0.1-5.3-2.7-5.3-5.8c0-3.5,2.5-6.1,5.9-6.1C251.2,97.9,253.8,100.3,253.8,103.7z"/>
	<path class="st8" d="M341.4,106.4c-0.3,3.8-3.7,6.8-7.8,6.7c-4-0.1-6.8-3.3-6.5-7.6c0.3-4.2,3.7-7.3,7.4-6.8
		C338.5,99.2,341.7,102.8,341.4,106.4z"/>
	<g>
		<path class="st8" d="M276.2,220.5c0,2.8,0,4.1,0,5.4c-0.1,1.7-0.6,3.5-2.5,3.5c-1.3,0-2.1-1.4-2.3-2.8c-0.5-3.9-0.9-7.9,0-11.8
			c0.2-0.8,1.2-1.7,1.9-1.9c1.5-0.4,2.4,0.8,2.6,2.2C276.1,217.4,276.2,219.7,276.2,220.5z"/>
		<path class="st8" d="M245.9,238.2c-0.1,6.8-1.4,10.2-3.3,9.1c-3.9-2.2-1.8-5.9-1.9-9c0-2.2,0.7-4.5,1.2-6.7c0.1-0.4,1-0.8,1.6-0.8
			c0.5,0,1.3,0.4,1.6,0.9C246.4,233.8,245.8,236.2,245.9,238.2z"/>
		<path class="st8" d="M271.8,277.5c0.2,5.1-1,7.9-2.6,7.3c-2.9-1-2.4-3.7-2.6-5.9c-0.1-1.7-0.1-3.3,0-5c0.1-1.4,0.7-2.7,2.2-2.9
			c1.6-0.2,2.4,1,2.6,2.4C271.7,275,271.8,276.7,271.8,277.5z"/>
		<path class="st8" d="M240.2,306.9c0-1-0.1-2,0-3c0.1-1.4,0.4-2.6,2-3.1c1.3-0.4,2.7,1.1,2.9,3.2c0.1,1.7,0.2,3.3,0.1,5
			c-0.1,2,0,4.1-2.2,5.2c-1.5,0.7-2.8-1.7-2.9-5.3C240.1,308.3,240.2,307.6,240.2,306.9C240.2,306.9,240.2,306.9,240.2,306.9z"/>
		<path class="st8" d="M322.5,292.7c0.8-2.9-0.2-6.9,3.4-9.3c0.2-0.1,0.7,0,0.9,0.2c3.4,3.6,0.6,7.3,0.2,10.9c0,0.3-0.2,0.6-0.4,0.9
			c-0.5,0.9-1.2,1.4-2.3,1.5c-1.4,0.1-1.6-1-1.8-1.8C322.4,294.5,322.5,293.8,322.5,292.7z"/>
		<path class="st8" d="M302.8,248.6c-0.4,3.2,0.1,5.9-1.2,8.3c-0.3,0.5-1.1,1.2-1.5,1.1c-0.8-0.2-2.1-0.8-2.2-1.4
			c-0.7-4.3-0.3-8.5,1.3-12.5c0.2-0.4,1-0.6,1.6-0.7c0.7-0.2,1.3,0.2,1.4,1C302.5,245.9,302.6,247.5,302.8,248.6z"/>
		<path class="st8" d="M322.9,207.2c-0.8,2.8,0.8,6.7-3.1,8.6c-0.2,0.1-0.7,0-0.9-0.2c-3.3-2.8-0.9-6.1-0.7-9.2
			c0.1-0.6,0.3-1.3,0.6-1.9c0.4-0.9,1.1-1.6,2.3-1.5c1.3,0.1,1.5,1.1,1.7,2C322.9,205.7,322.8,206.4,322.9,207.2z"/>
		<path class="st8" d="M349.5,236.7c-0.2,1.4-0.5,3.7-0.8,5.9c-0.2,1.1-1,1.6-2,1.7c-1.2,0.2-1.9-0.7-2.1-1.6
			c-0.5-3.6-0.2-7.2,0.8-10.7c0.3-1,1.2-1.4,2.3-1.2c1.2,0.2,1.6,1.1,1.7,2C349.6,233.9,349.5,234.9,349.5,236.7z"/>
		<path class="st8" d="M349.5,302.8c-0.2,1.4-0.5,3.7-1.1,5.9c-0.3,1.3-1.3,2.4-2.9,1.9c-1.5-0.5-1.9-1.8-1.7-3.2
			c0.3-2.3,0.7-4.6,1.3-6.8c0.3-1.3,1.3-2.4,2.9-1.9C349.5,299.1,349.7,300.5,349.5,302.8z"/>
		<path class="st8" d="M298.6,319.8c0,2.4,0.1,3.4,0,4.4c-0.1,1.6-0.2,3.3-2,4.2c-1.4,0.7-2.8-1.2-2.7-4.3c0-2.6-0.4-5.4,0.9-7.9
			c0.4-0.7,0.8-1.1,1.6-0.8c0.6,0.2,1.4,0.5,1.5,0.9C298.3,317.9,298.5,319.5,298.6,319.8z"/>
	</g>
	<path d="M343.9,105.6c0,3.6-3,6.4-6.8,6.2c-3-0.1-5.3-2.7-5.3-5.8c0-3.5,2.5-6.1,5.9-6.1C341.3,99.8,343.9,102.2,343.9,105.6z"/>
</g>
</svg>
