<?xml version="1.0" encoding="utf-8"?>
<!-- Generator: Adobe Illustrator 25.1.0, SVG Export Plug-In . SVG Version: 6.00 Build 0)  -->
<svg version="1.1" id="Calque_1" xmlns="http://www.w3.org/2000/svg" xmlns:xlink="http://www.w3.org/1999/xlink" x="0px" y="0px"
	 viewBox="0 0 607.6 462.5" style="enable-background:new 0 0 607.6 462.5;" xml:space="preserve">
<style type="text/css">
	.st0{fill:#E5BE9E;}
	.st1{fill:#19935C;}
	.st2{fill:#004C26;}
	.st3{fill:#006836;}
	.st4{fill:#FFFFFF;}
	.st5{fill:#B25E26;}
	.st6{fill:#D3803C;}
	.st7{fill:#662704;}
	.st8{fill:#A0A0A0;}
	.st9{fill:#7C7C7C;}
	.st10{fill:#D8D8D8;}
	.st11{fill:#FFAF2E;}
	.st12{fill:#E27600;}
	.st13{fill:#FF6695;}
	.st14{fill:#FFEB76;}
	.st15{fill:#FFCF48;}
	.st16{fill:#6D6D6D;}
	.st17{fill:#C6C6C6;}
	.st18{fill:#CCCCCC;}
	.st19{fill:#F987B6;}
	.st20{fill:#CE3A6F;}
	.st21{fill:#CECECE;}
	.st22{fill:#565656;}
	.st23{fill:#F77CA9;}
	.st24{fill:#723100;}
	.st25{fill:#E8D09C;}
	.st26{fill:#6B5738;}
	.st27{fill:#69C498;}
	.st28{fill:#FF8B2C;}
	.st29{fill:#B2B2B2;}
	.st30{fill:#848484;}
	.st31{fill:#726359;}
	.st32{fill:#CABAAB;}
	.st33{fill:#E8E2DD;}
	.st34{fill:#D3BD90;}
	.st35{fill:#EAAD8B;}
	.st36{fill:#CEB78A;}
	.st37{fill:#EAE4DC;}
	.st38{fill:#7F7870;}
	.st39{fill:#84AFD3;}
	.st40{fill:#5F94B7;}
	.st41{fill:#D37E02;}
</style>
<g>
	<path class="st0" d="M404.1,69.7H273.2V14.2h320v55.5H460.9v378.8h-56.8V69.7z"/>
</g>
<g>
	<g>
		<path class="st28" d="M357.8,376.6c0.2,3.1,0.7,6.2,0.7,9.3c-0.1,7.3-5.7,12.7-13.1,12.8c-1.9,0-3.5-0.6-4.5-2.2
			c-0.9-1.5-1.8-3-2.4-4.7c-5-13.1-9.9-26.1-14.9-39.2c-0.2-0.5-0.4-1.1-0.6-1.6c-1.4-3.5-1.4-3.5-5.1-2.4
			c-5.2,1.6-10.4,3.2-15.6,4.8c-0.9,0.3-1.9,0.5-2.8,0.9c-2.1,0.8-2.5,1.4-2.1,3.5c0.3,1.9,0.7,3.8,1.2,5.7
			c2.2,9.1,3.5,18.3,4.8,27.5c0.5,3.1,0.8,6.2,0.7,9.3c-0.2,7.1-2.7,10-9.7,11.9c-4.2,1.1-6.6,0.1-8.9-3.6
			c-2.2-3.5-3.7-7.3-5.1-11.1c-2.9-8.1-6.3-15.9-10.2-23.5c-1.6-3.1-3.4-6.1-5-9.2c-1.3-2.4-3.2-3.7-5.8-4.3
			c-5.9-1.2-11.9-2-17.9-2.2c-10.1-0.4-20.2,0.5-30.2,2.4c-8.5,1.6-16.3,4.9-24.1,8.6c-2.6,1.2-3.7,3-4.1,5.8
			c-2.3,14.4-6.1,28.5-10.6,42.3c-0.8,2.6-1.7,5.2-2.9,7.6c-2.6,5.3-6.5,6.9-12,5.1c-2.5-0.8-4.1-2.3-4.4-4.9
			c-0.3-2.9-0.5-5.8-0.3-8.7c0.5-11.3,1.2-22.5,2.9-33.6c0.1-0.6,0.1-1.2,0.2-1.7c0.2-2.7,0-3.1-2.5-3.7c-4.3-1.1-8.7-2.1-13-3.1
			c-4.1-0.9-4.4-0.8-5.8,3.4c-3,8.4-6.2,16.8-9.7,25c-2.6,6.1-5.4,12-8.5,17.9c-1.2,2.2-2.5,4.4-4.3,6.2c-3.4,3.5-7.3,4.3-11.7,2.4
			c-2.5-1-4.2-2.8-4.7-5.5c-0.8-3.8-1.3-7.7-1-11.6c2-29.7,8-58.5,22.3-85c0.6-1,1.1-2.1,1.6-3.1c0.5-1,0.2-1.9-0.6-2.6
			c-2.4-1.9-4.9-3.8-7.4-5.7c-14.4-11.3-26.2-24.8-34.9-40.9c-5.9-10.9-8.3-22.5-8.4-34.7c-0.2-19,5.4-36.3,14.7-52.7
			c2.4-4.2,5.4-8.1,8.5-11.8c1.6-2,3.6-3.5,5.8-4.8c1.9-1.1,4-1.6,6.1-1.6c4.1,0,6.6,2.5,6.3,6.6c-0.1,1.5-0.4,3.1-1,4.5
			c-1,2.5-2.2,5-3.5,7.4c-2.6,4.6-5.2,9.1-7.9,13.6c-7.3,12.4-10.7,25.8-10.3,40.1c0.2,9.7,2.7,18.8,7.6,27.2
			c2.6,4.5,5.6,8.9,9,12.9c7.2,8.6,15,16.8,23.2,24.5c3.2,3,3.2,3.4,6.2-0.2c8.3-9.5,18.1-17,29.3-22.7c8.9-4.5,18.3-7.7,28-9.9
			c13.7-3.1,27.7-4.1,41.7-4.2c0.8,0,1.6,0.1,2.3,0.1c1.7,0,2.9,0.7,3.8,2.2c2.3,3.8,5.2,7.2,8,10.7c7.8,9.9,18.3,14.2,30.5,14.6
			c12.2,0.4,23.9-2.2,35.3-6.4c3.9-1.4,7.2-3.8,10.5-6.2c1-0.7,1.9-0.4,2.5,0.4c0.8,1.1,1.4,2.3,2.1,3.5
			c11.7,20.3,20.6,41.7,26.3,64.5C354.2,360.7,356.3,368.6,357.8,376.6z"/>
		<path class="st24" d="M180.7,318.4c0.3,2.4,0.8,4.9,0.4,7.4c-0.5,3.5-3.4,4.7-6.5,3c-2.3-1.3-3.8-3.4-5-5.5
			c-4.1-7-7.8-14.3-11.1-21.8c-1.5-3.4-2.9-6.8-4.3-10.2c-1.2-2.9-0.9-3.9,1.6-5.2c3.4-1.9,6.9-3.6,10.4-5.3
			c1.9-0.9,2.9-0.5,3.6,1.3c1.1,2.9,2.1,5.9,3,8.8c2.6,7.9,5.5,15.8,7.3,23.9C180.3,315.9,180.5,317.1,180.7,318.4z"/>
		<path class="st24" d="M193.2,281.3c-0.5-2.1-1-4.1-1.5-6.2c-0.3-1.4,0.3-2.4,1.6-2.6c4.6-0.7,9.2-1.4,13.8-2
			c2.5-0.3,3.5,0.7,3.6,3.4c0.5,7.4,0.9,14.7,1.2,22.1c0.3,4.8,1,9.7,0.4,14.5c-0.2,1.7-0.5,3.5-1.2,5.1c-1.5,3.1-4.8,3.6-7.1,1.1
			c-1.5-1.6-2.4-3.5-3.2-5.5c-1.9-4.3-3-8.8-4.1-13.3c-1.3-5.5-2.4-11-3.7-16.5C193.1,281.3,193.2,281.3,193.2,281.3z"/>
		<path class="st24" d="M223.4,287.6c-0.7-5-1.4-10-2-15c-0.3-2.8,0.3-3.6,3-3.8c2.9-0.2,5.8-0.2,8.7-0.2c1.6,0,2.4,0.9,2.4,2.6
			c0,9.9,0.1,19.7,0,29.6c0,2.7-0.3,5.4-1.3,8c-0.5,1.3-1.3,2.4-2.9,2.6c-1.6,0.2-2.6-0.7-3.4-1.8c-1.3-1.8-1.9-3.8-2.3-5.9
			c-0.9-5.3-1.8-10.7-2.7-16C223.2,287.6,223.3,287.6,223.4,287.6z"/>
		<path class="st24" d="M257.4,330.8c0.5,8.7,0.7,17.4,0.1,26.2c-0.1,2.4-0.9,2.9-3.3,3.1c-0.4,0-0.8,0.1-1.2,0
			c-8.6-0.9-9.5,1.4-8.5-9c0.6-5.8,0.9-11.6,1.5-17.4c0.3-2.5,0.9-5,1.5-7.4c0.4-1.5,1.1-2.9,2.3-4c1.5-1.4,3.8-1.3,5.2,0.3
			c0.9,1.1,1.5,2.3,1.7,3.6C257,327.8,257.2,329.3,257.4,330.8z"/>
		<path class="st24" d="M151.3,326.6c0.7,4.3-1.9,6.8-5.8,5.8c-1.9-0.4-3.7-1.1-5.4-2.1c-5.4-3-10.7-6.2-16-9.3
			c-2.1-1.3-2.4-2.4-1.1-4.3c2.7-3.8,5.6-7.4,8.5-11c0.8-1.1,2-1.4,3-0.5c6.2,5.6,11.8,11.7,16,19C151,325,151.1,326,151.3,326.6z"
			/>
		<path class="st24" d="M228.3,341.5c0.4,4.4,0.9,8.8,1.2,13.3c0.2,3-0.5,3.7-3.4,4.3c-1.7,0.3-3.4,0.6-5.2,0.8
			c-2.7,0.3-3.4-0.1-3.7-3.1c-1.3-9.6-1.5-19.3-1.2-28.9c0.1-1.5,0.5-3.1,1-4.5c0.6-1.7,1.9-3,3.9-3c1.7,0,2.9,1,3.6,2.5
			c1,2.1,1.8,4.3,2.1,6.6C227.1,333.5,227.7,337.5,228.3,341.5C228.2,341.6,228.2,341.6,228.3,341.5z"/>
		<path class="st24" d="M186.9,348.6c-0.5-4.4-1.4-8.8-1.2-13.3c0.1-1.5,0.2-3.1,0.7-4.6c0.7-2.3,3.3-2.9,5.1-1.2
			c0.8,0.8,1.6,1.7,2.1,2.7c0.8,1.5,1.5,3.2,2,4.8c2.2,7.8,4.3,15.7,6.4,23.6c0.6,2.2,0.1,3.3-1.9,4.3c-2.1,1-4.3,1.7-6.5,2.4
			c-1.8,0.5-2.9-0.2-3.4-2.1C188.8,359.7,187.5,354.2,186.9,348.6z"/>
		<path class="st24" d="M112.5,337.4c0.5,0.1,1.1,0.2,1.6,0.4c5.6,3,11.1,6.2,16.1,10.3c1.5,1.2,2.8,2.7,3.5,4.6
			c1,3-0.6,5.7-3.8,5.6c-1.7,0-3.5-0.3-5.1-0.8c-5.4-1.6-10.7-3.3-16-5.1c-2.2-0.7-2.6-1.5-2-3.4c1.1-3.3,2.4-6.5,3.6-9.8
			C110.7,338.3,111.4,337.6,112.5,337.4z"/>
		<path class="st24" d="M287.6,332.6c-0.4-1.5-0.4-3.1,0.1-4.6c0.7-2.5,3.3-3.6,5.5-2.3c1,0.6,1.9,1.4,2.6,2.3
			c1.3,1.7,2.5,3.5,3.4,5.4c2.4,4.9,4.6,9.8,6.8,14.8c1.2,2.7,0.7,3.9-1.9,5.1c-1.8,0.8-3.6,1.5-5.4,2.1c-1.6,0.5-2.8,0.1-3.4-1.3
			C292.4,346.9,289.4,339.9,287.6,332.6z"/>
		<path class="st24" d="M307.5,335.9c-0.4-3.3-0.9-6.5-1.3-9.8c-0.2-1.8,0.2-3.5,1.1-5c1.3-2.1,3.8-2.4,5.4-0.5
			c1,1.2,1.9,2.5,2.4,3.9c2.7,6.6,4.3,13.6,6.3,20.5c0.5,1.8-0.2,3.1-1.9,3.7c-2.2,0.7-4.5,1.3-6.7,1.8c-1.3,0.3-2.3-0.3-2.6-1.6
			c-0.6-2-1.1-4.1-1.5-6.2c-0.5-2.3-0.9-4.6-1.3-6.8C307.3,335.9,307.4,335.9,307.5,335.9z"/>
		<path class="st24" d="M112.1,394.8c-4.7,0.2-9.3-0.5-13.8-1.5c-1.1-0.2-1.6-1.2-1.4-2.2c0.3-2.9,0.6-5.8,1-8.6
			c0.3-1.9,1.4-2.6,3.4-2c4.3,1.2,8.3,3.1,12.1,5.5c0.6,0.4,1.2,1,1.7,1.6C117.5,390.6,116,394.2,112.1,394.8z"/>
		<path class="st24" d="M349.7,370.8c-2.3,0.3-4.6,0.6-6.9,0.2c-0.9-0.2-1.9-0.4-2.7-0.8c-2.1-1.1-2.5-3.7-0.9-5.4
			c0.5-0.6,1.1-1.1,1.8-1.5c3.5-2.1,7.4-3.2,11.3-4.3c1.3-0.4,2.3,0.3,2.6,1.6c0.5,2.1,0.9,4.1,1.2,6.2c0.3,1.8-0.6,2.9-2.4,3.4
			c-0.4,0.1-0.8,0.2-1.1,0.2C351.6,370.5,350.7,370.7,349.7,370.8z"/>
		<path class="st24" d="M93.8,418.1c0-1.1,0.1-3,0.2-4.9c0.1-1.3,1.1-2.1,2.4-1.9c4.1,0.5,7.9,1.8,11.3,4.2c0.9,0.6,1.7,1.6,2.2,2.6
			c0.8,1.5,0.2,3.9-1.4,4.5c-4.3,1.7-8.7,1.2-13-0.1C94,421.9,94.1,420.2,93.8,418.1z"/>
		<path class="st24" d="M330.9,349.5c2.6-0.3,4.7-0.6,6.8-0.1c3.3,0.7,4.2,3.7,1.9,6.1c-3.1,3.1-7,4.7-11.2,5.7
			c-1,0.2-1.8-0.3-2.4-1.2c-1.2-1.8-1.9-3.8-2.5-5.9c-0.4-1.6,0.5-3,2.3-3.5C327.5,350.2,329.4,349.8,330.9,349.5z"/>
		<path class="st24" d="M286,368.1c0.2,1.3-0.1,2.4-1.1,3.1c-1.7,1.3-3.5,2.4-5.3,3.6c-0.5,0.3-1,0.6-1.5,0.8
			c-6.7,3.5-7.3,2.7-9.9-4.2c-0.7-1.8-0.2-3,1.7-3.6c2-0.6,4.1-1.1,6.2-1.5c2.3-0.5,4.6-0.8,6.9-0.6
			C284.5,365.9,285.7,366.9,286,368.1z"/>
		<path class="st24" d="M113.3,400.6c4-0.3,7.1,0,10.1,0.8c1.8,0.5,2.5,1.6,1.9,3.5c-3.1,9.5-4.9,8.7-11.7,5
			c-1.2-0.6-2.3-1.5-3.2-2.4c-2.6-2.5-1.7-5.7,1.7-6.6C112.7,400.6,113.4,400.6,113.3,400.6z"/>
		<path class="st24" d="M122.7,374.5c4-0.3,7.1,0.1,10.1,0.6c2.4,0.4,3.2,1.8,2.6,4.2c-0.1,0.4-0.2,0.7-0.4,1.1
			c-2.6,6.5-3.7,5.7-8.6,3.6c-2.3-1-4.6-2.1-6.4-3.9c-2.1-2.1-1.5-4.5,1.2-5.3C122.1,374.6,122.9,374.5,122.7,374.5z"/>
		<path class="st24" d="M302.6,381.5c0.2,2.1-0.6,3.5-2.6,3.8c-3.4,0.6-6.9,0.5-10.3-0.1c-0.4-0.1-0.7-0.3-1.1-0.4
			c-2.2-1-2.7-3.5-1-5.2c0.7-0.7,1.5-1.2,2.3-1.7c1.2-0.7,2.4-1.3,3.6-1.7C301.7,373.6,300.5,372.8,302.6,381.5z"/>
		<path class="st24" d="M167.7,393.8c4.1-0.6,6.9-0.1,9.7,0.3c1.3,0.2,1.9,1.2,1.6,2.6c-1.9,8.3-2,8.6-9.7,6
			c-1.4-0.5-2.8-1.2-4.1-2.1c-1.4-0.9-1.9-2.4-1.5-4c0.3-1.4,1.4-2.2,2.8-2.6C167.3,393.8,168.1,393.7,167.7,393.8z"/>
		<path class="st24" d="M286.4,394.4c2.5-0.2,4.4-0.7,6.4-0.2c1.2,0.3,2.2,0.8,2.6,2.1c0.3,1.2-0.2,2.4-1.1,3.1
			c-2.8,2.4-6.2,3.9-9.8,4.8c-0.4,0.1-0.8,0-1.1-0.1c-1.9-0.5-4.4-5.5-3.7-7.3c0.3-0.8,0.9-1.3,1.7-1.5
			C283.2,395,285.1,394.6,286.4,394.4z"/>
		<path class="st24" d="M162.8,389c-0.6,0-1.2,0.1-1.7,0.1c-5.9,0.2-6.6-0.5-5.8-6.6c0.1-0.6,0.2-1.1,0.3-1.7
			c0.6-2.9,1.1-3.2,3.9-2.3c2,0.6,4,1.4,5.9,2.3c1,0.5,1.9,1.3,2.7,2.1c1.4,1.5,0.9,3.9-0.9,4.9C165.8,388.6,164.3,388.9,162.8,389z
			"/>
		<path class="st24" d="M341.6,382.2c1.5-0.1,3-0.2,4.6-0.2c1.6,0,3.1,0.7,3.8,2.2c0.8,1.6-0.1,3-1.3,4.1c-2.2,2.2-5,3.5-8,4.3
			c-1.3,0.3-2.4-0.2-2.9-1.3c-0.8-1.7-1.5-3.5-2.2-5.3c-0.4-1.1,0.3-2.4,1.5-2.7C338.5,382.8,340.1,382.6,341.6,382.2z"/>
		<path class="st24" d="M158,417.5c-0.1,0-1.1,0.1-2.1,0.1c-3.1-0.1-4-1.3-3.7-4.5c0.1-1.2,0.3-2.3,0.5-3.4c0.4-1.8,1.2-2.3,2.9-1.9
			c2.3,0.6,4.5,1.2,6.4,2.7c1.3,1,2.2,2.3,1.9,4c-0.3,1.8-1.8,2.4-3.3,2.7C160,417.3,159.4,417.3,158,417.5z"/>
		<path class="st24" d="M81.7,187.7c0.6,0.1,1.2,0.1,1.7,0.4c4.6,2.8,9.3,5.5,13.9,8.4c1.5,0.9,1.5,1.8,0.7,3.5
			c-0.3,0.7-0.7,1.4-1.1,2c-2.4,4.2-2.9,4.3-7.2,2.1c-3.6-1.9-7.2-3.8-10.7-5.8c-1.9-1.1-2.3-2.3-1.4-4.4c0.8-1.7,1.8-3.4,2.8-5
			C80.6,188.3,81.2,188.1,81.7,187.7z"/>
		<path class="st24" d="M87.5,227.2c0,1.8,0,3.3-0.1,4.9c-0.1,1.8-1.3,2.9-3,2.8c-4.8-0.2-9.7-0.4-14.5-0.8
			c-2.4-0.2-3.1-1.2-2.9-3.4c0.7-6.4-0.7-8.5,8-7.2c3.2,0.5,6.5,0.6,9.8,1.1C87,224.9,87.4,225.4,87.5,227.2z"/>
		<path class="st24" d="M93.1,299.2c-0.7-0.1-1.4-0.1-1.8-0.4c-0.7-0.4-1.3-0.9-1.8-1.5c-3.8-4.2-3.6-5,0.4-8.4
			c3.1-2.6,6.1-5.4,9.3-8c1.7-1.4,2.9-1.2,4.5,0.5c0.3,0.3,0.5,0.6,0.7,0.9c3.4,4.3,3.4,4.8-0.9,8.4c-2.6,2.3-5.3,4.5-8,6.7
			C94.7,298.3,93.8,298.7,93.1,299.2z"/>
		<path class="st24" d="M107.8,313.6c0.3-0.7,0.3-1.4,0.6-1.8c3.1-3.7,6.2-7.5,9.4-11.1c1-1.2,2.4-1.1,3.7-0.1
			c0.6,0.5,1.2,1,1.7,1.5c4.2,3.8,4.2,4.1,0.5,8.4c-2.3,2.6-4.6,5.2-7,7.8c-1.2,1.3-2.2,1.4-3.6,0.4c-1.4-1-2.8-2.1-4.1-3.2
			C108.4,315,108.1,314.2,107.8,313.6z"/>
		<path class="st24" d="M84.8,253.9c2.9-0.4,3.4-0.1,4.4,2.6c0.3,0.9,0.6,1.8,0.9,2.8c0.5,2.3,0.1,3.3-2.1,4.1
			c-4.4,1.5-8.8,3-13.3,4.3c-2.2,0.7-3.2,0.1-4.1-2.1c-0.5-1.3-0.9-2.6-1.2-3.9c-0.4-1.9,0.1-2.8,2.1-3.5
			C75.9,256.6,80.3,255.3,84.8,253.9z"/>
		<g>
			<path class="st28" d="M290.8,298.2c-12.5,2-22.4,1.6-32-2.4c-3.8-1.6-7.3-3.8-10.2-6.8c-5.1-5.1-9.6-10.7-13.6-16.7
				c-2.3-3.5-3.6-7.4-5-11.2c-1.4-3.7-3-6.8-6.4-9.4c-4.4-3.2-7-8-8-13.5c-1.6-9.1,5.3-17,16.1-15.3c0.6,0.1,1.2,0.2,1.8,0.5
				c3.8,2.2,7.2,1.3,10.9-0.6c8.8-4.4,18.3-7.2,27.9-9.5c11.8-2.9,23.7-4.8,35.9-4.8c2.5,0,4.2-1,5.9-2.7c1.8-1.9,4.1-3.4,6.3-4.9
				c1.2-0.8,2.5-1.4,3.9-1.9c5.4-1.8,10.7-1.7,15,2.4c4.4,4.1,4.5,9.4,3.1,14.9c-0.5,1.8-1.3,3.5-2.1,5.1c-0.8,1.6-0.9,3,0,4.6
				c1.1,2,1.9,4.1,2.9,6.1c2.3,4.8,2.4,9.9,1.5,15.1c-1.4,7.7-3.8,15.2-7.5,22.1c-3.1,5.8-7.6,10.7-12.6,15
				c-6,5.2-12.7,8.9-20.5,10.8C298.9,296.3,293.8,298,290.8,298.2z"/>
			<path class="st24" d="M285.5,210c2.9-0.4,5.7-0.8,8.6-1.1c5.3-0.5,6.2,0.3,6.5,5.5c0.1,2.9,0.1,5.8,0.3,8.6
				c0.6,10.5,1.1,20.9,1.7,31.4c0,0.8,0.1,1.6,0.1,2.5c-0.1,1.8-0.9,3.1-2.7,3.7c-5.6,1.9-11.2,3.9-16.9,5.7
				c-2.7,0.9-4.3,0.1-5.4-2.6c-2.1-5.1-4.1-10.3-6.1-15.5c-3.3-8.4-6.6-16.8-9.9-25.2c-0.6-1.5-1-3.1-1.4-4.7
				c-0.2-1.1,0.2-2,1.3-2.5c1.1-0.5,2.3-1,3.5-1.3C271.8,212.7,278.5,210.8,285.5,210z"/>
			<path d="M302.1,260.6c0.6,3.6-4.3,12.8-7.5,14.1c-0.5,0.2-1.2,0.3-1.8,0.1c-4.7-1.1-8.9-3.2-12.5-6.3c-1.7-1.4-1.5-3.3,0.3-4.7
				c2.2-1.6,4.7-2.6,7.2-3.5c3.5-1.2,7-2.4,10.7-2.5C300.5,257.9,301.9,259,302.1,260.6z"/>
			<path class="st24" d="M229.9,231.5c0.4,0,0.8-0.1,1.2-0.1c5.5,0.2,6.9,2,4.3,6.7c-1,1.8-2,3.6-3.1,5.3c-1,1.5-2.2,1.7-3.6,0.8
				c-1.8-1.1-3-2.8-3.7-4.7C223.4,235.4,225.6,232,229.9,231.5z"/>
			<path class="st24" d="M333,210.4c0.2,1.9,0.2,3.9-0.7,5.8c-0.6,1.3-1.6,1.8-3,1.3c-2.9-1.1-5.6-2.4-8.1-4.2
				c-1.4-1-1.6-2.4-0.6-3.7c1.1-1.5,2.5-2.6,4.2-3.5C328.9,204.1,332.2,205.8,333,210.4z"/>
			<path class="st4" d="M253.9,264.8c-0.4-3.5,1.6-6,5-6.3c3-0.3,5.6,1.9,5.9,4.9c0.3,3.1-2.1,6.1-5.2,6.4
				C256.5,270,254.2,268,253.9,264.8z"/>
			<path d="M258,264.4c-0.3-2.4,1.1-4.1,3.4-4.3c2.1-0.2,3.9,1.3,4.1,3.3c0.2,2.1-1.4,4.2-3.6,4.4C259.8,268,258.2,266.6,258,264.4z
				"/>
			<path d="M293.6,278.5c-0.2-1.2-0.4-2.4-0.5-3.6c0-0.6,0.1-1.2,0.9-1.4c0.7-0.2,1.3,0.2,1.5,0.8c0.5,1.3,0.8,2.7,1.2,4.1
				c0.3,1,0.6,2,1,2.9c0.4,0.9,1.1,1.1,2,0.6c1.8-1.1,2.7-3,4.2-4.4c0.3-0.3,1.1-0.4,1.6-0.3c0.7,0.1,0.9,0.9,0.7,1.5
				c-2.6,7.7-12.8,10.9-19.2,6.1c-0.3-0.2-0.6-0.6-0.7-0.9c-0.1-0.3,0-0.8,0.2-1.1c0.2-0.3,0.7-0.6,1-0.5c1.8,0.4,3.2,1.7,5.2,1.7
				c1.2,0,2-0.6,1.8-1.7c-0.2-1.2-0.4-2.4-0.6-3.6C293.8,278.5,293.7,278.5,293.6,278.5z"/>
			<path class="st4" d="M324,249.1c0.3,2.4-1.6,4.7-4.2,5.1c-2.5,0.4-5-1.4-5.3-3.9c-0.3-2.6,1.5-5.1,3.8-5.5
				C321.1,244.4,323.7,246.4,324,249.1z"/>
			<path d="M318.1,249.9c-0.3-2.4,1.1-4.1,3.4-4.3c2.1-0.2,3.9,1.3,4.1,3.3c0.2,2.1-1.4,4.2-3.6,4.4
				C319.9,253.5,318.3,252.2,318.1,249.9z"/>
		</g>
	</g>
</g>
</svg>
