<?xml version="1.0" encoding="utf-8"?>
<!-- Generator: Adobe Illustrator 25.1.0, SVG Export Plug-In . SVG Version: 6.00 Build 0)  -->
<svg version="1.1" id="Calque_1" xmlns="http://www.w3.org/2000/svg" xmlns:xlink="http://www.w3.org/1999/xlink" x="0px" y="0px"
	 viewBox="0 0 607.6 462.5" style="enable-background:new 0 0 607.6 462.5;" xml:space="preserve">
<style type="text/css">
	.st0{fill:#E5BE9E;}
	.st1{fill:#19935C;}
	.st2{fill:#004C26;}
	.st3{fill:#006836;}
	.st4{fill:#FFFFFF;}
	.st5{fill:#B25E26;}
	.st6{fill:#D3803C;}
	.st7{fill:#662704;}
	.st8{fill:#A0A0A0;}
	.st9{fill:#7C7C7C;}
	.st10{fill:#D8D8D8;}
	.st11{fill:#FFAF2E;}
	.st12{fill:#E27600;}
	.st13{fill:#FF6695;}
	.st14{fill:#FFEB76;}
	.st15{fill:#FFCF48;}
	.st16{fill:#6D6D6D;}
	.st17{fill:#C6C6C6;}
	.st18{fill:#CCCCCC;}
	.st19{fill:#F987B6;}
	.st20{fill:#CE3A6F;}
	.st21{fill:#CECECE;}
	.st22{fill:#565656;}
	.st23{fill:#F77CA9;}
	.st24{fill:#723100;}
	.st25{fill:#E8D09C;}
	.st26{fill:#6B5738;}
	.st27{fill:#69C498;}
	.st28{fill:#FF8B2C;}
	.st29{fill:#B2B2B2;}
	.st30{fill:#848484;}
	.st31{fill:#726359;}
	.st32{fill:#CABAAB;}
	.st33{fill:#E8E2DD;}
	.st34{fill:#D3BD90;}
	.st35{fill:#EAAD8B;}
	.st36{fill:#CEB78A;}
	.st37{fill:#EAE4DC;}
	.st38{fill:#7F7870;}
	.st39{fill:#84AFD3;}
	.st40{fill:#5F94B7;}
	.st41{fill:#D37E02;}
</style>
<g>
	<path class="st0" d="M385.3,238.7L237.7,14.2h66.2l109.6,164.4L524.3,14.2h65.5L442.1,238.7v209.7h-56.8V238.7z"/>
</g>
<g>
	<path class="st32" d="M137.1,282.2c-7.7-0.4-14.3-3.8-20-9.2c-3.2-3-5.7-6.6-8-10.3c-3.2-4.9-5.4-10.3-7.4-15.7
		c-0.4-1.2-0.8-2.4-0.6-3.7c0.4-2,2.5-3,4.2-1.9c1.3,0.9,2.5,2.1,3.5,3.4c2.4,2.7,4.7,5.5,7.1,8.3c2.7,3.2,5.9,5.9,9.2,8.5
		c4.3,3.4,9.1,5.1,14.7,4.7c1.8-0.1,3.6-0.3,5.4-0.3c1.7,0,3,0.8,3.2,2.3c0.5,3.2,0.9,6.5,1.2,9.7c0.1,1-0.7,1.7-1.5,2.1
		C144.7,281.6,141.1,282,137.1,282.2z"/>
	<path class="st32" d="M244,222.5c-0.1,6.7-2.2,12.8-6.1,18.2c-3.8,5.2-8.5,9.4-13.8,13c-3.1,2.1-4.8,2-7-0.8
		c-4.3-5.4-4.5-6,0.3-10.8c7.9-7.8,13.5-17,16.5-27.7c0.6-2.2,1.1-4.6,2.5-6.6c1.1-1.7,3.3-1.8,4.5-0.1c0.5,0.7,0.9,1.6,1.2,2.4
		C243.4,214.2,244.1,218.3,244,222.5z"/>
	<path class="st31" d="M347.7,419.4c0.2-6.2,0.4-12.3,0.5-18.5c0-2.6,0.8-4.6,2.8-6.1c0.9-0.7,1.7-1.4,2.5-2.1
		c1.7-1.5,3.5-1.6,5.5-0.4c3.8,2.1,7.6,4.2,11.4,6.2c1.7,0.9,2.2,2.3,1.9,4.1c-0.4,2.7-0.8,5.4-1.2,8.1c-1.4,9.1-2.9,18.2-4.3,27.3
		c-0.1,0.7-0.2,1.4-0.3,2.1c-0.7,3.1-1.6,3.9-4.8,4c-2.9,0.1-5.8,0-8.7-0.2c-3.9-0.3-4.7-1.1-4.9-5c-0.2-5.4-0.3-10.9-0.4-16.3
		C347.7,421.6,347.8,420.5,347.7,419.4C347.7,419.4,347.7,419.4,347.7,419.4z"/>
	<path class="st31" d="M202.1,402.1c-0.2,1-0.3,2.3-0.7,3.5c-3.6,10.7-7.2,21.3-10.8,31.9c-0.2,0.5-0.4,1-0.6,1.5
		c-0.6,1.5-1.8,2.3-3.4,2.1c-4.2-0.4-8.2-1.6-12.2-2.9c-1.1-0.4-1.8-1.3-1.7-2.5c0-1.1,0.1-2.2,0.4-3.2c2.4-10.8,4.9-21.6,7.2-32.4
		c0.8-3.7,2.3-6.8,5.7-8.8c1.7-1,3.2-2.4,4.8-3.6c1-0.7,2.1-1.4,3.3-1.9c2-0.9,3.7-0.3,4.5,1.7C200.4,392.2,201.3,397,202.1,402.1z"
		/>
	<path class="st31" d="M222.3,432.9c0.7-8.5,1.7-17,2.5-25.4c0.3-2.6,1.1-4.3,3.5-5.7c4.9-2.8,9.9-5.2,15-7.5c0.3-0.2,0.7-0.3,1-0.4
		c2.7-0.9,4.3,0.3,4,3.2c-0.3,3.1-0.9,6.1-1.5,9.1c-2.1,11-4.2,22-6.5,33c-1.4,7-1.9,7.2-9.1,6.6c-1.8-0.2-3.6-0.4-5.4-0.7
		c-2.6-0.5-3.4-1.3-3.6-4C222.1,438.3,222.3,435.6,222.3,432.9z"/>
	<path class="st31" d="M307.6,421c0.1-5.1,0.3-10.2,0.4-15.2c0-2.4,0.7-4.1,3.1-5.2c4.9-2.3,9.7-4.9,14.6-7.3
		c0.6-0.3,1.4-0.5,2.1-0.6c1-0.1,1.9,0.3,2,1.4c0.2,1.4,0.2,2.9,0,4.3c-1.6,12.6-3.2,25.2-4.8,37.8c-0.1,1.1-0.3,2.2-0.6,3.2
		c-0.6,2.7-1.3,3.4-4,3.5c-3.3,0.1-6.5,0.1-9.8-0.1c-1.7-0.1-2.6-1-2.9-2.7c-0.2-1.4-0.3-2.9-0.3-4.3c0-4.9,0-9.8,0-14.7
		C307.4,421,307.5,421,307.6,421z"/>
	<path class="st32" d="M328.1,393c-1.7,2.5-2.9,4.5-4.3,6.4c-1.3,1.8-2.8,3.4-4.8,4.3c-3.6,1.7-7,1.5-10.4-0.6
		c-2.3-1.5-4.1-3.5-5.8-5.7c-0.9-1.1-1.3-2.6-3-3.5c-1,0.9-1.3,2.4-1.9,3.6c-1.3,2.6-2.7,5.1-4.9,7.1c-3.4,3.2-6.9,3.6-10.9,1.1
		c-2.5-1.5-4.6-3.6-6.1-6.1c-0.7-1.2-1.4-2.5-2.1-3.7c-1.5-0.1-1.7,1.2-2.2,2c-1.5,2.3-3.1,4.5-5.2,6.3c-4.9,4.3-9.3,4.2-14-0.2
		c-1.9-1.8-3.4-3.8-4.7-6c-0.5-0.7-1-1.4-1.5-2.1c-2,0.4-2.7,2-3.9,3.1c-2.2,2.1-4.4,4.3-7.1,6c-1.1,0.7-2.2,1.3-3.4,1.8
		c-6.2,2.6-10.8,0.2-12.2-6.4c-0.4-1.8-0.4-3.6-0.6-5.4c-1.2-0.6-1.7,0.2-2.3,0.9c-3.1,3.4-6.4,6.5-10.4,8.7c-1.4,0.8-2.9,1.6-4.5,2
		c-5.2,1.3-9-1.3-9.9-6.6c-0.2-1.4-0.2-2.9-0.2-4.3c0-1.2,0.5-2.5,0-3.7c-1-0.5-1.7,0.2-2.5,0.7c-2,1.3-3.9,2.6-6,3.8
		c-2.7,1.6-5.6,2.7-8.6,3.3c-5.9,1.1-10.9-2.4-11.9-8.4c-0.5-2.7-0.3-5.4,0.3-8.1c0.8-3.6,2-7,3.7-10.2c0.7-1.3,1.7-2.4,1.8-3.9
		c-0.3-0.1-0.6-0.4-0.9-0.4c-4.9-1-6.1-2.6-5.6-7.4c0.6-5.3,2.6-10.2,5.3-14.7c1.5-2.5,3.1-4.8,4.7-7.3c-0.7-1.7-2.2-0.9-3.3-1.4
		c-2.1-0.9-3.2-2.3-3.3-4.6c-0.1-2,0.3-4,1.1-5.8c1.9-4.6,4.4-8.8,7.8-12.4c1.4-1.5,2.8-2.9,4.3-4.2c12.7-11.5,25.3-22.9,38-34.4
		c5.6-5.1,4.7-4.2,10.1-0.9c23.9,14.7,49.3,26.3,76,35.2c14.7,4.9,28.8,11,42.5,18.2c5,2.6,9.8,5.5,14.3,8.9
		c13.7,10.2,21.7,23.7,24.1,40.6c0.5,3.8,0.5,7.6,0,11.4c-0.2,1.4-0.5,2.9-1,4.2c-3.8,11.3-16.9,12.1-23,5.9
		c-1.6-1.7-3.1-3.5-4.6-5.3c-1.8,0.8-2.4,2.6-3.6,4c-1.7,1.9-3.3,3.9-5.5,5.2c-4.1,2.5-7.9,2.2-11.5-1c-1.6-1.5-3-3.2-4.1-5.1
		C329.9,396.4,329.2,395,328.1,393z"/>
	<path class="st25" d="M223,266.1c-0.9,7.5-2.6,14-4.8,20.4c-2,5.9-2.5,12-2.2,18.3c0.2,3.4,0.3,6.9,0.3,10.3c0,4.4-2.2,7.6-6.1,9.5
		c-4.7,2.4-9.8,3.7-15,4.7c-4.2,0.8-7.9-0.5-10.9-3.5c-1.5-1.6-3-3.2-4.2-5c-5.1-7.6-11.5-14-19.2-19c-3.6-2.4-6.9-5.3-9.3-8.7
		c-1.6,0-2.1,1.1-2.7,1.9c-2.2,2.9-4.2,5.9-6.4,8.8c-1.2,1.6-2.6,3-4.5,3.8c-2.4,1-4.9-0.2-5.4-2.8c-0.3-1.4-0.2-2.9,0.2-4.3
		c0.7-3,2.1-5.8,3.9-8.4c2.2-3.2,4.5-6.2,7.2-8.8c1.2-1.1,1.5-2.3,1.2-3.9c-2.3-10.5,1.7-18.8,9.3-25.8c11.1-10.1,24.3-15,39.1-15.8
		c10.4-0.6,18.8,3.7,24.6,12.3c1.9,2.7,4,4.3,7,5.5c2.9,1.1,5.6,2.6,8.2,4.2c2.2,1.3,4.1,3.1,5.4,5.3c1.9,3.3,0,6.4-3.8,6.3
		c-2.6-0.1-5-1-7.2-2.3C226.3,268.3,224.9,267.4,223,266.1z"/>
	<path class="st31" d="M387.4,289.7c-0.3,3.6-1.1,6.6-2.9,9.1c-1.9,2.7-2.4,5.5-2.5,8.7c-0.6,13.3-4.9,25.2-13.5,35.5
		c-1.4,1.7-2.8,2.2-3.5,1.3c-1-1.3-0.3-2.4,0.5-3.4c0.6-0.9,1.3-1.8,1.9-2.6c7.1-9.7,10.1-20.7,10.6-32.6c0.1-1.9-0.4-3.5-1.7-5
		c-2.8-3.3-3.3-7.1-2.6-11.3c0.7-4,2.2-7.7,4.3-11.1c1.2-2,3.1-2.2,4.5-0.5C385.4,281.3,386.8,285.6,387.4,289.7z"/>
	<path class="st31" d="M321.7,373.1c-0.1,0.5-0.2,1.4-0.4,2.3c-1.3,6.2-7.1,8.7-12.4,5.2c-3.1-2-5.4-4.8-6.9-8.2
		c-0.4-1-0.2-1.8,0.7-2.4c0.9-0.6,1.8-0.3,2.4,0.5c0.8,1,1.5,2.1,2.2,3.1c1.2,1.6,2.6,3,4.5,3.8c2.3,1.1,4.4,0.1,5.1-2.3
		c0.4-1.4,0.6-2.9,0.2-4.3c-0.6-2.5-1.2-4.9-2-7.3c-0.4-1.2-0.9-2.4-0.7-3.7c0.1-0.8,0.5-1.3,1.2-1.6c0.8-0.3,1.4,0,1.9,0.5
		c0.3,0.2,0.5,0.5,0.7,0.9C319.9,363.8,321.3,368.1,321.7,373.1z"/>
	<path class="st31" d="M223.8,336.1c-0.3,3.5-0.7,6.8-1.7,9.9c-0.6,1.7-1.4,3.3-2.8,4.6c-2.3,2.2-5.4,2.3-7.9,0.3
		c-0.6-0.5-1.1-1-1.5-1.6c-2.5-3.8-3.6-7.9-3.4-12.4c0.1-0.9,0.8-1.3,1.5-1.4c0.7-0.1,1.5,0.2,1.8,1c0.3,0.7,0.5,1.4,0.6,2.1
		c0.2,1.1,0.3,2.2,0.6,3.2c0.4,1.4,0.9,2.7,1.6,4c0.5,1,1.2,1.9,2.4,1.9c1.3,0,1.9-1,2.4-2c1.3-2.7,1.6-5.6,2-8.4
		c0.2-1.3,0.1-2.5,0.4-3.8c0.2-1,0.9-1.6,1.9-1.6c1,0,1.7,0.6,1.9,1.6C223.7,334.5,223.7,335.4,223.8,336.1z"/>
	<path class="st31" d="M260,344.4c-0.2,4-1,7.3-2.8,10.3c-2.8,4.8-7.9,5.9-12.6,2.9c-3.8-2.5-5.9-6.3-6.9-10.7
		c-0.1-0.3-0.1-0.7,0-1.1c0.1-0.7,0.4-1.4,1.2-1.6c0.8-0.2,1.5,0.1,1.9,0.7c0.6,1.1,1.1,2.3,1.5,3.5c0.8,1.9,1.8,3.5,3.4,4.8
		c3.3,2.8,6.5,2.2,8.3-1.7c0.8-1.8,1.4-3.7,1.5-5.7c0.1-1.1,0.3-2.2,0.6-3.2c0.3-0.9,1.2-1.4,2.1-1.2c0.8,0.1,1.3,0.6,1.5,1.4
		C260,343.5,260,344.2,260,344.4z"/>
	<path class="st31" d="M210.9,375.6c0.4-2.2,0.8-4.3,1.3-6.4c0.2-0.9,1.1-1.6,2.1-1.3c1,0.2,1.5,1.1,1.4,2.1
		c-0.1,2.2-0.5,4.3-0.5,6.5c0,2,0.2,4.2,2.6,4.9c2,0.6,3.5-0.6,4.7-2c1.2-1.3,2.2-2.9,3.2-4.4c0.6-0.9,1-1.9,1.6-2.8
		c0.5-0.8,1.3-1.3,2.3-1c1,0.3,1.7,1.7,1.3,2.6c-1.7,4.3-4,8.2-8,10.7c-4.7,3-9.8,1.1-11.3-4.1C211.3,378.9,211.2,377.3,210.9,375.6
		z"/>
	<path class="st31" d="M265.4,326.1c-4.3-0.3-7.9-2.3-11.1-5.1c-0.3-0.2-0.5-0.6-0.6-0.9c-0.3-0.7-0.2-1.5,0.5-1.9
		c0.4-0.3,1.1-0.6,1.4-0.4c1,0.4,1.9,1,2.8,1.6c1.7,1,3.4,2.1,5.4,2.4c1.7,0.2,3.7,0.8,5-1.1c1.1-1.6,0.3-3.2-0.4-4.6
		c-0.8-1.6-2-3-3-4.5c-0.6-0.9-1.4-1.7-2-2.6c-0.4-0.6-0.4-1.4,0.2-2c0.7-0.8,1.5-0.9,2.4-0.5c0.3,0.1,0.7,0.3,0.9,0.5
		c2.7,2.7,4.9,5.7,6.3,9.4C274.9,320.8,272.2,326.6,265.4,326.1z"/>
	<path class="st31" d="M305,342.1c-0.1,4.5-3.7,7.2-8.4,6.2c-4.2-0.9-7.6-3.2-10.7-6.1c-0.3-0.2-0.5-0.6-0.5-0.9
		c0-0.5,0-1.1,0.2-1.5c0.3-0.4,0.9-0.6,1.4-0.7c1-0.1,1.7,0.5,2.4,1c2,1.5,4.1,3,6.6,3.7c0.8,0.3,1.8,0.4,2.6,0.4c1,0,2-1.3,1.9-2.3
		c-0.1-1.3-0.5-2.5-1.2-3.5c-1.1-1.6-2.3-3.2-3.4-4.9c-0.5-0.7-1-1.5-1.3-2.3c-0.2-0.7,0-1.4,0.7-1.9c0.6-0.5,1.3-0.6,2-0.2
		c0.5,0.3,0.9,0.6,1.3,1c2.1,2.3,3.9,4.8,5.3,7.5C304.6,339,304.9,340.6,305,342.1z"/>
	<path class="st31" d="M365.6,376.4c-0.2,3.2-1.3,5.2-3.9,6.5c-1.7,0.8-3.4,1.2-5.3,0.9c-3.9-0.6-7-2.6-9.6-5.6
		c-0.6-0.7-0.6-1.7,0.2-2.4c0.6-0.5,1.3-0.7,2-0.2c1.4,0.9,2.7,1.9,4,2.8c1.6,1,3.2,1.5,5.1,1.3c2.1-0.3,3.3-1.7,2.8-3.8
		c-0.6-2.5-1.7-4.7-3-6.9c-0.4-0.8-0.7-1.7-0.8-2.5c-0.1-0.7,0.5-1.4,1.2-1.6c0.5-0.1,1,0,1.5,0.1c0.2,0,0.3,0.2,0.4,0.3
		C363.4,368.5,364.9,372.4,365.6,376.4z"/>
	<path class="st31" d="M270.7,386.2c-2.3,0-4.8-1.6-6.6-4.3c-1.6-2.4-2.3-5.3-2.7-8.2c-0.1-1,0.5-1.8,1.4-2c1-0.2,1.8,0.4,2.1,1.3
		c0.4,1,0.6,2.1,1,3.1c0.4,1,0.7,2.1,1.2,3c0.9,1.7,2.3,2.8,4.3,2.8c1.9,0,2.9-1.4,3.6-2.9c0.7-1.6,1.2-3.4,1.7-5.1
		c0.3-0.9,0.4-1.8,0.7-2.6c0.4-1.2,1.5-1.8,2.5-1.5c0.9,0.3,1.6,1.1,1.5,2c-0.5,4.1-1.3,8.2-4.1,11.5
		C275.9,385,274.1,386.2,270.7,386.2z"/>
	<path class="st31" d="M342.9,344.3c0,4.8-2.8,7.6-7.2,7.8c-2.8,0.1-5.4-0.8-7.7-2.4c-0.8-0.6-1.1-1.4-0.6-2.4
		c0.4-0.7,1.1-1,1.8-0.8c0.9,0.2,1.8,0.5,2.6,0.8c1.2,0.5,2.4,0.7,3.7,0.6c2.1-0.1,3.2-1.6,3-3.7c-0.2-1.3-0.7-2.5-1.5-3.5
		c-1.4-1.7-2.9-3.3-4.3-4.9c-0.7-0.8-1.4-1.7-1.9-2.6c-0.3-0.6-0.1-1.4,0.5-2c0.6-0.5,1.4-0.8,2-0.3c4,3,7.4,6.5,9.1,11.3
		C342.9,342.9,342.9,343.9,342.9,344.3z"/>
	<path class="st31" d="M240.2,323c-0.1,3.1-1.1,5.5-3.9,6.9c-2.5,1.2-4.9,0.9-7.2-0.6c-2.1-1.4-4-3.1-5.6-5.1
		c-0.7-0.8-0.7-1.6-0.1-2.5c0.6-0.9,1.8-0.9,2.9,0c0.6,0.4,1.1,0.9,1.6,1.4c0.7,0.6,1.4,1.2,2.1,1.8c1.3,1,2.7,2,4.4,1.2
		c1.4-0.6,1.9-2.3,1.2-4.9c-0.4-1.6-1.1-3.1-1.6-4.6c-0.3-0.8-0.5-1.7-0.5-2.6c0-0.4,0.4-1,0.8-1.3c0.6-0.4,1.4-0.4,2,0.1
		c0.3,0.2,0.6,0.4,0.8,0.7C238.9,316.5,240,319.7,240.2,323z"/>
	<path class="st31" d="M187.3,361.8c-5.8,0-8.9-4.2-7-9.2c1.5-3.8,4.1-6.8,7.9-8.6c0.9-0.4,1.8-0.2,2.4,0.6c0.6,0.8,0.4,1.7-0.4,2.4
		c-0.7,0.6-1.5,1.1-2.1,1.7c-1.5,1.3-2.8,2.8-3.6,4.7c-0.4,1-0.8,2,0,3.1c0.8,1,1.9,1.1,2.9,1c1.1-0.2,2.1-0.5,3.1-0.9
		c0.7-0.2,1.3-0.6,2-0.8c1.2-0.4,2.4,0.2,2.7,1.1c0.4,1,0,1.8-0.8,2.4C192.2,360.9,189.6,361.5,187.3,361.8z"/>
	<path class="st31" d="M209.1,253.4c-0.7,2-1.1,3.8-1.9,5.4c-1.8,3.9-4.8,4.7-8.4,2.5c-1.4-0.8-2.3-2.3-3.9-2.8
		c-1.5,1.1-1.3,2.9-1.8,4.4c-2.3,6.2-6.6,7.4-11.8,3.1c-1.2-1-2.1-2.6-3.7-3.2c-1.6,1.1-1.8,3.1-2.8,4.6c-1.1,1.9-2.2,3.7-4.1,5
		c-2.6,1.8-5.1,1.6-7.5-0.4c-0.4-0.4-0.7-0.8-1.1-1.2c-1.2-1-1.1-3.6-3-3.3c-1.2,0.2-2.1,1.9-3.1,2.9c-1.3,1.3-2.6,2.6-3.9,3.8
		c-1.2,1.1-2.7,1.8-4.3,2.2c-2.6,0.5-4.8-1.1-4.9-3.7c-0.1-1.4,0.1-2.9,0.6-4.3c0.7-2,1.6-4.1,2.6-6c6.1-10.9,14.8-18.7,26.8-22.6
		c9.1-2.9,18.4-4.2,27.9-3.3c5.4,0.5,10.2,2.3,14.8,5c2.1,1.2,3.7,2.9,4.9,5c0.4,0.6,0.8,1.3,1,1.9c0.7,2.2,0.4,4.3-1.2,6.1
		c-1.6,1.9-3.8,2.1-6,1.4C212.6,255.5,211.1,254.4,209.1,253.4z"/>
	<path class="st31" d="M193.8,330.4c-1.5,0.1-4-0.5-6.3-1.4c-6.2-2.5-8.3-9.1-4.8-14.9c1.2-2,2.9-3.8,4.8-5.2
		c4.6-3.3,9.7-5.7,15.4-6.5c2-0.3,4-0.2,6-0.1c7.7,0.4,13.6,9.7,7.8,17.4C211.1,326.8,203.8,330.2,193.8,330.4z"/>
	<path class="st4" d="M174.8,293.6c-0.1,2.3-1.9,4.1-4.1,4.2c-2.3,0.1-4.5-2.1-4.5-4.4c0-2.2,1.9-4.1,4.1-4.1
		C172.8,289.1,174.8,291.1,174.8,293.6z"/>
	<path d="M175.8,292.7c-0.1,1.8-1.5,3.3-3.3,3.3c-1.8,0.1-3.6-1.7-3.6-3.5c0-1.7,1.5-3.3,3.3-3.3
		C174.2,289.2,175.9,290.8,175.8,292.7z"/>
	<path class="st4" d="M207.1,277.7c2.4-0.1,4.4,1.5,4.5,3.7c0.1,2.3-1.9,4.6-4.3,4.8c-2.3,0.3-4.2-1.5-4.3-3.9
		C202.8,279.7,204.5,277.8,207.1,277.7z"/>
	<path d="M212.6,281.4c-0.1,1.8-1.5,3.3-3.3,3.3c-1.8,0.1-3.6-1.7-3.6-3.5c0-1.7,1.5-3.3,3.3-3.3C211,277.9,212.6,279.5,212.6,281.4
		z"/>
</g>
</svg>
