<?xml version="1.0" encoding="utf-8"?>
<!-- Generator: Adobe Illustrator 25.1.0, SVG Export Plug-In . SVG Version: 6.00 Build 0)  -->
<svg version="1.1" id="Calque_1" xmlns="http://www.w3.org/2000/svg" xmlns:xlink="http://www.w3.org/1999/xlink" x="0px" y="0px"
	 viewBox="0 0 607.6 462.5" style="enable-background:new 0 0 607.6 462.5;" xml:space="preserve">
<style type="text/css">
	.st0{fill:#E5BE9E;}
	.st1{fill:#19935C;}
	.st2{fill:#004C26;}
	.st3{fill:#006836;}
	.st4{fill:#FFFFFF;}
	.st5{fill:#B25E26;}
	.st6{fill:#D3803C;}
	.st7{fill:#662704;}
	.st8{fill:#A0A0A0;}
	.st9{fill:#7C7C7C;}
	.st10{fill:#D8D8D8;}
	.st11{fill:#FFAF2E;}
	.st12{fill:#E27600;}
	.st13{fill:#FF6695;}
	.st14{fill:#FFEB76;}
	.st15{fill:#FFCF48;}
	.st16{fill:#6D6D6D;}
	.st17{fill:#C6C6C6;}
	.st18{fill:#CCCCCC;}
	.st19{fill:#F987B6;}
	.st20{fill:#CE3A6F;}
	.st21{fill:#CECECE;}
	.st22{fill:#565656;}
	.st23{fill:#F77CA9;}
	.st24{fill:#723100;}
	.st25{fill:#E8D09C;}
	.st26{fill:#6B5738;}
	.st27{fill:#69C498;}
	.st28{fill:#FF8B2C;}
	.st29{fill:#B2B2B2;}
	.st30{fill:#848484;}
	.st31{fill:#726359;}
	.st32{fill:#CABAAB;}
	.st33{fill:#E8E2DD;}
	.st34{fill:#D3BD90;}
	.st35{fill:#EAAD8B;}
	.st36{fill:#CEB78A;}
	.st37{fill:#EAE4DC;}
	.st38{fill:#7F7870;}
	.st39{fill:#84AFD3;}
	.st40{fill:#5F94B7;}
	.st41{fill:#D37E02;}
</style>
<g>
	<path class="st0" d="M475.3,69.7H270.9V14.2h297.3L345.1,393h242.5v55.5H252.2L475.3,69.7z"/>
</g>
<g>
	<path class="st9" d="M177.3,254.8c0.2,7.7-4.4,14.3-10.2,16c-2.2,0.7-4.1,0-5.2-2c-0.7-1.2-1.2-2.5-1.6-3.8
		c-9-24.9-15.5-50.6-23.5-75.9c-1.3-4-0.5-7.1,2.4-9.9c1.3-1.3,2.8-1.4,4.4-0.6c2.3,1.2,4.2,2.7,5.8,4.7c3.6,4.4,7,9,9.4,14.2
		c1.9,4.2,3.9,8.3,5.4,12.6c4.5,12.5,8.3,25.2,11.9,37.9C176.7,250.7,177,253.4,177.3,254.8z"/>
	<path class="st37" d="M141.3,408.9c0-15.7,0.8-28.9,2.7-42.1c0.5-3.4-0.3-5.5-2.8-7.7c-5.6-4.8-9.6-11-14-16.8
		c-4.1-5.5-3.9-6.2-9.4-0.3c-4.1,4.4-5.9,9.7-5.6,15.7c0.4,7.8,1.5,15.5,3.2,23.1c1.3,5.8,2.7,11.6,4,17.4c0.4,1.8,0.8,3.6,1,5.4
		c0.4,2.9-0.1,3.6-2.7,4.7c-2.5,1-5.1,2-7.6,3c-4.4,1.6-5.3,1.2-7.2-3.4c-3.2-8.1-6.4-16.1-8.8-24.5c-1.7-6.2-3.3-12.4-4.4-18.7
		c-1.8-10.5-1.3-21,1.2-31.3c2.1-8.9,6.6-16.5,13.1-22.9c2.3-2.2,4.6-4.4,7.1-6.4c2.1-1.7,2.5-3.5,2-6c-1.4-6.3-2.6-12.5-3.8-18.8
		c-2.6-14.2-4-28.5-5.3-42.9c-0.1-1.1-0.2-2.3-0.4-3.4c-0.2-1-0.9-1.6-1.9-1.7c-1.4-0.1-2.7,0-4.1,0.1c-5.7,0.5-11.3,0.9-16.9,1.6
		c-4.2,0.5-8.2,0-12.1-0.9c-7.3-1.7-10.1-7.8-7.2-14.8c1.7-4.2,4.9-7.1,8.6-9.5c4.2-2.7,8.6-5.1,13-7.5c4.9-2.6,9.1-6,12.8-10.1
		c1.1-1.2,1.4-2.2,0.3-3.6c-1.8-2.4-2.9-5.2-3.8-8c-0.4-1.3-0.6-2.7-0.7-4c-0.1-2.6,2-4.1,4.6-3.4c3.2,0.9,5.5,3,7.5,5.6
		c1.3,1.7,1.3,4.9,4.1,5c1.9,0,3.9-1.1,5.9-1.7c1.7-0.5,3.5-1.1,5.3-1.4c4.7-0.9,9.1-1.9,12.2-6.2c1.7-2.4,4.7-3.5,7.6-4.3
		c2.5-0.7,4.6,1,4.4,3.6c-0.2,3-1,6-2.9,8.3c-2.7,3.4-2.1,6.4-0.7,10c4.1,10.5,6.4,21.5,9.3,32.3c3.6,13.7,7.4,27.4,12.3,40.7
		c0.6,1.7,1.3,3.4,1.9,5.2c0.7,2.2,2.3,3.2,4.4,3.8c6.6,1.7,13.4,2.4,20.2,2.7c11.6,0.6,23.1-0.5,34.6-1.7
		c17.4-1.8,34.8-3.1,52.3-2.3c5.9,0.3,11.7,1.4,17.4,2.8c10.4,2.5,17.8,8.6,22.3,18.5c7.1,15.9,8,32.2,3.4,48.9
		c-0.9,3-2.1,6.1-3.8,8.7c-2.3,3.7-2.8,7.5-3,11.7c-0.8,19.2-1.8,38.4-2.8,57.6c-0.2,3.4-0.7,6.8-1.3,10.2c-0.5,2.7-1.5,3.7-4,3.8
		c-3.4,0.1-6.8,0-10.2-0.3c-3.1-0.3-4-1.2-4.4-4.3c-0.6-4.5-1.1-9.1-1.5-13.6c-1.1-15.5-2-31.1-3-46.6c-0.2-2.3-0.5-4.5-0.7-6.8
		c-0.2-1.9-1.2-2.7-3-3c-5.4-1-5.9-0.8-6.2,4.8c-0.8,11.6-1.4,23.3-1.9,35c-0.3,8.9-0.9,17.8-2.1,26.7c-1,7.3-1.8,7.9-9,8.2
		c-10.2,0.5-10.1,0.4-11-9.7c-1.5-17.8-3.3-35.5-4.9-53.3c-0.3-2.7-0.4-5.5-0.7-8.2c-0.3-2.9-0.9-3.7-3.6-4.1
		c-10.5-1.8-21.1-3.4-31.8-3.4c-5.2,0-10.4,0.3-15.6,0.4c-2.2,0-3.9,0.9-5.4,2.5c-4.6,4.8-8.3,10.2-11.3,16.2
		c-5.2,10.5-8.5,21.7-11,33.1c-1.9,9-3.5,18-4.2,27.1c-0.1,0.9-0.2,1.8-0.3,2.7c-0.4,2-1.5,3.3-3.6,3.5c-3.2,0.3-6.3,0.7-9.5,0.8
		c-3,0.1-4.1-0.9-4.6-3.8c-0.4-2.7-0.8-5.4-0.9-8.2C141.6,421.1,141.4,413.8,141.3,408.9z"/>
	<path class="st22" d="M258.2,369.8c-3.4,0-6.8,0.2-10.2,0c-4.2-0.3-5.4-1.7-5.6-6.1c0-0.9,0-1.8,0-2.7c0.2-3.3,1.4-4.5,4.6-4.8
		c0.2,0,0.5,0,0.7,0c2.8-0.4,6.4,1.3,8.3-1.2c1.6-2,0.3-5.3,0.3-8c-0.2-9.1-0.6-18.3-1-27.4c-0.6-15.5-0.2-31.1-0.1-46.6
		c0-3.8,1.2-4.8,5-4.7c1.3,0,2.7,0.1,4,0.5c2.1,0.6,3.6,2,3.9,4.3c0.2,1.4,0.3,2.7,0.2,4.1c-0.2,19.2,1.5,38.3,1.9,57.5
		c0.1,5.9,0.2,11.9,0.2,17.8c0,2,0.3,3.6,2.3,4.5c1.1,0.5,1.5,1.6,1.6,2.8c0.5,8.3-1.1,10.1-9.3,10.3c-2.3,0.1-4.5,0-6.8,0
		C258.2,369.9,258.2,369.8,258.2,369.8z"/>
	<path class="st22" d="M304.2,354.3c0.9,0.3,1.3,0.5,1.8,0.5c2,0.2,4.4-0.6,5.5,1.7c1.3,2.5,1.1,5.3,0.4,8c-0.2,0.8-1,1.5-1.8,1.9
		c-0.8,0.4-1.7,0.5-2.6,0.6c-5.9,0.4-11.8,0.7-17.6,0.9c-1.3,0.1-2.7-0.1-4-0.3c-2.4-0.5-3.5-1.8-3.7-4.2c-0.1-1.1,0-2.3,0.1-3.4
		c0.2-2.1,1.4-3.2,3.4-3.8c1.8-0.6,4.6,0.6,5.4-1.7c0.6-1.5-0.2-3.6-0.4-5.4c-0.8-9.8-1.6-19.6-2.4-29.3c-1.1-13.7-2.3-27.3-3.4-41
		c-0.1-1.1-0.2-2.3-0.2-3.4c0-4,1.7-5.5,5.5-4.7c3.8,0.8,6,3.1,6.6,6.9c0.7,5.2,1.3,10.4,1.8,15.6c1.7,16.6,3.4,33.2,5.1,49.7
		C303.8,346.6,303.9,350.3,304.2,354.3z"/>
	<path class="st22" d="M242.1,317.3c-0.2,6.3-0.5,17-0.9,27.7c-0.1,3-0.3,5.9-1.2,8.8c-0.8,2.6-2.4,3.6-5.1,3.4
		c-4-0.3-5.7-1.9-6-5.9c-0.1-0.7-0.1-1.4-0.1-2.1c-0.1-23.5-0.9-47-0.2-70.5c0-0.2,0-0.5,0-0.7c-0.7-7.3,3.1-8.3,10.2-7.1
		c1.4,0.2,2.3,1.4,2.6,2.8c0.3,1.6,0.5,3.2,0.6,4.7C242.1,290.1,242.1,301.5,242.1,317.3z"/>
	<path class="st22" d="M198.9,346.2c0.3-7.8,1.8-15.4,2.8-23.1c1.9-14.7,3.6-29.4,5.4-44.2c0.1-1.1,0.2-2.3,0.4-3.4
		c0.4-2.1,1.6-3.1,3.7-3.4c0.2,0,0.5,0,0.7,0c7.3-0.6,8.9,1.1,8.1,8.4c-1.1,10.2-2.5,20.4-3.6,30.6c-0.9,8.6-1.5,17.3-2.4,25.9
		c-0.4,4.1-0.8,8.2-1.3,12.2c-0.5,3.7-1.5,4.6-5.3,4.9C199,355,198.3,353,198.9,346.2z"/>
	<path class="st22" d="M201.3,276.5c-0.5,1.2-0.9,2.5-1.6,3.6c-3,5.1-6,10.2-9.3,15.1c-12.8,18.8-25.8,37.5-38.8,56.2
		c-1.7,2.4-3.5,4.8-5.5,6.9c-2.1,2.3-4.2,2.4-6.6,0.6c-2-1.4-2.6-3.1-1.4-5.3c1.1-2.2,2.4-4.4,3.8-6.4c6.1-9.1,12.2-18.1,18.4-27.1
		c9.2-13.5,18.4-27.1,27.7-40.6c1.3-1.9,2.6-3.8,4.1-5.5c2.2-2.4,6.3-2.1,8.4,0.4C200.8,275,201,275.7,201.3,276.5z"/>
	<path class="st22" d="M386.3,379.7c0.3,2.3,2.7,3,3.3,5c0.3,0.9,0.3,1.8-0.5,2.5c-0.8,0.6-1.6,0.6-2.5,0.3
		c-2.1-0.7-2.8-3.5-5.6-3.8c0.2,2.2,0.4,4.1,0.5,6.1c0.1,1.3-0.7,2.2-1.9,2.4c-0.9,0.2-1.9-0.4-2.2-1.3c-0.7-1.7-1.1-3.4-1.7-5.2
		c-1.8-0.3-2,1.3-2.7,2.3c-0.7,0.9-1.2,1.9-2,2.8c-0.8,0.9-1.9,1.2-3.1,0.6c-1.1-0.7-1.5-1.8-1-2.9c1-2.3,2.2-4.5,3.3-6.6
		c-1.1-1.4-2.1-0.5-3.1-0.2c-1.5,0.5-3.1,1-4.2-0.8c-0.7-1.1,0.3-2.5,2.4-3.5c1.4-0.7,2.9-1.3,4.3-2c1-0.5,2.1-1,3.1-1.5
		c1.1-0.6,1.5-1.6,1.3-2.9c-0.7-4.1-1.3-8.1-2.1-12.2c-2.5-12.6-5.5-25-9.5-37.2c-2.4-7.2-5.6-14-9.4-20.5
		c-3.3-5.9-7.8-10.6-13.7-14c-5.2-3.1-10.6-3.8-16.3-1.7c-2.8,1-5.4,2.3-8.2,3.4c-1,0.4-2.1,0.8-3.2,0.9c-0.9,0.1-1.8-0.5-2-1.5
		c-0.1-0.6,0.1-1.6,0.5-1.8c5.6-3.6,11.5-6.5,18.2-7.2c5.7-0.6,10.6,1.5,15.4,4.5c6.1,3.9,10.6,9.2,14.2,15.5
		c4.1,7.2,7.5,14.6,10,22.5c4.7,14.8,8.1,30,10.8,45.3c0.2,1.1,0.3,2.3,0.6,3.4c0.3,1.2,1,2,2.3,2.2c2,0.4,4,0.8,6,1.1
		c1.3,0.2,2.7,0.2,4,0.5c1.1,0.3,2,1,2,2.4c0,1.3-0.8,2-2,2.4C389.9,379.5,388,378.6,386.3,379.7z"/>
	<path class="st22" d="M184.5,275.8c-0.3,0.7-0.6,1.9-1.2,2.8c-1.2,1.9-2.5,3.8-3.9,5.6c-14.1,18.4-29.1,36.1-45.9,52.2
		c-1.1,1.1-2.3,2.2-3.5,3.2c-2.1,1.7-4.3,1.4-5.9-0.8c-0.9-1.3-1.6-2.7-2.2-4.2c-0.9-2.1-0.7-4,1-5.7c1.6-1.6,3.1-3.3,4.8-4.8
		c16.3-15.2,31.8-31.1,45.7-48.6c3-3.8,4.9-4.4,8.7-3C183.5,272.9,184.2,273.9,184.5,275.8z"/>
	<path class="st22" d="M169,275.3c-0.3,0.5-0.6,1.4-1.3,1.9c-1.4,1.2-2.9,2.2-4.4,3.2c-13.6,9-27.3,18-40.9,27
		c-0.2,0.1-0.4,0.3-0.6,0.4c-5.4,3.4-7.4,2.7-9.3-3.3c-1.5-4.5-1.1-6.2,2.7-8.8c14.2-9.7,29-18.6,44.3-26.6c2.4-1.3,4.3-0.9,6.1,0.9
		C167.1,271.3,168.8,272.5,169,275.3z"/>
	<path class="st22" d="M159.7,257.3c0,2-0.6,3.2-2,3.9c-1.2,0.6-2.5,1.1-3.8,1.5c-12.3,3.8-24.7,7.5-37.1,11.3
		c-0.7,0.2-1.3,0.4-2,0.6c-5.7,1.2-9.1-2-8.3-8c0.2-1.2,0.8-2.2,1.8-2.8c1.2-0.6,2.5-1.1,3.7-1.6c12.5-4.9,25.2-9,38-12.9
		c6.6-2,6.8-1.6,9,5.2C159.5,255.5,159.6,256.7,159.7,257.3z"/>
	<path class="st22" d="M192.4,303.4c3.4,0,5,1.7,4.4,5.2c-0.8,4.7-2.1,9.4-3.1,14c-2.7,12.3-5.9,24.4-9.4,36.5
		c-0.4,1.5-0.8,3.1-1.5,4.6c-1.6,3.7-6.4,4.2-8.9,1.1c-0.9-1.1-1-2.6-0.7-3.9c0.5-2.9,1-5.9,1.8-8.7c4.1-14.7,8.3-29.4,12.6-44.1
		C188.6,304.2,189.7,303.4,192.4,303.4z"/>
	<path class="st22" d="M108.2,244.9c-2.6-0.1-4-1.4-4.6-3.9c-0.6-2.4,0.1-3.9,2.5-4.9c3-1.2,6-2.2,9-3.1c9.3-2.8,18.7-5.5,28.1-8.1
		c1.5-0.4,3.1-0.8,4.6-0.9c1.2-0.1,2.2,0.6,2.8,1.7c1.1,1.8,1.4,3.8,1.1,5.9c-0.2,1.2-0.8,2.2-1.9,2.6c-1.7,0.7-3.4,1.4-5.1,1.9
		c-11.2,2.8-22.4,5.6-33.6,8.3C109.9,244.7,108.8,244.8,108.2,244.9z"/>
	<path class="st22" d="M148,362.9c0.5,0.1,1.6,0.4,2.7,0.7c7.2,2,14.3,4.1,21.5,6.1c1.1,0.3,2.1,0.7,3.1,1.2
		c0.6,0.3,1.1,0.9,1.4,1.4c1.2,2.7-1.9,7.6-4.9,7.5c-1.3,0-2.7-0.3-4-0.6c-6.4-1.6-12.7-3.2-19-4.8c-0.9-0.2-1.7-0.5-2.6-0.9
		c-3.9-1.6-4.7-4-2.9-8.2C144,363.4,145.3,362.7,148,362.9z"/>
	<path class="st22" d="M120.1,340.2c-0.1,1.9-1.5,3.2-2.8,4.4c-2.2,1.9-3.8,2.1-6,0.1c-6-5.6-11.5-11.6-16.7-17.9
		c-2.3-2.9-0.4-7.6,3.3-8.5c0.8-0.2,1.8,0,2.5,0.5c1.1,0.7,2.1,1.7,3.1,2.6c4.9,5.1,9.7,10.2,14.5,15.3
		C119,337.7,120,338.7,120.1,340.2z"/>
	<path class="st22" d="M297.2,391.9c-2.9,0-5.9,0.1-8.8,0c-3.2-0.2-4.3-1.5-4.6-4.8c-0.1-0.7-0.1-1.4,0-2c0.1-3.3,1.1-4.5,4.4-4.9
		c6.5-0.7,13.1-0.6,19.6-0.3c2.5,0.1,3.6,1.4,3.7,3.9c0.1,1.1,0,2.3-0.1,3.4c-0.4,3.4-1.3,4.4-4.7,4.6
		C303.6,392,300.4,391.8,297.2,391.9C297.2,391.9,297.2,391.9,297.2,391.9z"/>
	<path class="st22" d="M259.3,434.3c-2.5,0-5,0.2-7.4-0.1c-2.7-0.3-3.9-1.7-4-4.6c-0.1-1.8,0-3.6,0.2-5.5c0.3-2.7,1.2-3.8,3.6-4.2
		c5.6-0.9,11.3-0.6,16.9,0.1c1.5,0.2,2.3,1.4,2.5,2.9c0.4,2.8-0.2,5.4-1,8.1c-0.6,1.9-1.9,3.1-3.9,3.2c-2.3,0.2-4.5,0.2-6.8,0.3
		C259.3,434.4,259.3,434.3,259.3,434.3z"/>
	<path class="st22" d="M258.5,394.3c-2.4-0.2-6.2-0.5-10-1c-2.5-0.3-3.5-1.5-3.6-4.1c-0.1-1.3,0.1-2.7,0.3-4.1
		c0.3-1.5,1.3-2.3,2.7-2.7c0.6-0.2,1.3-0.3,2-0.2c6.3,0.3,12.6,0.5,18.9,0.9c3.1,0.2,3.9,1.4,3.9,4.4c0,1.1-0.1,2.3-0.3,3.4
		c-0.4,2-1.7,3.3-3.7,3.4C265.8,394.4,262.9,394.3,258.5,394.3z"/>
	<path class="st22" d="M298.2,419.5c1.8,0.1,4.5,0.1,7.2,0.3c1.9,0.2,3,1.3,2.9,3.1c-0.1,2.3-0.2,4.6-0.7,6.8
		c-0.5,2.5-2.1,4.1-4.7,4.2c-3.9,0.1-7.7,0.2-11.6-0.1c-3.5-0.3-4.9-1.9-5.1-5.2c-0.1-1.8-0.1-3.7,0-5.5c0.2-2,1.4-3.4,3.5-3.6
		C292.3,419.4,294.8,419.5,298.2,419.5z"/>
	<path class="st22" d="M146.5,384.8c6.5,1.1,13.5,2.8,20.5,4.9c1.7,0.5,2.6,1.8,2.4,3.6c-0.1,1.1-0.3,2.3-0.7,3.3
		c-0.7,1.9-2.4,3.1-4.2,2.7c-6.9-1.4-13.7-2.7-20.5-4.5c-3.8-1-4.9-5.7-2.4-8.8C142.7,384.6,144.3,384.7,146.5,384.8z"/>
	<path class="st22" d="M152.5,427.4c2,0,4.1-0.1,6.1,0c2.6,0.2,3.6,1.2,3.6,4c0.1,9.8-0.8,10.4-9.7,9.9c-2.3-0.1-4.5-0.2-6.7-0.5
		c-2.5-0.3-3.6-1.6-3.9-4c-0.1-0.7-0.1-1.4-0.1-2c-0.3-7,0.4-7.8,7.5-7.7c1.1,0,2.3,0,3.4,0C152.5,427.2,152.5,427.3,152.5,427.4z"
		/>
	<path class="st22" d="M259.3,402.9c2.9,0,5.9-0.1,8.8,0c2.7,0.2,4.1,1.7,4.2,4.4c0.2,3.5-1.2,6-4,6.1c-6.1,0.3-12.2,0.2-18.2,0.1
		c-2.1,0-3.3-1.5-3.4-3.5c-0.1-1.1,0-2.3,0.1-3.4c0.3-2.6,1.3-3.7,3.8-3.9c2.9-0.1,5.9,0,8.8,0C259.3,402.7,259.3,402.8,259.3,402.9
		z"/>
	<path class="st22" d="M299.1,401.3c2.7,0,5.4-0.1,8.1,0c2,0.1,3.3,1.5,3.4,3.5c0.2,5.1-1.7,6.9-5.4,7c-5,0.2-9.9,0.2-14.9,0.3
		c-1.9,0-3.6-0.6-4.3-2.6c-0.7-2.2-1-4.5,0.6-6.5c0.7-0.9,1.8-1.4,3-1.4c3.2,0,6.3,0,9.5,0C299.1,401.5,299.1,401.4,299.1,401.3z"/>
	<path class="st22" d="M91.1,343.4c0.4,0,1.1,0,1.7,0.2c6.2,2.2,12.4,4.3,18.5,6.7c2.8,1.1,3.3,3.4,2,6.2c-0.8,1.7-2.1,2.3-3.8,2.2
		c-0.4,0-0.9-0.1-1.3-0.2c-6-2.1-12-4.2-17.9-6.5c-3-1.2-3.7-3.8-2.2-6.7C88.7,344.1,89.6,343.5,91.1,343.4z"/>
	<path class="st22" d="M120.5,214.5c0.3-0.4,0.7-1.3,1.3-1.9c0.4-0.5,1.1-0.8,1.8-1c6-1.9,12.1-3.8,18.2-5.5c2.8-0.8,4,0,4.9,2.2
		c1.1,2.9,0.4,5.1-2.5,6.1c-6,2-12.1,3.7-18.2,5.2C123.1,220.4,120.4,217.8,120.5,214.5z"/>
	<path class="st22" d="M156.8,416.9c-4-0.6-8.1-1.1-12.1-1.8c-3.8-0.7-4.9-2.6-4.2-6.3c0.4-2,1.7-3.3,3.8-3.1
		c6.3,0.7,12.6,1.2,18.8,2.8c1.2,0.3,1.8,1.3,1.9,2.5c0.4,4-1.5,6-5.5,5.9c-0.9,0-1.8-0.1-2.7-0.2
		C156.8,416.8,156.8,416.8,156.8,416.9z"/>
	<path class="st22" d="M119.2,398.5c0.4,0.1,0.8,0.2,1.2,0.5c2.7,1.8,2.9,7.5,0.2,8.9c-4.2,2.2-8.7,3.9-13.4,4.8
		c-1.1,0.2-2.4-0.2-3-1.3c-0.8-1.4-1.5-2.8-1.9-4.3c-0.4-1.4,0.1-2.8,1.5-3.5c4.7-2.3,9.7-3.8,14.7-5.1
		C118.7,398.5,118.9,398.5,119.2,398.5z"/>
	<path class="st22" d="M102.8,374c-3.6,0-6.6,0.1-9.5,0c-2.1-0.1-3.2-1.6-3.3-3.6c-0.2-2.1,0.8-3.4,2.9-3.9c1.3-0.3,2.7-0.5,4-0.6
		c5-0.2,10-0.3,14.9-0.3c2.2,0,3.6,1.8,3.6,4.1c0,1.9-1.2,3.6-3.2,3.8C108.9,373.8,105.5,373.9,102.8,374z"/>
	<path class="st22" d="M99.8,393.2c-3.2,0.1-4.6-1-5.1-3.4c-0.5-2.2,0.5-4,2.9-4.6c5.3-1.3,10.6-2.5,15.9-3.6c2.2-0.4,3.5,0.6,4,2.7
		c0.6,2.6,0.1,4.3-2,5.1C110.2,391.4,104.6,392.1,99.8,393.2z"/>
	<path class="st4" d="M115.1,194.5c1.8,0.1,3.4,1.7,3.5,3.5c0.1,2.2-1.5,4-3.6,4c-2.1,0-3.6-1.8-3.3-4.1
		C111.8,195.9,113.4,194.4,115.1,194.5z"/>
	<path class="st22" d="M70,213c1.3,0,2.2,0.5,2.3,1.8c0.1,1.3-0.6,2.1-1.8,2.2c-1.3,0.2-2.1-0.6-2.2-1.8C68.1,214,68.7,213.2,70,213
		z"/>
	<path class="st22" d="M73.9,227.6c-1-0.2-1.8-1.4-1.4-2.5c0.3-0.9,1.1-1.2,2-1.1c1,0.2,1.5,0.8,1.6,1.7
		C76.2,226.8,74.9,227.7,73.9,227.6z"/>
	<path class="st22" d="M105.1,179.4c0-3.1,1.5-5.1,4.4-6.1c4.3-1.5,8.8-1.9,13.3-2.1c0.9,0,1.8,0.3,2.6,0.6c1.4,0.6,1.9,1.9,2.1,3.3
		c0.2,1.6-0.9,2.6-2.3,3c-5.6,1.6-11.3,3.1-17,4.6C106.3,183.2,105,181.8,105.1,179.4z"/>
	<path d="M113.1,201.7c-1.7,0.2-3.5-1.5-3.5-3.3c0-1.5,1.4-3,2.9-3.1c1.6-0.1,3.1,1,3.3,2.6C116.2,199.8,114.9,201.5,113.1,201.7z"
		/>
</g>
</svg>
